<?xml version="1.0" encoding="UTF-8" standalone="no"?>
<!DOCTYPE svg PUBLIC "-//W3C//DTD SVG 1.1//EN"
 "http://www.w3.org/Graphics/SVG/1.1/DTD/svg11.dtd">
<!-- Generated by graphviz version 2.40.1 (20161225.0304)
 -->
<!-- Title: Salesforce+ ERD Pages: 1 -->
<svg width="917pt" height="231pt"
 viewBox="0.00 0.00 916.61 231.00" xmlns="http://www.w3.org/2000/svg" xmlns:xlink="http://www.w3.org/1999/xlink">
<g id="graph0" class="graph" transform="scale(1 1) rotate(0) translate(4 227)">
<title>Salesforce+ ERD</title>
<polygon fill="#efeffd" stroke="transparent" points="-4,4 -4,-227 912.6123,-227 912.6123,4 -4,4"/>
<text text-anchor="middle" x="860.1057" y="-5.8" font-family="Courier,monospace" font-size="9.00" fill="#000000">Salesforce ERD </text>
<!-- EventLogFile -->
<g id="node1" class="node">
<title>EventLogFile</title>
<g id="a_node1"><a xlink:href="#" xlink:title=" EventLogFile ">
<polygon fill="#ffeeff" stroke="transparent" points="163.6123,-17 163.6123,-223 908.6123,-223 908.6123,-17 163.6123,-17"/>
<polygon fill="#add8e6" stroke="transparent" points="165.1123,-205 165.1123,-222 908.1123,-222 908.1123,-205 165.1123,-205"/>
<polygon fill="none" stroke="#99ccff" points="165.1123,-205 165.1123,-222 908.1123,-222 908.1123,-205 165.1123,-205"/>
<text text-anchor="start" x="497.0059" y="-211.2" font-family="Courier,monospace" font-weight="bold" font-size="11.00" fill="#000000">EventLogFile</text>
<polygon fill="#99ccff" stroke="transparent" points="165.1123,-188 165.1123,-205 817.1123,-205 817.1123,-188 165.1123,-188"/>
<polygon fill="none" stroke="#99ccff" points="165.1123,-188 165.1123,-205 817.1123,-205 817.1123,-188 165.1123,-188"/>
<text text-anchor="start" x="168.1123" y="-194.2" font-family="Courier,monospace" font-size="11.00" fill="#000000"> &#160;&#160;&#160;&#160;&#160;&#160;&#160;&#160;&#160;&#160;&#160;&#160;&#160;&#160;&#160;&#160;&#160;&#160;&#160;&#160;&#160;&#160;&#160;&#160;&#160;&#160;&#160;&#160;&#160;&#160;&#160;&#160;&#160;&#160;&#160;&#160;&#160;&#160;&#160;&#160;&#160;&#160;</text>
<text text-anchor="start" x="451.9585" y="-194.2" font-family="Courier,monospace" font-weight="bold" font-size="11.00" fill="#000000">Id</text>
<text text-anchor="start" x="465.1606" y="-194.2" font-family="Courier,monospace" font-size="11.00" fill="#000000"> &#160;&#160;&#160;&#160;&#160;&#160;&#160;&#160;&#160;&#160;&#160;&#160;&#160;&#160;&#160;&#160;&#160;&#160;&#160;&#160;&#160;&#160;&#160;&#160;&#160;&#160;&#160;&#160;&#160;&#160;&#160;&#160;&#160;&#160;&#160;&#160;&#160;&#160;&#160;</text>
<polygon fill="none" stroke="#99ccff" points="817.1123,-188 817.1123,-205 908.1123,-205 908.1123,-188 817.1123,-188"/>
<text text-anchor="start" x="842.8091" y="-193.2" font-family="Courier,monospace" font-size="11.00" fill="#000000">id(18)</text>
<polygon fill="none" stroke="#99ccff" points="165.1123,-171 165.1123,-188 817.1123,-188 817.1123,-171 165.1123,-171"/>
<text text-anchor="start" x="168.1123" y="-176.2" font-family="Courier,monospace" font-size="11.00" fill="#000000"> &#160;&#160;&#160;&#160;&#160;&#160;&#160;&#160;&#160;&#160;&#160;&#160;&#160;&#160;&#160;&#160;&#160;&#160;&#160;&#160;&#160;&#160;&#160;&#160;&#160;&#160;&#160;&#160;&#160;&#160;&#160;&#160;&#160;&#160;&#160;&#160;&#160;&#160;&#160;&#160;IsDeleted &#160;&#160;&#160;&#160;&#160;&#160;&#160;&#160;&#160;&#160;&#160;&#160;&#160;&#160;&#160;&#160;&#160;&#160;&#160;&#160;&#160;&#160;&#160;&#160;&#160;&#160;&#160;&#160;&#160;&#160;&#160;&#160;&#160;&#160;&#160;&#160;&#160;&#160;</text>
<polygon fill="none" stroke="#99ccff" points="817.1123,-171 817.1123,-188 908.1123,-188 908.1123,-171 817.1123,-171"/>
<text text-anchor="start" x="839.5085" y="-176.2" font-family="Courier,monospace" font-size="11.00" fill="#000000">boolean</text>
<polygon fill="none" stroke="#99ccff" points="165.1123,-154 165.1123,-171 817.1123,-171 817.1123,-154 165.1123,-154"/>
<text text-anchor="start" x="168.1123" y="-159.2" font-family="Courier,monospace" font-size="11.00" fill="#000000"> &#160;&#160;&#160;&#160;&#160;&#160;&#160;&#160;&#160;&#160;&#160;&#160;&#160;&#160;&#160;&#160;&#160;&#160;&#160;&#160;&#160;&#160;&#160;&#160;&#160;&#160;&#160;&#160;&#160;&#160;&#160;&#160;&#160;&#160;&#160;&#160;&#160;&#160;&#160;&#160;LastModifiedById &#160;&#160;&#160;&#160;&#160;&#160;&#160;&#160;&#160;&#160;&#160;&#160;&#160;&#160;&#160;&#160;&#160;&#160;&#160;&#160;&#160;&#160;&#160;&#160;&#160;&#160;&#160;&#160;&#160;&#160;&#160;&#160;&#160;&#160;&#160;&#160;&#160;&#160;</text>
<polygon fill="none" stroke="#99ccff" points="817.1123,-154 817.1123,-171 908.1123,-171 908.1123,-154 817.1123,-154"/>
<text text-anchor="start" x="819.7053" y="-159.2" font-family="Courier,monospace" font-size="11.00" fill="#000000">reference(18)</text>
<polygon fill="none" stroke="#99ccff" points="165.1123,-137 165.1123,-154 817.1123,-154 817.1123,-137 165.1123,-137"/>
<text text-anchor="start" x="168.1123" y="-142.2" font-family="Courier,monospace" font-size="11.00" fill="#000000"> &#160;&#160;&#160;&#160;&#160;&#160;&#160;&#160;&#160;&#160;&#160;&#160;&#160;&#160;&#160;&#160;&#160;&#160;&#160;&#160;&#160;&#160;&#160;&#160;&#160;&#160;&#160;&#160;&#160;&#160;&#160;&#160;&#160;&#160;&#160;&#160;&#160;&#160;&#160;&#160;EventType &#160;&#160;&#160;&#160;&#160;&#160;&#160;&#160;&#160;&#160;&#160;&#160;&#160;&#160;&#160;&#160;&#160;&#160;&#160;&#160;&#160;&#160;&#160;&#160;&#160;&#160;&#160;&#160;&#160;&#160;&#160;&#160;&#160;&#160;&#160;&#160;&#160;&#160;</text>
<polygon fill="none" stroke="#99ccff" points="817.1123,-137 817.1123,-154 908.1123,-154 908.1123,-137 817.1123,-137"/>
<text text-anchor="start" x="819.7053" y="-142.2" font-family="Courier,monospace" font-size="11.00" fill="#000000">picklist(255)</text>
<polygon fill="none" stroke="#99ccff" points="165.1123,-120 165.1123,-137 817.1123,-137 817.1123,-120 165.1123,-120"/>
<text text-anchor="start" x="168.1123" y="-125.2" font-family="Courier,monospace" font-size="11.00" fill="#000000"> &#160;&#160;&#160;&#160;&#160;&#160;&#160;&#160;&#160;&#160;&#160;&#160;&#160;&#160;&#160;&#160;&#160;&#160;&#160;&#160;&#160;&#160;&#160;&#160;&#160;&#160;&#160;&#160;&#160;&#160;&#160;&#160;&#160;&#160;&#160;&#160;&#160;&#160;&#160;&#160;LogDate &#160;&#160;&#160;&#160;&#160;&#160;&#160;&#160;&#160;&#160;&#160;&#160;&#160;&#160;&#160;&#160;&#160;&#160;&#160;&#160;&#160;&#160;&#160;&#160;&#160;&#160;&#160;&#160;&#160;&#160;&#160;&#160;&#160;&#160;&#160;&#160;&#160;&#160;</text>
<polygon fill="none" stroke="#99ccff" points="817.1123,-120 817.1123,-137 908.1123,-137 908.1123,-120 817.1123,-120"/>
<text text-anchor="start" x="836.208" y="-125.2" font-family="Courier,monospace" font-size="11.00" fill="#000000">datetime</text>
<polygon fill="none" stroke="#99ccff" points="165.1123,-103 165.1123,-120 817.1123,-120 817.1123,-103 165.1123,-103"/>
<text text-anchor="start" x="168.1123" y="-108.2" font-family="Courier,monospace" font-size="11.00" fill="#000000"> &#160;&#160;&#160;&#160;&#160;&#160;&#160;&#160;&#160;&#160;&#160;&#160;&#160;&#160;&#160;&#160;&#160;&#160;&#160;&#160;&#160;&#160;&#160;&#160;&#160;&#160;&#160;&#160;&#160;&#160;&#160;&#160;&#160;&#160;&#160;&#160;&#160;&#160;&#160;&#160;LogFileLength &#160;&#160;&#160;&#160;&#160;&#160;&#160;&#160;&#160;&#160;&#160;&#160;&#160;&#160;&#160;&#160;&#160;&#160;&#160;&#160;&#160;&#160;&#160;&#160;&#160;&#160;&#160;&#160;&#160;&#160;&#160;&#160;&#160;&#160;&#160;&#160;&#160;&#160;</text>
<polygon fill="none" stroke="#99ccff" points="817.1123,-103 817.1123,-120 908.1123,-120 908.1123,-103 817.1123,-103"/>
<text text-anchor="start" x="842.8091" y="-108.2" font-family="Courier,monospace" font-size="11.00" fill="#000000">double</text>
<polygon fill="none" stroke="#99ccff" points="165.1123,-86 165.1123,-103 817.1123,-103 817.1123,-86 165.1123,-86"/>
<text text-anchor="start" x="167.6597" y="-91.2" font-family="Courier,monospace" font-size="11.00" fill="#000000"> &#160;&#160;&#160;&#160;&#160;&#160;&#160;&#160;&#160;&#160;&#160;&#160;&#160;&#160;&#160;&#160;&#160;&#160;&#160;&#160;&#160;&#160;&#160;&#160;&#160;&#160;&#160;&#160;&#160;&#160;&#160;&#160;&#160;&#160;&#160;&#160;&#160;&#160;&#160;&#160;LogFileContentType &#160;&#160;&#160;&#160;&#160;&#160;&#160;&#160;&#160;&#160;&#160;&#160;&#160;&#160;&#160;&#160;&#160;&#160;&#160;&#160;&#160;&#160;&#160;&#160;&#160;&#160;&#160;&#160;&#160;&#160;&#160;&#160;&#160;&#160;&#160;&#160;&#160;&#160;</text>
<polygon fill="none" stroke="#99ccff" points="817.1123,-86 817.1123,-103 908.1123,-103 908.1123,-86 817.1123,-86"/>
<text text-anchor="start" x="826.3064" y="-91.2" font-family="Courier,monospace" font-size="11.00" fill="#000000">string(255)</text>
<polygon fill="none" stroke="#99ccff" points="165.1123,-69 165.1123,-86 817.1123,-86 817.1123,-69 165.1123,-69"/>
<text text-anchor="start" x="168.1123" y="-74.2" font-family="Courier,monospace" font-size="11.00" fill="#000000"> &#160;&#160;&#160;&#160;&#160;&#160;&#160;&#160;&#160;&#160;&#160;&#160;&#160;&#160;&#160;&#160;&#160;&#160;&#160;&#160;&#160;&#160;&#160;&#160;&#160;&#160;&#160;&#160;&#160;&#160;&#160;&#160;&#160;&#160;&#160;&#160;&#160;&#160;&#160;&#160;ApiVersion &#160;&#160;&#160;&#160;&#160;&#160;&#160;&#160;&#160;&#160;&#160;&#160;&#160;&#160;&#160;&#160;&#160;&#160;&#160;&#160;&#160;&#160;&#160;&#160;&#160;&#160;&#160;&#160;&#160;&#160;&#160;&#160;&#160;&#160;&#160;&#160;&#160;&#160;</text>
<polygon fill="none" stroke="#99ccff" points="817.1123,-69 817.1123,-86 908.1123,-86 908.1123,-69 817.1123,-69"/>
<text text-anchor="start" x="842.8091" y="-74.2" font-family="Courier,monospace" font-size="11.00" fill="#000000">double</text>
<polygon fill="none" stroke="#99ccff" points="165.1123,-52 165.1123,-69 817.1123,-69 817.1123,-52 165.1123,-52"/>
<text text-anchor="start" x="168.1123" y="-57.2" font-family="Courier,monospace" font-size="11.00" fill="#000000"> &#160;&#160;&#160;&#160;&#160;&#160;&#160;&#160;&#160;&#160;&#160;&#160;&#160;&#160;&#160;&#160;&#160;&#160;&#160;&#160;&#160;&#160;&#160;&#160;&#160;&#160;&#160;&#160;&#160;&#160;&#160;&#160;&#160;&#160;&#160;&#160;&#160;&#160;&#160;&#160;LogFileFieldNames &#160;&#160;&#160;&#160;&#160;&#160;&#160;&#160;&#160;&#160;&#160;&#160;&#160;&#160;&#160;&#160;&#160;&#160;&#160;&#160;&#160;&#160;&#160;&#160;&#160;&#160;&#160;&#160;&#160;&#160;&#160;&#160;&#160;&#160;&#160;&#160;&#160;&#160;</text>
<polygon fill="none" stroke="#99ccff" points="817.1123,-52 817.1123,-69 908.1123,-69 908.1123,-52 817.1123,-52"/>
<text text-anchor="start" x="823.0059" y="-57.2" font-family="Courier,monospace" font-size="11.00" fill="#000000">string(1333)</text>
<polygon fill="none" stroke="#99ccff" points="165.1123,-35 165.1123,-52 817.1123,-52 817.1123,-35 165.1123,-35"/>
<text text-anchor="start" x="168.1123" y="-40.2" font-family="Courier,monospace" font-size="11.00" fill="#000000"> &#160;&#160;&#160;&#160;&#160;&#160;&#160;&#160;&#160;&#160;&#160;&#160;&#160;&#160;&#160;&#160;&#160;&#160;&#160;&#160;&#160;&#160;&#160;&#160;&#160;&#160;&#160;&#160;&#160;&#160;&#160;&#160;&#160;&#160;&#160;&#160;&#160;&#160;&#160;&#160;LogFileFieldTypes &#160;&#160;&#160;&#160;&#160;&#160;&#160;&#160;&#160;&#160;&#160;&#160;&#160;&#160;&#160;&#160;&#160;&#160;&#160;&#160;&#160;&#160;&#160;&#160;&#160;&#160;&#160;&#160;&#160;&#160;&#160;&#160;&#160;&#160;&#160;&#160;&#160;&#160;</text>
<polygon fill="none" stroke="#99ccff" points="817.1123,-35 817.1123,-52 908.1123,-52 908.1123,-35 817.1123,-35"/>
<text text-anchor="start" x="823.0059" y="-40.2" font-family="Courier,monospace" font-size="11.00" fill="#000000">string(1333)</text>
<polygon fill="none" stroke="#99ccff" points="165.1123,-18 165.1123,-35 817.1123,-35 817.1123,-18 165.1123,-18"/>
<text text-anchor="start" x="168.1123" y="-23.2" font-family="Courier,monospace" font-size="11.00" fill="#000000"> &#160;&#160;&#160;&#160;&#160;&#160;&#160;&#160;&#160;&#160;&#160;&#160;&#160;&#160;&#160;&#160;&#160;&#160;&#160;&#160;&#160;&#160;&#160;&#160;&#160;&#160;&#160;&#160;&#160;&#160;&#160;&#160;&#160;&#160;&#160;&#160;&#160;&#160;&#160;&#160;LogFile &#160;&#160;&#160;&#160;&#160;&#160;&#160;&#160;&#160;&#160;&#160;&#160;&#160;&#160;&#160;&#160;&#160;&#160;&#160;&#160;&#160;&#160;&#160;&#160;&#160;&#160;&#160;&#160;&#160;&#160;&#160;&#160;&#160;&#160;&#160;&#160;&#160;&#160;</text>
<polygon fill="none" stroke="#99ccff" points="817.1123,-18 817.1123,-35 908.1123,-35 908.1123,-18 817.1123,-18"/>
<text text-anchor="start" x="842.8091" y="-23.2" font-family="Courier,monospace" font-size="11.00" fill="#000000">base64</text>
<polygon fill="none" stroke="#99ccff" points="163.6123,-17 163.6123,-223 908.6123,-223 908.6123,-17 163.6123,-17"/>
</a>
</g>
</g>
<!-- User -->
<g id="node2" class="node">
<title>User</title>
<text text-anchor="middle" x="27" y="-159.7" font-family="Courier,monospace" font-size="11.00" fill="#000000">User</text>
</g>
<!-- EventLogFile&#45;&gt;User -->
<g id="edge1" class="edge">
<title>EventLogFile:w&#45;&gt;User:e</title>
<path fill="none" stroke="#ff99cc" d="M150.4422,-163C115.7591,-163 78.6293,-163 54.2537,-163"/>
<polygon fill="#ff99cc" stroke="#ff99cc" points="157.1123,-163.0001 165.1123,-166.6 161.1123,-163 165.1123,-163 165.1123,-163 165.1123,-163 161.1123,-163 165.1123,-159.4 157.1123,-163.0001 157.1123,-163.0001"/>
<ellipse fill="none" stroke="#ff99cc" cx="153.9123" cy="-163.0001" rx="3.2" ry="3.2"/>
<text text-anchor="middle" x="108.8062" y="-167.8015" font-family="Monaco" font-size="9.00" fill="#000000">LastModifiedBy</text>
</g>
</g>
</svg>
