<!--?xml version="1.0" encoding="UTF-8" standalone="no"?-->

<!-- Generated by graphviz version 2.38.0 (20140413.2041)
 -->
<!-- Title: Salesforce+ ERD Pages: 1 -->
<svg width="546pt" height="341pt" viewBox="0.00 0.00 546.00 341.30" xmlns="http://www.w3.org/2000/svg" xmlns:xlink="http://www.w3.org/1999/xlink">
<g id="graph0" class="graph" transform="scale(1 1) rotate(0) translate(4 337.3)">
<title>Salesforce+ ERD</title>
<polygon fill="#efeffd" stroke="none" points="-4,4 -4,-337.3 542.001,-337.3 542.001,4 -4,4"></polygon>
<text text-anchor="middle" x="88.6427" y="-6.7" font-family="Arial" font-size="9.00"> Salesforce+ ERD version 0.12: Sample </text>
<!-- contact -->
<g id="node1" class="node"><title>contact</title>
<g id="a_node1"><a xlink:href="#" xlink:title="contact">
<polygon fill="#ffeeff" stroke="none" points="415.001,-147.3 415.001,-301.3 530.001,-301.3 530.001,-147.3 415.001,-147.3"></polygon>
<polygon fill="#3e7ab7" stroke="none" points="416.501,-281.3 416.501,-300.3 529.501,-300.3 529.501,-281.3 416.501,-281.3"></polygon>
<polygon fill="none" stroke="#99ccff" points="416.501,-281.3 416.501,-300.3 529.501,-300.3 529.501,-281.3 416.501,-281.3"></polygon>
<text text-anchor="start" x="454.052" y="-288.4" font-family="Arial" font-weight="bold" font-size="11.00">Contact</text>
<polygon fill="#99ccff" stroke="none" points="416.501,-262.3 416.501,-281.3 486.501,-281.3 486.501,-262.3 416.501,-262.3"></polygon>
<polygon fill="none" stroke="#99ccff" points="416.501,-262.3 416.501,-281.3 486.501,-281.3 486.501,-262.3 416.501,-262.3"></polygon>
<text text-anchor="start" x="419.501" y="-268.4" font-family="Arial" font-size="11.00">id</text>
<polygon fill="#99ccff" stroke="none" points="486.501,-262.3 486.501,-281.3 529.501,-281.3 529.501,-262.3 486.501,-262.3"></polygon>
<polygon fill="none" stroke="#99ccff" points="486.501,-262.3 486.501,-281.3 529.501,-281.3 529.501,-262.3 486.501,-262.3"></polygon>
<text text-anchor="start" x="489.501" y="-268.4" font-family="Arial" font-size="11.00">ID</text>
<polygon fill="none" stroke="#99ccff" points="416.501,-243.3 416.501,-262.3 486.501,-262.3 486.501,-243.3 416.501,-243.3"></polygon>
<text text-anchor="start" x="419.501" y="-249.4" font-family="Arial" font-size="11.00">Account</text>
<polygon fill="none" stroke="#99ccff" points="486.501,-243.3 486.501,-262.3 529.501,-262.3 529.501,-243.3 486.501,-243.3"></polygon>
<text text-anchor="start" x="489.501" y="-249.4" font-family="Arial" font-size="11.00">ID</text>
<polygon fill="none" stroke="#99ccff" points="416.501,-224.3 416.501,-243.3 486.501,-243.3 486.501,-224.3 416.501,-224.3"></polygon>
<text text-anchor="start" x="419.501" y="-230.4" font-family="Arial" font-size="11.00">Department</text>
<polygon fill="none" stroke="#99ccff" points="486.501,-224.3 486.501,-243.3 529.501,-243.3 529.501,-224.3 486.501,-224.3"></polygon>
<text text-anchor="start" x="489.36" y="-230.4" font-family="Arial" font-size="11.00">text(80)</text>
<polygon fill="none" stroke="#99ccff" points="416.501,-205.3 416.501,-224.3 486.501,-224.3 486.501,-205.3 416.501,-205.3"></polygon>
<text text-anchor="start" x="419.501" y="-211.4" font-family="Arial" font-size="11.00">Work Phone</text>
<polygon fill="none" stroke="#99ccff" points="486.501,-205.3 486.501,-224.3 529.501,-224.3 529.501,-205.3 486.501,-205.3"></polygon>
<text text-anchor="start" x="489.501" y="-211.4" font-family="Arial" font-size="11.00">Phone</text>
<polygon fill="none" stroke="#99ccff" points="416.501,-186.3 416.501,-205.3 486.501,-205.3 486.501,-186.3 416.501,-186.3"></polygon>
<text text-anchor="start" x="419.409" y="-192.4" font-family="Arial" font-size="11.00">Home Phone</text>
<polygon fill="none" stroke="#99ccff" points="486.501,-186.3 486.501,-205.3 529.501,-205.3 529.501,-186.3 486.501,-186.3"></polygon>
<text text-anchor="start" x="489.501" y="-192.4" font-family="Arial" font-size="11.00">Phone</text>
<polygon fill="none" stroke="#99ccff" points="416.501,-167.3 416.501,-186.3 486.501,-186.3 486.501,-167.3 416.501,-167.3"></polygon>
<text text-anchor="start" x="419.501" y="-173.4" font-family="Arial" font-size="11.00">Email</text>
<polygon fill="none" stroke="#99ccff" points="486.501,-167.3 486.501,-186.3 529.501,-186.3 529.501,-167.3 486.501,-167.3"></polygon>
<text text-anchor="start" x="489.501" y="-173.4" font-family="Arial" font-size="11.00">Email</text>
<polygon fill="none" stroke="#99ccff" points="416.501,-148.3 416.501,-167.3 486.501,-167.3 486.501,-148.3 416.501,-148.3"></polygon>
<text text-anchor="start" x="419.501" y="-154.4" font-family="Arial" font-size="11.00">Reports To</text>
<polygon fill="none" stroke="#99ccff" points="486.501,-148.3 486.501,-167.3 529.501,-167.3 529.501,-148.3 486.501,-148.3"></polygon>
<text text-anchor="start" x="489.501" y="-154.4" font-family="Arial" font-size="11.00">Email</text>
<polygon fill="none" stroke="#99ccff" points="415.001,-147.3 415.001,-301.3 530.001,-301.3 530.001,-147.3 415.001,-147.3"></polygon>
</a>
</g>
</g>
<!-- contact&#45;&gt;contact -->
<g id="edge2" class="edge"><title>contact:ReportsTo:w-&gt;contact:id:e</title>
<path fill="none" stroke="#ff99cc" d="M410.217,-170.519C395.159,-214.995 400.624,-318.3 451.501,-318.3 508.501,-318.3 508.501,-303.633 486.501,-272.3"></path>
<polygon fill="#ff99cc" stroke="#ff99cc" points="413.066,-164.525 419.753,-158.846 414.784,-160.913 416.501,-157.3 416.501,-157.3 416.501,-157.3 414.784,-160.913 413.25,-155.754 413.066,-164.525 413.066,-164.525"></polygon>
<ellipse fill="none" stroke="#ff99cc" cx="411.692" cy="-167.415" rx="3.20001" ry="3.20001"></ellipse>
<text text-anchor="middle" x="472.501" y="-321" font-family="Monaco" font-size="9.00">ReportsTo</text>
</g>
<!-- account -->
<g id="node2" class="node"><title>account</title>
<g id="a_node2"><a xlink:href="#" xlink:title="account">
<polygon fill="#ffeeff" stroke="none" points="218.006,-128.3 218.006,-282.3 353.006,-282.3 353.006,-128.3 218.006,-128.3"></polygon>
<polygon fill="#337ab7" stroke="none" points="219.506,-262.3 219.506,-281.3 352.506,-281.3 352.506,-262.3 219.506,-262.3"></polygon>
<polygon fill="none" stroke="#99ccff" points="219.506,-262.3 219.506,-281.3 352.506,-281.3 352.506,-262.3 219.506,-262.3"></polygon>
<text text-anchor="start" x="266.137" y="-269.4" font-family="Arial" font-weight="bold" font-size="11.00">Account</text>
<polygon fill="#9cccff" stroke="none" points="219.506,-243.3 219.506,-262.3 306.506,-262.3 306.506,-243.3 219.506,-243.3"></polygon>
<polygon fill="none" stroke="#99ccff" points="219.506,-243.3 219.506,-262.3 306.506,-262.3 306.506,-243.3 219.506,-243.3"></polygon>
<text text-anchor="start" x="222.506" y="-249.4" font-family="Arial" font-size="11.00">id</text>
<polygon fill="#99ccff" stroke="none" points="306.506,-243.3 306.506,-262.3 352.506,-262.3 352.506,-243.3 306.506,-243.3"></polygon>
<polygon fill="none" stroke="#99ccff" points="306.506,-243.3 306.506,-262.3 352.506,-262.3 352.506,-243.3 306.506,-243.3"></polygon>
<text text-anchor="start" x="324.007" y="-249.4" font-family="Arial" font-size="11.00">ID</text>
<polygon fill="none" stroke="#99ccff" points="219.506,-224.3 219.506,-243.3 306.506,-243.3 306.506,-224.3 219.506,-224.3"></polygon>
<text text-anchor="start" x="222.506" y="-230.4" font-family="Arial" font-size="11.00">Parent Id</text>
<polygon fill="none" stroke="#99ccff" points="306.506,-224.3 306.506,-243.3 352.506,-243.3 352.506,-224.3 306.506,-224.3"></polygon>
<text text-anchor="start" x="324.007" y="-230.4" font-family="Arial" font-size="11.00">ID</text>
<polygon fill="none" stroke="#99ccff" points="219.506,-205.3 219.506,-224.3 306.506,-224.3 306.506,-205.3 219.506,-205.3"></polygon>
<text text-anchor="start" x="222.506" y="-211.4" font-family="Arial" font-size="11.00">Name</text>
<polygon fill="none" stroke="#99ccff" points="306.506,-205.3 306.506,-224.3 352.506,-224.3 352.506,-205.3 306.506,-205.3"></polygon>
<text text-anchor="start" x="314.84" y="-211.4" font-family="Arial" font-size="11.00">Name</text>
<polygon fill="none" stroke="#99ccff" points="219.506,-186.3 219.506,-205.3 306.506,-205.3 306.506,-186.3 219.506,-186.3"></polygon>
<text text-anchor="start" x="222.506" y="-192.4" font-family="Arial" font-size="11.00">Billing Address</text>
<polygon fill="none" stroke="#99ccff" points="306.506,-186.3 306.506,-205.3 352.506,-205.3 352.506,-186.3 306.506,-186.3"></polygon>
<text text-anchor="start" x="309.335" y="-192.4" font-family="Arial" font-size="11.00">Address</text>
<polygon fill="none" stroke="#99ccff" points="219.506,-167.3 219.506,-186.3 306.506,-186.3 306.506,-167.3 219.506,-167.3"></polygon>
<text text-anchor="start" x="222.054" y="-173.4" font-family="Arial" font-size="11.00">Account Number</text>
<polygon fill="none" stroke="#99ccff" points="306.506,-167.3 306.506,-186.3 352.506,-186.3 352.506,-167.3 306.506,-167.3"></polygon>
<text text-anchor="start" x="310.865" y="-173.4" font-family="Arial" font-size="11.00">text(40)</text>
<polygon fill="none" stroke="#99ccff" points="219.506,-148.3 219.506,-167.3 306.506,-167.3 306.506,-148.3 219.506,-148.3"></polygon>
<text text-anchor="start" x="222.506" y="-154.4" font-family="Arial" font-size="11.00">Industry</text>
<polygon fill="none" stroke="#99ccff" points="306.506,-148.3 306.506,-167.3 352.506,-167.3 352.506,-148.3 306.506,-148.3"></polygon>
<text text-anchor="start" x="313.009" y="-154.4" font-family="Arial" font-size="11.00">picklist</text>
<polygon fill="none" stroke="#99ccff" points="219.506,-129.3 219.506,-148.3 306.506,-148.3 306.506,-129.3 219.506,-129.3"></polygon>
<text text-anchor="start" x="222.506" y="-135.4" font-family="Arial" font-size="11.00">Created By</text>
<polygon fill="none" stroke="#99ccff" points="306.506,-129.3 306.506,-148.3 352.506,-148.3 352.506,-129.3 306.506,-129.3"></polygon>
<text text-anchor="start" x="324.007" y="-135.4" font-family="Arial" font-size="11.00">ID</text>
<polygon fill="none" stroke="#99ccff" points="218.006,-128.3 218.006,-282.3 353.006,-282.3 353.006,-128.3 218.006,-128.3"></polygon>
</a>
</g>
</g>
<!-- contact&#45;&gt;account -->
<g id="edge1" class="edge"><title>contact:account:w-&gt;account:id:e</title>
<path fill="none" stroke="#ff99cc" d="M400.95,-253.3C364.448,-253.3 350.254,-253.3 307.506,-253.3"></path>
<polygon fill="#ff99cc" stroke="#ff99cc" points="407.501,-253.3 415.501,-256.9 411.501,-253.3 415.501,-253.3 415.501,-253.3 415.501,-253.3 411.501,-253.3 415.501,-249.7 407.501,-253.3 407.501,-253.3"></polygon>
<ellipse fill="none" stroke="#ff99cc" cx="404.301" cy="-253.3" rx="3.2" ry="3.2"></ellipse>
<text text-anchor="middle" x="384.004" y="-256" font-family="Monaco" font-size="9.00">has</text>
</g>
<!-- account&#45;&gt;account -->
<g id="edge3" class="edge"><title>account:ParentId:w-&gt;account:id:e</title>
<path fill="none" stroke="#ff99cc" d="M211.346,-246.456C196.136,-273.754 203.772,-299.3 263.006,-299.3 331.006,-299.3 331.006,-284.633 306.506,-253.3"></path>
<polygon fill="#ff99cc" stroke="#ff99cc" points="215.047,-240.942 222.495,-236.306 217.277,-237.621 219.506,-234.3 219.506,-234.3 219.506,-234.3 217.277,-237.621 216.517,-232.294 215.047,-240.942 215.047,-240.942"></polygon>
<ellipse fill="none" stroke="#ff99cc" cx="213.264" cy="-243.599" rx="3.20001" ry="3.20001"></ellipse>
<text text-anchor="middle" x="285.506" y="-302" font-family="Monaco" font-size="9.00">Parent</text>
</g>
<!-- user -->
<g id="node3" class="node"><title>user</title>
<g id="a_node3"><a xlink:href="#" xlink:title="user">
<polygon fill="#ffeeff" stroke="none" points="15.5195,-32.8 15.5195,-167.8 129.519,-167.8 129.519,-32.8 15.5195,-32.8"></polygon>
<polygon fill="#337ab7" stroke="none" points="16.5195,-147.3 16.5195,-166.3 128.519,-166.3 128.519,-147.3 16.5195,-147.3"></polygon>
<polygon fill="none" stroke="#99ccff" points="16.5195,-147.3 16.5195,-166.3 128.519,-166.3 128.519,-147.3 16.5195,-147.3"></polygon>
<text text-anchor="start" x="60.9106" y="-154.4" font-family="Arial" font-weight="bold" font-size="11.00">User</text>
<polygon fill="#9cccff" stroke="none" points="16.5195,-128.3 16.5195,-147.3 79.5195,-147.3 79.5195,-128.3 16.5195,-128.3"></polygon>
<polygon fill="none" stroke="#99ccff" points="16.5195,-128.3 16.5195,-147.3 79.5195,-147.3 79.5195,-128.3 16.5195,-128.3"></polygon>
<text text-anchor="start" x="19.5195" y="-134.4" font-family="Arial" font-size="11.00">id</text>
<polygon fill="#99ccff" stroke="none" points="79.5195,-128.3 79.5195,-147.3 128.519,-147.3 128.519,-128.3 79.5195,-128.3"></polygon>
<polygon fill="none" stroke="#99ccff" points="79.5195,-128.3 79.5195,-147.3 128.519,-147.3 128.519,-128.3 79.5195,-128.3"></polygon>
<text text-anchor="start" x="98.5206" y="-134.4" font-family="Arial" font-size="11.00">ID</text>
<polygon fill="none" stroke="#99ccff" points="16.5195,-109.3 16.5195,-128.3 79.5195,-128.3 79.5195,-109.3 16.5195,-109.3"></polygon>
<text text-anchor="start" x="19.5195" y="-115.4" font-family="Arial" font-size="11.00">Name</text>
<polygon fill="none" stroke="#99ccff" points="79.5195,-109.3 79.5195,-128.3 128.519,-128.3 128.519,-109.3 79.5195,-109.3"></polygon>
<text text-anchor="start" x="89.3532" y="-115.4" font-family="Arial" font-size="11.00">Name</text>
<polygon fill="none" stroke="#99ccff" points="16.5195,-90.3 16.5195,-109.3 79.5195,-109.3 79.5195,-90.3 16.5195,-90.3"></polygon>
<text text-anchor="start" x="19.293" y="-96.4" font-family="Arial" font-size="11.00">Manager ID</text>
<polygon fill="none" stroke="#99ccff" points="79.5195,-90.3 79.5195,-109.3 128.519,-109.3 128.519,-90.3 79.5195,-90.3"></polygon>
<text text-anchor="start" x="98.5206" y="-96.4" font-family="Arial" font-size="11.00">ID</text>
<polygon fill="none" stroke="#99ccff" points="16.5195,-71.3 16.5195,-90.3 79.5195,-90.3 79.5195,-71.3 16.5195,-71.3"></polygon>
<text text-anchor="start" x="19.5195" y="-77.4" font-family="Arial" font-size="11.00">First Name</text>
<polygon fill="none" stroke="#99ccff" points="79.5195,-71.3 79.5195,-90.3 128.519,-90.3 128.519,-71.3 79.5195,-71.3"></polygon>
<text text-anchor="start" x="85.3783" y="-77.4" font-family="Arial" font-size="11.00">text(40)</text>
<polygon fill="none" stroke="#99ccff" points="16.5195,-52.3 16.5195,-71.3 79.5195,-71.3 79.5195,-52.3 16.5195,-52.3"></polygon>
<text text-anchor="start" x="19.5195" y="-58.4" font-family="Arial" font-size="11.00">Last Name</text>
<polygon fill="none" stroke="#99ccff" points="79.5195,-52.3 79.5195,-71.3 128.519,-71.3 128.519,-52.3 79.5195,-52.3"></polygon>
<text text-anchor="start" x="85.3783" y="-58.4" font-family="Arial" font-size="11.00">text(80)</text>
<polygon fill="none" stroke="#99ccff" points="16.5195,-33.3 16.5195,-52.3 79.5195,-52.3 79.5195,-33.3 16.5195,-33.3"></polygon>
<text text-anchor="start" x="19.5195" y="-39.4" font-family="Arial" font-size="11.00">Full Name</text>
<polygon fill="none" stroke="#99ccff" points="79.5195,-33.3 79.5195,-52.3 128.519,-52.3 128.519,-33.3 79.5195,-33.3"></polygon>
<text text-anchor="start" x="82.3209" y="-39.4" font-family="Arial" font-size="11.00">text(121)</text>
<polygon fill="none" stroke="#99ccff" points="15.5195,-32.8 15.5195,-167.8 129.519,-167.8 129.519,-32.8 15.5195,-32.8"></polygon>
</a>
</g>
</g>
<!-- account&#45;&gt;user -->
<g id="edge5" class="edge"><title>account:CreatedBy:w-&gt;user:id:e</title>
<path fill="none" stroke="#ff99cc" d="M203.973,-138.3C154.279,-138.3 136.696,-138.3 80.5195,-138.3"></path>
<polygon fill="#ff99cc" stroke="#ff99cc" points="210.506,-138.3 218.506,-141.9 214.506,-138.3 218.506,-138.3 218.506,-138.3 218.506,-138.3 214.506,-138.3 218.506,-134.7 210.506,-138.3 210.506,-138.3"></polygon>
<ellipse fill="none" stroke="#ff99cc" cx="207.306" cy="-138.3" rx="3.2" ry="3.2"></ellipse>
<text text-anchor="middle" x="173.763" y="-141" font-family="Monaco" font-size="9.00">CreatedBy</text>
</g>
<!-- user&#45;&gt;user -->
<g id="edge4" class="edge"><title>user:ManagerId:w-&gt;user:id:e</title>
<path fill="none" stroke="#ff99cc" d="M8.16523,-111.461C-7.54168,-141.295 -1.19733,-184.8 48.0195,-184.8 104.519,-184.8 104.519,-166.467 79.5195,-138.3"></path>
<polygon fill="#ff99cc" stroke="#ff99cc" points="11.9897,-105.894 19.4868,-101.338 14.2546,-102.597 16.5195,-99.3 16.5195,-99.3 16.5195,-99.3 14.2546,-102.597 13.5522,-97.2616 11.9897,-105.894 11.9897,-105.894"></polygon>
<ellipse fill="none" stroke="#ff99cc" cx="10.1777" cy="-108.532" rx="3.20001" ry="3.20001"></ellipse>
<text text-anchor="middle" x="72.5195" y="-187.5" font-family="Monaco" font-size="9.00">Parent</text>
</g>
</g>
</svg>
