<!--?xml version="1.0" encoding="UTF-8" standalone="no"?-->

<!-- Generated by graphviz version 2.40.1 (20161225.0304)
 -->
<!-- Title: bindings Pages: 1 -->
<svg width="842pt" height="441pt" viewBox="0.00 0.00 841.97 441.30" xmlns="http://www.w3.org/2000/svg" xmlns:xlink="http://www.w3.org/1999/xlink">
<g id="graph0" class="graph" transform="scale(1 1) rotate(0) translate(4 437.3)">
<title>bindings</title>
<polygon fill="#efeffd" stroke="transparent" points="-4,4 -4,-437.3 837.9705,-437.3 837.9705,4 -4,4"></polygon>
<text text-anchor="middle" x="35.0081" y="-6.7" font-family="Arial" font-size="9.00" fill="#000000">  EA Bindings</text>
<!-- Account_Type_1 -->
<g id="node1" class="node">
<title>Account_Type_1</title>
<g id="a_node1"><a xlink:href="#" xlink:title="Account_Type_1">
<path fill="#ffeeff" stroke="transparent" d="M26.001,-176.3C26.001,-176.3 366.001,-176.3 366.001,-176.3 372.001,-176.3 378.001,-182.3 378.001,-188.3 378.001,-188.3 378.001,-338.3 378.001,-338.3 378.001,-344.3 372.001,-350.3 366.001,-350.3 366.001,-350.3 26.001,-350.3 26.001,-350.3 20.001,-350.3 14.001,-344.3 14.001,-338.3 14.001,-338.3 14.001,-188.3 14.001,-188.3 14.001,-182.3 20.001,-176.3 26.001,-176.3"></path>
<polygon fill="#99ccff" stroke="transparent" points="15.001,-330.3 15.001,-349.3 377.001,-349.3 377.001,-330.3 15.001,-330.3"></polygon>
<polygon fill="none" stroke="#99ccff" points="15.001,-330.3 15.001,-349.3 377.001,-349.3 377.001,-330.3 15.001,-330.3"></polygon>
<text text-anchor="start" x="151.6781" y="-337.4" font-family="Arial" font-weight="bold" font-size="11.00" fill="#000000"> Account_Type_1 </text>
<polygon fill="none" stroke="#99ccff" points="15.001,-311.3 15.001,-330.3 91.001,-330.3 91.001,-311.3 15.001,-311.3"></polygon>
<text text-anchor="start" x="18.001" y="-318.4" font-family="Arial" font-weight="bold" font-size="11.00" fill="#000000">type </text>
<polygon fill="none" stroke="#99ccff" points="91.001,-311.3 91.001,-330.3 377.001,-330.3 377.001,-311.3 91.001,-311.3"></polygon>
<text text-anchor="start" x="200.6831" y="-317.4" font-family="Arial" font-size="11.00" fill="#000000">aggregateflex</text>
<polygon fill="none" stroke="#99ccff" points="15.001,-292.3 15.001,-311.3 91.001,-311.3 91.001,-292.3 15.001,-292.3"></polygon>
<text text-anchor="start" x="18.001" y="-299.4" font-family="Arial" font-weight="bold" font-size="11.00" fill="#000000">selectMode </text>
<polygon fill="none" stroke="#99ccff" points="91.001,-292.3 91.001,-311.3 377.001,-311.3 377.001,-292.3 91.001,-292.3"></polygon>
<text text-anchor="start" x="222.9982" y="-298.4" font-family="Arial" font-size="11.00" fill="#000000">true </text>
<polygon fill="none" stroke="#99ccff" points="15.001,-273.3 15.001,-292.3 91.001,-292.3 91.001,-273.3 15.001,-273.3"></polygon>
<text text-anchor="start" x="18.001" y="-280.4" font-family="Arial" font-weight="bold" font-size="11.00" fill="#000000">receiveFacet </text>
<polygon fill="none" stroke="#99ccff" points="91.001,-273.3 91.001,-292.3 377.001,-292.3 377.001,-273.3 91.001,-273.3"></polygon>
<text text-anchor="start" x="224.5267" y="-279.4" font-family="Arial" font-size="11.00" fill="#000000">true</text>
<polygon fill="none" stroke="#99ccff" points="15.001,-254.3 15.001,-273.3 91.001,-273.3 91.001,-254.3 15.001,-254.3"></polygon>
<text text-anchor="start" x="17.8521" y="-261.4" font-family="Arial" font-weight="bold" font-size="11.00" fill="#000000">referenceLine </text>
<polygon fill="none" stroke="#99ccff" points="91.001,-254.3 91.001,-273.3 377.001,-273.3 377.001,-254.3 91.001,-254.3"></polygon>
<polygon fill="none" stroke="#99ccff" points="15.001,-196.3 15.001,-254.3 91.001,-254.3 91.001,-196.3 15.001,-196.3"></polygon>
<text text-anchor="start" x="18.001" y="-223" font-family="Arial" font-weight="bold" font-size="11.00" fill="#000000">query </text>
<polygon fill="none" stroke="#99ccff" points="91.001,-196.3 91.001,-254.3 377.001,-254.3 377.001,-196.3 91.001,-196.3"></polygon>
<text text-anchor="start" x="93.9792" y="-241.4" font-family="Arial" font-size="11.00" fill="#000000">{"measures":"{{column(StaticMeasureNames_1.selection,</text>
<text text-anchor="start" x="174.9662" y="-228.2" font-family="Arial" font-size="11.00" fill="#000000">[\"value\"]).asObject()}}",</text>
<text text-anchor="start" x="101.9212" y="-215" font-family="Arial" font-size="11.00" fill="#000000">"groups":"{{column(StaticGroupingNames_1.selection,</text>
<text text-anchor="start" x="174.6582" y="-201.8" font-family="Arial" font-size="11.00" fill="#000000">[\"value\"]).asObject()}}"}</text>
<polygon fill="none" stroke="#99ccff" points="15.001,-177.3 15.001,-196.3 91.001,-196.3 91.001,-177.3 15.001,-177.3"></polygon>
<text text-anchor="start" x="18.001" y="-184.4" font-family="Arial" font-weight="bold" font-size="11.00" fill="#000000">values </text>
<polygon fill="none" stroke="#99ccff" points="91.001,-177.3 91.001,-196.3 377.001,-196.3 377.001,-177.3 91.001,-177.3"></polygon>
<text text-anchor="start" x="225.4452" y="-183.4" font-family="Arial" font-size="11.00" fill="#000000">null</text>
<path fill="none" stroke="#99ccff" d="M26.001,-176.3C26.001,-176.3 366.001,-176.3 366.001,-176.3 372.001,-176.3 378.001,-182.3 378.001,-188.3 378.001,-188.3 378.001,-338.3 378.001,-338.3 378.001,-344.3 372.001,-350.3 366.001,-350.3 366.001,-350.3 26.001,-350.3 26.001,-350.3 20.001,-350.3 14.001,-344.3 14.001,-338.3 14.001,-338.3 14.001,-188.3 14.001,-188.3 14.001,-182.3 20.001,-176.3 26.001,-176.3"></path>
</a>
</g>
</g>
<!-- StaticGroupingNames_1 -->
<g id="node2" class="node">
<title>StaticGroupingNames_1</title>
<g id="a_node2"><a xlink:href="#" xlink:title="StaticGroupingNames_1">
<path fill="#ffeeff" stroke="transparent" d="M619.4705,-255.3C619.4705,-255.3 804.4705,-255.3 804.4705,-255.3 810.4705,-255.3 816.4705,-261.3 816.4705,-267.3 816.4705,-267.3 816.4705,-417.3 816.4705,-417.3 816.4705,-423.3 810.4705,-429.3 804.4705,-429.3 804.4705,-429.3 619.4705,-429.3 619.4705,-429.3 613.4705,-429.3 607.4705,-423.3 607.4705,-417.3 607.4705,-417.3 607.4705,-267.3 607.4705,-267.3 607.4705,-261.3 613.4705,-255.3 619.4705,-255.3"></path>
<polygon fill="#99ccff" stroke="transparent" points="608.9705,-409.3 608.9705,-428.3 815.9705,-428.3 815.9705,-409.3 608.9705,-409.3"></polygon>
<polygon fill="none" stroke="#99ccff" points="608.9705,-409.3 608.9705,-428.3 815.9705,-428.3 815.9705,-409.3 608.9705,-409.3"></polygon>
<text text-anchor="start" x="649.5125" y="-416.4" font-family="Arial" font-weight="bold" font-size="11.00" fill="#000000"> StaticGroupingNames_1 </text>
<polygon fill="none" stroke="#99ccff" points="608.9705,-390.3 608.9705,-409.3 684.9705,-409.3 684.9705,-390.3 608.9705,-390.3"></polygon>
<text text-anchor="start" x="611.9705" y="-397.4" font-family="Arial" font-weight="bold" font-size="11.00" fill="#000000">type </text>
<polygon fill="none" stroke="#99ccff" points="684.9705,-390.3 684.9705,-409.3 815.9705,-409.3 815.9705,-390.3 684.9705,-390.3"></polygon>
<text text-anchor="start" x="729.0793" y="-396.4" font-family="Arial" font-size="11.00" fill="#000000">staticflex</text>
<polygon fill="none" stroke="#99ccff" points="608.9705,-371.3 608.9705,-390.3 684.9705,-390.3 684.9705,-371.3 608.9705,-371.3"></polygon>
<text text-anchor="start" x="611.9705" y="-378.4" font-family="Arial" font-weight="bold" font-size="11.00" fill="#000000">selectMode </text>
<polygon fill="none" stroke="#99ccff" points="684.9705,-371.3 684.9705,-390.3 815.9705,-390.3 815.9705,-371.3 684.9705,-371.3"></polygon>
<text text-anchor="start" x="748.942" y="-377.4" font-family="Arial" font-size="11.00" fill="#000000"> </text>
<polygon fill="none" stroke="#99ccff" points="608.9705,-352.3 608.9705,-371.3 684.9705,-371.3 684.9705,-352.3 608.9705,-352.3"></polygon>
<text text-anchor="start" x="611.9705" y="-359.4" font-family="Arial" font-weight="bold" font-size="11.00" fill="#000000">receiveFacet </text>
<polygon fill="none" stroke="#99ccff" points="684.9705,-352.3 684.9705,-371.3 815.9705,-371.3 815.9705,-352.3 684.9705,-352.3"></polygon>
<polygon fill="none" stroke="#99ccff" points="608.9705,-333.3 608.9705,-352.3 684.9705,-352.3 684.9705,-333.3 608.9705,-333.3"></polygon>
<text text-anchor="start" x="611.8216" y="-340.4" font-family="Arial" font-weight="bold" font-size="11.00" fill="#000000">referenceLine </text>
<polygon fill="none" stroke="#99ccff" points="684.9705,-333.3 684.9705,-352.3 815.9705,-352.3 815.9705,-333.3 684.9705,-333.3"></polygon>
<polygon fill="none" stroke="#99ccff" points="608.9705,-314.3 608.9705,-333.3 684.9705,-333.3 684.9705,-314.3 608.9705,-314.3"></polygon>
<text text-anchor="start" x="611.9705" y="-321.4" font-family="Arial" font-weight="bold" font-size="11.00" fill="#000000">query </text>
<polygon fill="none" stroke="#99ccff" points="684.9705,-314.3 684.9705,-333.3 815.9705,-333.3 815.9705,-314.3 684.9705,-314.3"></polygon>
<polygon fill="none" stroke="#99ccff" points="608.9705,-256.3 608.9705,-314.3 684.9705,-314.3 684.9705,-256.3 608.9705,-256.3"></polygon>
<text text-anchor="start" x="611.9705" y="-283" font-family="Arial" font-weight="bold" font-size="11.00" fill="#000000">values </text>
<polygon fill="none" stroke="#99ccff" points="684.9705,-256.3 684.9705,-314.3 815.9705,-314.3 815.9705,-256.3 684.9705,-256.3"></polygon>
<text text-anchor="start" x="698.837" y="-301.4" font-family="Arial" font-size="11.00" fill="#000000">[    "{"display":"Type",</text>
<text text-anchor="start" x="687.5235" y="-288.2" font-family="Arial" font-size="11.00" fill="#000000">"value":"Account_Type"}",</text>
<text text-anchor="start" x="693.0301" y="-275" font-family="Arial" font-size="11.00" fill="#000000">    "{"display":"Industry",</text>
<text text-anchor="start" x="703.1144" y="-261.8" font-family="Arial" font-size="11.00" fill="#000000">"value":"Industry"}"]</text>
<path fill="none" stroke="#99ccff" d="M619.4705,-255.3C619.4705,-255.3 804.4705,-255.3 804.4705,-255.3 810.4705,-255.3 816.4705,-261.3 816.4705,-267.3 816.4705,-267.3 816.4705,-417.3 816.4705,-417.3 816.4705,-423.3 810.4705,-429.3 804.4705,-429.3 804.4705,-429.3 619.4705,-429.3 619.4705,-429.3 613.4705,-429.3 607.4705,-423.3 607.4705,-417.3 607.4705,-417.3 607.4705,-267.3 607.4705,-267.3 607.4705,-261.3 613.4705,-255.3 619.4705,-255.3"></path>
</a>
</g>
</g>
<!-- Account_Type_1&#45;&gt;StaticGroupingNames_1 -->
<g id="edge1" class="edge">
<title>Account_Type_1:w-&gt;StaticGroupingNames_1:e</title>
<path fill="none" stroke="#ff99cc" d="M29.5446,-223.2223C98.1371,-213.4234 386.001,-172.3 386.001,-172.3 386.001,-172.3 684.9705,-323.3 684.9705,-323.3"></path>
<polygon fill="#ff99cc" stroke="#ff99cc" points="22.9206,-224.1686 14.4918,-221.7362 18.9608,-224.7343 15.001,-225.3 15.001,-225.3 15.001,-225.3 18.9608,-224.7343 15.5101,-228.8638 22.9206,-224.1686 22.9206,-224.1686"></polygon>
<ellipse fill="none" stroke="#ff99cc" cx="26.0884" cy="-223.716" rx="3.2" ry="3.2"></ellipse>
<text text-anchor="middle" x="487.9857" y="-269" font-family="Monaco" font-size="9.00" fill="#000000">StaticGroupingNames_1 SELECTION binding</text>
</g>
<!-- StaticMeasureNames_1 -->
<g id="node3" class="node">
<title>StaticMeasureNames_1</title>
<g id="a_node3"><a xlink:href="#" xlink:title="StaticMeasureNames_1">
<path fill="#ffeeff" stroke="transparent" d="M609.9705,-32.8C609.9705,-32.8 813.9705,-32.8 813.9705,-32.8 819.9705,-32.8 825.9705,-38.8 825.9705,-44.8 825.9705,-44.8 825.9705,-221.8 825.9705,-221.8 825.9705,-227.8 819.9705,-233.8 813.9705,-233.8 813.9705,-233.8 609.9705,-233.8 609.9705,-233.8 603.9705,-233.8 597.9705,-227.8 597.9705,-221.8 597.9705,-221.8 597.9705,-44.8 597.9705,-44.8 597.9705,-38.8 603.9705,-32.8 609.9705,-32.8"></path>
<polygon fill="#99ccff" stroke="transparent" points="598.9705,-213.3 598.9705,-232.3 824.9705,-232.3 824.9705,-213.3 598.9705,-213.3"></polygon>
<polygon fill="none" stroke="#99ccff" points="598.9705,-213.3 598.9705,-232.3 824.9705,-232.3 824.9705,-213.3 598.9705,-213.3"></polygon>
<text text-anchor="start" x="650.2379" y="-220.4" font-family="Arial" font-weight="bold" font-size="11.00" fill="#000000"> StaticMeasureNames_1 </text>
<polygon fill="none" stroke="#99ccff" points="598.9705,-194.3 598.9705,-213.3 674.9705,-213.3 674.9705,-194.3 598.9705,-194.3"></polygon>
<text text-anchor="start" x="601.9705" y="-201.4" font-family="Arial" font-weight="bold" font-size="11.00" fill="#000000">type </text>
<polygon fill="none" stroke="#99ccff" points="674.9705,-194.3 674.9705,-213.3 824.9705,-213.3 824.9705,-194.3 674.9705,-194.3"></polygon>
<text text-anchor="start" x="728.5793" y="-200.4" font-family="Arial" font-size="11.00" fill="#000000">staticflex</text>
<polygon fill="none" stroke="#99ccff" points="598.9705,-175.3 598.9705,-194.3 674.9705,-194.3 674.9705,-175.3 598.9705,-175.3"></polygon>
<text text-anchor="start" x="601.9705" y="-182.4" font-family="Arial" font-weight="bold" font-size="11.00" fill="#000000">selectMode </text>
<polygon fill="none" stroke="#99ccff" points="674.9705,-175.3 674.9705,-194.3 824.9705,-194.3 824.9705,-175.3 674.9705,-175.3"></polygon>
<text text-anchor="start" x="748.442" y="-181.4" font-family="Arial" font-size="11.00" fill="#000000"> </text>
<polygon fill="none" stroke="#99ccff" points="598.9705,-156.3 598.9705,-175.3 674.9705,-175.3 674.9705,-156.3 598.9705,-156.3"></polygon>
<text text-anchor="start" x="601.9705" y="-163.4" font-family="Arial" font-weight="bold" font-size="11.00" fill="#000000">receiveFacet </text>
<polygon fill="none" stroke="#99ccff" points="674.9705,-156.3 674.9705,-175.3 824.9705,-175.3 824.9705,-156.3 674.9705,-156.3"></polygon>
<polygon fill="none" stroke="#99ccff" points="598.9705,-137.3 598.9705,-156.3 674.9705,-156.3 674.9705,-137.3 598.9705,-137.3"></polygon>
<text text-anchor="start" x="601.8216" y="-144.4" font-family="Arial" font-weight="bold" font-size="11.00" fill="#000000">referenceLine </text>
<polygon fill="none" stroke="#99ccff" points="674.9705,-137.3 674.9705,-156.3 824.9705,-156.3 824.9705,-137.3 674.9705,-137.3"></polygon>
<polygon fill="none" stroke="#99ccff" points="598.9705,-118.3 598.9705,-137.3 674.9705,-137.3 674.9705,-118.3 598.9705,-118.3"></polygon>
<text text-anchor="start" x="601.9705" y="-125.4" font-family="Arial" font-weight="bold" font-size="11.00" fill="#000000">query </text>
<polygon fill="none" stroke="#99ccff" points="674.9705,-118.3 674.9705,-137.3 824.9705,-137.3 824.9705,-118.3 674.9705,-118.3"></polygon>
<polygon fill="none" stroke="#99ccff" points="598.9705,-33.3 598.9705,-118.3 674.9705,-118.3 674.9705,-33.3 598.9705,-33.3"></polygon>
<text text-anchor="start" x="601.9705" y="-73.5" font-family="Arial" font-weight="bold" font-size="11.00" fill="#000000">values </text>
<polygon fill="none" stroke="#99ccff" points="674.9705,-33.3 674.9705,-118.3 824.9705,-118.3 824.9705,-33.3 674.9705,-33.3"></polygon>
<text text-anchor="start" x="677.86" y="-105.4" font-family="Arial" font-size="11.00" fill="#000000">[    "{"display":"Total Amount",</text>
<text text-anchor="start" x="714.0461" y="-92.2" font-family="Arial" font-size="11.00" fill="#000000">"value":["sum",</text>
<text text-anchor="start" x="720.2716" y="-79" font-family="Arial" font-size="11.00" fill="#000000">"Amount"]}",</text>
<text text-anchor="start" x="682.1368" y="-65.8" font-family="Arial" font-size="11.00" fill="#000000">    "{"display":"Avg Amount",</text>
<text text-anchor="start" x="715.5696" y="-52.6" font-family="Arial" font-size="11.00" fill="#000000">"value":["avg",</text>
<text text-anchor="start" x="720.2716" y="-39.4" font-family="Arial" font-size="11.00" fill="#000000">"Amount"]}"]</text>
<path fill="none" stroke="#99ccff" d="M609.9705,-32.8C609.9705,-32.8 813.9705,-32.8 813.9705,-32.8 819.9705,-32.8 825.9705,-38.8 825.9705,-44.8 825.9705,-44.8 825.9705,-221.8 825.9705,-221.8 825.9705,-227.8 819.9705,-233.8 813.9705,-233.8 813.9705,-233.8 609.9705,-233.8 609.9705,-233.8 603.9705,-233.8 597.9705,-227.8 597.9705,-221.8 597.9705,-221.8 597.9705,-44.8 597.9705,-44.8 597.9705,-38.8 603.9705,-32.8 609.9705,-32.8"></path>
</a>
</g>
</g>
<!-- Account_Type_1&#45;&gt;StaticMeasureNames_1 -->
<g id="edge2" class="edge">
<title>Account_Type_1:w-&gt;StaticMeasureNames_1:e</title>
<path fill="none" stroke="#ff99cc" d="M2.18,-218.3843C-3.823,-207.1179 3.318,-184.8067 15.001,-172.3 15.001,-172.3 674.9705,-127.3 674.9705,-127.3"></path>
<polygon fill="#ff99cc" stroke="#ff99cc" points="7.96,-221.502 13.2919,-228.4684 11.4805,-223.401 15.001,-225.3 15.001,-225.3 15.001,-225.3 11.4805,-223.401 16.71,-222.1316 7.96,-221.502 7.96,-221.502"></polygon>
<ellipse fill="none" stroke="#ff99cc" cx="5.1436" cy="-219.9828" rx="3.2" ry="3.2"></ellipse>
<text text-anchor="middle" x="487.9857" y="-149" font-family="Monaco" font-size="9.00" fill="#000000">StaticMeasureNames_1 SELECTION binding</text>
</g>
</g>
</svg>
