<?xml version="1.0" encoding="utf-8"?>
<!-- Generator: Adobe Illustrator 21.1.0, SVG Export Plug-In . SVG Version: 6.00 Build 0)  -->
<svg version="1.1" id="Layer_1" xmlns="http://www.w3.org/2000/svg" xmlns:xlink="http://www.w3.org/1999/xlink" x="0px" y="0px"
	 viewBox="0 0 117.2 82" style="enable-background:new 0 0 117.2 82;" xml:space="preserve">
<style type="text/css">
	.st0{fill:#00A1E0;}
	.st1{fill:#FFFFFF;}
</style>
<title>logo-salesforce</title>
<desc>Created with Sketch.</desc>
<g id="Test-B">
	<g id="Mobile-Nav---Test-B-_x28_0_x29_">
		<g id="Group">
			<g id="logo-salesforce">
				<path id="Fill-1" class="st0" d="M49,9.7c3.7-3.8,8.8-6.2,14.5-6.2C71,3.5,77.6,7.7,81.1,14c3-1.4,6.4-2.1,10-2.1
					c13.6,0,24.6,11.1,24.6,24.9s-11,24.9-24.6,24.9c-1.7,0-3.3-0.2-4.9-0.5c-3.1,5.5-9,9.2-15.7,9.2c-2.8,0-5.5-0.6-7.9-1.8
					C59.5,75.8,52.2,81,43.7,81c-8.8,0-16.4-5.6-19.3-13.5c-1.3,0.3-2.6,0.4-3.9,0.4C10,68,1.4,59.3,1.4,48.7
					c0-7.1,3.8-13.4,9.5-16.7c-1.2-2.7-1.8-5.7-1.8-8.8C9.1,10.9,19.1,1,31.3,1C38.5,1,44.9,4.4,49,9.7"/>
				<path id="Combined-Shape" class="st1" d="M18,42.5l0.5-1.3c0.1-0.2,0.2-0.1,0.3-0.1c0.1,0.1,0.2,0.1,0.4,0.2
					c1.4,0.9,2.6,0.9,3,0.9c1,0,1.7-0.5,1.7-1.3v0c0-0.8-1-1.1-2.1-1.4l-0.2-0.1c-1.5-0.4-3.2-1.1-3.2-3v0c0-1.9,1.5-3.2,3.6-3.2
					l0.2,0c1.3,0,2.5,0.4,3.4,0.9c0.1,0,0.2,0.1,0.1,0.3c0,0.1-0.4,1.2-0.5,1.3c-0.1,0.2-0.3,0.1-0.3,0.1c-0.8-0.4-2-0.8-3-0.8
					c-0.9,0-1.5,0.5-1.5,1.1v0c0,0.8,1,1.1,2.2,1.5l0.2,0.1c1.5,0.5,3.2,1.2,3.2,3v0c0,2-1.5,3.3-3.8,3.3c-1.2,0-2.3-0.2-3.4-0.8
					c-0.2-0.1-0.4-0.2-0.7-0.4C18,42.7,17.9,42.7,18,42.5z M52.3,42.5l0.5-1.3c0.1-0.2,0.3-0.1,0.3-0.1c0.1,0.1,0.2,0.1,0.4,0.2
					c1.4,0.9,2.6,0.9,3,0.9c1,0,1.6-0.5,1.6-1.3v0c0-0.8-1-1.1-2.1-1.4l-0.2-0.1c-1.5-0.4-3.2-1.1-3.2-3v0c0-1.9,1.5-3.2,3.6-3.2
					l0.2,0c1.3,0,2.5,0.4,3.4,0.9c0.1,0,0.2,0.1,0.1,0.3c0,0.1-0.4,1.2-0.5,1.3c-0.1,0.2-0.3,0.1-0.3,0.1c-0.8-0.4-2-0.8-3-0.8
					c-0.9,0-1.5,0.5-1.5,1.1v0c0,0.8,1,1.1,2.2,1.5l0.2,0.1c1.5,0.5,3.2,1.2,3.2,3v0c0,2-1.5,3.3-3.8,3.3c-1.2,0-2.3-0.2-3.4-0.8
					c-0.2-0.1-0.4-0.2-0.7-0.4C52.3,42.7,52.2,42.7,52.3,42.5z M77.7,36.5c0.2,0.6,0.3,1.4,0.3,2.1c0,0.7-0.1,1.5-0.3,2.1
					c-0.2,0.7-0.5,1.2-0.9,1.7c-0.4,0.5-0.9,0.9-1.5,1.1c-0.6,0.3-1.3,0.4-2.1,0.4c-0.8,0-1.5-0.1-2.1-0.4c-0.6-0.3-1.1-0.7-1.5-1.1
					c-0.4-0.5-0.7-1.1-0.9-1.7c-0.2-0.6-0.3-1.4-0.3-2.1c0-0.8,0.1-1.5,0.3-2.1c0.2-0.6,0.5-1.2,0.9-1.7c0.4-0.5,0.9-0.9,1.5-1.1
					c0.6-0.3,1.3-0.4,2.1-0.4c0.8,0,1.5,0.1,2.1,0.4c0.6,0.3,1.1,0.7,1.5,1.1C77.2,35.2,77.5,35.8,77.7,36.5z M75.7,38.6
					c0-1.1-0.2-2-0.6-2.7c-0.4-0.6-1-0.9-1.9-0.9s-1.5,0.3-1.9,0.9c-0.4,0.6-0.6,1.5-0.6,2.7c0,1.1,0.2,2,0.6,2.7
					c0.4,0.6,1,0.9,1.9,0.9s1.5-0.3,1.9-0.9C75.5,40.6,75.7,39.7,75.7,38.6z M93.8,41.8l0.5,1.3c0.1,0.2-0.1,0.2-0.1,0.2
					c-0.7,0.3-1.8,0.5-2.8,0.5c-1.7,0-3-0.5-3.9-1.5c-0.9-1-1.3-2.3-1.3-3.9c0-0.8,0.1-1.5,0.3-2.1c0.2-0.6,0.5-1.2,1-1.7
					c0.4-0.5,1-0.9,1.6-1.1c0.6-0.3,1.4-0.4,2.2-0.4c0.6,0,1,0,1.5,0.1c0.5,0.1,1.1,0.2,1.3,0.3c0,0,0.2,0.1,0.1,0.2
					c-0.2,0.5-0.3,0.9-0.5,1.3c-0.1,0.2-0.2,0.1-0.2,0.1c-0.6-0.2-1.3-0.3-2.1-0.3c-1,0-1.7,0.3-2.2,1c-0.5,0.6-0.7,1.5-0.8,2.6
					c0,1.2,0.3,2.1,0.8,2.7c0.5,0.6,1.3,0.8,2.2,0.8c0.4,0,0.7,0,1.1-0.1c0.3-0.1,0.6-0.2,0.9-0.3C93.5,41.7,93.7,41.7,93.8,41.8z
					 M103.8,36.1c0.4,1.5,0.2,2.8,0.2,2.9c0,0.2-0.2,0.2-0.2,0.2l-6.6,0c0,1,0.3,1.7,0.8,2.2c0.5,0.5,1.2,0.8,2.3,0.8
					c1.6,0,2.2-0.3,2.7-0.5c0,0,0.2-0.1,0.2,0.1l0.4,1.2c0.1,0.2,0,0.3-0.1,0.3c-0.4,0.2-1.4,0.7-3.3,0.7c-0.9,0-1.7-0.1-2.4-0.4
					c-0.7-0.3-1.2-0.6-1.7-1.1c-0.4-0.5-0.8-1-1-1.7c-0.2-0.6-0.3-1.4-0.3-2.1c0-0.7,0.1-1.5,0.3-2.1c0.2-0.7,0.5-1.2,0.9-1.7
					c0.4-0.5,0.9-0.9,1.5-1.2c0.6-0.3,1.4-0.4,2.2-0.4c0.7,0,1.4,0.2,1.9,0.4c0.4,0.2,0.8,0.5,1.3,1
					C103.2,34.8,103.6,35.5,103.8,36.1z M97.2,37.5h4.7c0-0.6-0.2-1.2-0.4-1.6c-0.4-0.6-1-1-1.9-1c-0.9,0-1.5,0.3-1.9,1
					C97.5,36.3,97.3,36.8,97.2,37.5z M50.7,36.1c0.4,1.5,0.2,2.8,0.2,2.9c0,0.2-0.2,0.2-0.2,0.2l-6.6,0c0,1,0.3,1.7,0.8,2.2
					c0.5,0.5,1.2,0.8,2.3,0.8c1.6,0,2.2-0.3,2.7-0.5c0,0,0.2-0.1,0.2,0.1l0.4,1.2c0.1,0.2,0,0.3-0.1,0.3c-0.4,0.2-1.4,0.7-3.3,0.7
					c-0.9,0-1.7-0.1-2.4-0.4c-0.7-0.3-1.2-0.6-1.7-1.1c-0.4-0.5-0.8-1-1-1.7c-0.2-0.6-0.3-1.4-0.3-2.1c0-0.7,0.1-1.5,0.3-2.1
					c0.2-0.7,0.5-1.2,0.9-1.7c0.4-0.5,0.9-0.9,1.5-1.2c0.6-0.3,1.4-0.4,2.2-0.4c0.7,0,1.4,0.2,1.9,0.4c0.4,0.2,0.8,0.5,1.3,1
					C50.1,34.8,50.6,35.5,50.7,36.1z M44.1,37.5h4.7c0-0.6-0.2-1.2-0.4-1.6c-0.4-0.6-1-1-1.9-1s-1.5,0.3-1.9,1
					C44.4,36.3,44.2,36.8,44.1,37.5z M32.5,37.1c0,0,0.5,0,1.1,0.1V37c0-0.9-0.2-1.3-0.5-1.6c-0.4-0.3-0.9-0.4-1.6-0.4
					c0,0-1.6,0-2.9,0.7c-0.1,0-0.1,0.1-0.1,0.1s-0.2,0.1-0.2-0.1l-0.5-1.3c-0.1-0.2,0.1-0.3,0.1-0.3c0.6-0.5,2-0.7,2-0.7
					c0.5-0.1,1.3-0.2,1.8-0.2c1.3,0,2.3,0.3,3,0.9c0.7,0.6,1.1,1.6,1.1,2.9l0,6.1c0,0,0,0.2-0.2,0.2c0,0-0.2,0.1-0.5,0.1
					c-0.2,0.1-1,0.2-1.7,0.3c-0.7,0.1-1.3,0.2-2,0.2c-0.6,0-1.2-0.1-1.8-0.2c-0.5-0.1-1-0.3-1.3-0.6c-0.4-0.3-0.7-0.6-0.9-1
					c-0.2-0.4-0.3-0.9-0.3-1.5c0-0.6,0.1-1.1,0.4-1.5c0.2-0.4,0.6-0.8,1-1.1c0.4-0.3,0.9-0.5,1.4-0.6c0.5-0.1,1.1-0.2,1.6-0.2
					C31.8,37.1,32.2,37.1,32.5,37.1z M29.8,41.8c0,0,0.6,0.5,1.9,0.4c0.9-0.1,1.8-0.2,1.8-0.2v-3c0,0-0.8-0.1-1.8-0.2
					c-1.3,0-1.9,0.5-1.9,0.5c-0.4,0.3-0.6,0.7-0.6,1.3c0,0.4,0.1,0.7,0.2,0.9C29.5,41.5,29.6,41.6,29.8,41.8z M85.9,33.7
					c-0.1,0.2-0.4,1.1-0.5,1.4c0,0.1-0.1,0.2-0.2,0.2c0,0-0.4-0.1-0.7-0.1c-0.2,0-0.6,0-0.9,0.1c-0.3,0.1-0.6,0.3-0.8,0.5
					c-0.2,0.2-0.4,0.6-0.6,1c-0.1,0.4-0.2,1.1-0.2,1.7v4.9c0,0.1-0.1,0.2-0.2,0.2H80c-0.1,0-0.2-0.1-0.2-0.2v-9.9
					c0-0.1,0.1-0.2,0.2-0.2h1.7c0.1,0,0.2,0.1,0.2,0.2v0.8c0.3-0.3,0.7-0.6,1.1-0.8c0.4-0.2,0.9-0.3,1.7-0.3c0.4,0,1,0.1,1.1,0.2
					C85.8,33.5,85.9,33.6,85.9,33.7z M69.5,29.2c0,0,0.2,0.1,0.1,0.2l-0.5,1.4c0,0.1-0.1,0.2-0.3,0.1c-0.1,0-0.1,0-0.3-0.1
					c-0.1,0-0.3-0.1-0.5-0.1c-0.3,0-0.5,0-0.7,0.1c-0.2,0.1-0.4,0.2-0.6,0.3c-0.2,0.2-0.4,0.4-0.5,0.7c-0.2,0.7-0.3,1.4-0.3,1.5H68
					c0.2,0,0.2,0.1,0.2,0.2L68,35c0,0.2-0.2,0.2-0.2,0.2h-2.2l-1.5,8.4c-0.2,0.9-0.4,1.6-0.6,2.2c-0.2,0.6-0.5,1.1-0.9,1.5
					c-0.4,0.4-0.8,0.7-1.2,0.9c-0.5,0.2-1,0.3-1.6,0.3c-0.3,0-0.6,0-1-0.1c-0.3-0.1-0.4-0.1-0.6-0.2c-0.1,0-0.1-0.1-0.1-0.3
					c0-0.1,0.4-1.2,0.5-1.3c0.1-0.2,0.2-0.1,0.2-0.1c0.1,0,0.2,0.1,0.4,0.1c0.2,0,0.4,0.1,0.5,0.1c0.3,0,0.6,0,0.8-0.1
					c0.3-0.1,0.4-0.3,0.6-0.5c0.2-0.2,0.3-0.5,0.5-0.9c0.1-0.4,0.3-1,0.4-1.6l1.5-8.3H62c-0.2,0-0.2-0.1-0.2-0.2l0.2-1.4
					c0-0.2,0.2-0.2,0.2-0.2h1.5l0.1-0.4c0.2-1.3,0.7-2.3,1.3-3c0.7-0.7,1.6-1,2.8-1c0.3,0,0.6,0,0.9,0.1
					C69.1,29,69.3,29.1,69.5,29.2z M39.9,43.5c0,0.1-0.1,0.2-0.2,0.2H38c-0.1,0-0.2-0.1-0.2-0.2V29.3c0-0.1,0.1-0.2,0.2-0.2h1.8
					c0.1,0,0.2,0.1,0.2,0.2V43.5z"/>
			</g>
		</g>
	</g>
</g>
</svg>
