<?xml version="1.0" encoding="UTF-8" standalone="no"?>
<!DOCTYPE svg PUBLIC "-//W3C//DTD SVG 1.1//EN"
 "http://www.w3.org/Graphics/SVG/1.1/DTD/svg11.dtd">
<!-- Generated by graphviz version 2.40.1 (20161225.0304)
 -->
<!-- Title: Salesforce+ ERD Pages: 1 -->
<svg width="1021pt" height="316pt"
 viewBox="0.00 0.00 1021.03 316.00" xmlns="http://www.w3.org/2000/svg" xmlns:xlink="http://www.w3.org/1999/xlink">
<g id="graph0" class="graph" transform="scale(1 1) rotate(0) translate(4 312)">
<title>Salesforce+ ERD</title>
<polygon fill="#efeffd" stroke="transparent" points="-4,4 -4,-312 1017.0269,-312 1017.0269,4 -4,4"/>
<text text-anchor="middle" x="964.5203" y="-5.8" font-family="Courier,monospace" font-size="9.00" fill="#000000">Salesforce ERD </text>
<!-- FinServ__IdentificationDocument__c -->
<g id="node1" class="node">
<title>FinServ__IdentificationDocument__c</title>
<g id="a_node1"><a xlink:href="#" xlink:title=" FinServ__IdentificationDocument__c ">
<polygon fill="#ffeeff" stroke="transparent" points="215.0269,-17 215.0269,-308 1013.0269,-308 1013.0269,-17 215.0269,-17"/>
<polygon fill="#add8e6" stroke="transparent" points="216.0269,-289.5 216.0269,-306.5 1012.0269,-306.5 1012.0269,-289.5 216.0269,-289.5"/>
<polygon fill="none" stroke="#99ccff" points="216.0269,-289.5 216.0269,-306.5 1012.0269,-306.5 1012.0269,-289.5 216.0269,-289.5"/>
<text text-anchor="start" x="501.8086" y="-295.7" font-family="Courier,monospace" font-weight="bold" font-size="11.00" fill="#000000">FinServ__IdentificationDocument__c</text>
<polygon fill="#99ccff" stroke="transparent" points="216.0269,-272.5 216.0269,-289.5 921.0269,-289.5 921.0269,-272.5 216.0269,-272.5"/>
<polygon fill="none" stroke="#99ccff" points="216.0269,-272.5 216.0269,-289.5 921.0269,-289.5 921.0269,-272.5 216.0269,-272.5"/>
<text text-anchor="start" x="219.0269" y="-278.7" font-family="Courier,monospace" font-size="11.00" fill="#000000"> &#160;&#160;&#160;&#160;&#160;&#160;&#160;&#160;&#160;&#160;&#160;&#160;&#160;&#160;&#160;&#160;&#160;&#160;&#160;&#160;&#160;&#160;&#160;&#160;&#160;&#160;&#160;&#160;&#160;&#160;&#160;&#160;&#160;&#160;&#160;&#160;&#160;&#160;&#160;&#160;&#160;&#160;</text>
<text text-anchor="start" x="502.873" y="-278.7" font-family="Courier,monospace" font-weight="bold" font-size="11.00" fill="#000000">Id</text>
<text text-anchor="start" x="516.0752" y="-278.7" font-family="Courier,monospace" font-size="11.00" fill="#000000"> &#160;&#160;&#160;&#160;&#160;&#160;&#160;&#160;&#160;&#160;&#160;&#160;&#160;&#160;&#160;&#160;&#160;&#160;&#160;&#160;&#160;&#160;&#160;&#160;&#160;&#160;&#160;&#160;&#160;&#160;&#160;&#160;&#160;&#160;&#160;&#160;&#160;&#160;&#160;</text>
<polygon fill="none" stroke="#99ccff" points="921.0269,-272.5 921.0269,-289.5 1012.0269,-289.5 1012.0269,-272.5 921.0269,-272.5"/>
<text text-anchor="start" x="946.7236" y="-277.7" font-family="Courier,monospace" font-size="11.00" fill="#000000">id(18)</text>
<polygon fill="none" stroke="#99ccff" points="216.0269,-255.5 216.0269,-272.5 921.0269,-272.5 921.0269,-255.5 216.0269,-255.5"/>
<text text-anchor="start" x="219.0269" y="-260.7" font-family="Courier,monospace" font-size="11.00" fill="#000000"> &#160;&#160;&#160;&#160;&#160;&#160;&#160;&#160;&#160;&#160;&#160;&#160;&#160;&#160;&#160;&#160;&#160;&#160;&#160;&#160;&#160;&#160;&#160;&#160;&#160;&#160;&#160;&#160;&#160;&#160;&#160;&#160;&#160;&#160;&#160;&#160;&#160;&#160;&#160;&#160;OwnerId &#160;&#160;&#160;&#160;&#160;&#160;&#160;&#160;&#160;&#160;&#160;&#160;&#160;&#160;&#160;&#160;&#160;&#160;&#160;&#160;&#160;&#160;&#160;&#160;&#160;&#160;&#160;&#160;&#160;&#160;&#160;&#160;&#160;&#160;&#160;&#160;&#160;&#160;</text>
<polygon fill="none" stroke="#99ccff" points="921.0269,-255.5 921.0269,-272.5 1012.0269,-272.5 1012.0269,-255.5 921.0269,-255.5"/>
<text text-anchor="start" x="923.6199" y="-260.7" font-family="Courier,monospace" font-size="11.00" fill="#000000">reference(18)</text>
<polygon fill="none" stroke="#99ccff" points="216.0269,-238.5 216.0269,-255.5 921.0269,-255.5 921.0269,-238.5 216.0269,-238.5"/>
<text text-anchor="start" x="219.0269" y="-243.7" font-family="Courier,monospace" font-size="11.00" fill="#000000"> &#160;&#160;&#160;&#160;&#160;&#160;&#160;&#160;&#160;&#160;&#160;&#160;&#160;&#160;&#160;&#160;&#160;&#160;&#160;&#160;&#160;&#160;&#160;&#160;&#160;&#160;&#160;&#160;&#160;&#160;&#160;&#160;&#160;&#160;&#160;&#160;&#160;&#160;&#160;&#160;IsDeleted &#160;&#160;&#160;&#160;&#160;&#160;&#160;&#160;&#160;&#160;&#160;&#160;&#160;&#160;&#160;&#160;&#160;&#160;&#160;&#160;&#160;&#160;&#160;&#160;&#160;&#160;&#160;&#160;&#160;&#160;&#160;&#160;&#160;&#160;&#160;&#160;&#160;&#160;</text>
<polygon fill="none" stroke="#99ccff" points="921.0269,-238.5 921.0269,-255.5 1012.0269,-255.5 1012.0269,-238.5 921.0269,-238.5"/>
<text text-anchor="start" x="943.4231" y="-243.7" font-family="Courier,monospace" font-size="11.00" fill="#000000">boolean</text>
<polygon fill="none" stroke="#99ccff" points="216.0269,-221.5 216.0269,-238.5 921.0269,-238.5 921.0269,-221.5 216.0269,-221.5"/>
<text text-anchor="start" x="219.0269" y="-226.7" font-family="Courier,monospace" font-size="11.00" fill="#000000"> &#160;&#160;&#160;&#160;&#160;&#160;&#160;&#160;&#160;&#160;&#160;&#160;&#160;&#160;&#160;&#160;&#160;&#160;&#160;&#160;&#160;&#160;&#160;&#160;&#160;&#160;&#160;&#160;&#160;&#160;&#160;&#160;&#160;&#160;&#160;&#160;&#160;&#160;&#160;&#160;Name &#160;&#160;&#160;&#160;&#160;&#160;&#160;&#160;&#160;&#160;&#160;&#160;&#160;&#160;&#160;&#160;&#160;&#160;&#160;&#160;&#160;&#160;&#160;&#160;&#160;&#160;&#160;&#160;&#160;&#160;&#160;&#160;&#160;&#160;&#160;&#160;&#160;&#160;</text>
<polygon fill="none" stroke="#99ccff" points="921.0269,-221.5 921.0269,-238.5 1012.0269,-238.5 1012.0269,-221.5 921.0269,-221.5"/>
<text text-anchor="start" x="933.5215" y="-226.7" font-family="Courier,monospace" font-size="11.00" fill="#000000">string(80)</text>
<polygon fill="none" stroke="#99ccff" points="216.0269,-204.5 216.0269,-221.5 921.0269,-221.5 921.0269,-204.5 216.0269,-204.5"/>
<text text-anchor="start" x="219.0269" y="-209.7" font-family="Courier,monospace" font-size="11.00" fill="#000000"> &#160;&#160;&#160;&#160;&#160;&#160;&#160;&#160;&#160;&#160;&#160;&#160;&#160;&#160;&#160;&#160;&#160;&#160;&#160;&#160;&#160;&#160;&#160;&#160;&#160;&#160;&#160;&#160;&#160;&#160;&#160;&#160;&#160;&#160;&#160;&#160;&#160;&#160;&#160;&#160;LastModifiedById &#160;&#160;&#160;&#160;&#160;&#160;&#160;&#160;&#160;&#160;&#160;&#160;&#160;&#160;&#160;&#160;&#160;&#160;&#160;&#160;&#160;&#160;&#160;&#160;&#160;&#160;&#160;&#160;&#160;&#160;&#160;&#160;&#160;&#160;&#160;&#160;&#160;&#160;</text>
<polygon fill="none" stroke="#99ccff" points="921.0269,-204.5 921.0269,-221.5 1012.0269,-221.5 1012.0269,-204.5 921.0269,-204.5"/>
<text text-anchor="start" x="923.6199" y="-209.7" font-family="Courier,monospace" font-size="11.00" fill="#000000">reference(18)</text>
<polygon fill="none" stroke="#99ccff" points="216.0269,-187.5 216.0269,-204.5 921.0269,-204.5 921.0269,-187.5 216.0269,-187.5"/>
<text text-anchor="start" x="219.0269" y="-192.7" font-family="Courier,monospace" font-size="11.00" fill="#000000"> &#160;&#160;&#160;&#160;&#160;&#160;&#160;&#160;&#160;&#160;&#160;&#160;&#160;&#160;&#160;&#160;&#160;&#160;&#160;&#160;&#160;&#160;&#160;&#160;&#160;&#160;&#160;&#160;&#160;&#160;&#160;&#160;&#160;&#160;&#160;&#160;&#160;&#160;&#160;&#160;LastViewedDate &#160;&#160;&#160;&#160;&#160;&#160;&#160;&#160;&#160;&#160;&#160;&#160;&#160;&#160;&#160;&#160;&#160;&#160;&#160;&#160;&#160;&#160;&#160;&#160;&#160;&#160;&#160;&#160;&#160;&#160;&#160;&#160;&#160;&#160;&#160;&#160;&#160;&#160;</text>
<polygon fill="none" stroke="#99ccff" points="921.0269,-187.5 921.0269,-204.5 1012.0269,-204.5 1012.0269,-187.5 921.0269,-187.5"/>
<text text-anchor="start" x="940.1226" y="-192.7" font-family="Courier,monospace" font-size="11.00" fill="#000000">datetime</text>
<polygon fill="none" stroke="#99ccff" points="216.0269,-170.5 216.0269,-187.5 921.0269,-187.5 921.0269,-170.5 216.0269,-170.5"/>
<text text-anchor="start" x="219.0269" y="-175.7" font-family="Courier,monospace" font-size="11.00" fill="#000000"> &#160;&#160;&#160;&#160;&#160;&#160;&#160;&#160;&#160;&#160;&#160;&#160;&#160;&#160;&#160;&#160;&#160;&#160;&#160;&#160;&#160;&#160;&#160;&#160;&#160;&#160;&#160;&#160;&#160;&#160;&#160;&#160;&#160;&#160;&#160;&#160;&#160;&#160;&#160;&#160;LastReferencedDate &#160;&#160;&#160;&#160;&#160;&#160;&#160;&#160;&#160;&#160;&#160;&#160;&#160;&#160;&#160;&#160;&#160;&#160;&#160;&#160;&#160;&#160;&#160;&#160;&#160;&#160;&#160;&#160;&#160;&#160;&#160;&#160;&#160;&#160;&#160;&#160;&#160;&#160;</text>
<polygon fill="none" stroke="#99ccff" points="921.0269,-170.5 921.0269,-187.5 1012.0269,-187.5 1012.0269,-170.5 921.0269,-170.5"/>
<text text-anchor="start" x="940.1226" y="-175.7" font-family="Courier,monospace" font-size="11.00" fill="#000000">datetime</text>
<polygon fill="none" stroke="#99ccff" points="216.0269,-153.5 216.0269,-170.5 921.0269,-170.5 921.0269,-153.5 216.0269,-153.5"/>
<text text-anchor="start" x="219.0269" y="-158.7" font-family="Courier,monospace" font-size="11.00" fill="#000000"> &#160;&#160;&#160;&#160;&#160;&#160;&#160;&#160;&#160;&#160;&#160;&#160;&#160;&#160;&#160;&#160;&#160;&#160;&#160;&#160;&#160;&#160;&#160;&#160;&#160;&#160;&#160;&#160;&#160;&#160;&#160;&#160;&#160;&#160;&#160;&#160;&#160;&#160;&#160;&#160;FinServ__Account__c &#160;&#160;&#160;&#160;&#160;&#160;&#160;&#160;&#160;&#160;&#160;&#160;&#160;&#160;&#160;&#160;&#160;&#160;&#160;&#160;&#160;&#160;&#160;&#160;&#160;&#160;&#160;&#160;&#160;&#160;&#160;&#160;&#160;&#160;&#160;&#160;&#160;&#160;</text>
<polygon fill="none" stroke="#99ccff" points="921.0269,-153.5 921.0269,-170.5 1012.0269,-170.5 1012.0269,-153.5 921.0269,-153.5"/>
<text text-anchor="start" x="923.6199" y="-158.7" font-family="Courier,monospace" font-size="11.00" fill="#000000">reference(18)</text>
<polygon fill="none" stroke="#99ccff" points="216.0269,-136.5 216.0269,-153.5 921.0269,-153.5 921.0269,-136.5 216.0269,-136.5"/>
<text text-anchor="start" x="218.6699" y="-141.7" font-family="Courier,monospace" font-size="11.00" fill="#000000"> &#160;&#160;&#160;&#160;&#160;&#160;&#160;&#160;&#160;&#160;&#160;&#160;&#160;&#160;&#160;&#160;&#160;&#160;&#160;&#160;&#160;&#160;&#160;&#160;&#160;&#160;&#160;&#160;&#160;&#160;&#160;&#160;&#160;&#160;&#160;&#160;&#160;&#160;&#160;&#160;FinServ__DocumentNumber__c &#160;&#160;&#160;&#160;&#160;&#160;&#160;&#160;&#160;&#160;&#160;&#160;&#160;&#160;&#160;&#160;&#160;&#160;&#160;&#160;&#160;&#160;&#160;&#160;&#160;&#160;&#160;&#160;&#160;&#160;&#160;&#160;&#160;&#160;&#160;&#160;&#160;&#160;</text>
<polygon fill="none" stroke="#99ccff" points="921.0269,-136.5 921.0269,-153.5 1012.0269,-153.5 1012.0269,-136.5 921.0269,-136.5"/>
<text text-anchor="start" x="930.2209" y="-141.7" font-family="Courier,monospace" font-size="11.00" fill="#000000">string(200)</text>
<polygon fill="none" stroke="#99ccff" points="216.0269,-119.5 216.0269,-136.5 921.0269,-136.5 921.0269,-119.5 216.0269,-119.5"/>
<text text-anchor="start" x="219.0269" y="-124.7" font-family="Courier,monospace" font-size="11.00" fill="#000000"> &#160;&#160;&#160;&#160;&#160;&#160;&#160;&#160;&#160;&#160;&#160;&#160;&#160;&#160;&#160;&#160;&#160;&#160;&#160;&#160;&#160;&#160;&#160;&#160;&#160;&#160;&#160;&#160;&#160;&#160;&#160;&#160;&#160;&#160;&#160;&#160;&#160;&#160;&#160;&#160;FinServ__DocumentType__c &#160;&#160;&#160;&#160;&#160;&#160;&#160;&#160;&#160;&#160;&#160;&#160;&#160;&#160;&#160;&#160;&#160;&#160;&#160;&#160;&#160;&#160;&#160;&#160;&#160;&#160;&#160;&#160;&#160;&#160;&#160;&#160;&#160;&#160;&#160;&#160;&#160;&#160;</text>
<polygon fill="none" stroke="#99ccff" points="921.0269,-119.5 921.0269,-136.5 1012.0269,-136.5 1012.0269,-119.5 921.0269,-119.5"/>
<text text-anchor="start" x="923.6199" y="-124.7" font-family="Courier,monospace" font-size="11.00" fill="#000000">picklist(255)</text>
<polygon fill="none" stroke="#99ccff" points="216.0269,-102.5 216.0269,-119.5 921.0269,-119.5 921.0269,-102.5 216.0269,-102.5"/>
<text text-anchor="start" x="218.6699" y="-107.7" font-family="Courier,monospace" font-size="11.00" fill="#000000"> &#160;&#160;&#160;&#160;&#160;&#160;&#160;&#160;&#160;&#160;&#160;&#160;&#160;&#160;&#160;&#160;&#160;&#160;&#160;&#160;&#160;&#160;&#160;&#160;&#160;&#160;&#160;&#160;&#160;&#160;&#160;&#160;&#160;&#160;&#160;&#160;&#160;&#160;&#160;&#160;FinServ__ExpirationDate__c &#160;&#160;&#160;&#160;&#160;&#160;&#160;&#160;&#160;&#160;&#160;&#160;&#160;&#160;&#160;&#160;&#160;&#160;&#160;&#160;&#160;&#160;&#160;&#160;&#160;&#160;&#160;&#160;&#160;&#160;&#160;&#160;&#160;&#160;&#160;&#160;&#160;&#160;</text>
<polygon fill="none" stroke="#99ccff" points="921.0269,-102.5 921.0269,-119.5 1012.0269,-119.5 1012.0269,-102.5 921.0269,-102.5"/>
<text text-anchor="start" x="953.3247" y="-107.7" font-family="Courier,monospace" font-size="11.00" fill="#000000">date</text>
<polygon fill="none" stroke="#99ccff" points="216.0269,-85.5 216.0269,-102.5 921.0269,-102.5 921.0269,-85.5 216.0269,-85.5"/>
<text text-anchor="start" x="219.0269" y="-90.7" font-family="Courier,monospace" font-size="11.00" fill="#000000"> &#160;&#160;&#160;&#160;&#160;&#160;&#160;&#160;&#160;&#160;&#160;&#160;&#160;&#160;&#160;&#160;&#160;&#160;&#160;&#160;&#160;&#160;&#160;&#160;&#160;&#160;&#160;&#160;&#160;&#160;&#160;&#160;&#160;&#160;&#160;&#160;&#160;&#160;&#160;&#160;FinServ__IssueDate__c &#160;&#160;&#160;&#160;&#160;&#160;&#160;&#160;&#160;&#160;&#160;&#160;&#160;&#160;&#160;&#160;&#160;&#160;&#160;&#160;&#160;&#160;&#160;&#160;&#160;&#160;&#160;&#160;&#160;&#160;&#160;&#160;&#160;&#160;&#160;&#160;&#160;&#160;</text>
<polygon fill="none" stroke="#99ccff" points="921.0269,-85.5 921.0269,-102.5 1012.0269,-102.5 1012.0269,-85.5 921.0269,-85.5"/>
<text text-anchor="start" x="953.3247" y="-90.7" font-family="Courier,monospace" font-size="11.00" fill="#000000">date</text>
<polygon fill="none" stroke="#99ccff" points="216.0269,-68.5 216.0269,-85.5 921.0269,-85.5 921.0269,-68.5 216.0269,-68.5"/>
<text text-anchor="start" x="218.6699" y="-73.7" font-family="Courier,monospace" font-size="11.00" fill="#000000"> &#160;&#160;&#160;&#160;&#160;&#160;&#160;&#160;&#160;&#160;&#160;&#160;&#160;&#160;&#160;&#160;&#160;&#160;&#160;&#160;&#160;&#160;&#160;&#160;&#160;&#160;&#160;&#160;&#160;&#160;&#160;&#160;&#160;&#160;&#160;&#160;&#160;&#160;&#160;&#160;FinServ__IssuingCountry__c &#160;&#160;&#160;&#160;&#160;&#160;&#160;&#160;&#160;&#160;&#160;&#160;&#160;&#160;&#160;&#160;&#160;&#160;&#160;&#160;&#160;&#160;&#160;&#160;&#160;&#160;&#160;&#160;&#160;&#160;&#160;&#160;&#160;&#160;&#160;&#160;&#160;&#160;</text>
<polygon fill="none" stroke="#99ccff" points="921.0269,-68.5 921.0269,-85.5 1012.0269,-85.5 1012.0269,-68.5 921.0269,-68.5"/>
<text text-anchor="start" x="923.6199" y="-73.7" font-family="Courier,monospace" font-size="11.00" fill="#000000">picklist(255)</text>
<polygon fill="none" stroke="#99ccff" points="216.0269,-51.5 216.0269,-68.5 921.0269,-68.5 921.0269,-51.5 216.0269,-51.5"/>
<text text-anchor="start" x="218.6699" y="-56.7" font-family="Courier,monospace" font-size="11.00" fill="#000000"> &#160;&#160;&#160;&#160;&#160;&#160;&#160;&#160;&#160;&#160;&#160;&#160;&#160;&#160;&#160;&#160;&#160;&#160;&#160;&#160;&#160;&#160;&#160;&#160;&#160;&#160;&#160;&#160;&#160;&#160;&#160;&#160;&#160;&#160;&#160;&#160;&#160;&#160;&#160;&#160;FinServ__SourceSystemId__c &#160;&#160;&#160;&#160;&#160;&#160;&#160;&#160;&#160;&#160;&#160;&#160;&#160;&#160;&#160;&#160;&#160;&#160;&#160;&#160;&#160;&#160;&#160;&#160;&#160;&#160;&#160;&#160;&#160;&#160;&#160;&#160;&#160;&#160;&#160;&#160;&#160;&#160;</text>
<polygon fill="none" stroke="#99ccff" points="921.0269,-51.5 921.0269,-68.5 1012.0269,-68.5 1012.0269,-51.5 921.0269,-51.5"/>
<text text-anchor="start" x="930.2209" y="-56.7" font-family="Courier,monospace" font-size="11.00" fill="#000000">string(100)</text>
<polygon fill="none" stroke="#99ccff" points="216.0269,-34.5 216.0269,-51.5 921.0269,-51.5 921.0269,-34.5 216.0269,-34.5"/>
<text text-anchor="start" x="219.0269" y="-39.7" font-family="Courier,monospace" font-size="11.00" fill="#000000"> &#160;&#160;&#160;&#160;&#160;&#160;&#160;&#160;&#160;&#160;&#160;&#160;&#160;&#160;&#160;&#160;&#160;&#160;&#160;&#160;&#160;&#160;&#160;&#160;&#160;&#160;&#160;&#160;&#160;&#160;&#160;&#160;&#160;&#160;&#160;&#160;&#160;&#160;&#160;&#160;FinServ__VerifiedBy__c &#160;&#160;&#160;&#160;&#160;&#160;&#160;&#160;&#160;&#160;&#160;&#160;&#160;&#160;&#160;&#160;&#160;&#160;&#160;&#160;&#160;&#160;&#160;&#160;&#160;&#160;&#160;&#160;&#160;&#160;&#160;&#160;&#160;&#160;&#160;&#160;&#160;&#160;</text>
<polygon fill="none" stroke="#99ccff" points="921.0269,-34.5 921.0269,-51.5 1012.0269,-51.5 1012.0269,-34.5 921.0269,-34.5"/>
<text text-anchor="start" x="923.6199" y="-39.7" font-family="Courier,monospace" font-size="11.00" fill="#000000">reference(18)</text>
<polygon fill="none" stroke="#99ccff" points="216.0269,-17.5 216.0269,-34.5 921.0269,-34.5 921.0269,-17.5 216.0269,-17.5"/>
<text text-anchor="start" x="219.0269" y="-22.7" font-family="Courier,monospace" font-size="11.00" fill="#000000"> &#160;&#160;&#160;&#160;&#160;&#160;&#160;&#160;&#160;&#160;&#160;&#160;&#160;&#160;&#160;&#160;&#160;&#160;&#160;&#160;&#160;&#160;&#160;&#160;&#160;&#160;&#160;&#160;&#160;&#160;&#160;&#160;&#160;&#160;&#160;&#160;&#160;&#160;&#160;&#160;FinServ__VerifiedOn__c &#160;&#160;&#160;&#160;&#160;&#160;&#160;&#160;&#160;&#160;&#160;&#160;&#160;&#160;&#160;&#160;&#160;&#160;&#160;&#160;&#160;&#160;&#160;&#160;&#160;&#160;&#160;&#160;&#160;&#160;&#160;&#160;&#160;&#160;&#160;&#160;&#160;&#160;</text>
<polygon fill="none" stroke="#99ccff" points="921.0269,-17.5 921.0269,-34.5 1012.0269,-34.5 1012.0269,-17.5 921.0269,-17.5"/>
<text text-anchor="start" x="940.1226" y="-22.7" font-family="Courier,monospace" font-size="11.00" fill="#000000">datetime</text>
<polygon fill="none" stroke="#99ccff" points="215.0269,-17 215.0269,-308 1013.0269,-308 1013.0269,-17 215.0269,-17"/>
</a>
</g>
</g>
<!-- Group -->
<g id="node2" class="node">
<title>Group</title>
<text text-anchor="middle" x="31.1038" y="-269.2" font-family="Courier,monospace" font-size="11.00" fill="#000000">Group</text>
</g>
<!-- FinServ__IdentificationDocument__c&#45;&gt;Group -->
<g id="edge1" class="edge">
<title>FinServ__IdentificationDocument__c:w&#45;&gt;Group:e</title>
<path fill="none" stroke="#ff99cc" d="M201.3848,-264.5791C148.9031,-265.1289 91.3029,-268.4205 58.3474,-270.5838"/>
<polygon fill="#ff99cc" stroke="#ff99cc" points="208.027,-264.5433 216.0463,-268.0999 212.0269,-264.5216 216.0269,-264.5 216.0269,-264.5 216.0269,-264.5 212.0269,-264.5216 216.0074,-260.9001 208.027,-264.5433 208.027,-264.5433"/>
<ellipse fill="none" stroke="#ff99cc" cx="204.827" cy="-264.5606" rx="3.2" ry="3.2"/>
<text text-anchor="middle" x="138.6172" y="-273.3015" font-family="Monaco" font-size="9.00" fill="#000000">Owner</text>
</g>
<!-- User -->
<g id="node3" class="node">
<title>User</title>
<text text-anchor="middle" x="31.1038" y="-209.2" font-family="Courier,monospace" font-size="11.00" fill="#000000">User</text>
</g>
<!-- FinServ__IdentificationDocument__c&#45;&gt;User -->
<g id="edge2" class="edge">
<title>FinServ__IdentificationDocument__c:w&#45;&gt;User:e</title>
<path fill="none" stroke="#ff99cc" d="M205.5231,-254.1753C204.0917,-250.5569 202.2945,-246.8205 198.0269,-244.4985 151.0504,-218.9397 131.4981,-236.7136 79.2075,-225.5 72.356,-224.0307 65.0244,-222.1897 58.2025,-220.3594"/>
<polygon fill="#ff99cc" stroke="#ff99cc" points="210.3216,-258.892 213.5032,-267.0674 213.1742,-261.696 216.0269,-264.5 216.0269,-264.5 216.0269,-264.5 213.1742,-261.696 218.5505,-261.9326 210.3216,-258.892 210.3216,-258.892"/>
<ellipse fill="none" stroke="#ff99cc" cx="208.0395" cy="-256.6487" rx="3.2" ry="3.2"/>
<text text-anchor="middle" x="138.6172" y="-248.3015" font-family="Monaco" font-size="9.00" fill="#000000">Owner</text>
</g>
<!-- FinServ__IdentificationDocument__c&#45;&gt;User -->
<g id="edge3" class="edge">
<title>FinServ__IdentificationDocument__c:w&#45;&gt;User:e</title>
<path fill="none" stroke="#ff99cc" d="M201.7022,-210.9707C200.6199,-210.7777 199.4161,-210.6136 198.0269,-210.4985 145.3984,-206.1408 132.0047,-209.4006 79.2075,-210.4985 72.4385,-210.6393 65.1372,-210.8914 58.3182,-211.1702"/>
<polygon fill="#ff99cc" stroke="#ff99cc" points="208.1487,-212.1089 215.4009,-217.0452 212.0878,-212.8045 216.0269,-213.5 216.0269,-213.5 216.0269,-213.5 212.0878,-212.8045 216.6528,-209.9548 208.1487,-212.1089 208.1487,-212.1089"/>
<ellipse fill="none" stroke="#ff99cc" cx="204.9975" cy="-211.5525" rx="3.2" ry="3.2"/>
<text text-anchor="middle" x="138.6172" y="-214.3015" font-family="Monaco" font-size="9.00" fill="#000000">LastModifiedBy</text>
</g>
<!-- FinServ__IdentificationDocument__c&#45;&gt;User -->
<g id="edge5" class="edge">
<title>FinServ__IdentificationDocument__c:w&#45;&gt;User:e</title>
<path fill="none" stroke="#ff99cc" d="M201.6136,-43.0705C137.7019,-48.3797 123.0047,-90.2241 79.2075,-146.4985 67.3431,-161.743 73.7158,-170.9849 62.2075,-186.5 60.1949,-189.2133 57.8435,-191.8232 55.3512,-194.2731"/>
<polygon fill="#ff99cc" stroke="#ff99cc" points="208.0331,-42.8164 216.1692,-46.0972 212.03,-42.6582 216.0269,-42.5 216.0269,-42.5 216.0269,-42.5 212.03,-42.6582 215.8845,-38.9028 208.0331,-42.8164 208.0331,-42.8164"/>
<ellipse fill="none" stroke="#ff99cc" cx="204.8356" cy="-42.943" rx="3.2" ry="3.2"/>
<text text-anchor="middle" x="138.6172" y="-151.3015" font-family="Monaco" font-size="9.00" fill="#000000">FinServ__VerifiedBy__r</text>
</g>
<!-- Account -->
<g id="node4" class="node">
<title>Account</title>
<text text-anchor="middle" x="31.1038" y="-158.2" font-family="Courier,monospace" font-size="11.00" fill="#000000">Account</text>
</g>
<!-- FinServ__IdentificationDocument__c&#45;&gt;Account -->
<g id="edge4" class="edge">
<title>FinServ__IdentificationDocument__c:w&#45;&gt;Account:e</title>
<path fill="none" stroke="#ff99cc" d="M201.6241,-161.5C151.2554,-161.5 96.0726,-161.5 62.515,-161.5"/>
<polygon fill="#ff99cc" stroke="#ff99cc" points="208.0269,-161.5001 216.0269,-165.1 212.0269,-161.5 216.0269,-161.5 216.0269,-161.5 216.0269,-161.5 212.0269,-161.5 216.0268,-157.9 208.0269,-161.5001 208.0269,-161.5001"/>
<ellipse fill="none" stroke="#ff99cc" cx="204.8269" cy="-161.5001" rx="3.2" ry="3.2"/>
<text text-anchor="middle" x="138.6172" y="-166.3015" font-family="Monaco" font-size="9.00" fill="#000000">FinServ__Account__r</text>
</g>
</g>
</svg>
