<?xml version="1.0" encoding="UTF-8" standalone="no"?>
<!DOCTYPE svg PUBLIC "-//W3C//DTD SVG 1.1//EN"
 "http://www.w3.org/Graphics/SVG/1.1/DTD/svg11.dtd">
<!-- Generated by graphviz version 2.40.1 (20161225.0304)
 -->
<!-- Title: Salesforce+ ERD Pages: 1 -->
<svg width="1005pt" height="248pt"
 viewBox="0.00 0.00 1004.82 248.00" xmlns="http://www.w3.org/2000/svg" xmlns:xlink="http://www.w3.org/1999/xlink">
<g id="graph0" class="graph" transform="scale(1 1) rotate(0) translate(4 244)">
<title>Salesforce+ ERD</title>
<polygon fill="#efeffd" stroke="transparent" points="-4,4 -4,-244 1000.8242,-244 1000.8242,4 -4,4"/>
<text text-anchor="middle" x="948.3176" y="-5.8" font-family="Courier,monospace" font-size="9.00" fill="#000000">Salesforce ERD </text>
<!-- FinServ__Education__c -->
<g id="node1" class="node">
<title>FinServ__Education__c</title>
<g id="a_node1"><a xlink:href="#" xlink:title=" FinServ__Education__c ">
<polygon fill="#ffeeff" stroke="transparent" points="198.8242,-17 198.8242,-240 996.8242,-240 996.8242,-17 198.8242,-17"/>
<polygon fill="#add8e6" stroke="transparent" points="199.8242,-221.5 199.8242,-238.5 995.8242,-238.5 995.8242,-221.5 199.8242,-221.5"/>
<polygon fill="none" stroke="#99ccff" points="199.8242,-221.5 199.8242,-238.5 995.8242,-238.5 995.8242,-221.5 199.8242,-221.5"/>
<text text-anchor="start" x="528.5129" y="-227.7" font-family="Courier,monospace" font-weight="bold" font-size="11.00" fill="#000000">FinServ__Education__c</text>
<polygon fill="#99ccff" stroke="transparent" points="199.8242,-204.5 199.8242,-221.5 904.8242,-221.5 904.8242,-204.5 199.8242,-204.5"/>
<polygon fill="none" stroke="#99ccff" points="199.8242,-204.5 199.8242,-221.5 904.8242,-221.5 904.8242,-204.5 199.8242,-204.5"/>
<text text-anchor="start" x="202.8242" y="-210.7" font-family="Courier,monospace" font-size="11.00" fill="#000000"> &#160;&#160;&#160;&#160;&#160;&#160;&#160;&#160;&#160;&#160;&#160;&#160;&#160;&#160;&#160;&#160;&#160;&#160;&#160;&#160;&#160;&#160;&#160;&#160;&#160;&#160;&#160;&#160;&#160;&#160;&#160;&#160;&#160;&#160;&#160;&#160;&#160;&#160;&#160;&#160;&#160;&#160;</text>
<text text-anchor="start" x="486.6704" y="-210.7" font-family="Courier,monospace" font-weight="bold" font-size="11.00" fill="#000000">Id</text>
<text text-anchor="start" x="499.8726" y="-210.7" font-family="Courier,monospace" font-size="11.00" fill="#000000"> &#160;&#160;&#160;&#160;&#160;&#160;&#160;&#160;&#160;&#160;&#160;&#160;&#160;&#160;&#160;&#160;&#160;&#160;&#160;&#160;&#160;&#160;&#160;&#160;&#160;&#160;&#160;&#160;&#160;&#160;&#160;&#160;&#160;&#160;&#160;&#160;&#160;&#160;&#160;</text>
<polygon fill="none" stroke="#99ccff" points="904.8242,-204.5 904.8242,-221.5 995.8242,-221.5 995.8242,-204.5 904.8242,-204.5"/>
<text text-anchor="start" x="930.521" y="-209.7" font-family="Courier,monospace" font-size="11.00" fill="#000000">id(18)</text>
<polygon fill="none" stroke="#99ccff" points="199.8242,-187.5 199.8242,-204.5 904.8242,-204.5 904.8242,-187.5 199.8242,-187.5"/>
<text text-anchor="start" x="202.8242" y="-192.7" font-family="Courier,monospace" font-size="11.00" fill="#000000"> &#160;&#160;&#160;&#160;&#160;&#160;&#160;&#160;&#160;&#160;&#160;&#160;&#160;&#160;&#160;&#160;&#160;&#160;&#160;&#160;&#160;&#160;&#160;&#160;&#160;&#160;&#160;&#160;&#160;&#160;&#160;&#160;&#160;&#160;&#160;&#160;&#160;&#160;&#160;&#160;OwnerId &#160;&#160;&#160;&#160;&#160;&#160;&#160;&#160;&#160;&#160;&#160;&#160;&#160;&#160;&#160;&#160;&#160;&#160;&#160;&#160;&#160;&#160;&#160;&#160;&#160;&#160;&#160;&#160;&#160;&#160;&#160;&#160;&#160;&#160;&#160;&#160;&#160;&#160;</text>
<polygon fill="none" stroke="#99ccff" points="904.8242,-187.5 904.8242,-204.5 995.8242,-204.5 995.8242,-187.5 904.8242,-187.5"/>
<text text-anchor="start" x="907.4172" y="-192.7" font-family="Courier,monospace" font-size="11.00" fill="#000000">reference(18)</text>
<polygon fill="none" stroke="#99ccff" points="199.8242,-170.5 199.8242,-187.5 904.8242,-187.5 904.8242,-170.5 199.8242,-170.5"/>
<text text-anchor="start" x="202.8242" y="-175.7" font-family="Courier,monospace" font-size="11.00" fill="#000000"> &#160;&#160;&#160;&#160;&#160;&#160;&#160;&#160;&#160;&#160;&#160;&#160;&#160;&#160;&#160;&#160;&#160;&#160;&#160;&#160;&#160;&#160;&#160;&#160;&#160;&#160;&#160;&#160;&#160;&#160;&#160;&#160;&#160;&#160;&#160;&#160;&#160;&#160;&#160;&#160;IsDeleted &#160;&#160;&#160;&#160;&#160;&#160;&#160;&#160;&#160;&#160;&#160;&#160;&#160;&#160;&#160;&#160;&#160;&#160;&#160;&#160;&#160;&#160;&#160;&#160;&#160;&#160;&#160;&#160;&#160;&#160;&#160;&#160;&#160;&#160;&#160;&#160;&#160;&#160;</text>
<polygon fill="none" stroke="#99ccff" points="904.8242,-170.5 904.8242,-187.5 995.8242,-187.5 995.8242,-170.5 904.8242,-170.5"/>
<text text-anchor="start" x="927.2205" y="-175.7" font-family="Courier,monospace" font-size="11.00" fill="#000000">boolean</text>
<polygon fill="none" stroke="#99ccff" points="199.8242,-153.5 199.8242,-170.5 904.8242,-170.5 904.8242,-153.5 199.8242,-153.5"/>
<text text-anchor="start" x="202.8242" y="-158.7" font-family="Courier,monospace" font-size="11.00" fill="#000000"> &#160;&#160;&#160;&#160;&#160;&#160;&#160;&#160;&#160;&#160;&#160;&#160;&#160;&#160;&#160;&#160;&#160;&#160;&#160;&#160;&#160;&#160;&#160;&#160;&#160;&#160;&#160;&#160;&#160;&#160;&#160;&#160;&#160;&#160;&#160;&#160;&#160;&#160;&#160;&#160;Name &#160;&#160;&#160;&#160;&#160;&#160;&#160;&#160;&#160;&#160;&#160;&#160;&#160;&#160;&#160;&#160;&#160;&#160;&#160;&#160;&#160;&#160;&#160;&#160;&#160;&#160;&#160;&#160;&#160;&#160;&#160;&#160;&#160;&#160;&#160;&#160;&#160;&#160;</text>
<polygon fill="none" stroke="#99ccff" points="904.8242,-153.5 904.8242,-170.5 995.8242,-170.5 995.8242,-153.5 904.8242,-153.5"/>
<text text-anchor="start" x="917.3188" y="-158.7" font-family="Courier,monospace" font-size="11.00" fill="#000000">string(80)</text>
<polygon fill="none" stroke="#99ccff" points="199.8242,-136.5 199.8242,-153.5 904.8242,-153.5 904.8242,-136.5 199.8242,-136.5"/>
<text text-anchor="start" x="202.8242" y="-141.7" font-family="Courier,monospace" font-size="11.00" fill="#000000"> &#160;&#160;&#160;&#160;&#160;&#160;&#160;&#160;&#160;&#160;&#160;&#160;&#160;&#160;&#160;&#160;&#160;&#160;&#160;&#160;&#160;&#160;&#160;&#160;&#160;&#160;&#160;&#160;&#160;&#160;&#160;&#160;&#160;&#160;&#160;&#160;&#160;&#160;&#160;&#160;LastModifiedById &#160;&#160;&#160;&#160;&#160;&#160;&#160;&#160;&#160;&#160;&#160;&#160;&#160;&#160;&#160;&#160;&#160;&#160;&#160;&#160;&#160;&#160;&#160;&#160;&#160;&#160;&#160;&#160;&#160;&#160;&#160;&#160;&#160;&#160;&#160;&#160;&#160;&#160;</text>
<polygon fill="none" stroke="#99ccff" points="904.8242,-136.5 904.8242,-153.5 995.8242,-153.5 995.8242,-136.5 904.8242,-136.5"/>
<text text-anchor="start" x="907.4172" y="-141.7" font-family="Courier,monospace" font-size="11.00" fill="#000000">reference(18)</text>
<polygon fill="none" stroke="#99ccff" points="199.8242,-119.5 199.8242,-136.5 904.8242,-136.5 904.8242,-119.5 199.8242,-119.5"/>
<text text-anchor="start" x="202.8242" y="-124.7" font-family="Courier,monospace" font-size="11.00" fill="#000000"> &#160;&#160;&#160;&#160;&#160;&#160;&#160;&#160;&#160;&#160;&#160;&#160;&#160;&#160;&#160;&#160;&#160;&#160;&#160;&#160;&#160;&#160;&#160;&#160;&#160;&#160;&#160;&#160;&#160;&#160;&#160;&#160;&#160;&#160;&#160;&#160;&#160;&#160;&#160;&#160;LastViewedDate &#160;&#160;&#160;&#160;&#160;&#160;&#160;&#160;&#160;&#160;&#160;&#160;&#160;&#160;&#160;&#160;&#160;&#160;&#160;&#160;&#160;&#160;&#160;&#160;&#160;&#160;&#160;&#160;&#160;&#160;&#160;&#160;&#160;&#160;&#160;&#160;&#160;&#160;</text>
<polygon fill="none" stroke="#99ccff" points="904.8242,-119.5 904.8242,-136.5 995.8242,-136.5 995.8242,-119.5 904.8242,-119.5"/>
<text text-anchor="start" x="923.9199" y="-124.7" font-family="Courier,monospace" font-size="11.00" fill="#000000">datetime</text>
<polygon fill="none" stroke="#99ccff" points="199.8242,-102.5 199.8242,-119.5 904.8242,-119.5 904.8242,-102.5 199.8242,-102.5"/>
<text text-anchor="start" x="202.8242" y="-107.7" font-family="Courier,monospace" font-size="11.00" fill="#000000"> &#160;&#160;&#160;&#160;&#160;&#160;&#160;&#160;&#160;&#160;&#160;&#160;&#160;&#160;&#160;&#160;&#160;&#160;&#160;&#160;&#160;&#160;&#160;&#160;&#160;&#160;&#160;&#160;&#160;&#160;&#160;&#160;&#160;&#160;&#160;&#160;&#160;&#160;&#160;&#160;LastReferencedDate &#160;&#160;&#160;&#160;&#160;&#160;&#160;&#160;&#160;&#160;&#160;&#160;&#160;&#160;&#160;&#160;&#160;&#160;&#160;&#160;&#160;&#160;&#160;&#160;&#160;&#160;&#160;&#160;&#160;&#160;&#160;&#160;&#160;&#160;&#160;&#160;&#160;&#160;</text>
<polygon fill="none" stroke="#99ccff" points="904.8242,-102.5 904.8242,-119.5 995.8242,-119.5 995.8242,-102.5 904.8242,-102.5"/>
<text text-anchor="start" x="923.9199" y="-107.7" font-family="Courier,monospace" font-size="11.00" fill="#000000">datetime</text>
<polygon fill="none" stroke="#99ccff" points="199.8242,-85.5 199.8242,-102.5 904.8242,-102.5 904.8242,-85.5 199.8242,-85.5"/>
<text text-anchor="start" x="202.8242" y="-90.7" font-family="Courier,monospace" font-size="11.00" fill="#000000"> &#160;&#160;&#160;&#160;&#160;&#160;&#160;&#160;&#160;&#160;&#160;&#160;&#160;&#160;&#160;&#160;&#160;&#160;&#160;&#160;&#160;&#160;&#160;&#160;&#160;&#160;&#160;&#160;&#160;&#160;&#160;&#160;&#160;&#160;&#160;&#160;&#160;&#160;&#160;&#160;FinServ__Contact__c &#160;&#160;&#160;&#160;&#160;&#160;&#160;&#160;&#160;&#160;&#160;&#160;&#160;&#160;&#160;&#160;&#160;&#160;&#160;&#160;&#160;&#160;&#160;&#160;&#160;&#160;&#160;&#160;&#160;&#160;&#160;&#160;&#160;&#160;&#160;&#160;&#160;&#160;</text>
<polygon fill="none" stroke="#99ccff" points="904.8242,-85.5 904.8242,-102.5 995.8242,-102.5 995.8242,-85.5 904.8242,-85.5"/>
<text text-anchor="start" x="907.4172" y="-90.7" font-family="Courier,monospace" font-size="11.00" fill="#000000">reference(18)</text>
<polygon fill="none" stroke="#99ccff" points="199.8242,-68.5 199.8242,-85.5 904.8242,-85.5 904.8242,-68.5 199.8242,-68.5"/>
<text text-anchor="start" x="202.4673" y="-73.7" font-family="Courier,monospace" font-size="11.00" fill="#000000"> &#160;&#160;&#160;&#160;&#160;&#160;&#160;&#160;&#160;&#160;&#160;&#160;&#160;&#160;&#160;&#160;&#160;&#160;&#160;&#160;&#160;&#160;&#160;&#160;&#160;&#160;&#160;&#160;&#160;&#160;&#160;&#160;&#160;&#160;&#160;&#160;&#160;&#160;&#160;&#160;FinServ__EducationLevel__c &#160;&#160;&#160;&#160;&#160;&#160;&#160;&#160;&#160;&#160;&#160;&#160;&#160;&#160;&#160;&#160;&#160;&#160;&#160;&#160;&#160;&#160;&#160;&#160;&#160;&#160;&#160;&#160;&#160;&#160;&#160;&#160;&#160;&#160;&#160;&#160;&#160;&#160;</text>
<polygon fill="none" stroke="#99ccff" points="904.8242,-68.5 904.8242,-85.5 995.8242,-85.5 995.8242,-68.5 904.8242,-68.5"/>
<text text-anchor="start" x="907.4172" y="-73.7" font-family="Courier,monospace" font-size="11.00" fill="#000000">picklist(255)</text>
<polygon fill="none" stroke="#99ccff" points="199.8242,-51.5 199.8242,-68.5 904.8242,-68.5 904.8242,-51.5 199.8242,-51.5"/>
<text text-anchor="start" x="202.4673" y="-56.7" font-family="Courier,monospace" font-size="11.00" fill="#000000"> &#160;&#160;&#160;&#160;&#160;&#160;&#160;&#160;&#160;&#160;&#160;&#160;&#160;&#160;&#160;&#160;&#160;&#160;&#160;&#160;&#160;&#160;&#160;&#160;&#160;&#160;&#160;&#160;&#160;&#160;&#160;&#160;&#160;&#160;&#160;&#160;&#160;&#160;&#160;&#160;FinServ__GraduationDate__c &#160;&#160;&#160;&#160;&#160;&#160;&#160;&#160;&#160;&#160;&#160;&#160;&#160;&#160;&#160;&#160;&#160;&#160;&#160;&#160;&#160;&#160;&#160;&#160;&#160;&#160;&#160;&#160;&#160;&#160;&#160;&#160;&#160;&#160;&#160;&#160;&#160;&#160;</text>
<polygon fill="none" stroke="#99ccff" points="904.8242,-51.5 904.8242,-68.5 995.8242,-68.5 995.8242,-51.5 904.8242,-51.5"/>
<text text-anchor="start" x="937.1221" y="-56.7" font-family="Courier,monospace" font-size="11.00" fill="#000000">date</text>
<polygon fill="none" stroke="#99ccff" points="199.8242,-34.5 199.8242,-51.5 904.8242,-51.5 904.8242,-34.5 199.8242,-34.5"/>
<text text-anchor="start" x="202.8242" y="-39.7" font-family="Courier,monospace" font-size="11.00" fill="#000000"> &#160;&#160;&#160;&#160;&#160;&#160;&#160;&#160;&#160;&#160;&#160;&#160;&#160;&#160;&#160;&#160;&#160;&#160;&#160;&#160;&#160;&#160;&#160;&#160;&#160;&#160;&#160;&#160;&#160;&#160;&#160;&#160;&#160;&#160;&#160;&#160;&#160;&#160;&#160;&#160;FinServ__Institution__c &#160;&#160;&#160;&#160;&#160;&#160;&#160;&#160;&#160;&#160;&#160;&#160;&#160;&#160;&#160;&#160;&#160;&#160;&#160;&#160;&#160;&#160;&#160;&#160;&#160;&#160;&#160;&#160;&#160;&#160;&#160;&#160;&#160;&#160;&#160;&#160;&#160;&#160;</text>
<polygon fill="none" stroke="#99ccff" points="904.8242,-34.5 904.8242,-51.5 995.8242,-51.5 995.8242,-34.5 904.8242,-34.5"/>
<text text-anchor="start" x="914.0183" y="-39.7" font-family="Courier,monospace" font-size="11.00" fill="#000000">string(255)</text>
<polygon fill="none" stroke="#99ccff" points="199.8242,-17.5 199.8242,-34.5 904.8242,-34.5 904.8242,-17.5 199.8242,-17.5"/>
<text text-anchor="start" x="202.4673" y="-22.7" font-family="Courier,monospace" font-size="11.00" fill="#000000"> &#160;&#160;&#160;&#160;&#160;&#160;&#160;&#160;&#160;&#160;&#160;&#160;&#160;&#160;&#160;&#160;&#160;&#160;&#160;&#160;&#160;&#160;&#160;&#160;&#160;&#160;&#160;&#160;&#160;&#160;&#160;&#160;&#160;&#160;&#160;&#160;&#160;&#160;&#160;&#160;FinServ__SourceSystemId__c &#160;&#160;&#160;&#160;&#160;&#160;&#160;&#160;&#160;&#160;&#160;&#160;&#160;&#160;&#160;&#160;&#160;&#160;&#160;&#160;&#160;&#160;&#160;&#160;&#160;&#160;&#160;&#160;&#160;&#160;&#160;&#160;&#160;&#160;&#160;&#160;&#160;&#160;</text>
<polygon fill="none" stroke="#99ccff" points="904.8242,-17.5 904.8242,-34.5 995.8242,-34.5 995.8242,-17.5 904.8242,-17.5"/>
<text text-anchor="start" x="914.0183" y="-22.7" font-family="Courier,monospace" font-size="11.00" fill="#000000">string(100)</text>
<polygon fill="none" stroke="#99ccff" points="198.8242,-17 198.8242,-240 996.8242,-240 996.8242,-17 198.8242,-17"/>
</a>
</g>
</g>
<!-- Group -->
<g id="node2" class="node">
<title>Group</title>
<text text-anchor="middle" x="31.1038" y="-202.2" font-family="Courier,monospace" font-size="11.00" fill="#000000">Group</text>
</g>
<!-- FinServ__Education__c&#45;&gt;Group -->
<g id="edge1" class="edge">
<title>FinServ__Education__c:w&#45;&gt;Group:e</title>
<path fill="none" stroke="#ff99cc" d="M185.268,-196.605C138.8925,-197.252 88.3875,-200.7474 58.2563,-203.1589"/>
<polygon fill="#ff99cc" stroke="#ff99cc" points="191.8244,-196.5578 199.8502,-200.0999 195.8243,-196.5289 199.8242,-196.5 199.8242,-196.5 199.8242,-196.5 195.8243,-196.5289 199.7982,-192.9001 191.8244,-196.5578 191.8244,-196.5578"/>
<ellipse fill="none" stroke="#ff99cc" cx="188.6245" cy="-196.5809" rx="3.2" ry="3.2"/>
<text text-anchor="middle" x="130.5159" y="-206.3015" font-family="Monaco" font-size="9.00" fill="#000000">Owner</text>
</g>
<!-- User -->
<g id="node3" class="node">
<title>User</title>
<text text-anchor="middle" x="31.1038" y="-148.2" font-family="Courier,monospace" font-size="11.00" fill="#000000">User</text>
</g>
<!-- FinServ__Education__c&#45;&gt;User -->
<g id="edge2" class="edge">
<title>FinServ__Education__c:w&#45;&gt;User:e</title>
<path fill="none" stroke="#ff99cc" d="M189.1358,-186.3212C187.6779,-183.0123 185.8301,-179.6436 181.8242,-177.4985 176.4111,-174.5998 100.1105,-162.3134 58.204,-155.7212"/>
<polygon fill="#ff99cc" stroke="#ff99cc" points="194.0309,-190.9829 197.3415,-199.107 196.9276,-193.7415 199.8242,-196.5 199.8242,-196.5 199.8242,-196.5 196.9276,-193.7415 202.3069,-193.893 194.0309,-190.9829 194.0309,-190.9829"/>
<ellipse fill="none" stroke="#ff99cc" cx="191.7136" cy="-188.7761" rx="3.2" ry="3.2"/>
<text text-anchor="middle" x="130.5159" y="-181.3015" font-family="Monaco" font-size="9.00" fill="#000000">Owner</text>
</g>
<!-- FinServ__Education__c&#45;&gt;User -->
<g id="edge3" class="edge">
<title>FinServ__Education__c:w&#45;&gt;User:e</title>
<path fill="none" stroke="#ff99cc" d="M185.4879,-143.8131C184.406,-143.6845 183.2056,-143.5751 181.8242,-143.4985 136.2867,-140.9746 124.6601,-139.7441 79.2075,-143.4985 72.3733,-144.0631 65.048,-145.0714 58.2266,-146.1862"/>
<polygon fill="#ff99cc" stroke="#ff99cc" points="191.879,-144.5651 199.4035,-149.0753 195.8516,-145.0325 199.8242,-145.5 199.8242,-145.5 199.8242,-145.5 195.8516,-145.0325 200.2449,-141.9247 191.879,-144.5651 191.879,-144.5651"/>
<ellipse fill="none" stroke="#ff99cc" cx="188.701" cy="-144.1911" rx="3.2" ry="3.2"/>
<text text-anchor="middle" x="130.5159" y="-147.3015" font-family="Monaco" font-size="9.00" fill="#000000">LastModifiedBy</text>
</g>
<!-- Contact -->
<g id="node4" class="node">
<title>Contact</title>
<text text-anchor="middle" x="31.1038" y="-90.2" font-family="Courier,monospace" font-size="11.00" fill="#000000">Contact</text>
</g>
<!-- FinServ__Education__c&#45;&gt;Contact -->
<g id="edge4" class="edge">
<title>FinServ__Education__c:w&#45;&gt;Contact:e</title>
<path fill="none" stroke="#ff99cc" d="M185.3141,-93.5C141.0827,-93.5 93.0183,-93.5 62.5106,-93.5"/>
<polygon fill="#ff99cc" stroke="#ff99cc" points="191.8242,-93.5001 199.8242,-97.1 195.8242,-93.5 199.8242,-93.5 199.8242,-93.5 199.8242,-93.5 195.8242,-93.5 199.8242,-89.9 191.8242,-93.5001 191.8242,-93.5001"/>
<ellipse fill="none" stroke="#ff99cc" cx="188.6242" cy="-93.5001" rx="3.2" ry="3.2"/>
<text text-anchor="middle" x="130.5159" y="-98.3015" font-family="Monaco" font-size="9.00" fill="#000000">FinServ__Contact__r</text>
</g>
</g>
</svg>
