<?xml version="1.0" encoding="UTF-8" standalone="no"?>
<!DOCTYPE svg PUBLIC "-//W3C//DTD SVG 1.1//EN"
 "http://www.w3.org/Graphics/SVG/1.1/DTD/svg11.dtd">
<!-- Generated by graphviz version 2.40.1 (20161225.0304)
 -->
<!-- Title: Salesforce+ ERD Pages: 1 -->
<svg width="1205pt" height="282pt"
 viewBox="0.00 0.00 1205.05 282.00" xmlns="http://www.w3.org/2000/svg" xmlns:xlink="http://www.w3.org/1999/xlink">
<g id="graph0" class="graph" transform="scale(1 1) rotate(0) translate(4 278)">
<title>Salesforce+ ERD</title>
<polygon fill="#efeffd" stroke="transparent" points="-4,4 -4,-278 1201.0547,-278 1201.0547,4 -4,4"/>
<text text-anchor="middle" x="1148.5481" y="-5.8" font-family="Courier,monospace" font-size="9.00" fill="#000000">Salesforce ERD </text>
<!-- FinServ__FinancialAccountRole__c -->
<g id="node1" class="node">
<title>FinServ__FinancialAccountRole__c</title>
<g id="a_node1"><a xlink:href="#" xlink:title=" FinServ__FinancialAccountRole__c ">
<polygon fill="#ffeeff" stroke="transparent" points="386.0547,-17 386.0547,-274 1197.0547,-274 1197.0547,-17 386.0547,-17"/>
<polygon fill="#add8e6" stroke="transparent" points="387.5547,-255.5 387.5547,-272.5 1196.5547,-272.5 1196.5547,-255.5 387.5547,-255.5"/>
<polygon fill="none" stroke="#99ccff" points="387.5547,-255.5 387.5547,-272.5 1196.5547,-272.5 1196.5547,-255.5 387.5547,-255.5"/>
<text text-anchor="start" x="686.4375" y="-261.7" font-family="Courier,monospace" font-weight="bold" font-size="11.00" fill="#000000">FinServ__FinancialAccountRole__c</text>
<polygon fill="#99ccff" stroke="transparent" points="387.5547,-238.5 387.5547,-255.5 1105.5547,-255.5 1105.5547,-238.5 387.5547,-238.5"/>
<polygon fill="none" stroke="#99ccff" points="387.5547,-238.5 387.5547,-255.5 1105.5547,-255.5 1105.5547,-238.5 387.5547,-238.5"/>
<text text-anchor="start" x="390.5547" y="-244.7" font-family="Courier,monospace" font-size="11.00" fill="#000000"> &#160;&#160;&#160;&#160;&#160;&#160;&#160;&#160;&#160;&#160;&#160;&#160;&#160;&#160;&#160;&#160;&#160;&#160;&#160;&#160;&#160;&#160;&#160;&#160;&#160;&#160;&#160;&#160;&#160;&#160;&#160;&#160;&#160;&#160;&#160;&#160;&#160;&#160;&#160;&#160;&#160;&#160;</text>
<text text-anchor="start" x="674.4009" y="-244.7" font-family="Courier,monospace" font-weight="bold" font-size="11.00" fill="#000000">Id</text>
<text text-anchor="start" x="687.603" y="-244.7" font-family="Courier,monospace" font-size="11.00" fill="#000000"> &#160;&#160;&#160;&#160;&#160;&#160;&#160;&#160;&#160;&#160;&#160;&#160;&#160;&#160;&#160;&#160;&#160;&#160;&#160;&#160;&#160;&#160;&#160;&#160;&#160;&#160;&#160;&#160;&#160;&#160;&#160;&#160;&#160;&#160;&#160;&#160;&#160;&#160;&#160;</text>
<polygon fill="none" stroke="#99ccff" points="1105.5547,-238.5 1105.5547,-255.5 1196.5547,-255.5 1196.5547,-238.5 1105.5547,-238.5"/>
<text text-anchor="start" x="1131.2515" y="-243.7" font-family="Courier,monospace" font-size="11.00" fill="#000000">id(18)</text>
<polygon fill="none" stroke="#99ccff" points="387.5547,-221.5 387.5547,-238.5 1105.5547,-238.5 1105.5547,-221.5 387.5547,-221.5"/>
<text text-anchor="start" x="390.5547" y="-226.7" font-family="Courier,monospace" font-size="11.00" fill="#000000"> &#160;&#160;&#160;&#160;&#160;&#160;&#160;&#160;&#160;&#160;&#160;&#160;&#160;&#160;&#160;&#160;&#160;&#160;&#160;&#160;&#160;&#160;&#160;&#160;&#160;&#160;&#160;&#160;&#160;&#160;&#160;&#160;&#160;&#160;&#160;&#160;&#160;&#160;&#160;&#160;IsDeleted &#160;&#160;&#160;&#160;&#160;&#160;&#160;&#160;&#160;&#160;&#160;&#160;&#160;&#160;&#160;&#160;&#160;&#160;&#160;&#160;&#160;&#160;&#160;&#160;&#160;&#160;&#160;&#160;&#160;&#160;&#160;&#160;&#160;&#160;&#160;&#160;&#160;&#160;</text>
<polygon fill="none" stroke="#99ccff" points="1105.5547,-221.5 1105.5547,-238.5 1196.5547,-238.5 1196.5547,-221.5 1105.5547,-221.5"/>
<text text-anchor="start" x="1127.9509" y="-226.7" font-family="Courier,monospace" font-size="11.00" fill="#000000">boolean</text>
<polygon fill="none" stroke="#99ccff" points="387.5547,-204.5 387.5547,-221.5 1105.5547,-221.5 1105.5547,-204.5 387.5547,-204.5"/>
<text text-anchor="start" x="390.5547" y="-209.7" font-family="Courier,monospace" font-size="11.00" fill="#000000"> &#160;&#160;&#160;&#160;&#160;&#160;&#160;&#160;&#160;&#160;&#160;&#160;&#160;&#160;&#160;&#160;&#160;&#160;&#160;&#160;&#160;&#160;&#160;&#160;&#160;&#160;&#160;&#160;&#160;&#160;&#160;&#160;&#160;&#160;&#160;&#160;&#160;&#160;&#160;&#160;Name &#160;&#160;&#160;&#160;&#160;&#160;&#160;&#160;&#160;&#160;&#160;&#160;&#160;&#160;&#160;&#160;&#160;&#160;&#160;&#160;&#160;&#160;&#160;&#160;&#160;&#160;&#160;&#160;&#160;&#160;&#160;&#160;&#160;&#160;&#160;&#160;&#160;&#160;</text>
<polygon fill="none" stroke="#99ccff" points="1105.5547,-204.5 1105.5547,-221.5 1196.5547,-221.5 1196.5547,-204.5 1105.5547,-204.5"/>
<text text-anchor="start" x="1118.0493" y="-209.7" font-family="Courier,monospace" font-size="11.00" fill="#000000">string(80)</text>
<polygon fill="none" stroke="#99ccff" points="387.5547,-187.5 387.5547,-204.5 1105.5547,-204.5 1105.5547,-187.5 387.5547,-187.5"/>
<text text-anchor="start" x="390.5547" y="-192.7" font-family="Courier,monospace" font-size="11.00" fill="#000000"> &#160;&#160;&#160;&#160;&#160;&#160;&#160;&#160;&#160;&#160;&#160;&#160;&#160;&#160;&#160;&#160;&#160;&#160;&#160;&#160;&#160;&#160;&#160;&#160;&#160;&#160;&#160;&#160;&#160;&#160;&#160;&#160;&#160;&#160;&#160;&#160;&#160;&#160;&#160;&#160;RecordTypeId &#160;&#160;&#160;&#160;&#160;&#160;&#160;&#160;&#160;&#160;&#160;&#160;&#160;&#160;&#160;&#160;&#160;&#160;&#160;&#160;&#160;&#160;&#160;&#160;&#160;&#160;&#160;&#160;&#160;&#160;&#160;&#160;&#160;&#160;&#160;&#160;&#160;&#160;</text>
<polygon fill="none" stroke="#99ccff" points="1105.5547,-187.5 1105.5547,-204.5 1196.5547,-204.5 1196.5547,-187.5 1105.5547,-187.5"/>
<text text-anchor="start" x="1108.1477" y="-192.7" font-family="Courier,monospace" font-size="11.00" fill="#000000">reference(18)</text>
<polygon fill="none" stroke="#99ccff" points="387.5547,-170.5 387.5547,-187.5 1105.5547,-187.5 1105.5547,-170.5 387.5547,-170.5"/>
<text text-anchor="start" x="390.5547" y="-175.7" font-family="Courier,monospace" font-size="11.00" fill="#000000"> &#160;&#160;&#160;&#160;&#160;&#160;&#160;&#160;&#160;&#160;&#160;&#160;&#160;&#160;&#160;&#160;&#160;&#160;&#160;&#160;&#160;&#160;&#160;&#160;&#160;&#160;&#160;&#160;&#160;&#160;&#160;&#160;&#160;&#160;&#160;&#160;&#160;&#160;&#160;&#160;LastModifiedById &#160;&#160;&#160;&#160;&#160;&#160;&#160;&#160;&#160;&#160;&#160;&#160;&#160;&#160;&#160;&#160;&#160;&#160;&#160;&#160;&#160;&#160;&#160;&#160;&#160;&#160;&#160;&#160;&#160;&#160;&#160;&#160;&#160;&#160;&#160;&#160;&#160;&#160;</text>
<polygon fill="none" stroke="#99ccff" points="1105.5547,-170.5 1105.5547,-187.5 1196.5547,-187.5 1196.5547,-170.5 1105.5547,-170.5"/>
<text text-anchor="start" x="1108.1477" y="-175.7" font-family="Courier,monospace" font-size="11.00" fill="#000000">reference(18)</text>
<polygon fill="none" stroke="#99ccff" points="387.5547,-153.5 387.5547,-170.5 1105.5547,-170.5 1105.5547,-153.5 387.5547,-153.5"/>
<text text-anchor="start" x="390.0967" y="-158.7" font-family="Courier,monospace" font-size="11.00" fill="#000000"> &#160;&#160;&#160;&#160;&#160;&#160;&#160;&#160;&#160;&#160;&#160;&#160;&#160;&#160;&#160;&#160;&#160;&#160;&#160;&#160;&#160;&#160;&#160;&#160;&#160;&#160;&#160;&#160;&#160;&#160;&#160;&#160;&#160;&#160;&#160;&#160;&#160;&#160;&#160;&#160;FinServ__FinancialAccount__c &#160;&#160;&#160;&#160;&#160;&#160;&#160;&#160;&#160;&#160;&#160;&#160;&#160;&#160;&#160;&#160;&#160;&#160;&#160;&#160;&#160;&#160;&#160;&#160;&#160;&#160;&#160;&#160;&#160;&#160;&#160;&#160;&#160;&#160;&#160;&#160;&#160;&#160;</text>
<polygon fill="none" stroke="#99ccff" points="1105.5547,-153.5 1105.5547,-170.5 1196.5547,-170.5 1196.5547,-153.5 1105.5547,-153.5"/>
<text text-anchor="start" x="1108.1477" y="-158.7" font-family="Courier,monospace" font-size="11.00" fill="#000000">reference(18)</text>
<polygon fill="none" stroke="#99ccff" points="387.5547,-136.5 387.5547,-153.5 1105.5547,-153.5 1105.5547,-136.5 387.5547,-136.5"/>
<text text-anchor="start" x="390.5547" y="-141.7" font-family="Courier,monospace" font-size="11.00" fill="#000000"> &#160;&#160;&#160;&#160;&#160;&#160;&#160;&#160;&#160;&#160;&#160;&#160;&#160;&#160;&#160;&#160;&#160;&#160;&#160;&#160;&#160;&#160;&#160;&#160;&#160;&#160;&#160;&#160;&#160;&#160;&#160;&#160;&#160;&#160;&#160;&#160;&#160;&#160;&#160;&#160;FinServ__Active__c &#160;&#160;&#160;&#160;&#160;&#160;&#160;&#160;&#160;&#160;&#160;&#160;&#160;&#160;&#160;&#160;&#160;&#160;&#160;&#160;&#160;&#160;&#160;&#160;&#160;&#160;&#160;&#160;&#160;&#160;&#160;&#160;&#160;&#160;&#160;&#160;&#160;&#160;</text>
<polygon fill="none" stroke="#99ccff" points="1105.5547,-136.5 1105.5547,-153.5 1196.5547,-153.5 1196.5547,-136.5 1105.5547,-136.5"/>
<text text-anchor="start" x="1127.9509" y="-141.7" font-family="Courier,monospace" font-size="11.00" fill="#000000">boolean</text>
<polygon fill="none" stroke="#99ccff" points="387.5547,-119.5 387.5547,-136.5 1105.5547,-136.5 1105.5547,-119.5 387.5547,-119.5"/>
<text text-anchor="start" x="390.5547" y="-124.7" font-family="Courier,monospace" font-size="11.00" fill="#000000"> &#160;&#160;&#160;&#160;&#160;&#160;&#160;&#160;&#160;&#160;&#160;&#160;&#160;&#160;&#160;&#160;&#160;&#160;&#160;&#160;&#160;&#160;&#160;&#160;&#160;&#160;&#160;&#160;&#160;&#160;&#160;&#160;&#160;&#160;&#160;&#160;&#160;&#160;&#160;&#160;FinServ__Editable__c &#160;&#160;&#160;&#160;&#160;&#160;&#160;&#160;&#160;&#160;&#160;&#160;&#160;&#160;&#160;&#160;&#160;&#160;&#160;&#160;&#160;&#160;&#160;&#160;&#160;&#160;&#160;&#160;&#160;&#160;&#160;&#160;&#160;&#160;&#160;&#160;&#160;&#160;</text>
<polygon fill="none" stroke="#99ccff" points="1105.5547,-119.5 1105.5547,-136.5 1196.5547,-136.5 1196.5547,-119.5 1105.5547,-119.5"/>
<text text-anchor="start" x="1127.9509" y="-124.7" font-family="Courier,monospace" font-size="11.00" fill="#000000">boolean</text>
<polygon fill="none" stroke="#99ccff" points="387.5547,-102.5 387.5547,-119.5 1105.5547,-119.5 1105.5547,-102.5 387.5547,-102.5"/>
<text text-anchor="start" x="390.5547" y="-107.7" font-family="Courier,monospace" font-size="11.00" fill="#000000"> &#160;&#160;&#160;&#160;&#160;&#160;&#160;&#160;&#160;&#160;&#160;&#160;&#160;&#160;&#160;&#160;&#160;&#160;&#160;&#160;&#160;&#160;&#160;&#160;&#160;&#160;&#160;&#160;&#160;&#160;&#160;&#160;&#160;&#160;&#160;&#160;&#160;&#160;&#160;&#160;FinServ__EndDate__c &#160;&#160;&#160;&#160;&#160;&#160;&#160;&#160;&#160;&#160;&#160;&#160;&#160;&#160;&#160;&#160;&#160;&#160;&#160;&#160;&#160;&#160;&#160;&#160;&#160;&#160;&#160;&#160;&#160;&#160;&#160;&#160;&#160;&#160;&#160;&#160;&#160;&#160;</text>
<polygon fill="none" stroke="#99ccff" points="1105.5547,-102.5 1105.5547,-119.5 1196.5547,-119.5 1196.5547,-102.5 1105.5547,-102.5"/>
<text text-anchor="start" x="1137.8525" y="-107.7" font-family="Courier,monospace" font-size="11.00" fill="#000000">date</text>
<polygon fill="none" stroke="#99ccff" points="387.5547,-85.5 387.5547,-102.5 1105.5547,-102.5 1105.5547,-85.5 387.5547,-85.5"/>
<text text-anchor="start" x="390.5547" y="-90.7" font-family="Courier,monospace" font-size="11.00" fill="#000000"> &#160;&#160;&#160;&#160;&#160;&#160;&#160;&#160;&#160;&#160;&#160;&#160;&#160;&#160;&#160;&#160;&#160;&#160;&#160;&#160;&#160;&#160;&#160;&#160;&#160;&#160;&#160;&#160;&#160;&#160;&#160;&#160;&#160;&#160;&#160;&#160;&#160;&#160;&#160;&#160;FinServ__RelatedAccount__c &#160;&#160;&#160;&#160;&#160;&#160;&#160;&#160;&#160;&#160;&#160;&#160;&#160;&#160;&#160;&#160;&#160;&#160;&#160;&#160;&#160;&#160;&#160;&#160;&#160;&#160;&#160;&#160;&#160;&#160;&#160;&#160;&#160;&#160;&#160;&#160;&#160;&#160;</text>
<polygon fill="none" stroke="#99ccff" points="1105.5547,-85.5 1105.5547,-102.5 1196.5547,-102.5 1196.5547,-85.5 1105.5547,-85.5"/>
<text text-anchor="start" x="1108.1477" y="-90.7" font-family="Courier,monospace" font-size="11.00" fill="#000000">reference(18)</text>
<polygon fill="none" stroke="#99ccff" points="387.5547,-68.5 387.5547,-85.5 1105.5547,-85.5 1105.5547,-68.5 387.5547,-68.5"/>
<text text-anchor="start" x="390.5547" y="-73.7" font-family="Courier,monospace" font-size="11.00" fill="#000000"> &#160;&#160;&#160;&#160;&#160;&#160;&#160;&#160;&#160;&#160;&#160;&#160;&#160;&#160;&#160;&#160;&#160;&#160;&#160;&#160;&#160;&#160;&#160;&#160;&#160;&#160;&#160;&#160;&#160;&#160;&#160;&#160;&#160;&#160;&#160;&#160;&#160;&#160;&#160;&#160;FinServ__RelatedContact__c &#160;&#160;&#160;&#160;&#160;&#160;&#160;&#160;&#160;&#160;&#160;&#160;&#160;&#160;&#160;&#160;&#160;&#160;&#160;&#160;&#160;&#160;&#160;&#160;&#160;&#160;&#160;&#160;&#160;&#160;&#160;&#160;&#160;&#160;&#160;&#160;&#160;&#160;</text>
<polygon fill="none" stroke="#99ccff" points="1105.5547,-68.5 1105.5547,-85.5 1196.5547,-85.5 1196.5547,-68.5 1105.5547,-68.5"/>
<text text-anchor="start" x="1108.1477" y="-73.7" font-family="Courier,monospace" font-size="11.00" fill="#000000">reference(18)</text>
<polygon fill="none" stroke="#99ccff" points="387.5547,-51.5 387.5547,-68.5 1105.5547,-68.5 1105.5547,-51.5 387.5547,-51.5"/>
<text text-anchor="start" x="390.5547" y="-56.7" font-family="Courier,monospace" font-size="11.00" fill="#000000"> &#160;&#160;&#160;&#160;&#160;&#160;&#160;&#160;&#160;&#160;&#160;&#160;&#160;&#160;&#160;&#160;&#160;&#160;&#160;&#160;&#160;&#160;&#160;&#160;&#160;&#160;&#160;&#160;&#160;&#160;&#160;&#160;&#160;&#160;&#160;&#160;&#160;&#160;&#160;&#160;FinServ__Role__c &#160;&#160;&#160;&#160;&#160;&#160;&#160;&#160;&#160;&#160;&#160;&#160;&#160;&#160;&#160;&#160;&#160;&#160;&#160;&#160;&#160;&#160;&#160;&#160;&#160;&#160;&#160;&#160;&#160;&#160;&#160;&#160;&#160;&#160;&#160;&#160;&#160;&#160;</text>
<polygon fill="none" stroke="#99ccff" points="1105.5547,-51.5 1105.5547,-68.5 1196.5547,-68.5 1196.5547,-51.5 1105.5547,-51.5"/>
<text text-anchor="start" x="1108.1477" y="-56.7" font-family="Courier,monospace" font-size="11.00" fill="#000000">picklist(255)</text>
<polygon fill="none" stroke="#99ccff" points="387.5547,-34.5 387.5547,-51.5 1105.5547,-51.5 1105.5547,-34.5 387.5547,-34.5"/>
<text text-anchor="start" x="390.5547" y="-39.7" font-family="Courier,monospace" font-size="11.00" fill="#000000"> &#160;&#160;&#160;&#160;&#160;&#160;&#160;&#160;&#160;&#160;&#160;&#160;&#160;&#160;&#160;&#160;&#160;&#160;&#160;&#160;&#160;&#160;&#160;&#160;&#160;&#160;&#160;&#160;&#160;&#160;&#160;&#160;&#160;&#160;&#160;&#160;&#160;&#160;&#160;&#160;FinServ__SourceSystemId__c &#160;&#160;&#160;&#160;&#160;&#160;&#160;&#160;&#160;&#160;&#160;&#160;&#160;&#160;&#160;&#160;&#160;&#160;&#160;&#160;&#160;&#160;&#160;&#160;&#160;&#160;&#160;&#160;&#160;&#160;&#160;&#160;&#160;&#160;&#160;&#160;&#160;&#160;</text>
<polygon fill="none" stroke="#99ccff" points="1105.5547,-34.5 1105.5547,-51.5 1196.5547,-51.5 1196.5547,-34.5 1105.5547,-34.5"/>
<text text-anchor="start" x="1114.7488" y="-39.7" font-family="Courier,monospace" font-size="11.00" fill="#000000">string(100)</text>
<polygon fill="none" stroke="#99ccff" points="387.5547,-17.5 387.5547,-34.5 1105.5547,-34.5 1105.5547,-17.5 387.5547,-17.5"/>
<text text-anchor="start" x="390.5547" y="-22.7" font-family="Courier,monospace" font-size="11.00" fill="#000000"> &#160;&#160;&#160;&#160;&#160;&#160;&#160;&#160;&#160;&#160;&#160;&#160;&#160;&#160;&#160;&#160;&#160;&#160;&#160;&#160;&#160;&#160;&#160;&#160;&#160;&#160;&#160;&#160;&#160;&#160;&#160;&#160;&#160;&#160;&#160;&#160;&#160;&#160;&#160;&#160;FinServ__StartDate__c &#160;&#160;&#160;&#160;&#160;&#160;&#160;&#160;&#160;&#160;&#160;&#160;&#160;&#160;&#160;&#160;&#160;&#160;&#160;&#160;&#160;&#160;&#160;&#160;&#160;&#160;&#160;&#160;&#160;&#160;&#160;&#160;&#160;&#160;&#160;&#160;&#160;&#160;</text>
<polygon fill="none" stroke="#99ccff" points="1105.5547,-17.5 1105.5547,-34.5 1196.5547,-34.5 1196.5547,-17.5 1105.5547,-17.5"/>
<text text-anchor="start" x="1137.8525" y="-22.7" font-family="Courier,monospace" font-size="11.00" fill="#000000">date</text>
<polygon fill="none" stroke="#99ccff" points="386.0547,-17 386.0547,-274 1197.0547,-274 1197.0547,-17 386.0547,-17"/>
</a>
</g>
</g>
<!-- RecordType -->
<g id="node2" class="node">
<title>RecordType</title>
<text text-anchor="middle" x="100.415" y="-237.2" font-family="Courier,monospace" font-size="11.00" fill="#000000">RecordType</text>
</g>
<!-- FinServ__FinancialAccountRole__c&#45;&gt;RecordType -->
<g id="edge1" class="edge">
<title>FinServ__FinancialAccountRole__c:w&#45;&gt;RecordType:e</title>
<path fill="none" stroke="#ff99cc" d="M372.9733,-198.0725C329.8559,-203.7525 206.4607,-223.4219 141.5178,-233.8651"/>
<polygon fill="#ff99cc" stroke="#ff99cc" points="379.6008,-197.3578 387.9407,-200.0792 383.5777,-196.9289 387.5547,-196.5 387.5547,-196.5 387.5547,-196.5 383.5777,-196.9289 387.1687,-192.9208 379.6008,-197.3578 379.6008,-197.3578"/>
<ellipse fill="none" stroke="#ff99cc" cx="376.4193" cy="-197.701" rx="3.2" ry="3.2"/>
<text text-anchor="middle" x="293.4424" y="-225.3015" font-family="Monaco" font-size="9.00" fill="#000000">RecordType</text>
</g>
<!-- User -->
<g id="node3" class="node">
<title>User</title>
<text text-anchor="middle" x="100.415" y="-188.2" font-family="Courier,monospace" font-size="11.00" fill="#000000">User</text>
</g>
<!-- FinServ__FinancialAccountRole__c&#45;&gt;User -->
<g id="edge2" class="edge">
<title>FinServ__FinancialAccountRole__c:w&#45;&gt;User:e</title>
<path fill="none" stroke="#ff99cc" d="M372.872,-179.5506C280.6634,-180.1734 176.1413,-186.3867 127.717,-189.5986"/>
<polygon fill="#ff99cc" stroke="#ff99cc" points="379.5547,-179.5276 387.5671,-183.1 383.5547,-179.5138 387.5547,-179.5 387.5547,-179.5 387.5547,-179.5 383.5547,-179.5138 387.5422,-175.9 379.5547,-179.5276 379.5547,-179.5276"/>
<ellipse fill="none" stroke="#ff99cc" cx="376.3548" cy="-179.5387" rx="3.2" ry="3.2"/>
<text text-anchor="middle" x="293.4424" y="-188.3015" font-family="Monaco" font-size="9.00" fill="#000000">LastModifiedBy</text>
</g>
<!-- FinServ__FinancialAccount__c -->
<g id="node4" class="node">
<title>FinServ__FinancialAccount__c</title>
<text text-anchor="middle" x="100.415" y="-139.2" font-family="Courier,monospace" font-size="11.00" fill="#000000">FinServ__FinancialAccount__c</text>
</g>
<!-- FinServ__FinancialAccountRole__c&#45;&gt;FinServ__FinancialAccount__c -->
<g id="edge3" class="edge">
<title>FinServ__FinancialAccountRole__c:w&#45;&gt;FinServ__FinancialAccount__c:e</title>
<path fill="none" stroke="#ff99cc" d="M372.8779,-162.4159C314.7001,-161.763 251.7051,-157.4098 200.9567,-152.9393"/>
<polygon fill="#ff99cc" stroke="#ff99cc" points="379.5548,-162.4541 387.534,-166.0999 383.5548,-162.4771 387.5547,-162.5 387.5547,-162.5 387.5547,-162.5 383.5548,-162.4771 387.5753,-158.9001 379.5548,-162.4541 379.5548,-162.4541"/>
<ellipse fill="none" stroke="#ff99cc" cx="376.3549" cy="-162.4358" rx="3.2" ry="3.2"/>
<text text-anchor="middle" x="293.4424" y="-166.3015" font-family="Monaco" font-size="9.00" fill="#000000">FinServ__FinancialAccount__r</text>
</g>
<!-- Account -->
<g id="node5" class="node">
<title>Account</title>
<text text-anchor="middle" x="100.415" y="-90.2" font-family="Courier,monospace" font-size="11.00" fill="#000000">Account</text>
</g>
<!-- FinServ__FinancialAccountRole__c&#45;&gt;Account -->
<g id="edge4" class="edge">
<title>FinServ__FinancialAccountRole__c:w&#45;&gt;Account:e</title>
<path fill="none" stroke="#ff99cc" d="M372.9929,-93.5C283.3594,-93.5 181.9451,-93.5 131.8568,-93.5"/>
<polygon fill="#ff99cc" stroke="#ff99cc" points="379.5547,-93.5001 387.5547,-97.1 383.5547,-93.5 387.5547,-93.5 387.5547,-93.5 387.5547,-93.5 383.5547,-93.5 387.5547,-89.9 379.5547,-93.5001 379.5547,-93.5001"/>
<ellipse fill="none" stroke="#ff99cc" cx="376.3547" cy="-93.5001" rx="3.2" ry="3.2"/>
<text text-anchor="middle" x="293.4424" y="-98.3015" font-family="Monaco" font-size="9.00" fill="#000000">FinServ__RelatedAccount__r</text>
</g>
<!-- Contact -->
<g id="node6" class="node">
<title>Contact</title>
<text text-anchor="middle" x="100.415" y="-41.2" font-family="Courier,monospace" font-size="11.00" fill="#000000">Contact</text>
</g>
<!-- FinServ__FinancialAccountRole__c&#45;&gt;Contact -->
<g id="edge5" class="edge">
<title>FinServ__FinancialAccountRole__c:w&#45;&gt;Contact:e</title>
<path fill="none" stroke="#ff99cc" d="M372.9101,-76.3669C282.8108,-74.7627 181.6422,-59.0392 131.7296,-50.295"/>
<polygon fill="#ff99cc" stroke="#ff99cc" points="379.555,-76.4273 387.522,-80.0999 383.5549,-76.4636 387.5547,-76.5 387.5547,-76.5 387.5547,-76.5 383.5549,-76.4636 387.5874,-72.9001 379.555,-76.4273 379.555,-76.4273"/>
<ellipse fill="none" stroke="#ff99cc" cx="376.3551" cy="-76.3982" rx="3.2" ry="3.2"/>
<text text-anchor="middle" x="293.4424" y="-81.3015" font-family="Monaco" font-size="9.00" fill="#000000">FinServ__RelatedContact__r</text>
</g>
</g>
</svg>
