<?xml version="1.0" encoding="UTF-8" standalone="no"?>
<!DOCTYPE svg PUBLIC "-//W3C//DTD SVG 1.1//EN"
 "http://www.w3.org/Graphics/SVG/1.1/DTD/svg11.dtd">
<!-- Generated by graphviz version 2.40.1 (20161225.0304)
 -->
<!-- Title: Salesforce+ ERD Pages: 1 -->
<svg width="1212pt" height="435pt"
 viewBox="0.00 0.00 1212.05 435.00" xmlns="http://www.w3.org/2000/svg" xmlns:xlink="http://www.w3.org/1999/xlink">
<g id="graph0" class="graph" transform="scale(1 1) rotate(0) translate(4 431)">
<title>Salesforce+ ERD</title>
<polygon fill="#efeffd" stroke="transparent" points="-4,4 -4,-431 1208.0547,-431 1208.0547,4 -4,4"/>
<text text-anchor="middle" x="1155.5481" y="-5.8" font-family="Courier,monospace" font-size="9.00" fill="#000000">Salesforce ERD </text>
<!-- FinServ__FinancialHolding__c -->
<g id="node1" class="node">
<title>FinServ__FinancialHolding__c</title>
<g id="a_node1"><a xlink:href="#" xlink:title=" FinServ__FinancialHolding__c ">
<polygon fill="#ffeeff" stroke="transparent" points="386.0547,-17 386.0547,-427 1204.0547,-427 1204.0547,-17 386.0547,-17"/>
<polygon fill="#add8e6" stroke="transparent" points="387.0547,-409 387.0547,-426 1203.0547,-426 1203.0547,-409 387.0547,-409"/>
<polygon fill="none" stroke="#99ccff" points="387.0547,-409 387.0547,-426 1203.0547,-426 1203.0547,-409 387.0547,-409"/>
<text text-anchor="start" x="702.6396" y="-415.2" font-family="Courier,monospace" font-weight="bold" font-size="11.00" fill="#000000">FinServ__FinancialHolding__c</text>
<polygon fill="#99ccff" stroke="transparent" points="387.0547,-392 387.0547,-409 1112.0547,-409 1112.0547,-392 387.0547,-392"/>
<polygon fill="none" stroke="#99ccff" points="387.0547,-392 387.0547,-409 1112.0547,-409 1112.0547,-392 387.0547,-392"/>
<text text-anchor="start" x="390.0547" y="-398.2" font-family="Courier,monospace" font-size="11.00" fill="#000000"> &#160;&#160;&#160;&#160;&#160;&#160;&#160;&#160;&#160;&#160;&#160;&#160;&#160;&#160;&#160;&#160;&#160;&#160;&#160;&#160;&#160;&#160;&#160;&#160;&#160;&#160;&#160;&#160;&#160;&#160;&#160;&#160;&#160;&#160;&#160;&#160;&#160;&#160;&#160;&#160;&#160;&#160;</text>
<text text-anchor="start" x="673.9009" y="-398.2" font-family="Courier,monospace" font-weight="bold" font-size="11.00" fill="#000000">Id</text>
<text text-anchor="start" x="687.103" y="-398.2" font-family="Courier,monospace" font-size="11.00" fill="#000000"> &#160;&#160;&#160;&#160;&#160;&#160;&#160;&#160;&#160;&#160;&#160;&#160;&#160;&#160;&#160;&#160;&#160;&#160;&#160;&#160;&#160;&#160;&#160;&#160;&#160;&#160;&#160;&#160;&#160;&#160;&#160;&#160;&#160;&#160;&#160;&#160;&#160;&#160;&#160;</text>
<polygon fill="none" stroke="#99ccff" points="1112.0547,-392 1112.0547,-409 1203.0547,-409 1203.0547,-392 1112.0547,-392"/>
<text text-anchor="start" x="1137.7515" y="-397.2" font-family="Courier,monospace" font-size="11.00" fill="#000000">id(18)</text>
<polygon fill="none" stroke="#99ccff" points="387.0547,-375 387.0547,-392 1112.0547,-392 1112.0547,-375 387.0547,-375"/>
<text text-anchor="start" x="390.0547" y="-380.2" font-family="Courier,monospace" font-size="11.00" fill="#000000"> &#160;&#160;&#160;&#160;&#160;&#160;&#160;&#160;&#160;&#160;&#160;&#160;&#160;&#160;&#160;&#160;&#160;&#160;&#160;&#160;&#160;&#160;&#160;&#160;&#160;&#160;&#160;&#160;&#160;&#160;&#160;&#160;&#160;&#160;&#160;&#160;&#160;&#160;&#160;&#160;IsDeleted &#160;&#160;&#160;&#160;&#160;&#160;&#160;&#160;&#160;&#160;&#160;&#160;&#160;&#160;&#160;&#160;&#160;&#160;&#160;&#160;&#160;&#160;&#160;&#160;&#160;&#160;&#160;&#160;&#160;&#160;&#160;&#160;&#160;&#160;&#160;&#160;&#160;&#160;</text>
<polygon fill="none" stroke="#99ccff" points="1112.0547,-375 1112.0547,-392 1203.0547,-392 1203.0547,-375 1112.0547,-375"/>
<text text-anchor="start" x="1134.4509" y="-380.2" font-family="Courier,monospace" font-size="11.00" fill="#000000">boolean</text>
<polygon fill="none" stroke="#99ccff" points="387.0547,-358 387.0547,-375 1112.0547,-375 1112.0547,-358 387.0547,-358"/>
<text text-anchor="start" x="390.0547" y="-363.2" font-family="Courier,monospace" font-size="11.00" fill="#000000"> &#160;&#160;&#160;&#160;&#160;&#160;&#160;&#160;&#160;&#160;&#160;&#160;&#160;&#160;&#160;&#160;&#160;&#160;&#160;&#160;&#160;&#160;&#160;&#160;&#160;&#160;&#160;&#160;&#160;&#160;&#160;&#160;&#160;&#160;&#160;&#160;&#160;&#160;&#160;&#160;Name &#160;&#160;&#160;&#160;&#160;&#160;&#160;&#160;&#160;&#160;&#160;&#160;&#160;&#160;&#160;&#160;&#160;&#160;&#160;&#160;&#160;&#160;&#160;&#160;&#160;&#160;&#160;&#160;&#160;&#160;&#160;&#160;&#160;&#160;&#160;&#160;&#160;&#160;</text>
<polygon fill="none" stroke="#99ccff" points="1112.0547,-358 1112.0547,-375 1203.0547,-375 1203.0547,-358 1112.0547,-358"/>
<text text-anchor="start" x="1124.5493" y="-363.2" font-family="Courier,monospace" font-size="11.00" fill="#000000">string(80)</text>
<polygon fill="none" stroke="#99ccff" points="387.0547,-341 387.0547,-358 1112.0547,-358 1112.0547,-341 387.0547,-341"/>
<text text-anchor="start" x="390.0547" y="-346.2" font-family="Courier,monospace" font-size="11.00" fill="#000000"> &#160;&#160;&#160;&#160;&#160;&#160;&#160;&#160;&#160;&#160;&#160;&#160;&#160;&#160;&#160;&#160;&#160;&#160;&#160;&#160;&#160;&#160;&#160;&#160;&#160;&#160;&#160;&#160;&#160;&#160;&#160;&#160;&#160;&#160;&#160;&#160;&#160;&#160;&#160;&#160;LastModifiedById &#160;&#160;&#160;&#160;&#160;&#160;&#160;&#160;&#160;&#160;&#160;&#160;&#160;&#160;&#160;&#160;&#160;&#160;&#160;&#160;&#160;&#160;&#160;&#160;&#160;&#160;&#160;&#160;&#160;&#160;&#160;&#160;&#160;&#160;&#160;&#160;&#160;&#160;</text>
<polygon fill="none" stroke="#99ccff" points="1112.0547,-341 1112.0547,-358 1203.0547,-358 1203.0547,-341 1112.0547,-341"/>
<text text-anchor="start" x="1114.6477" y="-346.2" font-family="Courier,monospace" font-size="11.00" fill="#000000">reference(18)</text>
<polygon fill="none" stroke="#99ccff" points="387.0547,-324 387.0547,-341 1112.0547,-341 1112.0547,-324 387.0547,-324"/>
<text text-anchor="start" x="390.0547" y="-329.2" font-family="Courier,monospace" font-size="11.00" fill="#000000"> &#160;&#160;&#160;&#160;&#160;&#160;&#160;&#160;&#160;&#160;&#160;&#160;&#160;&#160;&#160;&#160;&#160;&#160;&#160;&#160;&#160;&#160;&#160;&#160;&#160;&#160;&#160;&#160;&#160;&#160;&#160;&#160;&#160;&#160;&#160;&#160;&#160;&#160;&#160;&#160;LastActivityDate &#160;&#160;&#160;&#160;&#160;&#160;&#160;&#160;&#160;&#160;&#160;&#160;&#160;&#160;&#160;&#160;&#160;&#160;&#160;&#160;&#160;&#160;&#160;&#160;&#160;&#160;&#160;&#160;&#160;&#160;&#160;&#160;&#160;&#160;&#160;&#160;&#160;&#160;</text>
<polygon fill="none" stroke="#99ccff" points="1112.0547,-324 1112.0547,-341 1203.0547,-341 1203.0547,-324 1112.0547,-324"/>
<text text-anchor="start" x="1144.3525" y="-329.2" font-family="Courier,monospace" font-size="11.00" fill="#000000">date</text>
<polygon fill="none" stroke="#99ccff" points="387.0547,-307 387.0547,-324 1112.0547,-324 1112.0547,-307 387.0547,-307"/>
<text text-anchor="start" x="390.0547" y="-312.2" font-family="Courier,monospace" font-size="11.00" fill="#000000"> &#160;&#160;&#160;&#160;&#160;&#160;&#160;&#160;&#160;&#160;&#160;&#160;&#160;&#160;&#160;&#160;&#160;&#160;&#160;&#160;&#160;&#160;&#160;&#160;&#160;&#160;&#160;&#160;&#160;&#160;&#160;&#160;&#160;&#160;&#160;&#160;&#160;&#160;&#160;&#160;LastViewedDate &#160;&#160;&#160;&#160;&#160;&#160;&#160;&#160;&#160;&#160;&#160;&#160;&#160;&#160;&#160;&#160;&#160;&#160;&#160;&#160;&#160;&#160;&#160;&#160;&#160;&#160;&#160;&#160;&#160;&#160;&#160;&#160;&#160;&#160;&#160;&#160;&#160;&#160;</text>
<polygon fill="none" stroke="#99ccff" points="1112.0547,-307 1112.0547,-324 1203.0547,-324 1203.0547,-307 1112.0547,-307"/>
<text text-anchor="start" x="1131.1504" y="-312.2" font-family="Courier,monospace" font-size="11.00" fill="#000000">datetime</text>
<polygon fill="none" stroke="#99ccff" points="387.0547,-290 387.0547,-307 1112.0547,-307 1112.0547,-290 387.0547,-290"/>
<text text-anchor="start" x="390.0547" y="-295.2" font-family="Courier,monospace" font-size="11.00" fill="#000000"> &#160;&#160;&#160;&#160;&#160;&#160;&#160;&#160;&#160;&#160;&#160;&#160;&#160;&#160;&#160;&#160;&#160;&#160;&#160;&#160;&#160;&#160;&#160;&#160;&#160;&#160;&#160;&#160;&#160;&#160;&#160;&#160;&#160;&#160;&#160;&#160;&#160;&#160;&#160;&#160;LastReferencedDate &#160;&#160;&#160;&#160;&#160;&#160;&#160;&#160;&#160;&#160;&#160;&#160;&#160;&#160;&#160;&#160;&#160;&#160;&#160;&#160;&#160;&#160;&#160;&#160;&#160;&#160;&#160;&#160;&#160;&#160;&#160;&#160;&#160;&#160;&#160;&#160;&#160;&#160;</text>
<polygon fill="none" stroke="#99ccff" points="1112.0547,-290 1112.0547,-307 1203.0547,-307 1203.0547,-290 1112.0547,-290"/>
<text text-anchor="start" x="1131.1504" y="-295.2" font-family="Courier,monospace" font-size="11.00" fill="#000000">datetime</text>
<polygon fill="none" stroke="#99ccff" points="387.0547,-273 387.0547,-290 1112.0547,-290 1112.0547,-273 387.0547,-273"/>
<text text-anchor="start" x="390.0547" y="-278.2" font-family="Courier,monospace" font-size="11.00" fill="#000000"> &#160;&#160;&#160;&#160;&#160;&#160;&#160;&#160;&#160;&#160;&#160;&#160;&#160;&#160;&#160;&#160;&#160;&#160;&#160;&#160;&#160;&#160;&#160;&#160;&#160;&#160;&#160;&#160;&#160;&#160;&#160;&#160;&#160;&#160;&#160;&#160;&#160;&#160;&#160;&#160;FinServ__FinancialAccount__c &#160;&#160;&#160;&#160;&#160;&#160;&#160;&#160;&#160;&#160;&#160;&#160;&#160;&#160;&#160;&#160;&#160;&#160;&#160;&#160;&#160;&#160;&#160;&#160;&#160;&#160;&#160;&#160;&#160;&#160;&#160;&#160;&#160;&#160;&#160;&#160;&#160;&#160;</text>
<polygon fill="none" stroke="#99ccff" points="1112.0547,-273 1112.0547,-290 1203.0547,-290 1203.0547,-273 1112.0547,-273"/>
<text text-anchor="start" x="1114.6477" y="-278.2" font-family="Courier,monospace" font-size="11.00" fill="#000000">reference(18)</text>
<polygon fill="none" stroke="#99ccff" points="387.0547,-256 387.0547,-273 1112.0547,-273 1112.0547,-256 387.0547,-256"/>
<text text-anchor="start" x="389.7961" y="-261.2" font-family="Courier,monospace" font-size="11.00" fill="#000000"> &#160;&#160;&#160;&#160;&#160;&#160;&#160;&#160;&#160;&#160;&#160;&#160;&#160;&#160;&#160;&#160;&#160;&#160;&#160;&#160;&#160;&#160;&#160;&#160;&#160;&#160;&#160;&#160;&#160;&#160;&#160;&#160;&#160;&#160;&#160;&#160;&#160;&#160;&#160;&#160;FinServ__AssetCategoryName__c &#160;&#160;&#160;&#160;&#160;&#160;&#160;&#160;&#160;&#160;&#160;&#160;&#160;&#160;&#160;&#160;&#160;&#160;&#160;&#160;&#160;&#160;&#160;&#160;&#160;&#160;&#160;&#160;&#160;&#160;&#160;&#160;&#160;&#160;&#160;&#160;&#160;&#160;</text>
<polygon fill="none" stroke="#99ccff" points="1112.0547,-256 1112.0547,-273 1203.0547,-273 1203.0547,-256 1112.0547,-256"/>
<text text-anchor="start" x="1114.6477" y="-261.2" font-family="Courier,monospace" font-size="11.00" fill="#000000">picklist(255)</text>
<polygon fill="none" stroke="#99ccff" points="387.0547,-239 387.0547,-256 1112.0547,-256 1112.0547,-239 387.0547,-239"/>
<text text-anchor="start" x="390.0547" y="-244.2" font-family="Courier,monospace" font-size="11.00" fill="#000000"> &#160;&#160;&#160;&#160;&#160;&#160;&#160;&#160;&#160;&#160;&#160;&#160;&#160;&#160;&#160;&#160;&#160;&#160;&#160;&#160;&#160;&#160;&#160;&#160;&#160;&#160;&#160;&#160;&#160;&#160;&#160;&#160;&#160;&#160;&#160;&#160;&#160;&#160;&#160;&#160;FinServ__AssetCategory__c &#160;&#160;&#160;&#160;&#160;&#160;&#160;&#160;&#160;&#160;&#160;&#160;&#160;&#160;&#160;&#160;&#160;&#160;&#160;&#160;&#160;&#160;&#160;&#160;&#160;&#160;&#160;&#160;&#160;&#160;&#160;&#160;&#160;&#160;&#160;&#160;&#160;&#160;</text>
<polygon fill="none" stroke="#99ccff" points="1112.0547,-239 1112.0547,-256 1203.0547,-256 1203.0547,-239 1112.0547,-239"/>
<text text-anchor="start" x="1114.6477" y="-244.2" font-family="Courier,monospace" font-size="11.00" fill="#000000">picklist(255)</text>
<polygon fill="none" stroke="#99ccff" points="387.0547,-222 387.0547,-239 1112.0547,-239 1112.0547,-222 387.0547,-222"/>
<text text-anchor="start" x="390.0547" y="-227.2" font-family="Courier,monospace" font-size="11.00" fill="#000000"> &#160;&#160;&#160;&#160;&#160;&#160;&#160;&#160;&#160;&#160;&#160;&#160;&#160;&#160;&#160;&#160;&#160;&#160;&#160;&#160;&#160;&#160;&#160;&#160;&#160;&#160;&#160;&#160;&#160;&#160;&#160;&#160;&#160;&#160;&#160;&#160;&#160;&#160;&#160;&#160;FinServ__AssetClass__c &#160;&#160;&#160;&#160;&#160;&#160;&#160;&#160;&#160;&#160;&#160;&#160;&#160;&#160;&#160;&#160;&#160;&#160;&#160;&#160;&#160;&#160;&#160;&#160;&#160;&#160;&#160;&#160;&#160;&#160;&#160;&#160;&#160;&#160;&#160;&#160;&#160;&#160;</text>
<polygon fill="none" stroke="#99ccff" points="1112.0547,-222 1112.0547,-239 1203.0547,-239 1203.0547,-222 1112.0547,-222"/>
<text text-anchor="start" x="1114.6477" y="-227.2" font-family="Courier,monospace" font-size="11.00" fill="#000000">picklist(255)</text>
<polygon fill="none" stroke="#99ccff" points="387.0547,-205 387.0547,-222 1112.0547,-222 1112.0547,-205 387.0547,-205"/>
<text text-anchor="start" x="390.0547" y="-210.2" font-family="Courier,monospace" font-size="11.00" fill="#000000"> &#160;&#160;&#160;&#160;&#160;&#160;&#160;&#160;&#160;&#160;&#160;&#160;&#160;&#160;&#160;&#160;&#160;&#160;&#160;&#160;&#160;&#160;&#160;&#160;&#160;&#160;&#160;&#160;&#160;&#160;&#160;&#160;&#160;&#160;&#160;&#160;&#160;&#160;&#160;&#160;FinServ__GainLoss__c &#160;&#160;&#160;&#160;&#160;&#160;&#160;&#160;&#160;&#160;&#160;&#160;&#160;&#160;&#160;&#160;&#160;&#160;&#160;&#160;&#160;&#160;&#160;&#160;&#160;&#160;&#160;&#160;&#160;&#160;&#160;&#160;&#160;&#160;&#160;&#160;&#160;&#160;</text>
<polygon fill="none" stroke="#99ccff" points="1112.0547,-205 1112.0547,-222 1203.0547,-222 1203.0547,-205 1112.0547,-205"/>
<text text-anchor="start" x="1131.1504" y="-210.2" font-family="Courier,monospace" font-size="11.00" fill="#000000">currency</text>
<polygon fill="none" stroke="#99ccff" points="387.0547,-188 387.0547,-205 1112.0547,-205 1112.0547,-188 387.0547,-188"/>
<text text-anchor="start" x="390.0547" y="-193.2" font-family="Courier,monospace" font-size="11.00" fill="#000000"> &#160;&#160;&#160;&#160;&#160;&#160;&#160;&#160;&#160;&#160;&#160;&#160;&#160;&#160;&#160;&#160;&#160;&#160;&#160;&#160;&#160;&#160;&#160;&#160;&#160;&#160;&#160;&#160;&#160;&#160;&#160;&#160;&#160;&#160;&#160;&#160;&#160;&#160;&#160;&#160;FinServ__Household__c &#160;&#160;&#160;&#160;&#160;&#160;&#160;&#160;&#160;&#160;&#160;&#160;&#160;&#160;&#160;&#160;&#160;&#160;&#160;&#160;&#160;&#160;&#160;&#160;&#160;&#160;&#160;&#160;&#160;&#160;&#160;&#160;&#160;&#160;&#160;&#160;&#160;&#160;</text>
<polygon fill="none" stroke="#99ccff" points="1112.0547,-188 1112.0547,-205 1203.0547,-205 1203.0547,-188 1112.0547,-188"/>
<text text-anchor="start" x="1114.6477" y="-193.2" font-family="Courier,monospace" font-size="11.00" fill="#000000">reference(18)</text>
<polygon fill="none" stroke="#99ccff" points="387.0547,-171 387.0547,-188 1112.0547,-188 1112.0547,-171 387.0547,-171"/>
<text text-anchor="start" x="390.0547" y="-176.2" font-family="Courier,monospace" font-size="11.00" fill="#000000"> &#160;&#160;&#160;&#160;&#160;&#160;&#160;&#160;&#160;&#160;&#160;&#160;&#160;&#160;&#160;&#160;&#160;&#160;&#160;&#160;&#160;&#160;&#160;&#160;&#160;&#160;&#160;&#160;&#160;&#160;&#160;&#160;&#160;&#160;&#160;&#160;&#160;&#160;&#160;&#160;FinServ__LastUpdated__c &#160;&#160;&#160;&#160;&#160;&#160;&#160;&#160;&#160;&#160;&#160;&#160;&#160;&#160;&#160;&#160;&#160;&#160;&#160;&#160;&#160;&#160;&#160;&#160;&#160;&#160;&#160;&#160;&#160;&#160;&#160;&#160;&#160;&#160;&#160;&#160;&#160;&#160;</text>
<polygon fill="none" stroke="#99ccff" points="1112.0547,-171 1112.0547,-188 1203.0547,-188 1203.0547,-171 1112.0547,-171"/>
<text text-anchor="start" x="1144.3525" y="-176.2" font-family="Courier,monospace" font-size="11.00" fill="#000000">date</text>
<polygon fill="none" stroke="#99ccff" points="387.0547,-154 387.0547,-171 1112.0547,-171 1112.0547,-154 387.0547,-154"/>
<text text-anchor="start" x="390.0547" y="-159.2" font-family="Courier,monospace" font-size="11.00" fill="#000000"> &#160;&#160;&#160;&#160;&#160;&#160;&#160;&#160;&#160;&#160;&#160;&#160;&#160;&#160;&#160;&#160;&#160;&#160;&#160;&#160;&#160;&#160;&#160;&#160;&#160;&#160;&#160;&#160;&#160;&#160;&#160;&#160;&#160;&#160;&#160;&#160;&#160;&#160;&#160;&#160;FinServ__MarketValue__c &#160;&#160;&#160;&#160;&#160;&#160;&#160;&#160;&#160;&#160;&#160;&#160;&#160;&#160;&#160;&#160;&#160;&#160;&#160;&#160;&#160;&#160;&#160;&#160;&#160;&#160;&#160;&#160;&#160;&#160;&#160;&#160;&#160;&#160;&#160;&#160;&#160;&#160;</text>
<polygon fill="none" stroke="#99ccff" points="1112.0547,-154 1112.0547,-171 1203.0547,-171 1203.0547,-154 1112.0547,-154"/>
<text text-anchor="start" x="1131.1504" y="-159.2" font-family="Courier,monospace" font-size="11.00" fill="#000000">currency</text>
<polygon fill="none" stroke="#99ccff" points="387.0547,-137 387.0547,-154 1112.0547,-154 1112.0547,-137 387.0547,-137"/>
<text text-anchor="start" x="390.0547" y="-142.2" font-family="Courier,monospace" font-size="11.00" fill="#000000"> &#160;&#160;&#160;&#160;&#160;&#160;&#160;&#160;&#160;&#160;&#160;&#160;&#160;&#160;&#160;&#160;&#160;&#160;&#160;&#160;&#160;&#160;&#160;&#160;&#160;&#160;&#160;&#160;&#160;&#160;&#160;&#160;&#160;&#160;&#160;&#160;&#160;&#160;&#160;&#160;FinServ__PercentChange__c &#160;&#160;&#160;&#160;&#160;&#160;&#160;&#160;&#160;&#160;&#160;&#160;&#160;&#160;&#160;&#160;&#160;&#160;&#160;&#160;&#160;&#160;&#160;&#160;&#160;&#160;&#160;&#160;&#160;&#160;&#160;&#160;&#160;&#160;&#160;&#160;&#160;&#160;</text>
<polygon fill="none" stroke="#99ccff" points="1112.0547,-137 1112.0547,-154 1203.0547,-154 1203.0547,-137 1112.0547,-137"/>
<text text-anchor="start" x="1134.4509" y="-142.2" font-family="Courier,monospace" font-size="11.00" fill="#000000">percent</text>
<polygon fill="none" stroke="#99ccff" points="387.0547,-120 387.0547,-137 1112.0547,-137 1112.0547,-120 387.0547,-120"/>
<text text-anchor="start" x="390.0547" y="-125.2" font-family="Courier,monospace" font-size="11.00" fill="#000000"> &#160;&#160;&#160;&#160;&#160;&#160;&#160;&#160;&#160;&#160;&#160;&#160;&#160;&#160;&#160;&#160;&#160;&#160;&#160;&#160;&#160;&#160;&#160;&#160;&#160;&#160;&#160;&#160;&#160;&#160;&#160;&#160;&#160;&#160;&#160;&#160;&#160;&#160;&#160;&#160;FinServ__Price__c &#160;&#160;&#160;&#160;&#160;&#160;&#160;&#160;&#160;&#160;&#160;&#160;&#160;&#160;&#160;&#160;&#160;&#160;&#160;&#160;&#160;&#160;&#160;&#160;&#160;&#160;&#160;&#160;&#160;&#160;&#160;&#160;&#160;&#160;&#160;&#160;&#160;&#160;</text>
<polygon fill="none" stroke="#99ccff" points="1112.0547,-120 1112.0547,-137 1203.0547,-137 1203.0547,-120 1112.0547,-120"/>
<text text-anchor="start" x="1131.1504" y="-125.2" font-family="Courier,monospace" font-size="11.00" fill="#000000">currency</text>
<polygon fill="none" stroke="#99ccff" points="387.0547,-103 387.0547,-120 1112.0547,-120 1112.0547,-103 387.0547,-103"/>
<text text-anchor="start" x="390.0547" y="-108.2" font-family="Courier,monospace" font-size="11.00" fill="#000000"> &#160;&#160;&#160;&#160;&#160;&#160;&#160;&#160;&#160;&#160;&#160;&#160;&#160;&#160;&#160;&#160;&#160;&#160;&#160;&#160;&#160;&#160;&#160;&#160;&#160;&#160;&#160;&#160;&#160;&#160;&#160;&#160;&#160;&#160;&#160;&#160;&#160;&#160;&#160;&#160;FinServ__PrimaryOwner__c &#160;&#160;&#160;&#160;&#160;&#160;&#160;&#160;&#160;&#160;&#160;&#160;&#160;&#160;&#160;&#160;&#160;&#160;&#160;&#160;&#160;&#160;&#160;&#160;&#160;&#160;&#160;&#160;&#160;&#160;&#160;&#160;&#160;&#160;&#160;&#160;&#160;&#160;</text>
<polygon fill="none" stroke="#99ccff" points="1112.0547,-103 1112.0547,-120 1203.0547,-120 1203.0547,-103 1112.0547,-103"/>
<text text-anchor="start" x="1114.6477" y="-108.2" font-family="Courier,monospace" font-size="11.00" fill="#000000">reference(18)</text>
<polygon fill="none" stroke="#99ccff" points="387.0547,-86 387.0547,-103 1112.0547,-103 1112.0547,-86 387.0547,-86"/>
<text text-anchor="start" x="390.0547" y="-91.2" font-family="Courier,monospace" font-size="11.00" fill="#000000"> &#160;&#160;&#160;&#160;&#160;&#160;&#160;&#160;&#160;&#160;&#160;&#160;&#160;&#160;&#160;&#160;&#160;&#160;&#160;&#160;&#160;&#160;&#160;&#160;&#160;&#160;&#160;&#160;&#160;&#160;&#160;&#160;&#160;&#160;&#160;&#160;&#160;&#160;&#160;&#160;FinServ__PurchasePrice__c &#160;&#160;&#160;&#160;&#160;&#160;&#160;&#160;&#160;&#160;&#160;&#160;&#160;&#160;&#160;&#160;&#160;&#160;&#160;&#160;&#160;&#160;&#160;&#160;&#160;&#160;&#160;&#160;&#160;&#160;&#160;&#160;&#160;&#160;&#160;&#160;&#160;&#160;</text>
<polygon fill="none" stroke="#99ccff" points="1112.0547,-86 1112.0547,-103 1203.0547,-103 1203.0547,-86 1112.0547,-86"/>
<text text-anchor="start" x="1131.1504" y="-91.2" font-family="Courier,monospace" font-size="11.00" fill="#000000">currency</text>
<polygon fill="none" stroke="#99ccff" points="387.0547,-69 387.0547,-86 1112.0547,-86 1112.0547,-69 387.0547,-69"/>
<text text-anchor="start" x="390.0547" y="-74.2" font-family="Courier,monospace" font-size="11.00" fill="#000000"> &#160;&#160;&#160;&#160;&#160;&#160;&#160;&#160;&#160;&#160;&#160;&#160;&#160;&#160;&#160;&#160;&#160;&#160;&#160;&#160;&#160;&#160;&#160;&#160;&#160;&#160;&#160;&#160;&#160;&#160;&#160;&#160;&#160;&#160;&#160;&#160;&#160;&#160;&#160;&#160;FinServ__Securities__c &#160;&#160;&#160;&#160;&#160;&#160;&#160;&#160;&#160;&#160;&#160;&#160;&#160;&#160;&#160;&#160;&#160;&#160;&#160;&#160;&#160;&#160;&#160;&#160;&#160;&#160;&#160;&#160;&#160;&#160;&#160;&#160;&#160;&#160;&#160;&#160;&#160;&#160;</text>
<polygon fill="none" stroke="#99ccff" points="1112.0547,-69 1112.0547,-86 1203.0547,-86 1203.0547,-69 1112.0547,-69"/>
<text text-anchor="start" x="1114.6477" y="-74.2" font-family="Courier,monospace" font-size="11.00" fill="#000000">reference(18)</text>
<polygon fill="none" stroke="#99ccff" points="387.0547,-52 387.0547,-69 1112.0547,-69 1112.0547,-52 387.0547,-52"/>
<text text-anchor="start" x="390.0547" y="-57.2" font-family="Courier,monospace" font-size="11.00" fill="#000000"> &#160;&#160;&#160;&#160;&#160;&#160;&#160;&#160;&#160;&#160;&#160;&#160;&#160;&#160;&#160;&#160;&#160;&#160;&#160;&#160;&#160;&#160;&#160;&#160;&#160;&#160;&#160;&#160;&#160;&#160;&#160;&#160;&#160;&#160;&#160;&#160;&#160;&#160;&#160;&#160;FinServ__Shares__c &#160;&#160;&#160;&#160;&#160;&#160;&#160;&#160;&#160;&#160;&#160;&#160;&#160;&#160;&#160;&#160;&#160;&#160;&#160;&#160;&#160;&#160;&#160;&#160;&#160;&#160;&#160;&#160;&#160;&#160;&#160;&#160;&#160;&#160;&#160;&#160;&#160;&#160;</text>
<polygon fill="none" stroke="#99ccff" points="1112.0547,-52 1112.0547,-69 1203.0547,-69 1203.0547,-52 1112.0547,-52"/>
<text text-anchor="start" x="1137.7515" y="-57.2" font-family="Courier,monospace" font-size="11.00" fill="#000000">double</text>
<polygon fill="none" stroke="#99ccff" points="387.0547,-35 387.0547,-52 1112.0547,-52 1112.0547,-35 387.0547,-35"/>
<text text-anchor="start" x="390.0547" y="-40.2" font-family="Courier,monospace" font-size="11.00" fill="#000000"> &#160;&#160;&#160;&#160;&#160;&#160;&#160;&#160;&#160;&#160;&#160;&#160;&#160;&#160;&#160;&#160;&#160;&#160;&#160;&#160;&#160;&#160;&#160;&#160;&#160;&#160;&#160;&#160;&#160;&#160;&#160;&#160;&#160;&#160;&#160;&#160;&#160;&#160;&#160;&#160;FinServ__SourceSystemId__c &#160;&#160;&#160;&#160;&#160;&#160;&#160;&#160;&#160;&#160;&#160;&#160;&#160;&#160;&#160;&#160;&#160;&#160;&#160;&#160;&#160;&#160;&#160;&#160;&#160;&#160;&#160;&#160;&#160;&#160;&#160;&#160;&#160;&#160;&#160;&#160;&#160;&#160;</text>
<polygon fill="none" stroke="#99ccff" points="1112.0547,-35 1112.0547,-52 1203.0547,-52 1203.0547,-35 1112.0547,-35"/>
<text text-anchor="start" x="1121.2488" y="-40.2" font-family="Courier,monospace" font-size="11.00" fill="#000000">string(100)</text>
<polygon fill="none" stroke="#99ccff" points="387.0547,-18 387.0547,-35 1112.0547,-35 1112.0547,-18 387.0547,-18"/>
<text text-anchor="start" x="390.0547" y="-23.2" font-family="Courier,monospace" font-size="11.00" fill="#000000"> &#160;&#160;&#160;&#160;&#160;&#160;&#160;&#160;&#160;&#160;&#160;&#160;&#160;&#160;&#160;&#160;&#160;&#160;&#160;&#160;&#160;&#160;&#160;&#160;&#160;&#160;&#160;&#160;&#160;&#160;&#160;&#160;&#160;&#160;&#160;&#160;&#160;&#160;&#160;&#160;FinServ__Symbol__c &#160;&#160;&#160;&#160;&#160;&#160;&#160;&#160;&#160;&#160;&#160;&#160;&#160;&#160;&#160;&#160;&#160;&#160;&#160;&#160;&#160;&#160;&#160;&#160;&#160;&#160;&#160;&#160;&#160;&#160;&#160;&#160;&#160;&#160;&#160;&#160;&#160;&#160;</text>
<polygon fill="none" stroke="#99ccff" points="1112.0547,-18 1112.0547,-35 1203.0547,-35 1203.0547,-18 1112.0547,-18"/>
<text text-anchor="start" x="1117.9482" y="-23.2" font-family="Courier,monospace" font-size="11.00" fill="#000000">string(1300)</text>
<polygon fill="none" stroke="#99ccff" points="386.0547,-17 386.0547,-427 1204.0547,-427 1204.0547,-17 386.0547,-17"/>
</a>
</g>
</g>
<!-- User -->
<g id="node2" class="node">
<title>User</title>
<text text-anchor="middle" x="100.415" y="-346.7" font-family="Courier,monospace" font-size="11.00" fill="#000000">User</text>
</g>
<!-- FinServ__FinancialHolding__c&#45;&gt;User -->
<g id="edge1" class="edge">
<title>FinServ__FinancialHolding__c:w&#45;&gt;User:e</title>
<path fill="none" stroke="#ff99cc" d="M372.4093,-350C280.4286,-350 176.05,-350 127.6853,-350"/>
<polygon fill="#ff99cc" stroke="#ff99cc" points="379.0547,-350.0001 387.0547,-353.6 383.0547,-350 387.0547,-350 387.0547,-350 387.0547,-350 383.0547,-350 387.0547,-346.4 379.0547,-350.0001 379.0547,-350.0001"/>
<ellipse fill="none" stroke="#ff99cc" cx="375.8547" cy="-350.0001" rx="3.2" ry="3.2"/>
<text text-anchor="middle" x="293.4424" y="-354.8015" font-family="Monaco" font-size="9.00" fill="#000000">LastModifiedBy</text>
</g>
<!-- FinServ__FinancialAccount__c -->
<g id="node3" class="node">
<title>FinServ__FinancialAccount__c</title>
<text text-anchor="middle" x="100.415" y="-278.7" font-family="Courier,monospace" font-size="11.00" fill="#000000">FinServ__FinancialAccount__c</text>
</g>
<!-- FinServ__FinancialHolding__c&#45;&gt;FinServ__FinancialAccount__c -->
<g id="edge2" class="edge">
<title>FinServ__FinancialHolding__c:w&#45;&gt;FinServ__FinancialAccount__c:e</title>
<path fill="none" stroke="#ff99cc" d="M372.436,-282C314.4772,-282 251.5931,-282 200.9006,-282"/>
<polygon fill="#ff99cc" stroke="#ff99cc" points="379.0547,-282.0001 387.0547,-285.6 383.0547,-282 387.0547,-282 387.0547,-282 387.0547,-282 383.0547,-282 387.0547,-278.4 379.0547,-282.0001 379.0547,-282.0001"/>
<ellipse fill="none" stroke="#ff99cc" cx="375.8547" cy="-282.0001" rx="3.2" ry="3.2"/>
<text text-anchor="middle" x="293.4424" y="-286.8015" font-family="Monaco" font-size="9.00" fill="#000000">FinServ__FinancialAccount__r</text>
</g>
<!-- Account -->
<g id="node4" class="node">
<title>Account</title>
<text text-anchor="middle" x="100.415" y="-150.7" font-family="Courier,monospace" font-size="11.00" fill="#000000">Account</text>
</g>
<!-- FinServ__FinancialHolding__c&#45;&gt;Account -->
<g id="edge3" class="edge">
<title>FinServ__FinancialHolding__c:w&#45;&gt;Account:e</title>
<path fill="none" stroke="#ff99cc" d="M372.6546,-195.8318C282.304,-193.7624 181.3327,-173.0945 131.583,-161.6059"/>
<polygon fill="#ff99cc" stroke="#ff99cc" points="379.0552,-195.9065 387.0126,-199.5998 383.055,-195.9533 387.0547,-196 387.0547,-196 387.0547,-196 383.055,-195.9533 387.0968,-192.4002 379.0552,-195.9065 379.0552,-195.9065"/>
<ellipse fill="none" stroke="#ff99cc" cx="375.8555" cy="-195.8691" rx="3.2" ry="3.2"/>
<text text-anchor="middle" x="293.4424" y="-199.8015" font-family="Monaco" font-size="9.00" fill="#000000">FinServ__Household__r</text>
</g>
<!-- FinServ__FinancialHolding__c&#45;&gt;Account -->
<g id="edge4" class="edge">
<title>FinServ__FinancialHolding__c:w&#45;&gt;Account:e</title>
<path fill="none" stroke="#ff99cc" d="M372.6479,-111.1722C282.2587,-113.2909 181.3077,-134.4509 131.5725,-146.213"/>
<polygon fill="#ff99cc" stroke="#ff99cc" points="379.0553,-111.0957 387.0977,-114.5997 383.055,-111.0478 387.0547,-111 387.0547,-111 387.0547,-111 383.055,-111.0478 387.0116,-107.4003 379.0553,-111.0957 379.0553,-111.0957"/>
<ellipse fill="none" stroke="#ff99cc" cx="375.8555" cy="-111.1339" rx="3.2" ry="3.2"/>
<text text-anchor="middle" x="293.4424" y="-131.8015" font-family="Monaco" font-size="9.00" fill="#000000">FinServ__PrimaryOwner__r</text>
</g>
<!-- FinServ__Securities__c -->
<g id="node5" class="node">
<title>FinServ__Securities__c</title>
<text text-anchor="middle" x="100.415" y="-73.7" font-family="Courier,monospace" font-size="11.00" fill="#000000">FinServ__Securities__c</text>
</g>
<!-- FinServ__FinancialHolding__c&#45;&gt;FinServ__Securities__c -->
<g id="edge5" class="edge">
<title>FinServ__FinancialHolding__c:w&#45;&gt;FinServ__Securities__c:e</title>
<path fill="none" stroke="#ff99cc" d="M372.2551,-77C306.5021,-77 234.4349,-77 181.0336,-77"/>
<polygon fill="#ff99cc" stroke="#ff99cc" points="379.0547,-77.0001 387.0547,-80.6 383.0547,-77 387.0547,-77 387.0547,-77 387.0547,-77 383.0547,-77 387.0547,-73.4 379.0547,-77.0001 379.0547,-77.0001"/>
<ellipse fill="none" stroke="#ff99cc" cx="375.8547" cy="-77.0001" rx="3.2" ry="3.2"/>
<text text-anchor="middle" x="293.4424" y="-81.8015" font-family="Monaco" font-size="9.00" fill="#000000">FinServ__Securities__r</text>
</g>
</g>
</svg>
