<?xml version="1.0" encoding="UTF-8" standalone="no"?>
<!DOCTYPE svg PUBLIC "-//W3C//DTD SVG 1.1//EN"
 "http://www.w3.org/Graphics/SVG/1.1/DTD/svg11.dtd">
<!-- Generated by graphviz version 2.40.1 (20161225.0304)
 -->
<!-- Title: Salesforce+ ERD Pages: 1 -->
<svg width="1219pt" height="486pt"
 viewBox="0.00 0.00 1219.05 486.00" xmlns="http://www.w3.org/2000/svg" xmlns:xlink="http://www.w3.org/1999/xlink">
<g id="graph0" class="graph" transform="scale(1 1) rotate(0) translate(4 482)">
<title>Salesforce+ ERD</title>
<polygon fill="#efeffd" stroke="transparent" points="-4,4 -4,-482 1215.0547,-482 1215.0547,4 -4,4"/>
<text text-anchor="middle" x="1162.5481" y="-5.8" font-family="Courier,monospace" font-size="9.00" fill="#000000">Salesforce ERD </text>
<!-- FinServ__BillingStatement__c -->
<g id="node1" class="node">
<title>FinServ__BillingStatement__c</title>
<g id="a_node1"><a xlink:href="#" xlink:title=" FinServ__BillingStatement__c ">
<polygon fill="#ffeeff" stroke="transparent" points="386.0547,-17 386.0547,-478 1211.0547,-478 1211.0547,-17 386.0547,-17"/>
<polygon fill="#add8e6" stroke="transparent" points="387.5547,-459.5 387.5547,-476.5 1210.5547,-476.5 1210.5547,-459.5 387.5547,-459.5"/>
<polygon fill="none" stroke="#99ccff" points="387.5547,-459.5 387.5547,-476.5 1210.5547,-476.5 1210.5547,-459.5 387.5547,-459.5"/>
<text text-anchor="start" x="706.6396" y="-465.7" font-family="Courier,monospace" font-weight="bold" font-size="11.00" fill="#000000">FinServ__BillingStatement__c</text>
<polygon fill="#99ccff" stroke="transparent" points="387.5547,-442.5 387.5547,-459.5 1119.5547,-459.5 1119.5547,-442.5 387.5547,-442.5"/>
<polygon fill="none" stroke="#99ccff" points="387.5547,-442.5 387.5547,-459.5 1119.5547,-459.5 1119.5547,-442.5 387.5547,-442.5"/>
<text text-anchor="start" x="390.5547" y="-448.7" font-family="Courier,monospace" font-size="11.00" fill="#000000"> &#160;&#160;&#160;&#160;&#160;&#160;&#160;&#160;&#160;&#160;&#160;&#160;&#160;&#160;&#160;&#160;&#160;&#160;&#160;&#160;&#160;&#160;&#160;&#160;&#160;&#160;&#160;&#160;&#160;&#160;&#160;&#160;&#160;&#160;&#160;&#160;&#160;&#160;&#160;&#160;&#160;&#160;</text>
<text text-anchor="start" x="674.4009" y="-448.7" font-family="Courier,monospace" font-weight="bold" font-size="11.00" fill="#000000">Id</text>
<text text-anchor="start" x="687.603" y="-448.7" font-family="Courier,monospace" font-size="11.00" fill="#000000"> &#160;&#160;&#160;&#160;&#160;&#160;&#160;&#160;&#160;&#160;&#160;&#160;&#160;&#160;&#160;&#160;&#160;&#160;&#160;&#160;&#160;&#160;&#160;&#160;&#160;&#160;&#160;&#160;&#160;&#160;&#160;&#160;&#160;&#160;&#160;&#160;&#160;&#160;&#160;</text>
<polygon fill="none" stroke="#99ccff" points="1119.5547,-442.5 1119.5547,-459.5 1210.5547,-459.5 1210.5547,-442.5 1119.5547,-442.5"/>
<text text-anchor="start" x="1145.2515" y="-447.7" font-family="Courier,monospace" font-size="11.00" fill="#000000">id(18)</text>
<polygon fill="none" stroke="#99ccff" points="387.5547,-425.5 387.5547,-442.5 1119.5547,-442.5 1119.5547,-425.5 387.5547,-425.5"/>
<text text-anchor="start" x="390.5547" y="-430.7" font-family="Courier,monospace" font-size="11.00" fill="#000000"> &#160;&#160;&#160;&#160;&#160;&#160;&#160;&#160;&#160;&#160;&#160;&#160;&#160;&#160;&#160;&#160;&#160;&#160;&#160;&#160;&#160;&#160;&#160;&#160;&#160;&#160;&#160;&#160;&#160;&#160;&#160;&#160;&#160;&#160;&#160;&#160;&#160;&#160;&#160;&#160;IsDeleted &#160;&#160;&#160;&#160;&#160;&#160;&#160;&#160;&#160;&#160;&#160;&#160;&#160;&#160;&#160;&#160;&#160;&#160;&#160;&#160;&#160;&#160;&#160;&#160;&#160;&#160;&#160;&#160;&#160;&#160;&#160;&#160;&#160;&#160;&#160;&#160;&#160;&#160;</text>
<polygon fill="none" stroke="#99ccff" points="1119.5547,-425.5 1119.5547,-442.5 1210.5547,-442.5 1210.5547,-425.5 1119.5547,-425.5"/>
<text text-anchor="start" x="1141.9509" y="-430.7" font-family="Courier,monospace" font-size="11.00" fill="#000000">boolean</text>
<polygon fill="none" stroke="#99ccff" points="387.5547,-408.5 387.5547,-425.5 1119.5547,-425.5 1119.5547,-408.5 387.5547,-408.5"/>
<text text-anchor="start" x="390.5547" y="-413.7" font-family="Courier,monospace" font-size="11.00" fill="#000000"> &#160;&#160;&#160;&#160;&#160;&#160;&#160;&#160;&#160;&#160;&#160;&#160;&#160;&#160;&#160;&#160;&#160;&#160;&#160;&#160;&#160;&#160;&#160;&#160;&#160;&#160;&#160;&#160;&#160;&#160;&#160;&#160;&#160;&#160;&#160;&#160;&#160;&#160;&#160;&#160;Name &#160;&#160;&#160;&#160;&#160;&#160;&#160;&#160;&#160;&#160;&#160;&#160;&#160;&#160;&#160;&#160;&#160;&#160;&#160;&#160;&#160;&#160;&#160;&#160;&#160;&#160;&#160;&#160;&#160;&#160;&#160;&#160;&#160;&#160;&#160;&#160;&#160;&#160;</text>
<polygon fill="none" stroke="#99ccff" points="1119.5547,-408.5 1119.5547,-425.5 1210.5547,-425.5 1210.5547,-408.5 1119.5547,-408.5"/>
<text text-anchor="start" x="1132.0493" y="-413.7" font-family="Courier,monospace" font-size="11.00" fill="#000000">string(80)</text>
<polygon fill="none" stroke="#99ccff" points="387.5547,-391.5 387.5547,-408.5 1119.5547,-408.5 1119.5547,-391.5 387.5547,-391.5"/>
<text text-anchor="start" x="390.5547" y="-396.7" font-family="Courier,monospace" font-size="11.00" fill="#000000"> &#160;&#160;&#160;&#160;&#160;&#160;&#160;&#160;&#160;&#160;&#160;&#160;&#160;&#160;&#160;&#160;&#160;&#160;&#160;&#160;&#160;&#160;&#160;&#160;&#160;&#160;&#160;&#160;&#160;&#160;&#160;&#160;&#160;&#160;&#160;&#160;&#160;&#160;&#160;&#160;RecordTypeId &#160;&#160;&#160;&#160;&#160;&#160;&#160;&#160;&#160;&#160;&#160;&#160;&#160;&#160;&#160;&#160;&#160;&#160;&#160;&#160;&#160;&#160;&#160;&#160;&#160;&#160;&#160;&#160;&#160;&#160;&#160;&#160;&#160;&#160;&#160;&#160;&#160;&#160;</text>
<polygon fill="none" stroke="#99ccff" points="1119.5547,-391.5 1119.5547,-408.5 1210.5547,-408.5 1210.5547,-391.5 1119.5547,-391.5"/>
<text text-anchor="start" x="1122.1477" y="-396.7" font-family="Courier,monospace" font-size="11.00" fill="#000000">reference(18)</text>
<polygon fill="none" stroke="#99ccff" points="387.5547,-374.5 387.5547,-391.5 1119.5547,-391.5 1119.5547,-374.5 387.5547,-374.5"/>
<text text-anchor="start" x="390.5547" y="-379.7" font-family="Courier,monospace" font-size="11.00" fill="#000000"> &#160;&#160;&#160;&#160;&#160;&#160;&#160;&#160;&#160;&#160;&#160;&#160;&#160;&#160;&#160;&#160;&#160;&#160;&#160;&#160;&#160;&#160;&#160;&#160;&#160;&#160;&#160;&#160;&#160;&#160;&#160;&#160;&#160;&#160;&#160;&#160;&#160;&#160;&#160;&#160;LastModifiedById &#160;&#160;&#160;&#160;&#160;&#160;&#160;&#160;&#160;&#160;&#160;&#160;&#160;&#160;&#160;&#160;&#160;&#160;&#160;&#160;&#160;&#160;&#160;&#160;&#160;&#160;&#160;&#160;&#160;&#160;&#160;&#160;&#160;&#160;&#160;&#160;&#160;&#160;</text>
<polygon fill="none" stroke="#99ccff" points="1119.5547,-374.5 1119.5547,-391.5 1210.5547,-391.5 1210.5547,-374.5 1119.5547,-374.5"/>
<text text-anchor="start" x="1122.1477" y="-379.7" font-family="Courier,monospace" font-size="11.00" fill="#000000">reference(18)</text>
<polygon fill="none" stroke="#99ccff" points="387.5547,-357.5 387.5547,-374.5 1119.5547,-374.5 1119.5547,-357.5 387.5547,-357.5"/>
<text text-anchor="start" x="390.5547" y="-362.7" font-family="Courier,monospace" font-size="11.00" fill="#000000"> &#160;&#160;&#160;&#160;&#160;&#160;&#160;&#160;&#160;&#160;&#160;&#160;&#160;&#160;&#160;&#160;&#160;&#160;&#160;&#160;&#160;&#160;&#160;&#160;&#160;&#160;&#160;&#160;&#160;&#160;&#160;&#160;&#160;&#160;&#160;&#160;&#160;&#160;&#160;&#160;FinServ__FinancialAccount__c &#160;&#160;&#160;&#160;&#160;&#160;&#160;&#160;&#160;&#160;&#160;&#160;&#160;&#160;&#160;&#160;&#160;&#160;&#160;&#160;&#160;&#160;&#160;&#160;&#160;&#160;&#160;&#160;&#160;&#160;&#160;&#160;&#160;&#160;&#160;&#160;&#160;&#160;</text>
<polygon fill="none" stroke="#99ccff" points="1119.5547,-357.5 1119.5547,-374.5 1210.5547,-374.5 1210.5547,-357.5 1119.5547,-357.5"/>
<text text-anchor="start" x="1122.1477" y="-362.7" font-family="Courier,monospace" font-size="11.00" fill="#000000">reference(18)</text>
<polygon fill="none" stroke="#99ccff" points="387.5547,-340.5 387.5547,-357.5 1119.5547,-357.5 1119.5547,-340.5 387.5547,-340.5"/>
<text text-anchor="start" x="390.5547" y="-345.7" font-family="Courier,monospace" font-size="11.00" fill="#000000"> &#160;&#160;&#160;&#160;&#160;&#160;&#160;&#160;&#160;&#160;&#160;&#160;&#160;&#160;&#160;&#160;&#160;&#160;&#160;&#160;&#160;&#160;&#160;&#160;&#160;&#160;&#160;&#160;&#160;&#160;&#160;&#160;&#160;&#160;&#160;&#160;&#160;&#160;&#160;&#160;FinServ__BalanceTransfers__c &#160;&#160;&#160;&#160;&#160;&#160;&#160;&#160;&#160;&#160;&#160;&#160;&#160;&#160;&#160;&#160;&#160;&#160;&#160;&#160;&#160;&#160;&#160;&#160;&#160;&#160;&#160;&#160;&#160;&#160;&#160;&#160;&#160;&#160;&#160;&#160;&#160;&#160;</text>
<polygon fill="none" stroke="#99ccff" points="1119.5547,-340.5 1119.5547,-357.5 1210.5547,-357.5 1210.5547,-340.5 1119.5547,-340.5"/>
<text text-anchor="start" x="1138.6504" y="-345.7" font-family="Courier,monospace" font-size="11.00" fill="#000000">currency</text>
<polygon fill="none" stroke="#99ccff" points="387.5547,-323.5 387.5547,-340.5 1119.5547,-340.5 1119.5547,-323.5 387.5547,-323.5"/>
<text text-anchor="start" x="390.5547" y="-328.7" font-family="Courier,monospace" font-size="11.00" fill="#000000"> &#160;&#160;&#160;&#160;&#160;&#160;&#160;&#160;&#160;&#160;&#160;&#160;&#160;&#160;&#160;&#160;&#160;&#160;&#160;&#160;&#160;&#160;&#160;&#160;&#160;&#160;&#160;&#160;&#160;&#160;&#160;&#160;&#160;&#160;&#160;&#160;&#160;&#160;&#160;&#160;FinServ__BillingPeriodEnd__c &#160;&#160;&#160;&#160;&#160;&#160;&#160;&#160;&#160;&#160;&#160;&#160;&#160;&#160;&#160;&#160;&#160;&#160;&#160;&#160;&#160;&#160;&#160;&#160;&#160;&#160;&#160;&#160;&#160;&#160;&#160;&#160;&#160;&#160;&#160;&#160;&#160;&#160;</text>
<polygon fill="none" stroke="#99ccff" points="1119.5547,-323.5 1119.5547,-340.5 1210.5547,-340.5 1210.5547,-323.5 1119.5547,-323.5"/>
<text text-anchor="start" x="1151.8525" y="-328.7" font-family="Courier,monospace" font-size="11.00" fill="#000000">date</text>
<polygon fill="none" stroke="#99ccff" points="387.5547,-306.5 387.5547,-323.5 1119.5547,-323.5 1119.5547,-306.5 387.5547,-306.5"/>
<text text-anchor="start" x="390.4956" y="-311.7" font-family="Courier,monospace" font-size="11.00" fill="#000000"> &#160;&#160;&#160;&#160;&#160;&#160;&#160;&#160;&#160;&#160;&#160;&#160;&#160;&#160;&#160;&#160;&#160;&#160;&#160;&#160;&#160;&#160;&#160;&#160;&#160;&#160;&#160;&#160;&#160;&#160;&#160;&#160;&#160;&#160;&#160;&#160;&#160;&#160;&#160;&#160;FinServ__BillingPeriodStart__c &#160;&#160;&#160;&#160;&#160;&#160;&#160;&#160;&#160;&#160;&#160;&#160;&#160;&#160;&#160;&#160;&#160;&#160;&#160;&#160;&#160;&#160;&#160;&#160;&#160;&#160;&#160;&#160;&#160;&#160;&#160;&#160;&#160;&#160;&#160;&#160;&#160;&#160;</text>
<polygon fill="none" stroke="#99ccff" points="1119.5547,-306.5 1119.5547,-323.5 1210.5547,-323.5 1210.5547,-306.5 1119.5547,-306.5"/>
<text text-anchor="start" x="1151.8525" y="-311.7" font-family="Courier,monospace" font-size="11.00" fill="#000000">date</text>
<polygon fill="none" stroke="#99ccff" points="387.5547,-289.5 387.5547,-306.5 1119.5547,-306.5 1119.5547,-289.5 387.5547,-289.5"/>
<text text-anchor="start" x="390.5547" y="-294.7" font-family="Courier,monospace" font-size="11.00" fill="#000000"> &#160;&#160;&#160;&#160;&#160;&#160;&#160;&#160;&#160;&#160;&#160;&#160;&#160;&#160;&#160;&#160;&#160;&#160;&#160;&#160;&#160;&#160;&#160;&#160;&#160;&#160;&#160;&#160;&#160;&#160;&#160;&#160;&#160;&#160;&#160;&#160;&#160;&#160;&#160;&#160;FinServ__CashAdvances__c &#160;&#160;&#160;&#160;&#160;&#160;&#160;&#160;&#160;&#160;&#160;&#160;&#160;&#160;&#160;&#160;&#160;&#160;&#160;&#160;&#160;&#160;&#160;&#160;&#160;&#160;&#160;&#160;&#160;&#160;&#160;&#160;&#160;&#160;&#160;&#160;&#160;&#160;</text>
<polygon fill="none" stroke="#99ccff" points="1119.5547,-289.5 1119.5547,-306.5 1210.5547,-306.5 1210.5547,-289.5 1119.5547,-289.5"/>
<text text-anchor="start" x="1138.6504" y="-294.7" font-family="Courier,monospace" font-size="11.00" fill="#000000">currency</text>
<polygon fill="none" stroke="#99ccff" points="387.5547,-272.5 387.5547,-289.5 1119.5547,-289.5 1119.5547,-272.5 387.5547,-272.5"/>
<text text-anchor="start" x="390.5547" y="-277.7" font-family="Courier,monospace" font-size="11.00" fill="#000000"> &#160;&#160;&#160;&#160;&#160;&#160;&#160;&#160;&#160;&#160;&#160;&#160;&#160;&#160;&#160;&#160;&#160;&#160;&#160;&#160;&#160;&#160;&#160;&#160;&#160;&#160;&#160;&#160;&#160;&#160;&#160;&#160;&#160;&#160;&#160;&#160;&#160;&#160;&#160;&#160;FinServ__Deposits__c &#160;&#160;&#160;&#160;&#160;&#160;&#160;&#160;&#160;&#160;&#160;&#160;&#160;&#160;&#160;&#160;&#160;&#160;&#160;&#160;&#160;&#160;&#160;&#160;&#160;&#160;&#160;&#160;&#160;&#160;&#160;&#160;&#160;&#160;&#160;&#160;&#160;&#160;</text>
<polygon fill="none" stroke="#99ccff" points="1119.5547,-272.5 1119.5547,-289.5 1210.5547,-289.5 1210.5547,-272.5 1119.5547,-272.5"/>
<text text-anchor="start" x="1138.6504" y="-277.7" font-family="Courier,monospace" font-size="11.00" fill="#000000">currency</text>
<polygon fill="none" stroke="#99ccff" points="387.5547,-255.5 387.5547,-272.5 1119.5547,-272.5 1119.5547,-255.5 387.5547,-255.5"/>
<text text-anchor="start" x="390.5547" y="-260.7" font-family="Courier,monospace" font-size="11.00" fill="#000000"> &#160;&#160;&#160;&#160;&#160;&#160;&#160;&#160;&#160;&#160;&#160;&#160;&#160;&#160;&#160;&#160;&#160;&#160;&#160;&#160;&#160;&#160;&#160;&#160;&#160;&#160;&#160;&#160;&#160;&#160;&#160;&#160;&#160;&#160;&#160;&#160;&#160;&#160;&#160;&#160;FinServ__EndingBalance__c &#160;&#160;&#160;&#160;&#160;&#160;&#160;&#160;&#160;&#160;&#160;&#160;&#160;&#160;&#160;&#160;&#160;&#160;&#160;&#160;&#160;&#160;&#160;&#160;&#160;&#160;&#160;&#160;&#160;&#160;&#160;&#160;&#160;&#160;&#160;&#160;&#160;&#160;</text>
<polygon fill="none" stroke="#99ccff" points="1119.5547,-255.5 1119.5547,-272.5 1210.5547,-272.5 1210.5547,-255.5 1119.5547,-255.5"/>
<text text-anchor="start" x="1138.6504" y="-260.7" font-family="Courier,monospace" font-size="11.00" fill="#000000">currency</text>
<polygon fill="none" stroke="#99ccff" points="387.5547,-238.5 387.5547,-255.5 1119.5547,-255.5 1119.5547,-238.5 387.5547,-238.5"/>
<text text-anchor="start" x="390.5547" y="-243.7" font-family="Courier,monospace" font-size="11.00" fill="#000000"> &#160;&#160;&#160;&#160;&#160;&#160;&#160;&#160;&#160;&#160;&#160;&#160;&#160;&#160;&#160;&#160;&#160;&#160;&#160;&#160;&#160;&#160;&#160;&#160;&#160;&#160;&#160;&#160;&#160;&#160;&#160;&#160;&#160;&#160;&#160;&#160;&#160;&#160;&#160;&#160;FinServ__FeesCharged__c &#160;&#160;&#160;&#160;&#160;&#160;&#160;&#160;&#160;&#160;&#160;&#160;&#160;&#160;&#160;&#160;&#160;&#160;&#160;&#160;&#160;&#160;&#160;&#160;&#160;&#160;&#160;&#160;&#160;&#160;&#160;&#160;&#160;&#160;&#160;&#160;&#160;&#160;</text>
<polygon fill="none" stroke="#99ccff" points="1119.5547,-238.5 1119.5547,-255.5 1210.5547,-255.5 1210.5547,-238.5 1119.5547,-238.5"/>
<text text-anchor="start" x="1138.6504" y="-243.7" font-family="Courier,monospace" font-size="11.00" fill="#000000">currency</text>
<polygon fill="none" stroke="#99ccff" points="387.5547,-221.5 387.5547,-238.5 1119.5547,-238.5 1119.5547,-221.5 387.5547,-221.5"/>
<text text-anchor="start" x="390.4956" y="-226.7" font-family="Courier,monospace" font-size="11.00" fill="#000000"> &#160;&#160;&#160;&#160;&#160;&#160;&#160;&#160;&#160;&#160;&#160;&#160;&#160;&#160;&#160;&#160;&#160;&#160;&#160;&#160;&#160;&#160;&#160;&#160;&#160;&#160;&#160;&#160;&#160;&#160;&#160;&#160;&#160;&#160;&#160;&#160;&#160;&#160;&#160;&#160;FinServ__InterestThisPeriod__c &#160;&#160;&#160;&#160;&#160;&#160;&#160;&#160;&#160;&#160;&#160;&#160;&#160;&#160;&#160;&#160;&#160;&#160;&#160;&#160;&#160;&#160;&#160;&#160;&#160;&#160;&#160;&#160;&#160;&#160;&#160;&#160;&#160;&#160;&#160;&#160;&#160;&#160;</text>
<polygon fill="none" stroke="#99ccff" points="1119.5547,-221.5 1119.5547,-238.5 1210.5547,-238.5 1210.5547,-221.5 1119.5547,-221.5"/>
<text text-anchor="start" x="1138.6504" y="-226.7" font-family="Courier,monospace" font-size="11.00" fill="#000000">currency</text>
<polygon fill="none" stroke="#99ccff" points="387.5547,-204.5 387.5547,-221.5 1119.5547,-221.5 1119.5547,-204.5 387.5547,-204.5"/>
<text text-anchor="start" x="390.5547" y="-209.7" font-family="Courier,monospace" font-size="11.00" fill="#000000"> &#160;&#160;&#160;&#160;&#160;&#160;&#160;&#160;&#160;&#160;&#160;&#160;&#160;&#160;&#160;&#160;&#160;&#160;&#160;&#160;&#160;&#160;&#160;&#160;&#160;&#160;&#160;&#160;&#160;&#160;&#160;&#160;&#160;&#160;&#160;&#160;&#160;&#160;&#160;&#160;FinServ__InterestYTD__c &#160;&#160;&#160;&#160;&#160;&#160;&#160;&#160;&#160;&#160;&#160;&#160;&#160;&#160;&#160;&#160;&#160;&#160;&#160;&#160;&#160;&#160;&#160;&#160;&#160;&#160;&#160;&#160;&#160;&#160;&#160;&#160;&#160;&#160;&#160;&#160;&#160;&#160;</text>
<polygon fill="none" stroke="#99ccff" points="1119.5547,-204.5 1119.5547,-221.5 1210.5547,-221.5 1210.5547,-204.5 1119.5547,-204.5"/>
<text text-anchor="start" x="1138.6504" y="-209.7" font-family="Courier,monospace" font-size="11.00" fill="#000000">currency</text>
<polygon fill="none" stroke="#99ccff" points="387.5547,-187.5 387.5547,-204.5 1119.5547,-204.5 1119.5547,-187.5 387.5547,-187.5"/>
<text text-anchor="start" x="390.5547" y="-192.7" font-family="Courier,monospace" font-size="11.00" fill="#000000"> &#160;&#160;&#160;&#160;&#160;&#160;&#160;&#160;&#160;&#160;&#160;&#160;&#160;&#160;&#160;&#160;&#160;&#160;&#160;&#160;&#160;&#160;&#160;&#160;&#160;&#160;&#160;&#160;&#160;&#160;&#160;&#160;&#160;&#160;&#160;&#160;&#160;&#160;&#160;&#160;FinServ__LastPaymentDate__c &#160;&#160;&#160;&#160;&#160;&#160;&#160;&#160;&#160;&#160;&#160;&#160;&#160;&#160;&#160;&#160;&#160;&#160;&#160;&#160;&#160;&#160;&#160;&#160;&#160;&#160;&#160;&#160;&#160;&#160;&#160;&#160;&#160;&#160;&#160;&#160;&#160;&#160;</text>
<polygon fill="none" stroke="#99ccff" points="1119.5547,-187.5 1119.5547,-204.5 1210.5547,-204.5 1210.5547,-187.5 1119.5547,-187.5"/>
<text text-anchor="start" x="1151.8525" y="-192.7" font-family="Courier,monospace" font-size="11.00" fill="#000000">date</text>
<polygon fill="none" stroke="#99ccff" points="387.5547,-170.5 387.5547,-187.5 1119.5547,-187.5 1119.5547,-170.5 387.5547,-170.5"/>
<text text-anchor="start" x="390.5547" y="-175.7" font-family="Courier,monospace" font-size="11.00" fill="#000000"> &#160;&#160;&#160;&#160;&#160;&#160;&#160;&#160;&#160;&#160;&#160;&#160;&#160;&#160;&#160;&#160;&#160;&#160;&#160;&#160;&#160;&#160;&#160;&#160;&#160;&#160;&#160;&#160;&#160;&#160;&#160;&#160;&#160;&#160;&#160;&#160;&#160;&#160;&#160;&#160;FinServ__MinimumPaymentDue__c &#160;&#160;&#160;&#160;&#160;&#160;&#160;&#160;&#160;&#160;&#160;&#160;&#160;&#160;&#160;&#160;&#160;&#160;&#160;&#160;&#160;&#160;&#160;&#160;&#160;&#160;&#160;&#160;&#160;&#160;&#160;&#160;&#160;&#160;&#160;&#160;&#160;&#160;</text>
<polygon fill="none" stroke="#99ccff" points="1119.5547,-170.5 1119.5547,-187.5 1210.5547,-187.5 1210.5547,-170.5 1119.5547,-170.5"/>
<text text-anchor="start" x="1138.6504" y="-175.7" font-family="Courier,monospace" font-size="11.00" fill="#000000">currency</text>
<polygon fill="none" stroke="#99ccff" points="387.5547,-153.5 387.5547,-170.5 1119.5547,-170.5 1119.5547,-153.5 387.5547,-153.5"/>
<text text-anchor="start" x="390.5547" y="-158.7" font-family="Courier,monospace" font-size="11.00" fill="#000000"> &#160;&#160;&#160;&#160;&#160;&#160;&#160;&#160;&#160;&#160;&#160;&#160;&#160;&#160;&#160;&#160;&#160;&#160;&#160;&#160;&#160;&#160;&#160;&#160;&#160;&#160;&#160;&#160;&#160;&#160;&#160;&#160;&#160;&#160;&#160;&#160;&#160;&#160;&#160;&#160;FinServ__OtherCredits__c &#160;&#160;&#160;&#160;&#160;&#160;&#160;&#160;&#160;&#160;&#160;&#160;&#160;&#160;&#160;&#160;&#160;&#160;&#160;&#160;&#160;&#160;&#160;&#160;&#160;&#160;&#160;&#160;&#160;&#160;&#160;&#160;&#160;&#160;&#160;&#160;&#160;&#160;</text>
<polygon fill="none" stroke="#99ccff" points="1119.5547,-153.5 1119.5547,-170.5 1210.5547,-170.5 1210.5547,-153.5 1119.5547,-153.5"/>
<text text-anchor="start" x="1138.6504" y="-158.7" font-family="Courier,monospace" font-size="11.00" fill="#000000">currency</text>
<polygon fill="none" stroke="#99ccff" points="387.5547,-136.5 387.5547,-153.5 1119.5547,-153.5 1119.5547,-136.5 387.5547,-136.5"/>
<text text-anchor="start" x="390.5547" y="-141.7" font-family="Courier,monospace" font-size="11.00" fill="#000000"> &#160;&#160;&#160;&#160;&#160;&#160;&#160;&#160;&#160;&#160;&#160;&#160;&#160;&#160;&#160;&#160;&#160;&#160;&#160;&#160;&#160;&#160;&#160;&#160;&#160;&#160;&#160;&#160;&#160;&#160;&#160;&#160;&#160;&#160;&#160;&#160;&#160;&#160;&#160;&#160;FinServ__PastDueAmount__c &#160;&#160;&#160;&#160;&#160;&#160;&#160;&#160;&#160;&#160;&#160;&#160;&#160;&#160;&#160;&#160;&#160;&#160;&#160;&#160;&#160;&#160;&#160;&#160;&#160;&#160;&#160;&#160;&#160;&#160;&#160;&#160;&#160;&#160;&#160;&#160;&#160;&#160;</text>
<polygon fill="none" stroke="#99ccff" points="1119.5547,-136.5 1119.5547,-153.5 1210.5547,-153.5 1210.5547,-136.5 1119.5547,-136.5"/>
<text text-anchor="start" x="1138.6504" y="-141.7" font-family="Courier,monospace" font-size="11.00" fill="#000000">currency</text>
<polygon fill="none" stroke="#99ccff" points="387.5547,-119.5 387.5547,-136.5 1119.5547,-136.5 1119.5547,-119.5 387.5547,-119.5"/>
<text text-anchor="start" x="390.5547" y="-124.7" font-family="Courier,monospace" font-size="11.00" fill="#000000"> &#160;&#160;&#160;&#160;&#160;&#160;&#160;&#160;&#160;&#160;&#160;&#160;&#160;&#160;&#160;&#160;&#160;&#160;&#160;&#160;&#160;&#160;&#160;&#160;&#160;&#160;&#160;&#160;&#160;&#160;&#160;&#160;&#160;&#160;&#160;&#160;&#160;&#160;&#160;&#160;FinServ__PaymentDueDate__c &#160;&#160;&#160;&#160;&#160;&#160;&#160;&#160;&#160;&#160;&#160;&#160;&#160;&#160;&#160;&#160;&#160;&#160;&#160;&#160;&#160;&#160;&#160;&#160;&#160;&#160;&#160;&#160;&#160;&#160;&#160;&#160;&#160;&#160;&#160;&#160;&#160;&#160;</text>
<polygon fill="none" stroke="#99ccff" points="1119.5547,-119.5 1119.5547,-136.5 1210.5547,-136.5 1210.5547,-119.5 1119.5547,-119.5"/>
<text text-anchor="start" x="1151.8525" y="-124.7" font-family="Courier,monospace" font-size="11.00" fill="#000000">date</text>
<polygon fill="none" stroke="#99ccff" points="387.5547,-102.5 387.5547,-119.5 1119.5547,-119.5 1119.5547,-102.5 387.5547,-102.5"/>
<text text-anchor="start" x="390.5547" y="-107.7" font-family="Courier,monospace" font-size="11.00" fill="#000000"> &#160;&#160;&#160;&#160;&#160;&#160;&#160;&#160;&#160;&#160;&#160;&#160;&#160;&#160;&#160;&#160;&#160;&#160;&#160;&#160;&#160;&#160;&#160;&#160;&#160;&#160;&#160;&#160;&#160;&#160;&#160;&#160;&#160;&#160;&#160;&#160;&#160;&#160;&#160;&#160;FinServ__Payments__c &#160;&#160;&#160;&#160;&#160;&#160;&#160;&#160;&#160;&#160;&#160;&#160;&#160;&#160;&#160;&#160;&#160;&#160;&#160;&#160;&#160;&#160;&#160;&#160;&#160;&#160;&#160;&#160;&#160;&#160;&#160;&#160;&#160;&#160;&#160;&#160;&#160;&#160;</text>
<polygon fill="none" stroke="#99ccff" points="1119.5547,-102.5 1119.5547,-119.5 1210.5547,-119.5 1210.5547,-102.5 1119.5547,-102.5"/>
<text text-anchor="start" x="1138.6504" y="-107.7" font-family="Courier,monospace" font-size="11.00" fill="#000000">currency</text>
<polygon fill="none" stroke="#99ccff" points="387.5547,-85.5 387.5547,-102.5 1119.5547,-102.5 1119.5547,-85.5 387.5547,-85.5"/>
<text text-anchor="start" x="390.5547" y="-90.7" font-family="Courier,monospace" font-size="11.00" fill="#000000"> &#160;&#160;&#160;&#160;&#160;&#160;&#160;&#160;&#160;&#160;&#160;&#160;&#160;&#160;&#160;&#160;&#160;&#160;&#160;&#160;&#160;&#160;&#160;&#160;&#160;&#160;&#160;&#160;&#160;&#160;&#160;&#160;&#160;&#160;&#160;&#160;&#160;&#160;&#160;&#160;FinServ__PreviousBalance__c &#160;&#160;&#160;&#160;&#160;&#160;&#160;&#160;&#160;&#160;&#160;&#160;&#160;&#160;&#160;&#160;&#160;&#160;&#160;&#160;&#160;&#160;&#160;&#160;&#160;&#160;&#160;&#160;&#160;&#160;&#160;&#160;&#160;&#160;&#160;&#160;&#160;&#160;</text>
<polygon fill="none" stroke="#99ccff" points="1119.5547,-85.5 1119.5547,-102.5 1210.5547,-102.5 1210.5547,-85.5 1119.5547,-85.5"/>
<text text-anchor="start" x="1138.6504" y="-90.7" font-family="Courier,monospace" font-size="11.00" fill="#000000">currency</text>
<polygon fill="none" stroke="#99ccff" points="387.5547,-68.5 387.5547,-85.5 1119.5547,-85.5 1119.5547,-68.5 387.5547,-68.5"/>
<text text-anchor="start" x="390.5547" y="-73.7" font-family="Courier,monospace" font-size="11.00" fill="#000000"> &#160;&#160;&#160;&#160;&#160;&#160;&#160;&#160;&#160;&#160;&#160;&#160;&#160;&#160;&#160;&#160;&#160;&#160;&#160;&#160;&#160;&#160;&#160;&#160;&#160;&#160;&#160;&#160;&#160;&#160;&#160;&#160;&#160;&#160;&#160;&#160;&#160;&#160;&#160;&#160;FinServ__Purchases__c &#160;&#160;&#160;&#160;&#160;&#160;&#160;&#160;&#160;&#160;&#160;&#160;&#160;&#160;&#160;&#160;&#160;&#160;&#160;&#160;&#160;&#160;&#160;&#160;&#160;&#160;&#160;&#160;&#160;&#160;&#160;&#160;&#160;&#160;&#160;&#160;&#160;&#160;</text>
<polygon fill="none" stroke="#99ccff" points="1119.5547,-68.5 1119.5547,-85.5 1210.5547,-85.5 1210.5547,-68.5 1119.5547,-68.5"/>
<text text-anchor="start" x="1138.6504" y="-73.7" font-family="Courier,monospace" font-size="11.00" fill="#000000">currency</text>
<polygon fill="none" stroke="#99ccff" points="387.5547,-51.5 387.5547,-68.5 1119.5547,-68.5 1119.5547,-51.5 387.5547,-51.5"/>
<text text-anchor="start" x="390.5547" y="-56.7" font-family="Courier,monospace" font-size="11.00" fill="#000000"> &#160;&#160;&#160;&#160;&#160;&#160;&#160;&#160;&#160;&#160;&#160;&#160;&#160;&#160;&#160;&#160;&#160;&#160;&#160;&#160;&#160;&#160;&#160;&#160;&#160;&#160;&#160;&#160;&#160;&#160;&#160;&#160;&#160;&#160;&#160;&#160;&#160;&#160;&#160;&#160;FinServ__SourceSystemId__c &#160;&#160;&#160;&#160;&#160;&#160;&#160;&#160;&#160;&#160;&#160;&#160;&#160;&#160;&#160;&#160;&#160;&#160;&#160;&#160;&#160;&#160;&#160;&#160;&#160;&#160;&#160;&#160;&#160;&#160;&#160;&#160;&#160;&#160;&#160;&#160;&#160;&#160;</text>
<polygon fill="none" stroke="#99ccff" points="1119.5547,-51.5 1119.5547,-68.5 1210.5547,-68.5 1210.5547,-51.5 1119.5547,-51.5"/>
<text text-anchor="start" x="1128.7488" y="-56.7" font-family="Courier,monospace" font-size="11.00" fill="#000000">string(100)</text>
<polygon fill="none" stroke="#99ccff" points="387.5547,-34.5 387.5547,-51.5 1119.5547,-51.5 1119.5547,-34.5 387.5547,-34.5"/>
<text text-anchor="start" x="390.5547" y="-39.7" font-family="Courier,monospace" font-size="11.00" fill="#000000"> &#160;&#160;&#160;&#160;&#160;&#160;&#160;&#160;&#160;&#160;&#160;&#160;&#160;&#160;&#160;&#160;&#160;&#160;&#160;&#160;&#160;&#160;&#160;&#160;&#160;&#160;&#160;&#160;&#160;&#160;&#160;&#160;&#160;&#160;&#160;&#160;&#160;&#160;&#160;&#160;FinServ__StatementDate__c &#160;&#160;&#160;&#160;&#160;&#160;&#160;&#160;&#160;&#160;&#160;&#160;&#160;&#160;&#160;&#160;&#160;&#160;&#160;&#160;&#160;&#160;&#160;&#160;&#160;&#160;&#160;&#160;&#160;&#160;&#160;&#160;&#160;&#160;&#160;&#160;&#160;&#160;</text>
<polygon fill="none" stroke="#99ccff" points="1119.5547,-34.5 1119.5547,-51.5 1210.5547,-51.5 1210.5547,-34.5 1119.5547,-34.5"/>
<text text-anchor="start" x="1151.8525" y="-39.7" font-family="Courier,monospace" font-size="11.00" fill="#000000">date</text>
<polygon fill="none" stroke="#99ccff" points="387.5547,-17.5 387.5547,-34.5 1119.5547,-34.5 1119.5547,-17.5 387.5547,-17.5"/>
<text text-anchor="start" x="390.5547" y="-22.7" font-family="Courier,monospace" font-size="11.00" fill="#000000"> &#160;&#160;&#160;&#160;&#160;&#160;&#160;&#160;&#160;&#160;&#160;&#160;&#160;&#160;&#160;&#160;&#160;&#160;&#160;&#160;&#160;&#160;&#160;&#160;&#160;&#160;&#160;&#160;&#160;&#160;&#160;&#160;&#160;&#160;&#160;&#160;&#160;&#160;&#160;&#160;FinServ__Withdrawals__c &#160;&#160;&#160;&#160;&#160;&#160;&#160;&#160;&#160;&#160;&#160;&#160;&#160;&#160;&#160;&#160;&#160;&#160;&#160;&#160;&#160;&#160;&#160;&#160;&#160;&#160;&#160;&#160;&#160;&#160;&#160;&#160;&#160;&#160;&#160;&#160;&#160;&#160;</text>
<polygon fill="none" stroke="#99ccff" points="1119.5547,-17.5 1119.5547,-34.5 1210.5547,-34.5 1210.5547,-17.5 1119.5547,-17.5"/>
<text text-anchor="start" x="1138.6504" y="-22.7" font-family="Courier,monospace" font-size="11.00" fill="#000000">currency</text>
<polygon fill="none" stroke="#99ccff" points="386.0547,-17 386.0547,-478 1211.0547,-478 1211.0547,-17 386.0547,-17"/>
</a>
</g>
</g>
<!-- RecordType -->
<g id="node2" class="node">
<title>RecordType</title>
<text text-anchor="middle" x="100.415" y="-429.2" font-family="Courier,monospace" font-size="11.00" fill="#000000">RecordType</text>
</g>
<!-- FinServ__BillingStatement__c&#45;&gt;RecordType -->
<g id="edge1" class="edge">
<title>FinServ__BillingStatement__c:w&#45;&gt;RecordType:e</title>
<path fill="none" stroke="#ff99cc" d="M372.9944,-400.6316C288.4778,-402.1282 194.2023,-416.0564 141.6233,-424.9974"/>
<polygon fill="#ff99cc" stroke="#ff99cc" points="379.555,-400.5723 387.5872,-404.0999 383.5549,-400.5362 387.5547,-400.5 387.5547,-400.5 387.5547,-400.5 383.5549,-400.5362 387.5221,-396.9001 379.555,-400.5723 379.555,-400.5723"/>
<ellipse fill="none" stroke="#ff99cc" cx="376.3551" cy="-400.6013" rx="3.2" ry="3.2"/>
<text text-anchor="middle" x="293.4424" y="-417.3015" font-family="Monaco" font-size="9.00" fill="#000000">RecordType</text>
</g>
<!-- User -->
<g id="node3" class="node">
<title>User</title>
<text text-anchor="middle" x="100.415" y="-380.2" font-family="Courier,monospace" font-size="11.00" fill="#000000">User</text>
</g>
<!-- FinServ__BillingStatement__c&#45;&gt;User -->
<g id="edge2" class="edge">
<title>FinServ__BillingStatement__c:w&#45;&gt;User:e</title>
<path fill="none" stroke="#ff99cc" d="M372.8837,-383.5C280.7426,-383.5 176.182,-383.5 127.7329,-383.5"/>
<polygon fill="#ff99cc" stroke="#ff99cc" points="379.5547,-383.5001 387.5547,-387.1 383.5547,-383.5 387.5547,-383.5 387.5547,-383.5 387.5547,-383.5 383.5547,-383.5 387.5547,-379.9 379.5547,-383.5001 379.5547,-383.5001"/>
<ellipse fill="none" stroke="#ff99cc" cx="376.3547" cy="-383.5001" rx="3.2" ry="3.2"/>
<text text-anchor="middle" x="293.4424" y="-388.3015" font-family="Monaco" font-size="9.00" fill="#000000">LastModifiedBy</text>
</g>
<!-- FinServ__FinancialAccount__c -->
<g id="node4" class="node">
<title>FinServ__FinancialAccount__c</title>
<text text-anchor="middle" x="100.415" y="-331.2" font-family="Courier,monospace" font-size="11.00" fill="#000000">FinServ__FinancialAccount__c</text>
</g>
<!-- FinServ__BillingStatement__c&#45;&gt;FinServ__FinancialAccount__c -->
<g id="edge3" class="edge">
<title>FinServ__BillingStatement__c:w&#45;&gt;FinServ__FinancialAccount__c:e</title>
<path fill="none" stroke="#ff99cc" d="M374.9645,-358.8808C373.4478,-357.5385 371.6192,-356.3122 369.0547,-355.4985 315.2119,-338.4143 252.3948,-332.7748 201.0485,-331.5846"/>
<polygon fill="#ff99cc" stroke="#ff99cc" points="380.7104,-362.358 385.6908,-369.5799 384.1325,-364.429 387.5547,-366.5 387.5547,-366.5 387.5547,-366.5 384.1325,-364.429 389.4186,-363.4201 380.7104,-362.358 380.7104,-362.358"/>
<ellipse fill="none" stroke="#ff99cc" cx="377.9727" cy="-360.7012" rx="3.2" ry="3.2"/>
<text text-anchor="middle" x="293.4424" y="-359.3015" font-family="Monaco" font-size="9.00" fill="#000000">FinServ__FinancialAccount__r</text>
</g>
</g>
</svg>
