<?xml version="1.0" encoding="UTF-8" standalone="no"?>
<!DOCTYPE svg PUBLIC "-//W3C//DTD SVG 1.1//EN"
 "http://www.w3.org/Graphics/SVG/1.1/DTD/svg11.dtd">
<!-- Generated by graphviz version 2.40.1 (20161225.0304)
 -->
<!-- Title: Salesforce+ ERD Pages: 1 -->
<svg width="990pt" height="333pt"
 viewBox="0.00 0.00 989.61 333.00" xmlns="http://www.w3.org/2000/svg" xmlns:xlink="http://www.w3.org/1999/xlink">
<g id="graph0" class="graph" transform="scale(1 1) rotate(0) translate(4 329)">
<title>Salesforce+ ERD</title>
<polygon fill="#efeffd" stroke="transparent" points="-4,4 -4,-329 985.6123,-329 985.6123,4 -4,4"/>
<text text-anchor="middle" x="933.1057" y="-5.8" font-family="Courier,monospace" font-size="9.00" fill="#000000">Salesforce ERD </text>
<!-- FinServ__Securities__c -->
<g id="node1" class="node">
<title>FinServ__Securities__c</title>
<g id="a_node1"><a xlink:href="#" xlink:title=" FinServ__Securities__c ">
<polygon fill="#ffeeff" stroke="transparent" points="163.6123,-17 163.6123,-325 981.6123,-325 981.6123,-17 163.6123,-17"/>
<polygon fill="#add8e6" stroke="transparent" points="164.6123,-307 164.6123,-324 980.6123,-324 980.6123,-307 164.6123,-307"/>
<polygon fill="none" stroke="#99ccff" points="164.6123,-307 164.6123,-324 980.6123,-324 980.6123,-307 164.6123,-307"/>
<text text-anchor="start" x="500.0005" y="-313.2" font-family="Courier,monospace" font-weight="bold" font-size="11.00" fill="#000000">FinServ__Securities__c</text>
<polygon fill="#99ccff" stroke="transparent" points="164.6123,-290 164.6123,-307 889.6123,-307 889.6123,-290 164.6123,-290"/>
<polygon fill="none" stroke="#99ccff" points="164.6123,-290 164.6123,-307 889.6123,-307 889.6123,-290 164.6123,-290"/>
<text text-anchor="start" x="167.6123" y="-296.2" font-family="Courier,monospace" font-size="11.00" fill="#000000"> &#160;&#160;&#160;&#160;&#160;&#160;&#160;&#160;&#160;&#160;&#160;&#160;&#160;&#160;&#160;&#160;&#160;&#160;&#160;&#160;&#160;&#160;&#160;&#160;&#160;&#160;&#160;&#160;&#160;&#160;&#160;&#160;&#160;&#160;&#160;&#160;&#160;&#160;&#160;&#160;&#160;&#160;</text>
<text text-anchor="start" x="451.4585" y="-296.2" font-family="Courier,monospace" font-weight="bold" font-size="11.00" fill="#000000">Id</text>
<text text-anchor="start" x="464.6606" y="-296.2" font-family="Courier,monospace" font-size="11.00" fill="#000000"> &#160;&#160;&#160;&#160;&#160;&#160;&#160;&#160;&#160;&#160;&#160;&#160;&#160;&#160;&#160;&#160;&#160;&#160;&#160;&#160;&#160;&#160;&#160;&#160;&#160;&#160;&#160;&#160;&#160;&#160;&#160;&#160;&#160;&#160;&#160;&#160;&#160;&#160;&#160;</text>
<polygon fill="none" stroke="#99ccff" points="889.6123,-290 889.6123,-307 980.6123,-307 980.6123,-290 889.6123,-290"/>
<text text-anchor="start" x="915.3091" y="-295.2" font-family="Courier,monospace" font-size="11.00" fill="#000000">id(18)</text>
<polygon fill="none" stroke="#99ccff" points="164.6123,-273 164.6123,-290 889.6123,-290 889.6123,-273 164.6123,-273"/>
<text text-anchor="start" x="167.6123" y="-278.2" font-family="Courier,monospace" font-size="11.00" fill="#000000"> &#160;&#160;&#160;&#160;&#160;&#160;&#160;&#160;&#160;&#160;&#160;&#160;&#160;&#160;&#160;&#160;&#160;&#160;&#160;&#160;&#160;&#160;&#160;&#160;&#160;&#160;&#160;&#160;&#160;&#160;&#160;&#160;&#160;&#160;&#160;&#160;&#160;&#160;&#160;&#160;OwnerId &#160;&#160;&#160;&#160;&#160;&#160;&#160;&#160;&#160;&#160;&#160;&#160;&#160;&#160;&#160;&#160;&#160;&#160;&#160;&#160;&#160;&#160;&#160;&#160;&#160;&#160;&#160;&#160;&#160;&#160;&#160;&#160;&#160;&#160;&#160;&#160;&#160;&#160;</text>
<polygon fill="none" stroke="#99ccff" points="889.6123,-273 889.6123,-290 980.6123,-290 980.6123,-273 889.6123,-273"/>
<text text-anchor="start" x="892.2053" y="-278.2" font-family="Courier,monospace" font-size="11.00" fill="#000000">reference(18)</text>
<polygon fill="none" stroke="#99ccff" points="164.6123,-256 164.6123,-273 889.6123,-273 889.6123,-256 164.6123,-256"/>
<text text-anchor="start" x="167.6123" y="-261.2" font-family="Courier,monospace" font-size="11.00" fill="#000000"> &#160;&#160;&#160;&#160;&#160;&#160;&#160;&#160;&#160;&#160;&#160;&#160;&#160;&#160;&#160;&#160;&#160;&#160;&#160;&#160;&#160;&#160;&#160;&#160;&#160;&#160;&#160;&#160;&#160;&#160;&#160;&#160;&#160;&#160;&#160;&#160;&#160;&#160;&#160;&#160;IsDeleted &#160;&#160;&#160;&#160;&#160;&#160;&#160;&#160;&#160;&#160;&#160;&#160;&#160;&#160;&#160;&#160;&#160;&#160;&#160;&#160;&#160;&#160;&#160;&#160;&#160;&#160;&#160;&#160;&#160;&#160;&#160;&#160;&#160;&#160;&#160;&#160;&#160;&#160;</text>
<polygon fill="none" stroke="#99ccff" points="889.6123,-256 889.6123,-273 980.6123,-273 980.6123,-256 889.6123,-256"/>
<text text-anchor="start" x="912.0085" y="-261.2" font-family="Courier,monospace" font-size="11.00" fill="#000000">boolean</text>
<polygon fill="none" stroke="#99ccff" points="164.6123,-239 164.6123,-256 889.6123,-256 889.6123,-239 164.6123,-239"/>
<text text-anchor="start" x="167.6123" y="-244.2" font-family="Courier,monospace" font-size="11.00" fill="#000000"> &#160;&#160;&#160;&#160;&#160;&#160;&#160;&#160;&#160;&#160;&#160;&#160;&#160;&#160;&#160;&#160;&#160;&#160;&#160;&#160;&#160;&#160;&#160;&#160;&#160;&#160;&#160;&#160;&#160;&#160;&#160;&#160;&#160;&#160;&#160;&#160;&#160;&#160;&#160;&#160;Name &#160;&#160;&#160;&#160;&#160;&#160;&#160;&#160;&#160;&#160;&#160;&#160;&#160;&#160;&#160;&#160;&#160;&#160;&#160;&#160;&#160;&#160;&#160;&#160;&#160;&#160;&#160;&#160;&#160;&#160;&#160;&#160;&#160;&#160;&#160;&#160;&#160;&#160;</text>
<polygon fill="none" stroke="#99ccff" points="889.6123,-239 889.6123,-256 980.6123,-256 980.6123,-239 889.6123,-239"/>
<text text-anchor="start" x="902.1069" y="-244.2" font-family="Courier,monospace" font-size="11.00" fill="#000000">string(80)</text>
<polygon fill="none" stroke="#99ccff" points="164.6123,-222 164.6123,-239 889.6123,-239 889.6123,-222 164.6123,-222"/>
<text text-anchor="start" x="167.6123" y="-227.2" font-family="Courier,monospace" font-size="11.00" fill="#000000"> &#160;&#160;&#160;&#160;&#160;&#160;&#160;&#160;&#160;&#160;&#160;&#160;&#160;&#160;&#160;&#160;&#160;&#160;&#160;&#160;&#160;&#160;&#160;&#160;&#160;&#160;&#160;&#160;&#160;&#160;&#160;&#160;&#160;&#160;&#160;&#160;&#160;&#160;&#160;&#160;LastModifiedById &#160;&#160;&#160;&#160;&#160;&#160;&#160;&#160;&#160;&#160;&#160;&#160;&#160;&#160;&#160;&#160;&#160;&#160;&#160;&#160;&#160;&#160;&#160;&#160;&#160;&#160;&#160;&#160;&#160;&#160;&#160;&#160;&#160;&#160;&#160;&#160;&#160;&#160;</text>
<polygon fill="none" stroke="#99ccff" points="889.6123,-222 889.6123,-239 980.6123,-239 980.6123,-222 889.6123,-222"/>
<text text-anchor="start" x="892.2053" y="-227.2" font-family="Courier,monospace" font-size="11.00" fill="#000000">reference(18)</text>
<polygon fill="none" stroke="#99ccff" points="164.6123,-205 164.6123,-222 889.6123,-222 889.6123,-205 164.6123,-205"/>
<text text-anchor="start" x="167.6123" y="-210.2" font-family="Courier,monospace" font-size="11.00" fill="#000000"> &#160;&#160;&#160;&#160;&#160;&#160;&#160;&#160;&#160;&#160;&#160;&#160;&#160;&#160;&#160;&#160;&#160;&#160;&#160;&#160;&#160;&#160;&#160;&#160;&#160;&#160;&#160;&#160;&#160;&#160;&#160;&#160;&#160;&#160;&#160;&#160;&#160;&#160;&#160;&#160;LastViewedDate &#160;&#160;&#160;&#160;&#160;&#160;&#160;&#160;&#160;&#160;&#160;&#160;&#160;&#160;&#160;&#160;&#160;&#160;&#160;&#160;&#160;&#160;&#160;&#160;&#160;&#160;&#160;&#160;&#160;&#160;&#160;&#160;&#160;&#160;&#160;&#160;&#160;&#160;</text>
<polygon fill="none" stroke="#99ccff" points="889.6123,-205 889.6123,-222 980.6123,-222 980.6123,-205 889.6123,-205"/>
<text text-anchor="start" x="908.708" y="-210.2" font-family="Courier,monospace" font-size="11.00" fill="#000000">datetime</text>
<polygon fill="none" stroke="#99ccff" points="164.6123,-188 164.6123,-205 889.6123,-205 889.6123,-188 164.6123,-188"/>
<text text-anchor="start" x="167.6123" y="-193.2" font-family="Courier,monospace" font-size="11.00" fill="#000000"> &#160;&#160;&#160;&#160;&#160;&#160;&#160;&#160;&#160;&#160;&#160;&#160;&#160;&#160;&#160;&#160;&#160;&#160;&#160;&#160;&#160;&#160;&#160;&#160;&#160;&#160;&#160;&#160;&#160;&#160;&#160;&#160;&#160;&#160;&#160;&#160;&#160;&#160;&#160;&#160;LastReferencedDate &#160;&#160;&#160;&#160;&#160;&#160;&#160;&#160;&#160;&#160;&#160;&#160;&#160;&#160;&#160;&#160;&#160;&#160;&#160;&#160;&#160;&#160;&#160;&#160;&#160;&#160;&#160;&#160;&#160;&#160;&#160;&#160;&#160;&#160;&#160;&#160;&#160;&#160;</text>
<polygon fill="none" stroke="#99ccff" points="889.6123,-188 889.6123,-205 980.6123,-205 980.6123,-188 889.6123,-188"/>
<text text-anchor="start" x="908.708" y="-193.2" font-family="Courier,monospace" font-size="11.00" fill="#000000">datetime</text>
<polygon fill="none" stroke="#99ccff" points="164.6123,-171 164.6123,-188 889.6123,-188 889.6123,-171 164.6123,-171"/>
<text text-anchor="start" x="167.6123" y="-176.2" font-family="Courier,monospace" font-size="11.00" fill="#000000"> &#160;&#160;&#160;&#160;&#160;&#160;&#160;&#160;&#160;&#160;&#160;&#160;&#160;&#160;&#160;&#160;&#160;&#160;&#160;&#160;&#160;&#160;&#160;&#160;&#160;&#160;&#160;&#160;&#160;&#160;&#160;&#160;&#160;&#160;&#160;&#160;&#160;&#160;&#160;&#160;FinServ__CUSIP__c &#160;&#160;&#160;&#160;&#160;&#160;&#160;&#160;&#160;&#160;&#160;&#160;&#160;&#160;&#160;&#160;&#160;&#160;&#160;&#160;&#160;&#160;&#160;&#160;&#160;&#160;&#160;&#160;&#160;&#160;&#160;&#160;&#160;&#160;&#160;&#160;&#160;&#160;</text>
<polygon fill="none" stroke="#99ccff" points="889.6123,-171 889.6123,-188 980.6123,-188 980.6123,-171 889.6123,-171"/>
<text text-anchor="start" x="905.4075" y="-176.2" font-family="Courier,monospace" font-size="11.00" fill="#000000">string(9)</text>
<polygon fill="none" stroke="#99ccff" points="164.6123,-154 164.6123,-171 889.6123,-171 889.6123,-154 164.6123,-154"/>
<text text-anchor="start" x="167.6123" y="-159.2" font-family="Courier,monospace" font-size="11.00" fill="#000000"> &#160;&#160;&#160;&#160;&#160;&#160;&#160;&#160;&#160;&#160;&#160;&#160;&#160;&#160;&#160;&#160;&#160;&#160;&#160;&#160;&#160;&#160;&#160;&#160;&#160;&#160;&#160;&#160;&#160;&#160;&#160;&#160;&#160;&#160;&#160;&#160;&#160;&#160;&#160;&#160;FinServ__Exchange__c &#160;&#160;&#160;&#160;&#160;&#160;&#160;&#160;&#160;&#160;&#160;&#160;&#160;&#160;&#160;&#160;&#160;&#160;&#160;&#160;&#160;&#160;&#160;&#160;&#160;&#160;&#160;&#160;&#160;&#160;&#160;&#160;&#160;&#160;&#160;&#160;&#160;&#160;</text>
<polygon fill="none" stroke="#99ccff" points="889.6123,-154 889.6123,-171 980.6123,-171 980.6123,-154 889.6123,-154"/>
<text text-anchor="start" x="892.2053" y="-159.2" font-family="Courier,monospace" font-size="11.00" fill="#000000">picklist(255)</text>
<polygon fill="none" stroke="#99ccff" points="164.6123,-137 164.6123,-154 889.6123,-154 889.6123,-137 164.6123,-137"/>
<text text-anchor="start" x="167.6123" y="-142.2" font-family="Courier,monospace" font-size="11.00" fill="#000000"> &#160;&#160;&#160;&#160;&#160;&#160;&#160;&#160;&#160;&#160;&#160;&#160;&#160;&#160;&#160;&#160;&#160;&#160;&#160;&#160;&#160;&#160;&#160;&#160;&#160;&#160;&#160;&#160;&#160;&#160;&#160;&#160;&#160;&#160;&#160;&#160;&#160;&#160;&#160;&#160;FinServ__LastUpdated__c &#160;&#160;&#160;&#160;&#160;&#160;&#160;&#160;&#160;&#160;&#160;&#160;&#160;&#160;&#160;&#160;&#160;&#160;&#160;&#160;&#160;&#160;&#160;&#160;&#160;&#160;&#160;&#160;&#160;&#160;&#160;&#160;&#160;&#160;&#160;&#160;&#160;&#160;</text>
<polygon fill="none" stroke="#99ccff" points="889.6123,-137 889.6123,-154 980.6123,-154 980.6123,-137 889.6123,-137"/>
<text text-anchor="start" x="921.9102" y="-142.2" font-family="Courier,monospace" font-size="11.00" fill="#000000">date</text>
<polygon fill="none" stroke="#99ccff" points="164.6123,-120 164.6123,-137 889.6123,-137 889.6123,-120 164.6123,-120"/>
<text text-anchor="start" x="167.6123" y="-125.2" font-family="Courier,monospace" font-size="11.00" fill="#000000"> &#160;&#160;&#160;&#160;&#160;&#160;&#160;&#160;&#160;&#160;&#160;&#160;&#160;&#160;&#160;&#160;&#160;&#160;&#160;&#160;&#160;&#160;&#160;&#160;&#160;&#160;&#160;&#160;&#160;&#160;&#160;&#160;&#160;&#160;&#160;&#160;&#160;&#160;&#160;&#160;FinServ__Price__c &#160;&#160;&#160;&#160;&#160;&#160;&#160;&#160;&#160;&#160;&#160;&#160;&#160;&#160;&#160;&#160;&#160;&#160;&#160;&#160;&#160;&#160;&#160;&#160;&#160;&#160;&#160;&#160;&#160;&#160;&#160;&#160;&#160;&#160;&#160;&#160;&#160;&#160;</text>
<polygon fill="none" stroke="#99ccff" points="889.6123,-120 889.6123,-137 980.6123,-137 980.6123,-120 889.6123,-120"/>
<text text-anchor="start" x="908.708" y="-125.2" font-family="Courier,monospace" font-size="11.00" fill="#000000">currency</text>
<polygon fill="none" stroke="#99ccff" points="164.6123,-103 164.6123,-120 889.6123,-120 889.6123,-103 164.6123,-103"/>
<text text-anchor="start" x="167.6123" y="-108.2" font-family="Courier,monospace" font-size="11.00" fill="#000000"> &#160;&#160;&#160;&#160;&#160;&#160;&#160;&#160;&#160;&#160;&#160;&#160;&#160;&#160;&#160;&#160;&#160;&#160;&#160;&#160;&#160;&#160;&#160;&#160;&#160;&#160;&#160;&#160;&#160;&#160;&#160;&#160;&#160;&#160;&#160;&#160;&#160;&#160;&#160;&#160;FinServ__SecuritiesName__c &#160;&#160;&#160;&#160;&#160;&#160;&#160;&#160;&#160;&#160;&#160;&#160;&#160;&#160;&#160;&#160;&#160;&#160;&#160;&#160;&#160;&#160;&#160;&#160;&#160;&#160;&#160;&#160;&#160;&#160;&#160;&#160;&#160;&#160;&#160;&#160;&#160;&#160;</text>
<polygon fill="none" stroke="#99ccff" points="889.6123,-103 889.6123,-120 980.6123,-120 980.6123,-103 889.6123,-103"/>
<text text-anchor="start" x="898.8064" y="-108.2" font-family="Courier,monospace" font-size="11.00" fill="#000000">string(150)</text>
<polygon fill="none" stroke="#99ccff" points="164.6123,-86 164.6123,-103 889.6123,-103 889.6123,-86 164.6123,-86"/>
<text text-anchor="start" x="167.6123" y="-91.2" font-family="Courier,monospace" font-size="11.00" fill="#000000"> &#160;&#160;&#160;&#160;&#160;&#160;&#160;&#160;&#160;&#160;&#160;&#160;&#160;&#160;&#160;&#160;&#160;&#160;&#160;&#160;&#160;&#160;&#160;&#160;&#160;&#160;&#160;&#160;&#160;&#160;&#160;&#160;&#160;&#160;&#160;&#160;&#160;&#160;&#160;&#160;FinServ__SecurityId__c &#160;&#160;&#160;&#160;&#160;&#160;&#160;&#160;&#160;&#160;&#160;&#160;&#160;&#160;&#160;&#160;&#160;&#160;&#160;&#160;&#160;&#160;&#160;&#160;&#160;&#160;&#160;&#160;&#160;&#160;&#160;&#160;&#160;&#160;&#160;&#160;&#160;&#160;</text>
<polygon fill="none" stroke="#99ccff" points="889.6123,-86 889.6123,-103 980.6123,-103 980.6123,-86 889.6123,-86"/>
<text text-anchor="start" x="902.1069" y="-91.2" font-family="Courier,monospace" font-size="11.00" fill="#000000">string(32)</text>
<polygon fill="none" stroke="#99ccff" points="164.6123,-69 164.6123,-86 889.6123,-86 889.6123,-69 164.6123,-69"/>
<text text-anchor="start" x="167.6123" y="-74.2" font-family="Courier,monospace" font-size="11.00" fill="#000000"> &#160;&#160;&#160;&#160;&#160;&#160;&#160;&#160;&#160;&#160;&#160;&#160;&#160;&#160;&#160;&#160;&#160;&#160;&#160;&#160;&#160;&#160;&#160;&#160;&#160;&#160;&#160;&#160;&#160;&#160;&#160;&#160;&#160;&#160;&#160;&#160;&#160;&#160;&#160;&#160;FinServ__SourceSystemId__c &#160;&#160;&#160;&#160;&#160;&#160;&#160;&#160;&#160;&#160;&#160;&#160;&#160;&#160;&#160;&#160;&#160;&#160;&#160;&#160;&#160;&#160;&#160;&#160;&#160;&#160;&#160;&#160;&#160;&#160;&#160;&#160;&#160;&#160;&#160;&#160;&#160;&#160;</text>
<polygon fill="none" stroke="#99ccff" points="889.6123,-69 889.6123,-86 980.6123,-86 980.6123,-69 889.6123,-69"/>
<text text-anchor="start" x="898.8064" y="-74.2" font-family="Courier,monospace" font-size="11.00" fill="#000000">string(100)</text>
<polygon fill="none" stroke="#99ccff" points="164.6123,-52 164.6123,-69 889.6123,-69 889.6123,-52 164.6123,-52"/>
<text text-anchor="start" x="167.3538" y="-57.2" font-family="Courier,monospace" font-size="11.00" fill="#000000"> &#160;&#160;&#160;&#160;&#160;&#160;&#160;&#160;&#160;&#160;&#160;&#160;&#160;&#160;&#160;&#160;&#160;&#160;&#160;&#160;&#160;&#160;&#160;&#160;&#160;&#160;&#160;&#160;&#160;&#160;&#160;&#160;&#160;&#160;&#160;&#160;&#160;&#160;&#160;&#160;FinServ__AssetCategoryName__c &#160;&#160;&#160;&#160;&#160;&#160;&#160;&#160;&#160;&#160;&#160;&#160;&#160;&#160;&#160;&#160;&#160;&#160;&#160;&#160;&#160;&#160;&#160;&#160;&#160;&#160;&#160;&#160;&#160;&#160;&#160;&#160;&#160;&#160;&#160;&#160;&#160;&#160;</text>
<polygon fill="none" stroke="#99ccff" points="889.6123,-52 889.6123,-69 980.6123,-69 980.6123,-52 889.6123,-52"/>
<text text-anchor="start" x="892.2053" y="-57.2" font-family="Courier,monospace" font-size="11.00" fill="#000000">picklist(255)</text>
<polygon fill="none" stroke="#99ccff" points="164.6123,-35 164.6123,-52 889.6123,-52 889.6123,-35 164.6123,-35"/>
<text text-anchor="start" x="167.6123" y="-40.2" font-family="Courier,monospace" font-size="11.00" fill="#000000"> &#160;&#160;&#160;&#160;&#160;&#160;&#160;&#160;&#160;&#160;&#160;&#160;&#160;&#160;&#160;&#160;&#160;&#160;&#160;&#160;&#160;&#160;&#160;&#160;&#160;&#160;&#160;&#160;&#160;&#160;&#160;&#160;&#160;&#160;&#160;&#160;&#160;&#160;&#160;&#160;FinServ__AssetCategory__c &#160;&#160;&#160;&#160;&#160;&#160;&#160;&#160;&#160;&#160;&#160;&#160;&#160;&#160;&#160;&#160;&#160;&#160;&#160;&#160;&#160;&#160;&#160;&#160;&#160;&#160;&#160;&#160;&#160;&#160;&#160;&#160;&#160;&#160;&#160;&#160;&#160;&#160;</text>
<polygon fill="none" stroke="#99ccff" points="889.6123,-35 889.6123,-52 980.6123,-52 980.6123,-35 889.6123,-35"/>
<text text-anchor="start" x="892.2053" y="-40.2" font-family="Courier,monospace" font-size="11.00" fill="#000000">picklist(255)</text>
<polygon fill="none" stroke="#99ccff" points="164.6123,-18 164.6123,-35 889.6123,-35 889.6123,-18 164.6123,-18"/>
<text text-anchor="start" x="167.6123" y="-23.2" font-family="Courier,monospace" font-size="11.00" fill="#000000"> &#160;&#160;&#160;&#160;&#160;&#160;&#160;&#160;&#160;&#160;&#160;&#160;&#160;&#160;&#160;&#160;&#160;&#160;&#160;&#160;&#160;&#160;&#160;&#160;&#160;&#160;&#160;&#160;&#160;&#160;&#160;&#160;&#160;&#160;&#160;&#160;&#160;&#160;&#160;&#160;FinServ__AssetClass__c &#160;&#160;&#160;&#160;&#160;&#160;&#160;&#160;&#160;&#160;&#160;&#160;&#160;&#160;&#160;&#160;&#160;&#160;&#160;&#160;&#160;&#160;&#160;&#160;&#160;&#160;&#160;&#160;&#160;&#160;&#160;&#160;&#160;&#160;&#160;&#160;&#160;&#160;</text>
<polygon fill="none" stroke="#99ccff" points="889.6123,-18 889.6123,-35 980.6123,-35 980.6123,-18 889.6123,-18"/>
<text text-anchor="start" x="892.2053" y="-23.2" font-family="Courier,monospace" font-size="11.00" fill="#000000">picklist(255)</text>
<polygon fill="none" stroke="#99ccff" points="163.6123,-17 163.6123,-325 981.6123,-325 981.6123,-17 163.6123,-17"/>
</a>
</g>
</g>
<!-- Group -->
<g id="node2" class="node">
<title>Group</title>
<text text-anchor="middle" x="27" y="-287.7" font-family="Courier,monospace" font-size="11.00" fill="#000000">Group</text>
</g>
<!-- FinServ__Securities__c&#45;&gt;Group -->
<g id="edge1" class="edge">
<title>FinServ__Securities__c:w&#45;&gt;Group:e</title>
<path fill="none" stroke="#ff99cc" d="M149.9692,-282.1572C115.3611,-282.8704 78.3846,-285.8676 54.1209,-288.177"/>
<polygon fill="#ff99cc" stroke="#ff99cc" points="156.6128,-282.0859 164.651,-285.5998 160.6125,-282.043 164.6123,-282 164.6123,-282 164.6123,-282 160.6125,-282.043 164.5736,-278.4002 156.6128,-282.0859 156.6128,-282.0859"/>
<ellipse fill="none" stroke="#ff99cc" cx="153.4129" cy="-282.1203" rx="3.2" ry="3.2"/>
<text text-anchor="middle" x="108.8062" y="-290.8015" font-family="Monaco" font-size="9.00" fill="#000000">Owner</text>
</g>
<!-- User -->
<g id="node3" class="node">
<title>User</title>
<text text-anchor="middle" x="27" y="-233.7" font-family="Courier,monospace" font-size="11.00" fill="#000000">User</text>
</g>
<!-- FinServ__Securities__c&#45;&gt;User -->
<g id="edge2" class="edge">
<title>FinServ__Securities__c:w&#45;&gt;User:e</title>
<path fill="none" stroke="#ff99cc" d="M153.8712,-271.9171C152.4084,-268.6171 150.5709,-265.2297 146.6123,-262.9985 138.6055,-258.4857 86.7958,-248.1992 54.0421,-242.0035"/>
<polygon fill="#ff99cc" stroke="#ff99cc" points="158.7796,-276.5246 162.1484,-284.6247 161.6959,-279.2623 164.6123,-282 164.6123,-282 164.6123,-282 161.6959,-279.2623 167.0762,-279.3753 158.7796,-276.5246 158.7796,-276.5246"/>
<ellipse fill="none" stroke="#ff99cc" cx="156.4465" cy="-274.3345" rx="3.2" ry="3.2"/>
<text text-anchor="middle" x="108.8062" y="-266.8015" font-family="Monaco" font-size="9.00" fill="#000000">Owner</text>
</g>
<!-- FinServ__Securities__c&#45;&gt;User -->
<g id="edge3" class="edge">
<title>FinServ__Securities__c:w&#45;&gt;User:e</title>
<path fill="none" stroke="#ff99cc" d="M149.971,-230.1385C148.968,-230.0817 147.8638,-230.0333 146.6123,-229.9985 113.0198,-229.0648 104.5009,-227.3498 71,-229.9985 65.6023,-230.4253 59.8667,-231.1422 54.3816,-231.9586"/>
<polygon fill="#ff99cc" stroke="#ff99cc" points="156.6261,-230.5301 164.4008,-234.5938 160.6192,-230.765 164.6123,-231 164.6123,-231 164.6123,-231 160.6192,-230.765 164.8238,-227.4062 156.6261,-230.5301 156.6261,-230.5301"/>
<ellipse fill="none" stroke="#ff99cc" cx="153.4316" cy="-230.3421" rx="3.2" ry="3.2"/>
<text text-anchor="middle" x="108.8062" y="-233.8015" font-family="Monaco" font-size="9.00" fill="#000000">LastModifiedBy</text>
</g>
</g>
</svg>
