<?xml version="1.0" encoding="UTF-8" standalone="no"?>
<!DOCTYPE svg PUBLIC "-//W3C//DTD SVG 1.1//EN"
 "http://www.w3.org/Graphics/SVG/1.1/DTD/svg11.dtd">
<!-- Generated by graphviz version 2.40.1 (20161225.0304)
 -->
<!-- Title: Salesforce+ ERD Pages: 1 -->
<svg width="1271pt" height="407pt"
 viewBox="0.00 0.00 1271.05 406.50" xmlns="http://www.w3.org/2000/svg" xmlns:xlink="http://www.w3.org/1999/xlink">
<g id="graph0" class="graph" transform="scale(1 1) rotate(0) translate(4 402.5)">
<title>Salesforce+ ERD</title>
<polygon fill="#efeffd" stroke="transparent" points="-4,4 -4,-402.5 1267.0547,-402.5 1267.0547,4 -4,4"/>
<text text-anchor="middle" x="1214.5481" y="-5.8" font-family="Courier,monospace" font-size="9.00" fill="#000000">Salesforce ERD </text>
<!-- FinServ__AssetsAndLiabilities__c -->
<g id="node1" class="node">
<title>FinServ__AssetsAndLiabilities__c</title>
<g id="a_node1"><a xlink:href="#" xlink:title=" FinServ__AssetsAndLiabilities__c ">
<polygon fill="#ffeeff" stroke="transparent" points="386.0547,-17 386.0547,-376 1263.0547,-376 1263.0547,-17 386.0547,-17"/>
<polygon fill="#add8e6" stroke="transparent" points="387.5547,-357.5 387.5547,-374.5 1262.5547,-374.5 1262.5547,-357.5 387.5547,-357.5"/>
<polygon fill="none" stroke="#99ccff" points="387.5547,-357.5 387.5547,-374.5 1262.5547,-374.5 1262.5547,-357.5 387.5547,-357.5"/>
<text text-anchor="start" x="719.4375" y="-363.7" font-family="Courier,monospace" font-weight="bold" font-size="11.00" fill="#000000">FinServ__AssetsAndLiabilities__c</text>
<polygon fill="#99ccff" stroke="transparent" points="387.5547,-340.5 387.5547,-357.5 1171.5547,-357.5 1171.5547,-340.5 387.5547,-340.5"/>
<polygon fill="none" stroke="#99ccff" points="387.5547,-340.5 387.5547,-357.5 1171.5547,-357.5 1171.5547,-340.5 387.5547,-340.5"/>
<text text-anchor="start" x="390.5547" y="-346.7" font-family="Courier,monospace" font-size="11.00" fill="#000000"> &#160;&#160;&#160;&#160;&#160;&#160;&#160;&#160;&#160;&#160;&#160;&#160;&#160;&#160;&#160;&#160;&#160;&#160;&#160;&#160;&#160;&#160;&#160;&#160;&#160;&#160;&#160;&#160;&#160;&#160;&#160;&#160;&#160;&#160;&#160;&#160;&#160;&#160;&#160;&#160;&#160;&#160;</text>
<text text-anchor="start" x="674.4009" y="-346.7" font-family="Courier,monospace" font-weight="bold" font-size="11.00" fill="#000000">Id</text>
<text text-anchor="start" x="687.603" y="-346.7" font-family="Courier,monospace" font-size="11.00" fill="#000000"> &#160;&#160;&#160;&#160;&#160;&#160;&#160;&#160;&#160;&#160;&#160;&#160;&#160;&#160;&#160;&#160;&#160;&#160;&#160;&#160;&#160;&#160;&#160;&#160;&#160;&#160;&#160;&#160;&#160;&#160;&#160;&#160;&#160;&#160;&#160;&#160;&#160;&#160;&#160;</text>
<polygon fill="none" stroke="#99ccff" points="1171.5547,-340.5 1171.5547,-357.5 1262.5547,-357.5 1262.5547,-340.5 1171.5547,-340.5"/>
<text text-anchor="start" x="1197.2515" y="-345.7" font-family="Courier,monospace" font-size="11.00" fill="#000000">id(18)</text>
<polygon fill="none" stroke="#99ccff" points="387.5547,-323.5 387.5547,-340.5 1171.5547,-340.5 1171.5547,-323.5 387.5547,-323.5"/>
<text text-anchor="start" x="390.5547" y="-328.7" font-family="Courier,monospace" font-size="11.00" fill="#000000"> &#160;&#160;&#160;&#160;&#160;&#160;&#160;&#160;&#160;&#160;&#160;&#160;&#160;&#160;&#160;&#160;&#160;&#160;&#160;&#160;&#160;&#160;&#160;&#160;&#160;&#160;&#160;&#160;&#160;&#160;&#160;&#160;&#160;&#160;&#160;&#160;&#160;&#160;&#160;&#160;OwnerId &#160;&#160;&#160;&#160;&#160;&#160;&#160;&#160;&#160;&#160;&#160;&#160;&#160;&#160;&#160;&#160;&#160;&#160;&#160;&#160;&#160;&#160;&#160;&#160;&#160;&#160;&#160;&#160;&#160;&#160;&#160;&#160;&#160;&#160;&#160;&#160;&#160;&#160;</text>
<polygon fill="none" stroke="#99ccff" points="1171.5547,-323.5 1171.5547,-340.5 1262.5547,-340.5 1262.5547,-323.5 1171.5547,-323.5"/>
<text text-anchor="start" x="1174.1477" y="-328.7" font-family="Courier,monospace" font-size="11.00" fill="#000000">reference(18)</text>
<polygon fill="none" stroke="#99ccff" points="387.5547,-306.5 387.5547,-323.5 1171.5547,-323.5 1171.5547,-306.5 387.5547,-306.5"/>
<text text-anchor="start" x="390.5547" y="-311.7" font-family="Courier,monospace" font-size="11.00" fill="#000000"> &#160;&#160;&#160;&#160;&#160;&#160;&#160;&#160;&#160;&#160;&#160;&#160;&#160;&#160;&#160;&#160;&#160;&#160;&#160;&#160;&#160;&#160;&#160;&#160;&#160;&#160;&#160;&#160;&#160;&#160;&#160;&#160;&#160;&#160;&#160;&#160;&#160;&#160;&#160;&#160;IsDeleted &#160;&#160;&#160;&#160;&#160;&#160;&#160;&#160;&#160;&#160;&#160;&#160;&#160;&#160;&#160;&#160;&#160;&#160;&#160;&#160;&#160;&#160;&#160;&#160;&#160;&#160;&#160;&#160;&#160;&#160;&#160;&#160;&#160;&#160;&#160;&#160;&#160;&#160;</text>
<polygon fill="none" stroke="#99ccff" points="1171.5547,-306.5 1171.5547,-323.5 1262.5547,-323.5 1262.5547,-306.5 1171.5547,-306.5"/>
<text text-anchor="start" x="1193.9509" y="-311.7" font-family="Courier,monospace" font-size="11.00" fill="#000000">boolean</text>
<polygon fill="none" stroke="#99ccff" points="387.5547,-289.5 387.5547,-306.5 1171.5547,-306.5 1171.5547,-289.5 387.5547,-289.5"/>
<text text-anchor="start" x="390.5547" y="-294.7" font-family="Courier,monospace" font-size="11.00" fill="#000000"> &#160;&#160;&#160;&#160;&#160;&#160;&#160;&#160;&#160;&#160;&#160;&#160;&#160;&#160;&#160;&#160;&#160;&#160;&#160;&#160;&#160;&#160;&#160;&#160;&#160;&#160;&#160;&#160;&#160;&#160;&#160;&#160;&#160;&#160;&#160;&#160;&#160;&#160;&#160;&#160;Name &#160;&#160;&#160;&#160;&#160;&#160;&#160;&#160;&#160;&#160;&#160;&#160;&#160;&#160;&#160;&#160;&#160;&#160;&#160;&#160;&#160;&#160;&#160;&#160;&#160;&#160;&#160;&#160;&#160;&#160;&#160;&#160;&#160;&#160;&#160;&#160;&#160;&#160;</text>
<polygon fill="none" stroke="#99ccff" points="1171.5547,-289.5 1171.5547,-306.5 1262.5547,-306.5 1262.5547,-289.5 1171.5547,-289.5"/>
<text text-anchor="start" x="1184.0493" y="-294.7" font-family="Courier,monospace" font-size="11.00" fill="#000000">string(80)</text>
<polygon fill="none" stroke="#99ccff" points="387.5547,-272.5 387.5547,-289.5 1171.5547,-289.5 1171.5547,-272.5 387.5547,-272.5"/>
<text text-anchor="start" x="390.5547" y="-277.7" font-family="Courier,monospace" font-size="11.00" fill="#000000"> &#160;&#160;&#160;&#160;&#160;&#160;&#160;&#160;&#160;&#160;&#160;&#160;&#160;&#160;&#160;&#160;&#160;&#160;&#160;&#160;&#160;&#160;&#160;&#160;&#160;&#160;&#160;&#160;&#160;&#160;&#160;&#160;&#160;&#160;&#160;&#160;&#160;&#160;&#160;&#160;RecordTypeId &#160;&#160;&#160;&#160;&#160;&#160;&#160;&#160;&#160;&#160;&#160;&#160;&#160;&#160;&#160;&#160;&#160;&#160;&#160;&#160;&#160;&#160;&#160;&#160;&#160;&#160;&#160;&#160;&#160;&#160;&#160;&#160;&#160;&#160;&#160;&#160;&#160;&#160;</text>
<polygon fill="none" stroke="#99ccff" points="1171.5547,-272.5 1171.5547,-289.5 1262.5547,-289.5 1262.5547,-272.5 1171.5547,-272.5"/>
<text text-anchor="start" x="1174.1477" y="-277.7" font-family="Courier,monospace" font-size="11.00" fill="#000000">reference(18)</text>
<polygon fill="none" stroke="#99ccff" points="387.5547,-255.5 387.5547,-272.5 1171.5547,-272.5 1171.5547,-255.5 387.5547,-255.5"/>
<text text-anchor="start" x="390.5547" y="-260.7" font-family="Courier,monospace" font-size="11.00" fill="#000000"> &#160;&#160;&#160;&#160;&#160;&#160;&#160;&#160;&#160;&#160;&#160;&#160;&#160;&#160;&#160;&#160;&#160;&#160;&#160;&#160;&#160;&#160;&#160;&#160;&#160;&#160;&#160;&#160;&#160;&#160;&#160;&#160;&#160;&#160;&#160;&#160;&#160;&#160;&#160;&#160;LastModifiedById &#160;&#160;&#160;&#160;&#160;&#160;&#160;&#160;&#160;&#160;&#160;&#160;&#160;&#160;&#160;&#160;&#160;&#160;&#160;&#160;&#160;&#160;&#160;&#160;&#160;&#160;&#160;&#160;&#160;&#160;&#160;&#160;&#160;&#160;&#160;&#160;&#160;&#160;</text>
<polygon fill="none" stroke="#99ccff" points="1171.5547,-255.5 1171.5547,-272.5 1262.5547,-272.5 1262.5547,-255.5 1171.5547,-255.5"/>
<text text-anchor="start" x="1174.1477" y="-260.7" font-family="Courier,monospace" font-size="11.00" fill="#000000">reference(18)</text>
<polygon fill="none" stroke="#99ccff" points="387.5547,-238.5 387.5547,-255.5 1171.5547,-255.5 1171.5547,-238.5 387.5547,-238.5"/>
<text text-anchor="start" x="390.5547" y="-243.7" font-family="Courier,monospace" font-size="11.00" fill="#000000"> &#160;&#160;&#160;&#160;&#160;&#160;&#160;&#160;&#160;&#160;&#160;&#160;&#160;&#160;&#160;&#160;&#160;&#160;&#160;&#160;&#160;&#160;&#160;&#160;&#160;&#160;&#160;&#160;&#160;&#160;&#160;&#160;&#160;&#160;&#160;&#160;&#160;&#160;&#160;&#160;LastActivityDate &#160;&#160;&#160;&#160;&#160;&#160;&#160;&#160;&#160;&#160;&#160;&#160;&#160;&#160;&#160;&#160;&#160;&#160;&#160;&#160;&#160;&#160;&#160;&#160;&#160;&#160;&#160;&#160;&#160;&#160;&#160;&#160;&#160;&#160;&#160;&#160;&#160;&#160;</text>
<polygon fill="none" stroke="#99ccff" points="1171.5547,-238.5 1171.5547,-255.5 1262.5547,-255.5 1262.5547,-238.5 1171.5547,-238.5"/>
<text text-anchor="start" x="1203.8525" y="-243.7" font-family="Courier,monospace" font-size="11.00" fill="#000000">date</text>
<polygon fill="none" stroke="#99ccff" points="387.5547,-221.5 387.5547,-238.5 1171.5547,-238.5 1171.5547,-221.5 387.5547,-221.5"/>
<text text-anchor="start" x="390.5547" y="-226.7" font-family="Courier,monospace" font-size="11.00" fill="#000000"> &#160;&#160;&#160;&#160;&#160;&#160;&#160;&#160;&#160;&#160;&#160;&#160;&#160;&#160;&#160;&#160;&#160;&#160;&#160;&#160;&#160;&#160;&#160;&#160;&#160;&#160;&#160;&#160;&#160;&#160;&#160;&#160;&#160;&#160;&#160;&#160;&#160;&#160;&#160;&#160;LastViewedDate &#160;&#160;&#160;&#160;&#160;&#160;&#160;&#160;&#160;&#160;&#160;&#160;&#160;&#160;&#160;&#160;&#160;&#160;&#160;&#160;&#160;&#160;&#160;&#160;&#160;&#160;&#160;&#160;&#160;&#160;&#160;&#160;&#160;&#160;&#160;&#160;&#160;&#160;</text>
<polygon fill="none" stroke="#99ccff" points="1171.5547,-221.5 1171.5547,-238.5 1262.5547,-238.5 1262.5547,-221.5 1171.5547,-221.5"/>
<text text-anchor="start" x="1190.6504" y="-226.7" font-family="Courier,monospace" font-size="11.00" fill="#000000">datetime</text>
<polygon fill="none" stroke="#99ccff" points="387.5547,-204.5 387.5547,-221.5 1171.5547,-221.5 1171.5547,-204.5 387.5547,-204.5"/>
<text text-anchor="start" x="390.5547" y="-209.7" font-family="Courier,monospace" font-size="11.00" fill="#000000"> &#160;&#160;&#160;&#160;&#160;&#160;&#160;&#160;&#160;&#160;&#160;&#160;&#160;&#160;&#160;&#160;&#160;&#160;&#160;&#160;&#160;&#160;&#160;&#160;&#160;&#160;&#160;&#160;&#160;&#160;&#160;&#160;&#160;&#160;&#160;&#160;&#160;&#160;&#160;&#160;LastReferencedDate &#160;&#160;&#160;&#160;&#160;&#160;&#160;&#160;&#160;&#160;&#160;&#160;&#160;&#160;&#160;&#160;&#160;&#160;&#160;&#160;&#160;&#160;&#160;&#160;&#160;&#160;&#160;&#160;&#160;&#160;&#160;&#160;&#160;&#160;&#160;&#160;&#160;&#160;</text>
<polygon fill="none" stroke="#99ccff" points="1171.5547,-204.5 1171.5547,-221.5 1262.5547,-221.5 1262.5547,-204.5 1171.5547,-204.5"/>
<text text-anchor="start" x="1190.6504" y="-209.7" font-family="Courier,monospace" font-size="11.00" fill="#000000">datetime</text>
<polygon fill="none" stroke="#99ccff" points="387.5547,-187.5 387.5547,-204.5 1171.5547,-204.5 1171.5547,-187.5 387.5547,-187.5"/>
<text text-anchor="start" x="390.5547" y="-192.7" font-family="Courier,monospace" font-size="11.00" fill="#000000"> &#160;&#160;&#160;&#160;&#160;&#160;&#160;&#160;&#160;&#160;&#160;&#160;&#160;&#160;&#160;&#160;&#160;&#160;&#160;&#160;&#160;&#160;&#160;&#160;&#160;&#160;&#160;&#160;&#160;&#160;&#160;&#160;&#160;&#160;&#160;&#160;&#160;&#160;&#160;&#160;FinServ__Amount__c &#160;&#160;&#160;&#160;&#160;&#160;&#160;&#160;&#160;&#160;&#160;&#160;&#160;&#160;&#160;&#160;&#160;&#160;&#160;&#160;&#160;&#160;&#160;&#160;&#160;&#160;&#160;&#160;&#160;&#160;&#160;&#160;&#160;&#160;&#160;&#160;&#160;&#160;</text>
<polygon fill="none" stroke="#99ccff" points="1171.5547,-187.5 1171.5547,-204.5 1262.5547,-204.5 1262.5547,-187.5 1171.5547,-187.5"/>
<text text-anchor="start" x="1190.6504" y="-192.7" font-family="Courier,monospace" font-size="11.00" fill="#000000">currency</text>
<polygon fill="none" stroke="#99ccff" points="387.5547,-170.5 387.5547,-187.5 1171.5547,-187.5 1171.5547,-170.5 387.5547,-170.5"/>
<text text-anchor="start" x="390.0913" y="-175.7" font-family="Courier,monospace" font-size="11.00" fill="#000000"> &#160;&#160;&#160;&#160;&#160;&#160;&#160;&#160;&#160;&#160;&#160;&#160;&#160;&#160;&#160;&#160;&#160;&#160;&#160;&#160;&#160;&#160;&#160;&#160;&#160;&#160;&#160;&#160;&#160;&#160;&#160;&#160;&#160;&#160;&#160;&#160;&#160;&#160;&#160;&#160;FinServ__AssetsAndLiabilitiesSource__c &#160;&#160;&#160;&#160;&#160;&#160;&#160;&#160;&#160;&#160;&#160;&#160;&#160;&#160;&#160;&#160;&#160;&#160;&#160;&#160;&#160;&#160;&#160;&#160;&#160;&#160;&#160;&#160;&#160;&#160;&#160;&#160;&#160;&#160;&#160;&#160;&#160;&#160;</text>
<polygon fill="none" stroke="#99ccff" points="1171.5547,-170.5 1171.5547,-187.5 1262.5547,-187.5 1262.5547,-170.5 1171.5547,-170.5"/>
<text text-anchor="start" x="1174.1477" y="-175.7" font-family="Courier,monospace" font-size="11.00" fill="#000000">picklist(255)</text>
<polygon fill="none" stroke="#99ccff" points="387.5547,-153.5 387.5547,-170.5 1171.5547,-170.5 1171.5547,-153.5 387.5547,-153.5"/>
<text text-anchor="start" x="390.5547" y="-158.7" font-family="Courier,monospace" font-size="11.00" fill="#000000"> &#160;&#160;&#160;&#160;&#160;&#160;&#160;&#160;&#160;&#160;&#160;&#160;&#160;&#160;&#160;&#160;&#160;&#160;&#160;&#160;&#160;&#160;&#160;&#160;&#160;&#160;&#160;&#160;&#160;&#160;&#160;&#160;&#160;&#160;&#160;&#160;&#160;&#160;&#160;&#160;FinServ__AssetsAndLiabilitiesType__c &#160;&#160;&#160;&#160;&#160;&#160;&#160;&#160;&#160;&#160;&#160;&#160;&#160;&#160;&#160;&#160;&#160;&#160;&#160;&#160;&#160;&#160;&#160;&#160;&#160;&#160;&#160;&#160;&#160;&#160;&#160;&#160;&#160;&#160;&#160;&#160;&#160;&#160;</text>
<polygon fill="none" stroke="#99ccff" points="1171.5547,-153.5 1171.5547,-170.5 1262.5547,-170.5 1262.5547,-153.5 1171.5547,-153.5"/>
<text text-anchor="start" x="1174.1477" y="-158.7" font-family="Courier,monospace" font-size="11.00" fill="#000000">picklist(255)</text>
<polygon fill="none" stroke="#99ccff" points="387.5547,-136.5 387.5547,-153.5 1171.5547,-153.5 1171.5547,-136.5 387.5547,-136.5"/>
<text text-anchor="start" x="390.5547" y="-141.7" font-family="Courier,monospace" font-size="11.00" fill="#000000"> &#160;&#160;&#160;&#160;&#160;&#160;&#160;&#160;&#160;&#160;&#160;&#160;&#160;&#160;&#160;&#160;&#160;&#160;&#160;&#160;&#160;&#160;&#160;&#160;&#160;&#160;&#160;&#160;&#160;&#160;&#160;&#160;&#160;&#160;&#160;&#160;&#160;&#160;&#160;&#160;FinServ__Description__c &#160;&#160;&#160;&#160;&#160;&#160;&#160;&#160;&#160;&#160;&#160;&#160;&#160;&#160;&#160;&#160;&#160;&#160;&#160;&#160;&#160;&#160;&#160;&#160;&#160;&#160;&#160;&#160;&#160;&#160;&#160;&#160;&#160;&#160;&#160;&#160;&#160;&#160;</text>
<polygon fill="none" stroke="#99ccff" points="1171.5547,-136.5 1171.5547,-153.5 1262.5547,-153.5 1262.5547,-136.5 1171.5547,-136.5"/>
<text text-anchor="start" x="1174.1477" y="-141.7" font-family="Courier,monospace" font-size="11.00" fill="#000000">textarea(255)</text>
<polygon fill="none" stroke="#99ccff" points="387.5547,-119.5 387.5547,-136.5 1171.5547,-136.5 1171.5547,-119.5 387.5547,-119.5"/>
<text text-anchor="start" x="390.5547" y="-124.7" font-family="Courier,monospace" font-size="11.00" fill="#000000"> &#160;&#160;&#160;&#160;&#160;&#160;&#160;&#160;&#160;&#160;&#160;&#160;&#160;&#160;&#160;&#160;&#160;&#160;&#160;&#160;&#160;&#160;&#160;&#160;&#160;&#160;&#160;&#160;&#160;&#160;&#160;&#160;&#160;&#160;&#160;&#160;&#160;&#160;&#160;&#160;FinServ__FinancialAccount__c &#160;&#160;&#160;&#160;&#160;&#160;&#160;&#160;&#160;&#160;&#160;&#160;&#160;&#160;&#160;&#160;&#160;&#160;&#160;&#160;&#160;&#160;&#160;&#160;&#160;&#160;&#160;&#160;&#160;&#160;&#160;&#160;&#160;&#160;&#160;&#160;&#160;&#160;</text>
<polygon fill="none" stroke="#99ccff" points="1171.5547,-119.5 1171.5547,-136.5 1262.5547,-136.5 1262.5547,-119.5 1171.5547,-119.5"/>
<text text-anchor="start" x="1174.1477" y="-124.7" font-family="Courier,monospace" font-size="11.00" fill="#000000">reference(18)</text>
<polygon fill="none" stroke="#99ccff" points="387.5547,-102.5 387.5547,-119.5 1171.5547,-119.5 1171.5547,-102.5 387.5547,-102.5"/>
<text text-anchor="start" x="390.5547" y="-107.7" font-family="Courier,monospace" font-size="11.00" fill="#000000"> &#160;&#160;&#160;&#160;&#160;&#160;&#160;&#160;&#160;&#160;&#160;&#160;&#160;&#160;&#160;&#160;&#160;&#160;&#160;&#160;&#160;&#160;&#160;&#160;&#160;&#160;&#160;&#160;&#160;&#160;&#160;&#160;&#160;&#160;&#160;&#160;&#160;&#160;&#160;&#160;FinServ__Household__c &#160;&#160;&#160;&#160;&#160;&#160;&#160;&#160;&#160;&#160;&#160;&#160;&#160;&#160;&#160;&#160;&#160;&#160;&#160;&#160;&#160;&#160;&#160;&#160;&#160;&#160;&#160;&#160;&#160;&#160;&#160;&#160;&#160;&#160;&#160;&#160;&#160;&#160;</text>
<polygon fill="none" stroke="#99ccff" points="1171.5547,-102.5 1171.5547,-119.5 1262.5547,-119.5 1262.5547,-102.5 1171.5547,-102.5"/>
<text text-anchor="start" x="1174.1477" y="-107.7" font-family="Courier,monospace" font-size="11.00" fill="#000000">reference(18)</text>
<polygon fill="none" stroke="#99ccff" points="387.5547,-85.5 387.5547,-102.5 1171.5547,-102.5 1171.5547,-85.5 387.5547,-85.5"/>
<text text-anchor="start" x="390.5547" y="-90.7" font-family="Courier,monospace" font-size="11.00" fill="#000000"> &#160;&#160;&#160;&#160;&#160;&#160;&#160;&#160;&#160;&#160;&#160;&#160;&#160;&#160;&#160;&#160;&#160;&#160;&#160;&#160;&#160;&#160;&#160;&#160;&#160;&#160;&#160;&#160;&#160;&#160;&#160;&#160;&#160;&#160;&#160;&#160;&#160;&#160;&#160;&#160;FinServ__JointOwner__c &#160;&#160;&#160;&#160;&#160;&#160;&#160;&#160;&#160;&#160;&#160;&#160;&#160;&#160;&#160;&#160;&#160;&#160;&#160;&#160;&#160;&#160;&#160;&#160;&#160;&#160;&#160;&#160;&#160;&#160;&#160;&#160;&#160;&#160;&#160;&#160;&#160;&#160;</text>
<polygon fill="none" stroke="#99ccff" points="1171.5547,-85.5 1171.5547,-102.5 1262.5547,-102.5 1262.5547,-85.5 1171.5547,-85.5"/>
<text text-anchor="start" x="1174.1477" y="-90.7" font-family="Courier,monospace" font-size="11.00" fill="#000000">reference(18)</text>
<polygon fill="none" stroke="#99ccff" points="387.5547,-68.5 387.5547,-85.5 1171.5547,-85.5 1171.5547,-68.5 387.5547,-68.5"/>
<text text-anchor="start" x="390.5547" y="-73.7" font-family="Courier,monospace" font-size="11.00" fill="#000000"> &#160;&#160;&#160;&#160;&#160;&#160;&#160;&#160;&#160;&#160;&#160;&#160;&#160;&#160;&#160;&#160;&#160;&#160;&#160;&#160;&#160;&#160;&#160;&#160;&#160;&#160;&#160;&#160;&#160;&#160;&#160;&#160;&#160;&#160;&#160;&#160;&#160;&#160;&#160;&#160;FinServ__OwnerType__c &#160;&#160;&#160;&#160;&#160;&#160;&#160;&#160;&#160;&#160;&#160;&#160;&#160;&#160;&#160;&#160;&#160;&#160;&#160;&#160;&#160;&#160;&#160;&#160;&#160;&#160;&#160;&#160;&#160;&#160;&#160;&#160;&#160;&#160;&#160;&#160;&#160;&#160;</text>
<polygon fill="none" stroke="#99ccff" points="1171.5547,-68.5 1171.5547,-85.5 1262.5547,-85.5 1262.5547,-68.5 1171.5547,-68.5"/>
<text text-anchor="start" x="1184.0493" y="-73.7" font-family="Courier,monospace" font-size="11.00" fill="#000000">string(18)</text>
<polygon fill="none" stroke="#99ccff" points="387.5547,-51.5 387.5547,-68.5 1171.5547,-68.5 1171.5547,-51.5 387.5547,-51.5"/>
<text text-anchor="start" x="390.5547" y="-56.7" font-family="Courier,monospace" font-size="11.00" fill="#000000"> &#160;&#160;&#160;&#160;&#160;&#160;&#160;&#160;&#160;&#160;&#160;&#160;&#160;&#160;&#160;&#160;&#160;&#160;&#160;&#160;&#160;&#160;&#160;&#160;&#160;&#160;&#160;&#160;&#160;&#160;&#160;&#160;&#160;&#160;&#160;&#160;&#160;&#160;&#160;&#160;FinServ__Ownership__c &#160;&#160;&#160;&#160;&#160;&#160;&#160;&#160;&#160;&#160;&#160;&#160;&#160;&#160;&#160;&#160;&#160;&#160;&#160;&#160;&#160;&#160;&#160;&#160;&#160;&#160;&#160;&#160;&#160;&#160;&#160;&#160;&#160;&#160;&#160;&#160;&#160;&#160;</text>
<polygon fill="none" stroke="#99ccff" points="1171.5547,-51.5 1171.5547,-68.5 1262.5547,-68.5 1262.5547,-51.5 1171.5547,-51.5"/>
<text text-anchor="start" x="1174.1477" y="-56.7" font-family="Courier,monospace" font-size="11.00" fill="#000000">picklist(255)</text>
<polygon fill="none" stroke="#99ccff" points="387.5547,-34.5 387.5547,-51.5 1171.5547,-51.5 1171.5547,-34.5 387.5547,-34.5"/>
<text text-anchor="start" x="390.5547" y="-39.7" font-family="Courier,monospace" font-size="11.00" fill="#000000"> &#160;&#160;&#160;&#160;&#160;&#160;&#160;&#160;&#160;&#160;&#160;&#160;&#160;&#160;&#160;&#160;&#160;&#160;&#160;&#160;&#160;&#160;&#160;&#160;&#160;&#160;&#160;&#160;&#160;&#160;&#160;&#160;&#160;&#160;&#160;&#160;&#160;&#160;&#160;&#160;FinServ__PrimaryOwner__c &#160;&#160;&#160;&#160;&#160;&#160;&#160;&#160;&#160;&#160;&#160;&#160;&#160;&#160;&#160;&#160;&#160;&#160;&#160;&#160;&#160;&#160;&#160;&#160;&#160;&#160;&#160;&#160;&#160;&#160;&#160;&#160;&#160;&#160;&#160;&#160;&#160;&#160;</text>
<polygon fill="none" stroke="#99ccff" points="1171.5547,-34.5 1171.5547,-51.5 1262.5547,-51.5 1262.5547,-34.5 1171.5547,-34.5"/>
<text text-anchor="start" x="1174.1477" y="-39.7" font-family="Courier,monospace" font-size="11.00" fill="#000000">reference(18)</text>
<polygon fill="none" stroke="#99ccff" points="387.5547,-17.5 387.5547,-34.5 1171.5547,-34.5 1171.5547,-17.5 387.5547,-17.5"/>
<text text-anchor="start" x="390.5547" y="-22.7" font-family="Courier,monospace" font-size="11.00" fill="#000000"> &#160;&#160;&#160;&#160;&#160;&#160;&#160;&#160;&#160;&#160;&#160;&#160;&#160;&#160;&#160;&#160;&#160;&#160;&#160;&#160;&#160;&#160;&#160;&#160;&#160;&#160;&#160;&#160;&#160;&#160;&#160;&#160;&#160;&#160;&#160;&#160;&#160;&#160;&#160;&#160;FinServ__SourceSystemId__c &#160;&#160;&#160;&#160;&#160;&#160;&#160;&#160;&#160;&#160;&#160;&#160;&#160;&#160;&#160;&#160;&#160;&#160;&#160;&#160;&#160;&#160;&#160;&#160;&#160;&#160;&#160;&#160;&#160;&#160;&#160;&#160;&#160;&#160;&#160;&#160;&#160;&#160;</text>
<polygon fill="none" stroke="#99ccff" points="1171.5547,-17.5 1171.5547,-34.5 1262.5547,-34.5 1262.5547,-17.5 1171.5547,-17.5"/>
<text text-anchor="start" x="1180.7488" y="-22.7" font-family="Courier,monospace" font-size="11.00" fill="#000000">string(100)</text>
<polygon fill="none" stroke="#99ccff" points="386.0547,-17 386.0547,-376 1263.0547,-376 1263.0547,-17 386.0547,-17"/>
</a>
</g>
</g>
<!-- Group -->
<g id="node2" class="node">
<title>Group</title>
<text text-anchor="middle" x="100.415" y="-377.2" font-family="Courier,monospace" font-size="11.00" fill="#000000">Group</text>
</g>
<!-- FinServ__AssetsAndLiabilities__c&#45;&gt;Group -->
<g id="edge1" class="edge">
<title>FinServ__AssetsAndLiabilities__c:w&#45;&gt;Group:e</title>
<path fill="none" stroke="#ff99cc" d="M375.7287,-341.2386C374.1468,-343.2774 372.188,-345.2235 369.0547,-346.5 285.8994,-380.3759 177.2875,-382.6289 127.494,-381.5891"/>
<polygon fill="#ff99cc" stroke="#ff99cc" points="381.1206,-337.2543 389.6941,-335.3953 384.3377,-334.8772 387.5547,-332.5 387.5547,-332.5 387.5547,-332.5 384.3377,-334.8772 385.4153,-329.6047 381.1206,-337.2543 381.1206,-337.2543"/>
<ellipse fill="none" stroke="#ff99cc" cx="378.547" cy="-339.156" rx="3.2" ry="3.2"/>
<text text-anchor="middle" x="293.4424" y="-383.3015" font-family="Monaco" font-size="9.00" fill="#000000">Owner</text>
</g>
<!-- User -->
<g id="node3" class="node">
<title>User</title>
<text text-anchor="middle" x="100.415" y="-328.2" font-family="Courier,monospace" font-size="11.00" fill="#000000">User</text>
</g>
<!-- FinServ__AssetsAndLiabilities__c&#45;&gt;User -->
<g id="edge2" class="edge">
<title>FinServ__AssetsAndLiabilities__c:w&#45;&gt;User:e</title>
<path fill="none" stroke="#ff99cc" d="M372.8836,-332.4958C280.742,-332.4439 176.1817,-331.9261 127.7328,-331.6585"/>
<polygon fill="#ff99cc" stroke="#ff99cc" points="379.5547,-332.4976 387.5536,-336.1 383.5547,-332.4988 387.5547,-332.5 387.5547,-332.5 387.5547,-332.5 383.5547,-332.4988 387.5557,-328.9 379.5547,-332.4976 379.5547,-332.4976"/>
<ellipse fill="none" stroke="#ff99cc" cx="376.3547" cy="-332.4967" rx="3.2" ry="3.2"/>
<text text-anchor="middle" x="293.4424" y="-336.3015" font-family="Monaco" font-size="9.00" fill="#000000">Owner</text>
</g>
<!-- FinServ__AssetsAndLiabilities__c&#45;&gt;User -->
<g id="edge4" class="edge">
<title>FinServ__AssetsAndLiabilities__c:w&#45;&gt;User:e</title>
<path fill="none" stroke="#ff99cc" d="M373.0815,-264.0032C307.7573,-259.5156 276.165,-227.0364 217.8301,-266.4985 201.4905,-277.5519 215.8394,-294.6985 200.8301,-307.5 180.5101,-324.831 149.8272,-330.1179 127.7281,-331.5097"/>
<polygon fill="#ff99cc" stroke="#ff99cc" points="379.5594,-264.2255 387.4312,-268.0979 383.557,-264.3628 387.5547,-264.5 387.5547,-264.5 387.5547,-264.5 383.557,-264.3628 387.6782,-260.9021 379.5594,-264.2255 379.5594,-264.2255"/>
<ellipse fill="none" stroke="#ff99cc" cx="376.3613" cy="-264.1157" rx="3.2" ry="3.2"/>
<text text-anchor="middle" x="293.4424" y="-270.3015" font-family="Monaco" font-size="9.00" fill="#000000">LastModifiedBy</text>
</g>
<!-- RecordType -->
<g id="node4" class="node">
<title>RecordType</title>
<text text-anchor="middle" x="100.415" y="-279.2" font-family="Courier,monospace" font-size="11.00" fill="#000000">RecordType</text>
</g>
<!-- FinServ__AssetsAndLiabilities__c&#45;&gt;RecordType -->
<g id="edge3" class="edge">
<title>FinServ__AssetsAndLiabilities__c:w&#45;&gt;RecordType:e</title>
<path fill="none" stroke="#ff99cc" d="M373.0767,-281.5041C288.9969,-281.5509 194.5328,-281.9861 141.7838,-282.2655"/>
<polygon fill="#ff99cc" stroke="#ff99cc" points="379.5547,-281.5023 387.5557,-285.1 383.5547,-281.5012 387.5547,-281.5 387.5547,-281.5 387.5547,-281.5 383.5547,-281.5012 387.5536,-277.9 379.5547,-281.5023 379.5547,-281.5023"/>
<ellipse fill="none" stroke="#ff99cc" cx="376.3547" cy="-281.5033" rx="3.2" ry="3.2"/>
<text text-anchor="middle" x="293.4424" y="-286.3015" font-family="Monaco" font-size="9.00" fill="#000000">RecordType</text>
</g>
<!-- FinServ__FinancialAccount__c -->
<g id="node5" class="node">
<title>FinServ__FinancialAccount__c</title>
<text text-anchor="middle" x="100.415" y="-135.2" font-family="Courier,monospace" font-size="11.00" fill="#000000">FinServ__FinancialAccount__c</text>
</g>
<!-- FinServ__AssetsAndLiabilities__c&#45;&gt;FinServ__FinancialAccount__c -->
<g id="edge5" class="edge">
<title>FinServ__AssetsAndLiabilities__c:w&#45;&gt;FinServ__FinancialAccount__c:e</title>
<path fill="none" stroke="#ff99cc" d="M372.9006,-127.5462C314.8051,-127.9053 251.8109,-130.2996 201.0398,-132.7584"/>
<polygon fill="#ff99cc" stroke="#ff99cc" points="379.5547,-127.5253 387.5661,-131.1 383.5547,-127.5127 387.5547,-127.5 387.5547,-127.5 387.5547,-127.5 383.5547,-127.5127 387.5433,-123.9 379.5547,-127.5253 379.5547,-127.5253"/>
<ellipse fill="none" stroke="#ff99cc" cx="376.3547" cy="-127.5354" rx="3.2" ry="3.2"/>
<text text-anchor="middle" x="293.4424" y="-136.3015" font-family="Monaco" font-size="9.00" fill="#000000">FinServ__FinancialAccount__r</text>
</g>
<!-- Account -->
<g id="node6" class="node">
<title>Account</title>
<text text-anchor="middle" x="100.415" y="-75.2" font-family="Courier,monospace" font-size="11.00" fill="#000000">Account</text>
</g>
<!-- FinServ__AssetsAndLiabilities__c&#45;&gt;Account -->
<g id="edge6" class="edge">
<title>FinServ__AssetsAndLiabilities__c:w&#45;&gt;Account:e</title>
<path fill="none" stroke="#ff99cc" d="M372.9101,-110.3669C282.8108,-108.7627 181.6422,-93.0392 131.7296,-84.295"/>
<polygon fill="#ff99cc" stroke="#ff99cc" points="379.555,-110.4273 387.522,-114.0999 383.5549,-110.4636 387.5547,-110.5 387.5547,-110.5 387.5547,-110.5 383.5549,-110.4636 387.5874,-106.9001 379.555,-110.4273 379.555,-110.4273"/>
<ellipse fill="none" stroke="#ff99cc" cx="376.3551" cy="-110.3982" rx="3.2" ry="3.2"/>
<text text-anchor="middle" x="293.4424" y="-114.3015" font-family="Monaco" font-size="9.00" fill="#000000">FinServ__Household__r</text>
</g>
<!-- FinServ__AssetsAndLiabilities__c&#45;&gt;Account -->
<g id="edge7" class="edge">
<title>FinServ__AssetsAndLiabilities__c:w&#45;&gt;Account:e</title>
<path fill="none" stroke="#ff99cc" d="M375.0023,-85.7548C373.4829,-84.4216 371.6436,-83.2309 369.0547,-82.4985 286.0218,-59.0092 182.7052,-67.3811 131.7836,-73.8317"/>
<polygon fill="#ff99cc" stroke="#ff99cc" points="380.7464,-89.2991 385.6643,-96.5637 384.1506,-91.3995 387.5547,-93.5 387.5547,-93.5 387.5547,-93.5 384.1506,-91.3995 389.4451,-90.4363 380.7464,-89.2991 380.7464,-89.2991"/>
<ellipse fill="none" stroke="#ff99cc" cx="378.0231" cy="-87.6187" rx="3.2" ry="3.2"/>
<text text-anchor="middle" x="293.4424" y="-87.3015" font-family="Monaco" font-size="9.00" fill="#000000">FinServ__JointOwner__r</text>
</g>
<!-- FinServ__AssetsAndLiabilities__c&#45;&gt;Account -->
<g id="edge8" class="edge">
<title>FinServ__AssetsAndLiabilities__c:w&#45;&gt;Account:e</title>
<path fill="none" stroke="#ff99cc" d="M372.811,-42.4976C309.09,-42.4926 287.5555,-42.7874 217.8301,-52.4985 188.2594,-56.6171 155.0881,-64.2476 131.5655,-70.1814"/>
<polygon fill="#ff99cc" stroke="#ff99cc" points="379.5547,-42.4987 387.5541,-46.1 383.5547,-42.4993 387.5547,-42.5 387.5547,-42.5 387.5547,-42.5 383.5547,-42.4993 387.5553,-38.9 379.5547,-42.4987 379.5547,-42.4987"/>
<ellipse fill="none" stroke="#ff99cc" cx="376.3547" cy="-42.4981" rx="3.2" ry="3.2"/>
<text text-anchor="middle" x="293.4424" y="-57.3015" font-family="Monaco" font-size="9.00" fill="#000000">FinServ__PrimaryOwner__r</text>
</g>
</g>
</svg>
