<?xml version="1.0" encoding="UTF-8" standalone="no"?>
<!DOCTYPE svg PUBLIC "-//W3C//DTD SVG 1.1//EN"
 "http://www.w3.org/Graphics/SVG/1.1/DTD/svg11.dtd">
<!-- Generated by graphviz version 2.40.1 (20161225.0304)
 -->
<!-- Title: Salesforce+ ERD Pages: 1 -->
<svg width="1045pt" height="350pt"
 viewBox="0.00 0.00 1044.82 350.00" xmlns="http://www.w3.org/2000/svg" xmlns:xlink="http://www.w3.org/1999/xlink">
<g id="graph0" class="graph" transform="scale(1 1) rotate(0) translate(4 346)">
<title>Salesforce+ ERD</title>
<polygon fill="#efeffd" stroke="transparent" points="-4,4 -4,-346 1040.8242,-346 1040.8242,4 -4,4"/>
<text text-anchor="middle" x="988.3176" y="-5.8" font-family="Courier,monospace" font-size="9.00" fill="#000000">Salesforce ERD </text>
<!-- FinServ__Employment__c -->
<g id="node1" class="node">
<title>FinServ__Employment__c</title>
<g id="a_node1"><a xlink:href="#" xlink:title=" FinServ__Employment__c ">
<polygon fill="#ffeeff" stroke="transparent" points="198.8242,-17 198.8242,-342 1036.8242,-342 1036.8242,-17 198.8242,-17"/>
<polygon fill="#add8e6" stroke="transparent" points="199.8242,-323.5 199.8242,-340.5 1035.8242,-340.5 1035.8242,-323.5 199.8242,-323.5"/>
<polygon fill="none" stroke="#99ccff" points="199.8242,-323.5 199.8242,-340.5 1035.8242,-340.5 1035.8242,-323.5 199.8242,-323.5"/>
<text text-anchor="start" x="545.2124" y="-329.7" font-family="Courier,monospace" font-weight="bold" font-size="11.00" fill="#000000">FinServ__Employment__c</text>
<polygon fill="#99ccff" stroke="transparent" points="199.8242,-306.5 199.8242,-323.5 937.8242,-323.5 937.8242,-306.5 199.8242,-306.5"/>
<polygon fill="none" stroke="#99ccff" points="199.8242,-306.5 199.8242,-323.5 937.8242,-323.5 937.8242,-306.5 199.8242,-306.5"/>
<text text-anchor="start" x="202.8242" y="-312.7" font-family="Courier,monospace" font-size="11.00" fill="#000000"> &#160;&#160;&#160;&#160;&#160;&#160;&#160;&#160;&#160;&#160;&#160;&#160;&#160;&#160;&#160;&#160;&#160;&#160;&#160;&#160;&#160;&#160;&#160;&#160;&#160;&#160;&#160;&#160;&#160;&#160;&#160;&#160;&#160;&#160;&#160;&#160;&#160;&#160;&#160;&#160;&#160;&#160;</text>
<text text-anchor="start" x="486.6704" y="-312.7" font-family="Courier,monospace" font-weight="bold" font-size="11.00" fill="#000000">Id</text>
<text text-anchor="start" x="499.8726" y="-312.7" font-family="Courier,monospace" font-size="11.00" fill="#000000"> &#160;&#160;&#160;&#160;&#160;&#160;&#160;&#160;&#160;&#160;&#160;&#160;&#160;&#160;&#160;&#160;&#160;&#160;&#160;&#160;&#160;&#160;&#160;&#160;&#160;&#160;&#160;&#160;&#160;&#160;&#160;&#160;&#160;&#160;&#160;&#160;&#160;&#160;&#160;</text>
<polygon fill="none" stroke="#99ccff" points="937.8242,-306.5 937.8242,-323.5 1035.8242,-323.5 1035.8242,-306.5 937.8242,-306.5"/>
<text text-anchor="start" x="967.021" y="-311.7" font-family="Courier,monospace" font-size="11.00" fill="#000000">id(18)</text>
<polygon fill="none" stroke="#99ccff" points="199.8242,-289.5 199.8242,-306.5 937.8242,-306.5 937.8242,-289.5 199.8242,-289.5"/>
<text text-anchor="start" x="202.8242" y="-294.7" font-family="Courier,monospace" font-size="11.00" fill="#000000"> &#160;&#160;&#160;&#160;&#160;&#160;&#160;&#160;&#160;&#160;&#160;&#160;&#160;&#160;&#160;&#160;&#160;&#160;&#160;&#160;&#160;&#160;&#160;&#160;&#160;&#160;&#160;&#160;&#160;&#160;&#160;&#160;&#160;&#160;&#160;&#160;&#160;&#160;&#160;&#160;OwnerId &#160;&#160;&#160;&#160;&#160;&#160;&#160;&#160;&#160;&#160;&#160;&#160;&#160;&#160;&#160;&#160;&#160;&#160;&#160;&#160;&#160;&#160;&#160;&#160;&#160;&#160;&#160;&#160;&#160;&#160;&#160;&#160;&#160;&#160;&#160;&#160;&#160;&#160;</text>
<polygon fill="none" stroke="#99ccff" points="937.8242,-289.5 937.8242,-306.5 1035.8242,-306.5 1035.8242,-289.5 937.8242,-289.5"/>
<text text-anchor="start" x="943.9172" y="-294.7" font-family="Courier,monospace" font-size="11.00" fill="#000000">reference(18)</text>
<polygon fill="none" stroke="#99ccff" points="199.8242,-272.5 199.8242,-289.5 937.8242,-289.5 937.8242,-272.5 199.8242,-272.5"/>
<text text-anchor="start" x="202.8242" y="-277.7" font-family="Courier,monospace" font-size="11.00" fill="#000000"> &#160;&#160;&#160;&#160;&#160;&#160;&#160;&#160;&#160;&#160;&#160;&#160;&#160;&#160;&#160;&#160;&#160;&#160;&#160;&#160;&#160;&#160;&#160;&#160;&#160;&#160;&#160;&#160;&#160;&#160;&#160;&#160;&#160;&#160;&#160;&#160;&#160;&#160;&#160;&#160;IsDeleted &#160;&#160;&#160;&#160;&#160;&#160;&#160;&#160;&#160;&#160;&#160;&#160;&#160;&#160;&#160;&#160;&#160;&#160;&#160;&#160;&#160;&#160;&#160;&#160;&#160;&#160;&#160;&#160;&#160;&#160;&#160;&#160;&#160;&#160;&#160;&#160;&#160;&#160;</text>
<polygon fill="none" stroke="#99ccff" points="937.8242,-272.5 937.8242,-289.5 1035.8242,-289.5 1035.8242,-272.5 937.8242,-272.5"/>
<text text-anchor="start" x="963.7205" y="-277.7" font-family="Courier,monospace" font-size="11.00" fill="#000000">boolean</text>
<polygon fill="none" stroke="#99ccff" points="199.8242,-255.5 199.8242,-272.5 937.8242,-272.5 937.8242,-255.5 199.8242,-255.5"/>
<text text-anchor="start" x="202.8242" y="-260.7" font-family="Courier,monospace" font-size="11.00" fill="#000000"> &#160;&#160;&#160;&#160;&#160;&#160;&#160;&#160;&#160;&#160;&#160;&#160;&#160;&#160;&#160;&#160;&#160;&#160;&#160;&#160;&#160;&#160;&#160;&#160;&#160;&#160;&#160;&#160;&#160;&#160;&#160;&#160;&#160;&#160;&#160;&#160;&#160;&#160;&#160;&#160;Name &#160;&#160;&#160;&#160;&#160;&#160;&#160;&#160;&#160;&#160;&#160;&#160;&#160;&#160;&#160;&#160;&#160;&#160;&#160;&#160;&#160;&#160;&#160;&#160;&#160;&#160;&#160;&#160;&#160;&#160;&#160;&#160;&#160;&#160;&#160;&#160;&#160;&#160;</text>
<polygon fill="none" stroke="#99ccff" points="937.8242,-255.5 937.8242,-272.5 1035.8242,-272.5 1035.8242,-255.5 937.8242,-255.5"/>
<text text-anchor="start" x="953.8188" y="-260.7" font-family="Courier,monospace" font-size="11.00" fill="#000000">string(80)</text>
<polygon fill="none" stroke="#99ccff" points="199.8242,-238.5 199.8242,-255.5 937.8242,-255.5 937.8242,-238.5 199.8242,-238.5"/>
<text text-anchor="start" x="202.8242" y="-243.7" font-family="Courier,monospace" font-size="11.00" fill="#000000"> &#160;&#160;&#160;&#160;&#160;&#160;&#160;&#160;&#160;&#160;&#160;&#160;&#160;&#160;&#160;&#160;&#160;&#160;&#160;&#160;&#160;&#160;&#160;&#160;&#160;&#160;&#160;&#160;&#160;&#160;&#160;&#160;&#160;&#160;&#160;&#160;&#160;&#160;&#160;&#160;LastModifiedById &#160;&#160;&#160;&#160;&#160;&#160;&#160;&#160;&#160;&#160;&#160;&#160;&#160;&#160;&#160;&#160;&#160;&#160;&#160;&#160;&#160;&#160;&#160;&#160;&#160;&#160;&#160;&#160;&#160;&#160;&#160;&#160;&#160;&#160;&#160;&#160;&#160;&#160;</text>
<polygon fill="none" stroke="#99ccff" points="937.8242,-238.5 937.8242,-255.5 1035.8242,-255.5 1035.8242,-238.5 937.8242,-238.5"/>
<text text-anchor="start" x="943.9172" y="-243.7" font-family="Courier,monospace" font-size="11.00" fill="#000000">reference(18)</text>
<polygon fill="none" stroke="#99ccff" points="199.8242,-221.5 199.8242,-238.5 937.8242,-238.5 937.8242,-221.5 199.8242,-221.5"/>
<text text-anchor="start" x="202.8242" y="-226.7" font-family="Courier,monospace" font-size="11.00" fill="#000000"> &#160;&#160;&#160;&#160;&#160;&#160;&#160;&#160;&#160;&#160;&#160;&#160;&#160;&#160;&#160;&#160;&#160;&#160;&#160;&#160;&#160;&#160;&#160;&#160;&#160;&#160;&#160;&#160;&#160;&#160;&#160;&#160;&#160;&#160;&#160;&#160;&#160;&#160;&#160;&#160;LastViewedDate &#160;&#160;&#160;&#160;&#160;&#160;&#160;&#160;&#160;&#160;&#160;&#160;&#160;&#160;&#160;&#160;&#160;&#160;&#160;&#160;&#160;&#160;&#160;&#160;&#160;&#160;&#160;&#160;&#160;&#160;&#160;&#160;&#160;&#160;&#160;&#160;&#160;&#160;</text>
<polygon fill="none" stroke="#99ccff" points="937.8242,-221.5 937.8242,-238.5 1035.8242,-238.5 1035.8242,-221.5 937.8242,-221.5"/>
<text text-anchor="start" x="960.4199" y="-226.7" font-family="Courier,monospace" font-size="11.00" fill="#000000">datetime</text>
<polygon fill="none" stroke="#99ccff" points="199.8242,-204.5 199.8242,-221.5 937.8242,-221.5 937.8242,-204.5 199.8242,-204.5"/>
<text text-anchor="start" x="202.8242" y="-209.7" font-family="Courier,monospace" font-size="11.00" fill="#000000"> &#160;&#160;&#160;&#160;&#160;&#160;&#160;&#160;&#160;&#160;&#160;&#160;&#160;&#160;&#160;&#160;&#160;&#160;&#160;&#160;&#160;&#160;&#160;&#160;&#160;&#160;&#160;&#160;&#160;&#160;&#160;&#160;&#160;&#160;&#160;&#160;&#160;&#160;&#160;&#160;LastReferencedDate &#160;&#160;&#160;&#160;&#160;&#160;&#160;&#160;&#160;&#160;&#160;&#160;&#160;&#160;&#160;&#160;&#160;&#160;&#160;&#160;&#160;&#160;&#160;&#160;&#160;&#160;&#160;&#160;&#160;&#160;&#160;&#160;&#160;&#160;&#160;&#160;&#160;&#160;</text>
<polygon fill="none" stroke="#99ccff" points="937.8242,-204.5 937.8242,-221.5 1035.8242,-221.5 1035.8242,-204.5 937.8242,-204.5"/>
<text text-anchor="start" x="960.4199" y="-209.7" font-family="Courier,monospace" font-size="11.00" fill="#000000">datetime</text>
<polygon fill="none" stroke="#99ccff" points="199.8242,-187.5 199.8242,-204.5 937.8242,-204.5 937.8242,-187.5 199.8242,-187.5"/>
<text text-anchor="start" x="202.8242" y="-192.7" font-family="Courier,monospace" font-size="11.00" fill="#000000"> &#160;&#160;&#160;&#160;&#160;&#160;&#160;&#160;&#160;&#160;&#160;&#160;&#160;&#160;&#160;&#160;&#160;&#160;&#160;&#160;&#160;&#160;&#160;&#160;&#160;&#160;&#160;&#160;&#160;&#160;&#160;&#160;&#160;&#160;&#160;&#160;&#160;&#160;&#160;&#160;FinServ__AnnualIncome__c &#160;&#160;&#160;&#160;&#160;&#160;&#160;&#160;&#160;&#160;&#160;&#160;&#160;&#160;&#160;&#160;&#160;&#160;&#160;&#160;&#160;&#160;&#160;&#160;&#160;&#160;&#160;&#160;&#160;&#160;&#160;&#160;&#160;&#160;&#160;&#160;&#160;&#160;</text>
<polygon fill="none" stroke="#99ccff" points="937.8242,-187.5 937.8242,-204.5 1035.8242,-204.5 1035.8242,-187.5 937.8242,-187.5"/>
<text text-anchor="start" x="960.4199" y="-192.7" font-family="Courier,monospace" font-size="11.00" fill="#000000">currency</text>
<polygon fill="none" stroke="#99ccff" points="199.8242,-170.5 199.8242,-187.5 937.8242,-187.5 937.8242,-170.5 199.8242,-170.5"/>
<text text-anchor="start" x="202.8242" y="-175.7" font-family="Courier,monospace" font-size="11.00" fill="#000000"> &#160;&#160;&#160;&#160;&#160;&#160;&#160;&#160;&#160;&#160;&#160;&#160;&#160;&#160;&#160;&#160;&#160;&#160;&#160;&#160;&#160;&#160;&#160;&#160;&#160;&#160;&#160;&#160;&#160;&#160;&#160;&#160;&#160;&#160;&#160;&#160;&#160;&#160;&#160;&#160;FinServ__Contact__c &#160;&#160;&#160;&#160;&#160;&#160;&#160;&#160;&#160;&#160;&#160;&#160;&#160;&#160;&#160;&#160;&#160;&#160;&#160;&#160;&#160;&#160;&#160;&#160;&#160;&#160;&#160;&#160;&#160;&#160;&#160;&#160;&#160;&#160;&#160;&#160;&#160;&#160;</text>
<polygon fill="none" stroke="#99ccff" points="937.8242,-170.5 937.8242,-187.5 1035.8242,-187.5 1035.8242,-170.5 937.8242,-170.5"/>
<text text-anchor="start" x="943.9172" y="-175.7" font-family="Courier,monospace" font-size="11.00" fill="#000000">reference(18)</text>
<polygon fill="none" stroke="#99ccff" points="199.8242,-153.5 199.8242,-170.5 937.8242,-170.5 937.8242,-153.5 199.8242,-153.5"/>
<text text-anchor="start" x="202.8242" y="-158.7" font-family="Courier,monospace" font-size="11.00" fill="#000000"> &#160;&#160;&#160;&#160;&#160;&#160;&#160;&#160;&#160;&#160;&#160;&#160;&#160;&#160;&#160;&#160;&#160;&#160;&#160;&#160;&#160;&#160;&#160;&#160;&#160;&#160;&#160;&#160;&#160;&#160;&#160;&#160;&#160;&#160;&#160;&#160;&#160;&#160;&#160;&#160;FinServ__EmployerAddress__c &#160;&#160;&#160;&#160;&#160;&#160;&#160;&#160;&#160;&#160;&#160;&#160;&#160;&#160;&#160;&#160;&#160;&#160;&#160;&#160;&#160;&#160;&#160;&#160;&#160;&#160;&#160;&#160;&#160;&#160;&#160;&#160;&#160;&#160;&#160;&#160;&#160;&#160;</text>
<polygon fill="none" stroke="#99ccff" points="937.8242,-153.5 937.8242,-170.5 1035.8242,-170.5 1035.8242,-153.5 937.8242,-153.5"/>
<text text-anchor="start" x="940.6167" y="-158.7" font-family="Courier,monospace" font-size="11.00" fill="#000000">textarea(1000)</text>
<polygon fill="none" stroke="#99ccff" points="199.8242,-136.5 199.8242,-153.5 937.8242,-153.5 937.8242,-136.5 199.8242,-136.5"/>
<text text-anchor="start" x="202.4646" y="-141.7" font-family="Courier,monospace" font-size="11.00" fill="#000000"> &#160;&#160;&#160;&#160;&#160;&#160;&#160;&#160;&#160;&#160;&#160;&#160;&#160;&#160;&#160;&#160;&#160;&#160;&#160;&#160;&#160;&#160;&#160;&#160;&#160;&#160;&#160;&#160;&#160;&#160;&#160;&#160;&#160;&#160;&#160;&#160;&#160;&#160;&#160;&#160;FinServ__EmployerPhoneNumber__c &#160;&#160;&#160;&#160;&#160;&#160;&#160;&#160;&#160;&#160;&#160;&#160;&#160;&#160;&#160;&#160;&#160;&#160;&#160;&#160;&#160;&#160;&#160;&#160;&#160;&#160;&#160;&#160;&#160;&#160;&#160;&#160;&#160;&#160;&#160;&#160;&#160;&#160;</text>
<polygon fill="none" stroke="#99ccff" points="937.8242,-136.5 937.8242,-153.5 1035.8242,-153.5 1035.8242,-136.5 937.8242,-136.5"/>
<text text-anchor="start" x="957.1194" y="-141.7" font-family="Courier,monospace" font-size="11.00" fill="#000000">phone(40)</text>
<polygon fill="none" stroke="#99ccff" points="199.8242,-119.5 199.8242,-136.5 937.8242,-136.5 937.8242,-119.5 199.8242,-119.5"/>
<text text-anchor="start" x="202.8242" y="-124.7" font-family="Courier,monospace" font-size="11.00" fill="#000000"> &#160;&#160;&#160;&#160;&#160;&#160;&#160;&#160;&#160;&#160;&#160;&#160;&#160;&#160;&#160;&#160;&#160;&#160;&#160;&#160;&#160;&#160;&#160;&#160;&#160;&#160;&#160;&#160;&#160;&#160;&#160;&#160;&#160;&#160;&#160;&#160;&#160;&#160;&#160;&#160;FinServ__EmploymentStatus__c &#160;&#160;&#160;&#160;&#160;&#160;&#160;&#160;&#160;&#160;&#160;&#160;&#160;&#160;&#160;&#160;&#160;&#160;&#160;&#160;&#160;&#160;&#160;&#160;&#160;&#160;&#160;&#160;&#160;&#160;&#160;&#160;&#160;&#160;&#160;&#160;&#160;&#160;</text>
<polygon fill="none" stroke="#99ccff" points="937.8242,-119.5 937.8242,-136.5 1035.8242,-136.5 1035.8242,-119.5 937.8242,-119.5"/>
<text text-anchor="start" x="943.9172" y="-124.7" font-family="Courier,monospace" font-size="11.00" fill="#000000">picklist(255)</text>
<polygon fill="none" stroke="#99ccff" points="199.8242,-102.5 199.8242,-119.5 937.8242,-119.5 937.8242,-102.5 199.8242,-102.5"/>
<text text-anchor="start" x="202.8242" y="-107.7" font-family="Courier,monospace" font-size="11.00" fill="#000000"> &#160;&#160;&#160;&#160;&#160;&#160;&#160;&#160;&#160;&#160;&#160;&#160;&#160;&#160;&#160;&#160;&#160;&#160;&#160;&#160;&#160;&#160;&#160;&#160;&#160;&#160;&#160;&#160;&#160;&#160;&#160;&#160;&#160;&#160;&#160;&#160;&#160;&#160;&#160;&#160;FinServ__EndDate__c &#160;&#160;&#160;&#160;&#160;&#160;&#160;&#160;&#160;&#160;&#160;&#160;&#160;&#160;&#160;&#160;&#160;&#160;&#160;&#160;&#160;&#160;&#160;&#160;&#160;&#160;&#160;&#160;&#160;&#160;&#160;&#160;&#160;&#160;&#160;&#160;&#160;&#160;</text>
<polygon fill="none" stroke="#99ccff" points="937.8242,-102.5 937.8242,-119.5 1035.8242,-119.5 1035.8242,-102.5 937.8242,-102.5"/>
<text text-anchor="start" x="973.6221" y="-107.7" font-family="Courier,monospace" font-size="11.00" fill="#000000">date</text>
<polygon fill="none" stroke="#99ccff" points="199.8242,-85.5 199.8242,-102.5 937.8242,-102.5 937.8242,-85.5 199.8242,-85.5"/>
<text text-anchor="start" x="202.8242" y="-90.7" font-family="Courier,monospace" font-size="11.00" fill="#000000"> &#160;&#160;&#160;&#160;&#160;&#160;&#160;&#160;&#160;&#160;&#160;&#160;&#160;&#160;&#160;&#160;&#160;&#160;&#160;&#160;&#160;&#160;&#160;&#160;&#160;&#160;&#160;&#160;&#160;&#160;&#160;&#160;&#160;&#160;&#160;&#160;&#160;&#160;&#160;&#160;FinServ__LengthOfEmployment__c &#160;&#160;&#160;&#160;&#160;&#160;&#160;&#160;&#160;&#160;&#160;&#160;&#160;&#160;&#160;&#160;&#160;&#160;&#160;&#160;&#160;&#160;&#160;&#160;&#160;&#160;&#160;&#160;&#160;&#160;&#160;&#160;&#160;&#160;&#160;&#160;&#160;&#160;</text>
<polygon fill="none" stroke="#99ccff" points="937.8242,-85.5 937.8242,-102.5 1035.8242,-102.5 1035.8242,-85.5 937.8242,-85.5"/>
<text text-anchor="start" x="967.021" y="-90.7" font-family="Courier,monospace" font-size="11.00" fill="#000000">double</text>
<polygon fill="none" stroke="#99ccff" points="199.8242,-68.5 199.8242,-85.5 937.8242,-85.5 937.8242,-68.5 199.8242,-68.5"/>
<text text-anchor="start" x="202.8242" y="-73.7" font-family="Courier,monospace" font-size="11.00" fill="#000000"> &#160;&#160;&#160;&#160;&#160;&#160;&#160;&#160;&#160;&#160;&#160;&#160;&#160;&#160;&#160;&#160;&#160;&#160;&#160;&#160;&#160;&#160;&#160;&#160;&#160;&#160;&#160;&#160;&#160;&#160;&#160;&#160;&#160;&#160;&#160;&#160;&#160;&#160;&#160;&#160;FinServ__Occupation__c &#160;&#160;&#160;&#160;&#160;&#160;&#160;&#160;&#160;&#160;&#160;&#160;&#160;&#160;&#160;&#160;&#160;&#160;&#160;&#160;&#160;&#160;&#160;&#160;&#160;&#160;&#160;&#160;&#160;&#160;&#160;&#160;&#160;&#160;&#160;&#160;&#160;&#160;</text>
<polygon fill="none" stroke="#99ccff" points="937.8242,-68.5 937.8242,-85.5 1035.8242,-85.5 1035.8242,-68.5 937.8242,-68.5"/>
<text text-anchor="start" x="943.9172" y="-73.7" font-family="Courier,monospace" font-size="11.00" fill="#000000">picklist(255)</text>
<polygon fill="none" stroke="#99ccff" points="199.8242,-51.5 199.8242,-68.5 937.8242,-68.5 937.8242,-51.5 199.8242,-51.5"/>
<text text-anchor="start" x="202.8242" y="-56.7" font-family="Courier,monospace" font-size="11.00" fill="#000000"> &#160;&#160;&#160;&#160;&#160;&#160;&#160;&#160;&#160;&#160;&#160;&#160;&#160;&#160;&#160;&#160;&#160;&#160;&#160;&#160;&#160;&#160;&#160;&#160;&#160;&#160;&#160;&#160;&#160;&#160;&#160;&#160;&#160;&#160;&#160;&#160;&#160;&#160;&#160;&#160;FinServ__Position__c &#160;&#160;&#160;&#160;&#160;&#160;&#160;&#160;&#160;&#160;&#160;&#160;&#160;&#160;&#160;&#160;&#160;&#160;&#160;&#160;&#160;&#160;&#160;&#160;&#160;&#160;&#160;&#160;&#160;&#160;&#160;&#160;&#160;&#160;&#160;&#160;&#160;&#160;</text>
<polygon fill="none" stroke="#99ccff" points="937.8242,-51.5 937.8242,-68.5 1035.8242,-68.5 1035.8242,-51.5 937.8242,-51.5"/>
<text text-anchor="start" x="950.5183" y="-56.7" font-family="Courier,monospace" font-size="11.00" fill="#000000">string(150)</text>
<polygon fill="none" stroke="#99ccff" points="199.8242,-34.5 199.8242,-51.5 937.8242,-51.5 937.8242,-34.5 199.8242,-34.5"/>
<text text-anchor="start" x="202.8242" y="-39.7" font-family="Courier,monospace" font-size="11.00" fill="#000000"> &#160;&#160;&#160;&#160;&#160;&#160;&#160;&#160;&#160;&#160;&#160;&#160;&#160;&#160;&#160;&#160;&#160;&#160;&#160;&#160;&#160;&#160;&#160;&#160;&#160;&#160;&#160;&#160;&#160;&#160;&#160;&#160;&#160;&#160;&#160;&#160;&#160;&#160;&#160;&#160;FinServ__SourceSystemId__c &#160;&#160;&#160;&#160;&#160;&#160;&#160;&#160;&#160;&#160;&#160;&#160;&#160;&#160;&#160;&#160;&#160;&#160;&#160;&#160;&#160;&#160;&#160;&#160;&#160;&#160;&#160;&#160;&#160;&#160;&#160;&#160;&#160;&#160;&#160;&#160;&#160;&#160;</text>
<polygon fill="none" stroke="#99ccff" points="937.8242,-34.5 937.8242,-51.5 1035.8242,-51.5 1035.8242,-34.5 937.8242,-34.5"/>
<text text-anchor="start" x="950.5183" y="-39.7" font-family="Courier,monospace" font-size="11.00" fill="#000000">string(100)</text>
<polygon fill="none" stroke="#99ccff" points="199.8242,-17.5 199.8242,-34.5 937.8242,-34.5 937.8242,-17.5 199.8242,-17.5"/>
<text text-anchor="start" x="202.8242" y="-22.7" font-family="Courier,monospace" font-size="11.00" fill="#000000"> &#160;&#160;&#160;&#160;&#160;&#160;&#160;&#160;&#160;&#160;&#160;&#160;&#160;&#160;&#160;&#160;&#160;&#160;&#160;&#160;&#160;&#160;&#160;&#160;&#160;&#160;&#160;&#160;&#160;&#160;&#160;&#160;&#160;&#160;&#160;&#160;&#160;&#160;&#160;&#160;FinServ__StartDate__c &#160;&#160;&#160;&#160;&#160;&#160;&#160;&#160;&#160;&#160;&#160;&#160;&#160;&#160;&#160;&#160;&#160;&#160;&#160;&#160;&#160;&#160;&#160;&#160;&#160;&#160;&#160;&#160;&#160;&#160;&#160;&#160;&#160;&#160;&#160;&#160;&#160;&#160;</text>
<polygon fill="none" stroke="#99ccff" points="937.8242,-17.5 937.8242,-34.5 1035.8242,-34.5 1035.8242,-17.5 937.8242,-17.5"/>
<text text-anchor="start" x="973.6221" y="-22.7" font-family="Courier,monospace" font-size="11.00" fill="#000000">date</text>
<polygon fill="none" stroke="#99ccff" points="198.8242,-17 198.8242,-342 1036.8242,-342 1036.8242,-17 198.8242,-17"/>
</a>
</g>
</g>
<!-- Group -->
<g id="node2" class="node">
<title>Group</title>
<text text-anchor="middle" x="31.1038" y="-304.2" font-family="Courier,monospace" font-size="11.00" fill="#000000">Group</text>
</g>
<!-- FinServ__Employment__c&#45;&gt;Group -->
<g id="edge1" class="edge">
<title>FinServ__Employment__c:w&#45;&gt;Group:e</title>
<path fill="none" stroke="#ff99cc" d="M185.268,-298.605C138.8925,-299.252 88.3875,-302.7474 58.2563,-305.1589"/>
<polygon fill="#ff99cc" stroke="#ff99cc" points="191.8244,-298.5578 199.8502,-302.0999 195.8243,-298.5289 199.8242,-298.5 199.8242,-298.5 199.8242,-298.5 195.8243,-298.5289 199.7982,-294.9001 191.8244,-298.5578 191.8244,-298.5578"/>
<ellipse fill="none" stroke="#ff99cc" cx="188.6245" cy="-298.5809" rx="3.2" ry="3.2"/>
<text text-anchor="middle" x="130.5159" y="-308.3015" font-family="Monaco" font-size="9.00" fill="#000000">Owner</text>
</g>
<!-- User -->
<g id="node3" class="node">
<title>User</title>
<text text-anchor="middle" x="31.1038" y="-250.2" font-family="Courier,monospace" font-size="11.00" fill="#000000">User</text>
</g>
<!-- FinServ__Employment__c&#45;&gt;User -->
<g id="edge2" class="edge">
<title>FinServ__Employment__c:w&#45;&gt;User:e</title>
<path fill="none" stroke="#ff99cc" d="M189.1358,-288.3212C187.6779,-285.0123 185.8301,-281.6436 181.8242,-279.4985 176.4111,-276.5998 100.1105,-264.3134 58.204,-257.7212"/>
<polygon fill="#ff99cc" stroke="#ff99cc" points="194.0309,-292.9829 197.3415,-301.107 196.9276,-295.7415 199.8242,-298.5 199.8242,-298.5 199.8242,-298.5 196.9276,-295.7415 202.3069,-295.893 194.0309,-292.9829 194.0309,-292.9829"/>
<ellipse fill="none" stroke="#ff99cc" cx="191.7136" cy="-290.7761" rx="3.2" ry="3.2"/>
<text text-anchor="middle" x="130.5159" y="-283.3015" font-family="Monaco" font-size="9.00" fill="#000000">Owner</text>
</g>
<!-- FinServ__Employment__c&#45;&gt;User -->
<g id="edge3" class="edge">
<title>FinServ__Employment__c:w&#45;&gt;User:e</title>
<path fill="none" stroke="#ff99cc" d="M185.4879,-245.8131C184.406,-245.6845 183.2056,-245.5751 181.8242,-245.4985 136.2867,-242.9746 124.6601,-241.7441 79.2075,-245.4985 72.3733,-246.0631 65.048,-247.0714 58.2266,-248.1862"/>
<polygon fill="#ff99cc" stroke="#ff99cc" points="191.879,-246.5651 199.4035,-251.0753 195.8516,-247.0325 199.8242,-247.5 199.8242,-247.5 199.8242,-247.5 195.8516,-247.0325 200.2449,-243.9247 191.879,-246.5651 191.879,-246.5651"/>
<ellipse fill="none" stroke="#ff99cc" cx="188.701" cy="-246.1911" rx="3.2" ry="3.2"/>
<text text-anchor="middle" x="130.5159" y="-249.3015" font-family="Monaco" font-size="9.00" fill="#000000">LastModifiedBy</text>
</g>
<!-- Contact -->
<g id="node4" class="node">
<title>Contact</title>
<text text-anchor="middle" x="31.1038" y="-175.2" font-family="Courier,monospace" font-size="11.00" fill="#000000">Contact</text>
</g>
<!-- FinServ__Employment__c&#45;&gt;Contact -->
<g id="edge4" class="edge">
<title>FinServ__Employment__c:w&#45;&gt;Contact:e</title>
<path fill="none" stroke="#ff99cc" d="M185.3141,-178.5C141.0827,-178.5 93.0183,-178.5 62.5106,-178.5"/>
<polygon fill="#ff99cc" stroke="#ff99cc" points="191.8242,-178.5001 199.8242,-182.1 195.8242,-178.5 199.8242,-178.5 199.8242,-178.5 199.8242,-178.5 195.8242,-178.5 199.8242,-174.9 191.8242,-178.5001 191.8242,-178.5001"/>
<ellipse fill="none" stroke="#ff99cc" cx="188.6242" cy="-178.5001" rx="3.2" ry="3.2"/>
<text text-anchor="middle" x="130.5159" y="-184.3015" font-family="Monaco" font-size="9.00" fill="#000000">FinServ__Contact__r</text>
</g>
</g>
</svg>
