<?xml version="1.0" encoding="UTF-8" standalone="no"?>
<!DOCTYPE svg PUBLIC "-//W3C//DTD SVG 1.1//EN"
 "http://www.w3.org/Graphics/SVG/1.1/DTD/svg11.dtd">
<!-- Generated by graphviz version 2.40.1 (20161225.0304)
 -->
<!-- Title: Salesforce+ ERD Pages: 1 -->
<svg width="1044pt" height="560pt"
 viewBox="0.00 0.00 1043.62 560.00" xmlns="http://www.w3.org/2000/svg" xmlns:xlink="http://www.w3.org/1999/xlink">
<g id="graph0" class="graph" transform="scale(1 1) rotate(0) translate(4 556)">
<title>Salesforce+ ERD</title>
<polygon fill="#efeffd" stroke="transparent" points="-4,4 -4,-556 1039.623,-556 1039.623,4 -4,4"/>
<text text-anchor="middle" x="987.1165" y="-5.8" font-family="Courier,monospace" font-size="9.00" fill="#000000">Salesforce ERD </text>
<!-- FinServ__ChargesAndFees__c -->
<g id="node1" class="node">
<title>FinServ__ChargesAndFees__c</title>
<g id="a_node1"><a xlink:href="#" xlink:title=" FinServ__ChargesAndFees__c ">
<polygon fill="#ffeeff" stroke="transparent" points="191.623,-17 191.623,-529 1035.623,-529 1035.623,-17 191.623,-17"/>
<polygon fill="#add8e6" stroke="transparent" points="192.623,-511 192.623,-528 1034.623,-528 1034.623,-511 192.623,-511"/>
<polygon fill="none" stroke="#99ccff" points="192.623,-511 192.623,-528 1034.623,-528 1034.623,-511 192.623,-511"/>
<text text-anchor="start" x="527.8091" y="-517.2" font-family="Courier,monospace" font-weight="bold" font-size="11.00" fill="#000000">FinServ__ChargesAndFees__c</text>
<polygon fill="#99ccff" stroke="transparent" points="192.623,-494 192.623,-511 943.623,-511 943.623,-494 192.623,-494"/>
<polygon fill="none" stroke="#99ccff" points="192.623,-494 192.623,-511 943.623,-511 943.623,-494 192.623,-494"/>
<text text-anchor="start" x="195.623" y="-500.2" font-family="Courier,monospace" font-size="11.00" fill="#000000"> &#160;&#160;&#160;&#160;&#160;&#160;&#160;&#160;&#160;&#160;&#160;&#160;&#160;&#160;&#160;&#160;&#160;&#160;&#160;&#160;&#160;&#160;&#160;&#160;&#160;&#160;&#160;&#160;&#160;&#160;&#160;&#160;&#160;&#160;&#160;&#160;&#160;&#160;&#160;&#160;&#160;&#160;</text>
<text text-anchor="start" x="479.4692" y="-500.2" font-family="Courier,monospace" font-weight="bold" font-size="11.00" fill="#000000">Id</text>
<text text-anchor="start" x="492.6714" y="-500.2" font-family="Courier,monospace" font-size="11.00" fill="#000000"> &#160;&#160;&#160;&#160;&#160;&#160;&#160;&#160;&#160;&#160;&#160;&#160;&#160;&#160;&#160;&#160;&#160;&#160;&#160;&#160;&#160;&#160;&#160;&#160;&#160;&#160;&#160;&#160;&#160;&#160;&#160;&#160;&#160;&#160;&#160;&#160;&#160;&#160;&#160;</text>
<polygon fill="none" stroke="#99ccff" points="943.623,-494 943.623,-511 1034.623,-511 1034.623,-494 943.623,-494"/>
<text text-anchor="start" x="969.3198" y="-499.2" font-family="Courier,monospace" font-size="11.00" fill="#000000">id(18)</text>
<polygon fill="none" stroke="#99ccff" points="192.623,-477 192.623,-494 943.623,-494 943.623,-477 192.623,-477"/>
<text text-anchor="start" x="195.623" y="-482.2" font-family="Courier,monospace" font-size="11.00" fill="#000000"> &#160;&#160;&#160;&#160;&#160;&#160;&#160;&#160;&#160;&#160;&#160;&#160;&#160;&#160;&#160;&#160;&#160;&#160;&#160;&#160;&#160;&#160;&#160;&#160;&#160;&#160;&#160;&#160;&#160;&#160;&#160;&#160;&#160;&#160;&#160;&#160;&#160;&#160;&#160;&#160;OwnerId &#160;&#160;&#160;&#160;&#160;&#160;&#160;&#160;&#160;&#160;&#160;&#160;&#160;&#160;&#160;&#160;&#160;&#160;&#160;&#160;&#160;&#160;&#160;&#160;&#160;&#160;&#160;&#160;&#160;&#160;&#160;&#160;&#160;&#160;&#160;&#160;&#160;&#160;</text>
<polygon fill="none" stroke="#99ccff" points="943.623,-477 943.623,-494 1034.623,-494 1034.623,-477 943.623,-477"/>
<text text-anchor="start" x="946.2161" y="-482.2" font-family="Courier,monospace" font-size="11.00" fill="#000000">reference(18)</text>
<polygon fill="none" stroke="#99ccff" points="192.623,-460 192.623,-477 943.623,-477 943.623,-460 192.623,-460"/>
<text text-anchor="start" x="195.623" y="-465.2" font-family="Courier,monospace" font-size="11.00" fill="#000000"> &#160;&#160;&#160;&#160;&#160;&#160;&#160;&#160;&#160;&#160;&#160;&#160;&#160;&#160;&#160;&#160;&#160;&#160;&#160;&#160;&#160;&#160;&#160;&#160;&#160;&#160;&#160;&#160;&#160;&#160;&#160;&#160;&#160;&#160;&#160;&#160;&#160;&#160;&#160;&#160;IsDeleted &#160;&#160;&#160;&#160;&#160;&#160;&#160;&#160;&#160;&#160;&#160;&#160;&#160;&#160;&#160;&#160;&#160;&#160;&#160;&#160;&#160;&#160;&#160;&#160;&#160;&#160;&#160;&#160;&#160;&#160;&#160;&#160;&#160;&#160;&#160;&#160;&#160;&#160;</text>
<polygon fill="none" stroke="#99ccff" points="943.623,-460 943.623,-477 1034.623,-477 1034.623,-460 943.623,-460"/>
<text text-anchor="start" x="966.0193" y="-465.2" font-family="Courier,monospace" font-size="11.00" fill="#000000">boolean</text>
<polygon fill="none" stroke="#99ccff" points="192.623,-443 192.623,-460 943.623,-460 943.623,-443 192.623,-443"/>
<text text-anchor="start" x="195.623" y="-448.2" font-family="Courier,monospace" font-size="11.00" fill="#000000"> &#160;&#160;&#160;&#160;&#160;&#160;&#160;&#160;&#160;&#160;&#160;&#160;&#160;&#160;&#160;&#160;&#160;&#160;&#160;&#160;&#160;&#160;&#160;&#160;&#160;&#160;&#160;&#160;&#160;&#160;&#160;&#160;&#160;&#160;&#160;&#160;&#160;&#160;&#160;&#160;Name &#160;&#160;&#160;&#160;&#160;&#160;&#160;&#160;&#160;&#160;&#160;&#160;&#160;&#160;&#160;&#160;&#160;&#160;&#160;&#160;&#160;&#160;&#160;&#160;&#160;&#160;&#160;&#160;&#160;&#160;&#160;&#160;&#160;&#160;&#160;&#160;&#160;&#160;</text>
<polygon fill="none" stroke="#99ccff" points="943.623,-443 943.623,-460 1034.623,-460 1034.623,-443 943.623,-443"/>
<text text-anchor="start" x="956.1177" y="-448.2" font-family="Courier,monospace" font-size="11.00" fill="#000000">string(80)</text>
<polygon fill="none" stroke="#99ccff" points="192.623,-426 192.623,-443 943.623,-443 943.623,-426 192.623,-426"/>
<text text-anchor="start" x="195.623" y="-431.2" font-family="Courier,monospace" font-size="11.00" fill="#000000"> &#160;&#160;&#160;&#160;&#160;&#160;&#160;&#160;&#160;&#160;&#160;&#160;&#160;&#160;&#160;&#160;&#160;&#160;&#160;&#160;&#160;&#160;&#160;&#160;&#160;&#160;&#160;&#160;&#160;&#160;&#160;&#160;&#160;&#160;&#160;&#160;&#160;&#160;&#160;&#160;RecordTypeId &#160;&#160;&#160;&#160;&#160;&#160;&#160;&#160;&#160;&#160;&#160;&#160;&#160;&#160;&#160;&#160;&#160;&#160;&#160;&#160;&#160;&#160;&#160;&#160;&#160;&#160;&#160;&#160;&#160;&#160;&#160;&#160;&#160;&#160;&#160;&#160;&#160;&#160;</text>
<polygon fill="none" stroke="#99ccff" points="943.623,-426 943.623,-443 1034.623,-443 1034.623,-426 943.623,-426"/>
<text text-anchor="start" x="946.2161" y="-431.2" font-family="Courier,monospace" font-size="11.00" fill="#000000">reference(18)</text>
<polygon fill="none" stroke="#99ccff" points="192.623,-409 192.623,-426 943.623,-426 943.623,-409 192.623,-409"/>
<text text-anchor="start" x="195.623" y="-414.2" font-family="Courier,monospace" font-size="11.00" fill="#000000"> &#160;&#160;&#160;&#160;&#160;&#160;&#160;&#160;&#160;&#160;&#160;&#160;&#160;&#160;&#160;&#160;&#160;&#160;&#160;&#160;&#160;&#160;&#160;&#160;&#160;&#160;&#160;&#160;&#160;&#160;&#160;&#160;&#160;&#160;&#160;&#160;&#160;&#160;&#160;&#160;LastModifiedById &#160;&#160;&#160;&#160;&#160;&#160;&#160;&#160;&#160;&#160;&#160;&#160;&#160;&#160;&#160;&#160;&#160;&#160;&#160;&#160;&#160;&#160;&#160;&#160;&#160;&#160;&#160;&#160;&#160;&#160;&#160;&#160;&#160;&#160;&#160;&#160;&#160;&#160;</text>
<polygon fill="none" stroke="#99ccff" points="943.623,-409 943.623,-426 1034.623,-426 1034.623,-409 943.623,-409"/>
<text text-anchor="start" x="946.2161" y="-414.2" font-family="Courier,monospace" font-size="11.00" fill="#000000">reference(18)</text>
<polygon fill="none" stroke="#99ccff" points="192.623,-392 192.623,-409 943.623,-409 943.623,-392 192.623,-392"/>
<text text-anchor="start" x="195.623" y="-397.2" font-family="Courier,monospace" font-size="11.00" fill="#000000"> &#160;&#160;&#160;&#160;&#160;&#160;&#160;&#160;&#160;&#160;&#160;&#160;&#160;&#160;&#160;&#160;&#160;&#160;&#160;&#160;&#160;&#160;&#160;&#160;&#160;&#160;&#160;&#160;&#160;&#160;&#160;&#160;&#160;&#160;&#160;&#160;&#160;&#160;&#160;&#160;LastViewedDate &#160;&#160;&#160;&#160;&#160;&#160;&#160;&#160;&#160;&#160;&#160;&#160;&#160;&#160;&#160;&#160;&#160;&#160;&#160;&#160;&#160;&#160;&#160;&#160;&#160;&#160;&#160;&#160;&#160;&#160;&#160;&#160;&#160;&#160;&#160;&#160;&#160;&#160;</text>
<polygon fill="none" stroke="#99ccff" points="943.623,-392 943.623,-409 1034.623,-409 1034.623,-392 943.623,-392"/>
<text text-anchor="start" x="962.7188" y="-397.2" font-family="Courier,monospace" font-size="11.00" fill="#000000">datetime</text>
<polygon fill="none" stroke="#99ccff" points="192.623,-375 192.623,-392 943.623,-392 943.623,-375 192.623,-375"/>
<text text-anchor="start" x="195.623" y="-380.2" font-family="Courier,monospace" font-size="11.00" fill="#000000"> &#160;&#160;&#160;&#160;&#160;&#160;&#160;&#160;&#160;&#160;&#160;&#160;&#160;&#160;&#160;&#160;&#160;&#160;&#160;&#160;&#160;&#160;&#160;&#160;&#160;&#160;&#160;&#160;&#160;&#160;&#160;&#160;&#160;&#160;&#160;&#160;&#160;&#160;&#160;&#160;LastReferencedDate &#160;&#160;&#160;&#160;&#160;&#160;&#160;&#160;&#160;&#160;&#160;&#160;&#160;&#160;&#160;&#160;&#160;&#160;&#160;&#160;&#160;&#160;&#160;&#160;&#160;&#160;&#160;&#160;&#160;&#160;&#160;&#160;&#160;&#160;&#160;&#160;&#160;&#160;</text>
<polygon fill="none" stroke="#99ccff" points="943.623,-375 943.623,-392 1034.623,-392 1034.623,-375 943.623,-375"/>
<text text-anchor="start" x="962.7188" y="-380.2" font-family="Courier,monospace" font-size="11.00" fill="#000000">datetime</text>
<polygon fill="none" stroke="#99ccff" points="192.623,-358 192.623,-375 943.623,-375 943.623,-358 192.623,-358"/>
<text text-anchor="start" x="195.623" y="-363.2" font-family="Courier,monospace" font-size="11.00" fill="#000000"> &#160;&#160;&#160;&#160;&#160;&#160;&#160;&#160;&#160;&#160;&#160;&#160;&#160;&#160;&#160;&#160;&#160;&#160;&#160;&#160;&#160;&#160;&#160;&#160;&#160;&#160;&#160;&#160;&#160;&#160;&#160;&#160;&#160;&#160;&#160;&#160;&#160;&#160;&#160;&#160;FinServ__APRType__c &#160;&#160;&#160;&#160;&#160;&#160;&#160;&#160;&#160;&#160;&#160;&#160;&#160;&#160;&#160;&#160;&#160;&#160;&#160;&#160;&#160;&#160;&#160;&#160;&#160;&#160;&#160;&#160;&#160;&#160;&#160;&#160;&#160;&#160;&#160;&#160;&#160;&#160;</text>
<polygon fill="none" stroke="#99ccff" points="943.623,-358 943.623,-375 1034.623,-375 1034.623,-358 943.623,-358"/>
<text text-anchor="start" x="946.2161" y="-363.2" font-family="Courier,monospace" font-size="11.00" fill="#000000">picklist(255)</text>
<polygon fill="none" stroke="#99ccff" points="192.623,-341 192.623,-358 943.623,-358 943.623,-341 192.623,-341"/>
<text text-anchor="start" x="195.623" y="-346.2" font-family="Courier,monospace" font-size="11.00" fill="#000000"> &#160;&#160;&#160;&#160;&#160;&#160;&#160;&#160;&#160;&#160;&#160;&#160;&#160;&#160;&#160;&#160;&#160;&#160;&#160;&#160;&#160;&#160;&#160;&#160;&#160;&#160;&#160;&#160;&#160;&#160;&#160;&#160;&#160;&#160;&#160;&#160;&#160;&#160;&#160;&#160;FinServ__APR__c &#160;&#160;&#160;&#160;&#160;&#160;&#160;&#160;&#160;&#160;&#160;&#160;&#160;&#160;&#160;&#160;&#160;&#160;&#160;&#160;&#160;&#160;&#160;&#160;&#160;&#160;&#160;&#160;&#160;&#160;&#160;&#160;&#160;&#160;&#160;&#160;&#160;&#160;</text>
<polygon fill="none" stroke="#99ccff" points="943.623,-341 943.623,-358 1034.623,-358 1034.623,-341 943.623,-341"/>
<text text-anchor="start" x="966.0193" y="-346.2" font-family="Courier,monospace" font-size="11.00" fill="#000000">percent</text>
<polygon fill="none" stroke="#99ccff" points="192.623,-324 192.623,-341 943.623,-341 943.623,-324 192.623,-324"/>
<text text-anchor="start" x="195.623" y="-329.2" font-family="Courier,monospace" font-size="11.00" fill="#000000"> &#160;&#160;&#160;&#160;&#160;&#160;&#160;&#160;&#160;&#160;&#160;&#160;&#160;&#160;&#160;&#160;&#160;&#160;&#160;&#160;&#160;&#160;&#160;&#160;&#160;&#160;&#160;&#160;&#160;&#160;&#160;&#160;&#160;&#160;&#160;&#160;&#160;&#160;&#160;&#160;FinServ__ATMFee__c &#160;&#160;&#160;&#160;&#160;&#160;&#160;&#160;&#160;&#160;&#160;&#160;&#160;&#160;&#160;&#160;&#160;&#160;&#160;&#160;&#160;&#160;&#160;&#160;&#160;&#160;&#160;&#160;&#160;&#160;&#160;&#160;&#160;&#160;&#160;&#160;&#160;&#160;</text>
<polygon fill="none" stroke="#99ccff" points="943.623,-324 943.623,-341 1034.623,-341 1034.623,-324 943.623,-324"/>
<text text-anchor="start" x="962.7188" y="-329.2" font-family="Courier,monospace" font-size="11.00" fill="#000000">currency</text>
<polygon fill="none" stroke="#99ccff" points="192.623,-307 192.623,-324 943.623,-324 943.623,-307 192.623,-307"/>
<text text-anchor="start" x="195.623" y="-312.2" font-family="Courier,monospace" font-size="11.00" fill="#000000"> &#160;&#160;&#160;&#160;&#160;&#160;&#160;&#160;&#160;&#160;&#160;&#160;&#160;&#160;&#160;&#160;&#160;&#160;&#160;&#160;&#160;&#160;&#160;&#160;&#160;&#160;&#160;&#160;&#160;&#160;&#160;&#160;&#160;&#160;&#160;&#160;&#160;&#160;&#160;&#160;FinServ__AnnualAccountCharge__c &#160;&#160;&#160;&#160;&#160;&#160;&#160;&#160;&#160;&#160;&#160;&#160;&#160;&#160;&#160;&#160;&#160;&#160;&#160;&#160;&#160;&#160;&#160;&#160;&#160;&#160;&#160;&#160;&#160;&#160;&#160;&#160;&#160;&#160;&#160;&#160;&#160;&#160;</text>
<polygon fill="none" stroke="#99ccff" points="943.623,-307 943.623,-324 1034.623,-324 1034.623,-307 943.623,-307"/>
<text text-anchor="start" x="962.7188" y="-312.2" font-family="Courier,monospace" font-size="11.00" fill="#000000">currency</text>
<polygon fill="none" stroke="#99ccff" points="192.623,-290 192.623,-307 943.623,-307 943.623,-290 192.623,-290"/>
<text text-anchor="start" x="195.623" y="-295.2" font-family="Courier,monospace" font-size="11.00" fill="#000000"> &#160;&#160;&#160;&#160;&#160;&#160;&#160;&#160;&#160;&#160;&#160;&#160;&#160;&#160;&#160;&#160;&#160;&#160;&#160;&#160;&#160;&#160;&#160;&#160;&#160;&#160;&#160;&#160;&#160;&#160;&#160;&#160;&#160;&#160;&#160;&#160;&#160;&#160;&#160;&#160;FinServ__AnnualMembershipFee__c &#160;&#160;&#160;&#160;&#160;&#160;&#160;&#160;&#160;&#160;&#160;&#160;&#160;&#160;&#160;&#160;&#160;&#160;&#160;&#160;&#160;&#160;&#160;&#160;&#160;&#160;&#160;&#160;&#160;&#160;&#160;&#160;&#160;&#160;&#160;&#160;&#160;&#160;</text>
<polygon fill="none" stroke="#99ccff" points="943.623,-290 943.623,-307 1034.623,-307 1034.623,-290 943.623,-290"/>
<text text-anchor="start" x="962.7188" y="-295.2" font-family="Courier,monospace" font-size="11.00" fill="#000000">currency</text>
<polygon fill="none" stroke="#99ccff" points="192.623,-273 192.623,-290 943.623,-290 943.623,-273 192.623,-273"/>
<text text-anchor="start" x="195.623" y="-278.2" font-family="Courier,monospace" font-size="11.00" fill="#000000"> &#160;&#160;&#160;&#160;&#160;&#160;&#160;&#160;&#160;&#160;&#160;&#160;&#160;&#160;&#160;&#160;&#160;&#160;&#160;&#160;&#160;&#160;&#160;&#160;&#160;&#160;&#160;&#160;&#160;&#160;&#160;&#160;&#160;&#160;&#160;&#160;&#160;&#160;&#160;&#160;FinServ__BalanceTransferAPR__c &#160;&#160;&#160;&#160;&#160;&#160;&#160;&#160;&#160;&#160;&#160;&#160;&#160;&#160;&#160;&#160;&#160;&#160;&#160;&#160;&#160;&#160;&#160;&#160;&#160;&#160;&#160;&#160;&#160;&#160;&#160;&#160;&#160;&#160;&#160;&#160;&#160;&#160;</text>
<polygon fill="none" stroke="#99ccff" points="943.623,-273 943.623,-290 1034.623,-290 1034.623,-273 943.623,-273"/>
<text text-anchor="start" x="966.0193" y="-278.2" font-family="Courier,monospace" font-size="11.00" fill="#000000">percent</text>
<polygon fill="none" stroke="#99ccff" points="192.623,-256 192.623,-273 943.623,-273 943.623,-256 192.623,-256"/>
<text text-anchor="start" x="195.623" y="-261.2" font-family="Courier,monospace" font-size="11.00" fill="#000000"> &#160;&#160;&#160;&#160;&#160;&#160;&#160;&#160;&#160;&#160;&#160;&#160;&#160;&#160;&#160;&#160;&#160;&#160;&#160;&#160;&#160;&#160;&#160;&#160;&#160;&#160;&#160;&#160;&#160;&#160;&#160;&#160;&#160;&#160;&#160;&#160;&#160;&#160;&#160;&#160;FinServ__CashAPRType__c &#160;&#160;&#160;&#160;&#160;&#160;&#160;&#160;&#160;&#160;&#160;&#160;&#160;&#160;&#160;&#160;&#160;&#160;&#160;&#160;&#160;&#160;&#160;&#160;&#160;&#160;&#160;&#160;&#160;&#160;&#160;&#160;&#160;&#160;&#160;&#160;&#160;&#160;</text>
<polygon fill="none" stroke="#99ccff" points="943.623,-256 943.623,-273 1034.623,-273 1034.623,-256 943.623,-256"/>
<text text-anchor="start" x="946.2161" y="-261.2" font-family="Courier,monospace" font-size="11.00" fill="#000000">picklist(255)</text>
<polygon fill="none" stroke="#99ccff" points="192.623,-239 192.623,-256 943.623,-256 943.623,-239 192.623,-239"/>
<text text-anchor="start" x="195.623" y="-244.2" font-family="Courier,monospace" font-size="11.00" fill="#000000"> &#160;&#160;&#160;&#160;&#160;&#160;&#160;&#160;&#160;&#160;&#160;&#160;&#160;&#160;&#160;&#160;&#160;&#160;&#160;&#160;&#160;&#160;&#160;&#160;&#160;&#160;&#160;&#160;&#160;&#160;&#160;&#160;&#160;&#160;&#160;&#160;&#160;&#160;&#160;&#160;FinServ__CashAPR__c &#160;&#160;&#160;&#160;&#160;&#160;&#160;&#160;&#160;&#160;&#160;&#160;&#160;&#160;&#160;&#160;&#160;&#160;&#160;&#160;&#160;&#160;&#160;&#160;&#160;&#160;&#160;&#160;&#160;&#160;&#160;&#160;&#160;&#160;&#160;&#160;&#160;&#160;</text>
<polygon fill="none" stroke="#99ccff" points="943.623,-239 943.623,-256 1034.623,-256 1034.623,-239 943.623,-239"/>
<text text-anchor="start" x="966.0193" y="-244.2" font-family="Courier,monospace" font-size="11.00" fill="#000000">percent</text>
<polygon fill="none" stroke="#99ccff" points="192.623,-222 192.623,-239 943.623,-239 943.623,-222 192.623,-222"/>
<text text-anchor="start" x="195.623" y="-227.2" font-family="Courier,monospace" font-size="11.00" fill="#000000"> &#160;&#160;&#160;&#160;&#160;&#160;&#160;&#160;&#160;&#160;&#160;&#160;&#160;&#160;&#160;&#160;&#160;&#160;&#160;&#160;&#160;&#160;&#160;&#160;&#160;&#160;&#160;&#160;&#160;&#160;&#160;&#160;&#160;&#160;&#160;&#160;&#160;&#160;&#160;&#160;FinServ__CashAdvanceFee__c &#160;&#160;&#160;&#160;&#160;&#160;&#160;&#160;&#160;&#160;&#160;&#160;&#160;&#160;&#160;&#160;&#160;&#160;&#160;&#160;&#160;&#160;&#160;&#160;&#160;&#160;&#160;&#160;&#160;&#160;&#160;&#160;&#160;&#160;&#160;&#160;&#160;&#160;</text>
<polygon fill="none" stroke="#99ccff" points="943.623,-222 943.623,-239 1034.623,-239 1034.623,-222 943.623,-222"/>
<text text-anchor="start" x="962.7188" y="-227.2" font-family="Courier,monospace" font-size="11.00" fill="#000000">currency</text>
<polygon fill="none" stroke="#99ccff" points="192.623,-205 192.623,-222 943.623,-222 943.623,-205 192.623,-205"/>
<text text-anchor="start" x="195.1624" y="-210.2" font-family="Courier,monospace" font-size="11.00" fill="#000000"> &#160;&#160;&#160;&#160;&#160;&#160;&#160;&#160;&#160;&#160;&#160;&#160;&#160;&#160;&#160;&#160;&#160;&#160;&#160;&#160;&#160;&#160;&#160;&#160;&#160;&#160;&#160;&#160;&#160;&#160;&#160;&#160;&#160;&#160;&#160;&#160;&#160;&#160;&#160;&#160;FinServ__ForeignTransactionFee__c &#160;&#160;&#160;&#160;&#160;&#160;&#160;&#160;&#160;&#160;&#160;&#160;&#160;&#160;&#160;&#160;&#160;&#160;&#160;&#160;&#160;&#160;&#160;&#160;&#160;&#160;&#160;&#160;&#160;&#160;&#160;&#160;&#160;&#160;&#160;&#160;&#160;&#160;</text>
<polygon fill="none" stroke="#99ccff" points="943.623,-205 943.623,-222 1034.623,-222 1034.623,-205 943.623,-205"/>
<text text-anchor="start" x="962.7188" y="-210.2" font-family="Courier,monospace" font-size="11.00" fill="#000000">currency</text>
<polygon fill="none" stroke="#99ccff" points="192.623,-188 192.623,-205 943.623,-205 943.623,-188 192.623,-188"/>
<text text-anchor="start" x="195.623" y="-193.2" font-family="Courier,monospace" font-size="11.00" fill="#000000"> &#160;&#160;&#160;&#160;&#160;&#160;&#160;&#160;&#160;&#160;&#160;&#160;&#160;&#160;&#160;&#160;&#160;&#160;&#160;&#160;&#160;&#160;&#160;&#160;&#160;&#160;&#160;&#160;&#160;&#160;&#160;&#160;&#160;&#160;&#160;&#160;&#160;&#160;&#160;&#160;FinServ__InsufficientFundsFee__c &#160;&#160;&#160;&#160;&#160;&#160;&#160;&#160;&#160;&#160;&#160;&#160;&#160;&#160;&#160;&#160;&#160;&#160;&#160;&#160;&#160;&#160;&#160;&#160;&#160;&#160;&#160;&#160;&#160;&#160;&#160;&#160;&#160;&#160;&#160;&#160;&#160;&#160;</text>
<polygon fill="none" stroke="#99ccff" points="943.623,-188 943.623,-205 1034.623,-205 1034.623,-188 943.623,-188"/>
<text text-anchor="start" x="962.7188" y="-193.2" font-family="Courier,monospace" font-size="11.00" fill="#000000">currency</text>
<polygon fill="none" stroke="#99ccff" points="192.623,-171 192.623,-188 943.623,-188 943.623,-171 192.623,-171"/>
<text text-anchor="start" x="195.623" y="-176.2" font-family="Courier,monospace" font-size="11.00" fill="#000000"> &#160;&#160;&#160;&#160;&#160;&#160;&#160;&#160;&#160;&#160;&#160;&#160;&#160;&#160;&#160;&#160;&#160;&#160;&#160;&#160;&#160;&#160;&#160;&#160;&#160;&#160;&#160;&#160;&#160;&#160;&#160;&#160;&#160;&#160;&#160;&#160;&#160;&#160;&#160;&#160;FinServ__InterestRate__c &#160;&#160;&#160;&#160;&#160;&#160;&#160;&#160;&#160;&#160;&#160;&#160;&#160;&#160;&#160;&#160;&#160;&#160;&#160;&#160;&#160;&#160;&#160;&#160;&#160;&#160;&#160;&#160;&#160;&#160;&#160;&#160;&#160;&#160;&#160;&#160;&#160;&#160;</text>
<polygon fill="none" stroke="#99ccff" points="943.623,-171 943.623,-188 1034.623,-188 1034.623,-171 943.623,-171"/>
<text text-anchor="start" x="966.0193" y="-176.2" font-family="Courier,monospace" font-size="11.00" fill="#000000">percent</text>
<polygon fill="none" stroke="#99ccff" points="192.623,-154 192.623,-171 943.623,-171 943.623,-154 192.623,-154"/>
<text text-anchor="start" x="195.623" y="-159.2" font-family="Courier,monospace" font-size="11.00" fill="#000000"> &#160;&#160;&#160;&#160;&#160;&#160;&#160;&#160;&#160;&#160;&#160;&#160;&#160;&#160;&#160;&#160;&#160;&#160;&#160;&#160;&#160;&#160;&#160;&#160;&#160;&#160;&#160;&#160;&#160;&#160;&#160;&#160;&#160;&#160;&#160;&#160;&#160;&#160;&#160;&#160;FinServ__LatePaymentFee__c &#160;&#160;&#160;&#160;&#160;&#160;&#160;&#160;&#160;&#160;&#160;&#160;&#160;&#160;&#160;&#160;&#160;&#160;&#160;&#160;&#160;&#160;&#160;&#160;&#160;&#160;&#160;&#160;&#160;&#160;&#160;&#160;&#160;&#160;&#160;&#160;&#160;&#160;</text>
<polygon fill="none" stroke="#99ccff" points="943.623,-154 943.623,-171 1034.623,-171 1034.623,-154 943.623,-154"/>
<text text-anchor="start" x="962.7188" y="-159.2" font-family="Courier,monospace" font-size="11.00" fill="#000000">currency</text>
<polygon fill="none" stroke="#99ccff" points="192.623,-137 192.623,-154 943.623,-154 943.623,-137 192.623,-137"/>
<text text-anchor="start" x="195.1624" y="-142.2" font-family="Courier,monospace" font-size="11.00" fill="#000000"> &#160;&#160;&#160;&#160;&#160;&#160;&#160;&#160;&#160;&#160;&#160;&#160;&#160;&#160;&#160;&#160;&#160;&#160;&#160;&#160;&#160;&#160;&#160;&#160;&#160;&#160;&#160;&#160;&#160;&#160;&#160;&#160;&#160;&#160;&#160;&#160;&#160;&#160;&#160;&#160;FinServ__MaximumTransactionFee__c &#160;&#160;&#160;&#160;&#160;&#160;&#160;&#160;&#160;&#160;&#160;&#160;&#160;&#160;&#160;&#160;&#160;&#160;&#160;&#160;&#160;&#160;&#160;&#160;&#160;&#160;&#160;&#160;&#160;&#160;&#160;&#160;&#160;&#160;&#160;&#160;&#160;&#160;</text>
<polygon fill="none" stroke="#99ccff" points="943.623,-137 943.623,-154 1034.623,-154 1034.623,-137 943.623,-137"/>
<text text-anchor="start" x="962.7188" y="-142.2" font-family="Courier,monospace" font-size="11.00" fill="#000000">currency</text>
<polygon fill="none" stroke="#99ccff" points="192.623,-120 192.623,-137 943.623,-137 943.623,-120 192.623,-120"/>
<text text-anchor="start" x="195.623" y="-125.2" font-family="Courier,monospace" font-size="11.00" fill="#000000"> &#160;&#160;&#160;&#160;&#160;&#160;&#160;&#160;&#160;&#160;&#160;&#160;&#160;&#160;&#160;&#160;&#160;&#160;&#160;&#160;&#160;&#160;&#160;&#160;&#160;&#160;&#160;&#160;&#160;&#160;&#160;&#160;&#160;&#160;&#160;&#160;&#160;&#160;&#160;&#160;FinServ__MonthlyServiceFee__c &#160;&#160;&#160;&#160;&#160;&#160;&#160;&#160;&#160;&#160;&#160;&#160;&#160;&#160;&#160;&#160;&#160;&#160;&#160;&#160;&#160;&#160;&#160;&#160;&#160;&#160;&#160;&#160;&#160;&#160;&#160;&#160;&#160;&#160;&#160;&#160;&#160;&#160;</text>
<polygon fill="none" stroke="#99ccff" points="943.623,-120 943.623,-137 1034.623,-137 1034.623,-120 943.623,-120"/>
<text text-anchor="start" x="962.7188" y="-125.2" font-family="Courier,monospace" font-size="11.00" fill="#000000">currency</text>
<polygon fill="none" stroke="#99ccff" points="192.623,-103 192.623,-120 943.623,-120 943.623,-103 192.623,-103"/>
<text text-anchor="start" x="195.623" y="-108.2" font-family="Courier,monospace" font-size="11.00" fill="#000000"> &#160;&#160;&#160;&#160;&#160;&#160;&#160;&#160;&#160;&#160;&#160;&#160;&#160;&#160;&#160;&#160;&#160;&#160;&#160;&#160;&#160;&#160;&#160;&#160;&#160;&#160;&#160;&#160;&#160;&#160;&#160;&#160;&#160;&#160;&#160;&#160;&#160;&#160;&#160;&#160;FinServ__OverdraftFees__c &#160;&#160;&#160;&#160;&#160;&#160;&#160;&#160;&#160;&#160;&#160;&#160;&#160;&#160;&#160;&#160;&#160;&#160;&#160;&#160;&#160;&#160;&#160;&#160;&#160;&#160;&#160;&#160;&#160;&#160;&#160;&#160;&#160;&#160;&#160;&#160;&#160;&#160;</text>
<polygon fill="none" stroke="#99ccff" points="943.623,-103 943.623,-120 1034.623,-120 1034.623,-103 943.623,-103"/>
<text text-anchor="start" x="962.7188" y="-108.2" font-family="Courier,monospace" font-size="11.00" fill="#000000">currency</text>
<polygon fill="none" stroke="#99ccff" points="192.623,-86 192.623,-103 943.623,-103 943.623,-86 192.623,-86"/>
<text text-anchor="start" x="195.623" y="-91.2" font-family="Courier,monospace" font-size="11.00" fill="#000000"> &#160;&#160;&#160;&#160;&#160;&#160;&#160;&#160;&#160;&#160;&#160;&#160;&#160;&#160;&#160;&#160;&#160;&#160;&#160;&#160;&#160;&#160;&#160;&#160;&#160;&#160;&#160;&#160;&#160;&#160;&#160;&#160;&#160;&#160;&#160;&#160;&#160;&#160;&#160;&#160;FinServ__ReplacementCardFee__c &#160;&#160;&#160;&#160;&#160;&#160;&#160;&#160;&#160;&#160;&#160;&#160;&#160;&#160;&#160;&#160;&#160;&#160;&#160;&#160;&#160;&#160;&#160;&#160;&#160;&#160;&#160;&#160;&#160;&#160;&#160;&#160;&#160;&#160;&#160;&#160;&#160;&#160;</text>
<polygon fill="none" stroke="#99ccff" points="943.623,-86 943.623,-103 1034.623,-103 1034.623,-86 943.623,-86"/>
<text text-anchor="start" x="962.7188" y="-91.2" font-family="Courier,monospace" font-size="11.00" fill="#000000">currency</text>
<polygon fill="none" stroke="#99ccff" points="192.623,-69 192.623,-86 943.623,-86 943.623,-69 192.623,-69"/>
<text text-anchor="start" x="195.623" y="-74.2" font-family="Courier,monospace" font-size="11.00" fill="#000000"> &#160;&#160;&#160;&#160;&#160;&#160;&#160;&#160;&#160;&#160;&#160;&#160;&#160;&#160;&#160;&#160;&#160;&#160;&#160;&#160;&#160;&#160;&#160;&#160;&#160;&#160;&#160;&#160;&#160;&#160;&#160;&#160;&#160;&#160;&#160;&#160;&#160;&#160;&#160;&#160;FinServ__ReturnedCheckFee__c &#160;&#160;&#160;&#160;&#160;&#160;&#160;&#160;&#160;&#160;&#160;&#160;&#160;&#160;&#160;&#160;&#160;&#160;&#160;&#160;&#160;&#160;&#160;&#160;&#160;&#160;&#160;&#160;&#160;&#160;&#160;&#160;&#160;&#160;&#160;&#160;&#160;&#160;</text>
<polygon fill="none" stroke="#99ccff" points="943.623,-69 943.623,-86 1034.623,-86 1034.623,-69 943.623,-69"/>
<text text-anchor="start" x="962.7188" y="-74.2" font-family="Courier,monospace" font-size="11.00" fill="#000000">currency</text>
<polygon fill="none" stroke="#99ccff" points="192.623,-52 192.623,-69 943.623,-69 943.623,-52 192.623,-52"/>
<text text-anchor="start" x="195.623" y="-57.2" font-family="Courier,monospace" font-size="11.00" fill="#000000"> &#160;&#160;&#160;&#160;&#160;&#160;&#160;&#160;&#160;&#160;&#160;&#160;&#160;&#160;&#160;&#160;&#160;&#160;&#160;&#160;&#160;&#160;&#160;&#160;&#160;&#160;&#160;&#160;&#160;&#160;&#160;&#160;&#160;&#160;&#160;&#160;&#160;&#160;&#160;&#160;FinServ__SourceSystemId__c &#160;&#160;&#160;&#160;&#160;&#160;&#160;&#160;&#160;&#160;&#160;&#160;&#160;&#160;&#160;&#160;&#160;&#160;&#160;&#160;&#160;&#160;&#160;&#160;&#160;&#160;&#160;&#160;&#160;&#160;&#160;&#160;&#160;&#160;&#160;&#160;&#160;&#160;</text>
<polygon fill="none" stroke="#99ccff" points="943.623,-52 943.623,-69 1034.623,-69 1034.623,-52 943.623,-52"/>
<text text-anchor="start" x="952.8171" y="-57.2" font-family="Courier,monospace" font-size="11.00" fill="#000000">string(100)</text>
<polygon fill="none" stroke="#99ccff" points="192.623,-35 192.623,-52 943.623,-52 943.623,-35 192.623,-35"/>
<text text-anchor="start" x="195.623" y="-40.2" font-family="Courier,monospace" font-size="11.00" fill="#000000"> &#160;&#160;&#160;&#160;&#160;&#160;&#160;&#160;&#160;&#160;&#160;&#160;&#160;&#160;&#160;&#160;&#160;&#160;&#160;&#160;&#160;&#160;&#160;&#160;&#160;&#160;&#160;&#160;&#160;&#160;&#160;&#160;&#160;&#160;&#160;&#160;&#160;&#160;&#160;&#160;FinServ__StatementFee__c &#160;&#160;&#160;&#160;&#160;&#160;&#160;&#160;&#160;&#160;&#160;&#160;&#160;&#160;&#160;&#160;&#160;&#160;&#160;&#160;&#160;&#160;&#160;&#160;&#160;&#160;&#160;&#160;&#160;&#160;&#160;&#160;&#160;&#160;&#160;&#160;&#160;&#160;</text>
<polygon fill="none" stroke="#99ccff" points="943.623,-35 943.623,-52 1034.623,-52 1034.623,-35 943.623,-35"/>
<text text-anchor="start" x="962.7188" y="-40.2" font-family="Courier,monospace" font-size="11.00" fill="#000000">currency</text>
<polygon fill="none" stroke="#99ccff" points="192.623,-18 192.623,-35 943.623,-35 943.623,-18 192.623,-18"/>
<text text-anchor="start" x="195.623" y="-23.2" font-family="Courier,monospace" font-size="11.00" fill="#000000"> &#160;&#160;&#160;&#160;&#160;&#160;&#160;&#160;&#160;&#160;&#160;&#160;&#160;&#160;&#160;&#160;&#160;&#160;&#160;&#160;&#160;&#160;&#160;&#160;&#160;&#160;&#160;&#160;&#160;&#160;&#160;&#160;&#160;&#160;&#160;&#160;&#160;&#160;&#160;&#160;FinServ__StopPaymentFee__c &#160;&#160;&#160;&#160;&#160;&#160;&#160;&#160;&#160;&#160;&#160;&#160;&#160;&#160;&#160;&#160;&#160;&#160;&#160;&#160;&#160;&#160;&#160;&#160;&#160;&#160;&#160;&#160;&#160;&#160;&#160;&#160;&#160;&#160;&#160;&#160;&#160;&#160;</text>
<polygon fill="none" stroke="#99ccff" points="943.623,-18 943.623,-35 1034.623,-35 1034.623,-18 943.623,-18"/>
<text text-anchor="start" x="962.7188" y="-23.2" font-family="Courier,monospace" font-size="11.00" fill="#000000">currency</text>
<polygon fill="none" stroke="#99ccff" points="191.623,-17 191.623,-529 1035.623,-529 1035.623,-17 191.623,-17"/>
</a>
</g>
</g>
<!-- Group -->
<g id="node2" class="node">
<title>Group</title>
<text text-anchor="middle" x="41.0054" y="-530.7" font-family="Courier,monospace" font-size="11.00" fill="#000000">Group</text>
</g>
<!-- FinServ__ChargesAndFees__c&#45;&gt;Group -->
<g id="edge1" class="edge">
<title>FinServ__ChargesAndFees__c:w&#45;&gt;Group:e</title>
<path fill="none" stroke="#ff99cc" d="M180.7903,-494.7789C179.3027,-496.7186 177.4678,-498.6079 174.623,-500 140.0075,-516.9397 96.083,-526.0202 68.2496,-530.4269"/>
<polygon fill="#ff99cc" stroke="#ff99cc" points="186.1982,-490.7667 194.7681,-488.8912 189.4106,-488.3834 192.623,-486 192.623,-486 192.623,-486 189.4106,-488.3834 190.478,-483.1088 186.1982,-490.7667 186.1982,-490.7667"/>
<ellipse fill="none" stroke="#ff99cc" cx="183.6283" cy="-492.6734" rx="3.2" ry="3.2"/>
<text text-anchor="middle" x="136.8169" y="-528.8015" font-family="Monaco" font-size="9.00" fill="#000000">Owner</text>
</g>
<!-- User -->
<g id="node3" class="node">
<title>User</title>
<text text-anchor="middle" x="41.0054" y="-481.7" font-family="Courier,monospace" font-size="11.00" fill="#000000">User</text>
</g>
<!-- FinServ__ChargesAndFees__c&#45;&gt;User -->
<g id="edge2" class="edge">
<title>FinServ__ChargesAndFees__c:w&#45;&gt;User:e</title>
<path fill="none" stroke="#ff99cc" d="M178.1115,-485.9857C138.2311,-485.91 95.1362,-485.5497 68.1196,-485.2866"/>
<polygon fill="#ff99cc" stroke="#ff99cc" points="184.6231,-485.9921 192.6195,-489.6 188.623,-485.996 192.623,-486 192.623,-486 192.623,-486 188.623,-485.996 192.6266,-482.4 184.6231,-485.9921 184.6231,-485.9921"/>
<ellipse fill="none" stroke="#ff99cc" cx="181.4231" cy="-485.9889" rx="3.2" ry="3.2"/>
<text text-anchor="middle" x="136.8169" y="-489.8015" font-family="Monaco" font-size="9.00" fill="#000000">Owner</text>
</g>
<!-- FinServ__ChargesAndFees__c&#45;&gt;User -->
<g id="edge4" class="edge">
<title>FinServ__ChargesAndFees__c:w&#45;&gt;User:e</title>
<path fill="none" stroke="#ff99cc" d="M178.0579,-417.1641C146.3251,-413.5576 129.0624,-400.4179 99.0107,-420.9985 83.0727,-431.9136 94.7709,-446.497 82.0107,-461 78.0876,-465.4589 73.1277,-469.3081 68.0245,-472.5379"/>
<polygon fill="#ff99cc" stroke="#ff99cc" points="184.6362,-417.5416 192.4168,-421.5941 188.6296,-417.7708 192.623,-418 192.623,-418 192.623,-418 188.6296,-417.7708 192.8293,-414.4059 184.6362,-417.5416 184.6362,-417.5416"/>
<ellipse fill="none" stroke="#ff99cc" cx="181.4414" cy="-417.3582" rx="3.2" ry="3.2"/>
<text text-anchor="middle" x="136.8169" y="-425.8015" font-family="Monaco" font-size="9.00" fill="#000000">LastModifiedBy</text>
</g>
<!-- RecordType -->
<g id="node4" class="node">
<title>RecordType</title>
<text text-anchor="middle" x="41.0054" y="-432.7" font-family="Courier,monospace" font-size="11.00" fill="#000000">RecordType</text>
</g>
<!-- FinServ__ChargesAndFees__c&#45;&gt;RecordType -->
<g id="edge3" class="edge">
<title>FinServ__ChargesAndFees__c:w&#45;&gt;RecordType:e</title>
<path fill="none" stroke="#ff99cc" d="M177.9466,-435.0146C144.472,-435.0788 108.7523,-435.343 82.1894,-435.5817"/>
<polygon fill="#ff99cc" stroke="#ff99cc" points="184.6231,-435.008 192.6267,-438.6 188.623,-435.004 192.623,-435 192.623,-435 192.623,-435 188.623,-435.004 192.6194,-431.4 184.6231,-435.008 184.6231,-435.008"/>
<ellipse fill="none" stroke="#ff99cc" cx="181.4231" cy="-435.0112" rx="3.2" ry="3.2"/>
<text text-anchor="middle" x="136.8169" y="-440.8015" font-family="Monaco" font-size="9.00" fill="#000000">RecordType</text>
</g>
</g>
</svg>
