<?xml version="1.0" encoding="UTF-8" standalone="no"?>
<!DOCTYPE svg PUBLIC "-//W3C//DTD SVG 1.1//EN"
 "http://www.w3.org/Graphics/SVG/1.1/DTD/svg11.dtd">
<!-- Generated by graphviz version 2.40.1 (20161225.0304)
 -->
<!-- Title: Salesforce+ ERD Pages: 1 -->
<svg width="1032pt" height="367pt"
 viewBox="0.00 0.00 1031.83 367.00" xmlns="http://www.w3.org/2000/svg" xmlns:xlink="http://www.w3.org/1999/xlink">
<g id="graph0" class="graph" transform="scale(1 1) rotate(0) translate(4 363)">
<title>Salesforce+ ERD</title>
<polygon fill="#efeffd" stroke="transparent" points="-4,4 -4,-363 1027.8286,-363 1027.8286,4 -4,4"/>
<text text-anchor="middle" x="975.322" y="-5.8" font-family="Courier,monospace" font-size="9.00" fill="#000000">Salesforce ERD </text>
<!-- FinServ__FinancialGoal__c -->
<g id="node1" class="node">
<title>FinServ__FinancialGoal__c</title>
<g id="a_node1"><a xlink:href="#" xlink:title=" FinServ__FinancialGoal__c ">
<polygon fill="#ffeeff" stroke="transparent" points="225.8286,-17 225.8286,-359 1023.8286,-359 1023.8286,-17 225.8286,-17"/>
<polygon fill="#add8e6" stroke="transparent" points="226.8286,-341 226.8286,-358 1022.8286,-358 1022.8286,-341 226.8286,-341"/>
<polygon fill="none" stroke="#99ccff" points="226.8286,-341 226.8286,-358 1022.8286,-358 1022.8286,-341 226.8286,-341"/>
<text text-anchor="start" x="542.3152" y="-347.2" font-family="Courier,monospace" font-weight="bold" font-size="11.00" fill="#000000">FinServ__FinancialGoal__c</text>
<polygon fill="#99ccff" stroke="transparent" points="226.8286,-324 226.8286,-341 931.8286,-341 931.8286,-324 226.8286,-324"/>
<polygon fill="none" stroke="#99ccff" points="226.8286,-324 226.8286,-341 931.8286,-341 931.8286,-324 226.8286,-324"/>
<text text-anchor="start" x="229.8286" y="-330.2" font-family="Courier,monospace" font-size="11.00" fill="#000000"> &#160;&#160;&#160;&#160;&#160;&#160;&#160;&#160;&#160;&#160;&#160;&#160;&#160;&#160;&#160;&#160;&#160;&#160;&#160;&#160;&#160;&#160;&#160;&#160;&#160;&#160;&#160;&#160;&#160;&#160;&#160;&#160;&#160;&#160;&#160;&#160;&#160;&#160;&#160;&#160;&#160;&#160;</text>
<text text-anchor="start" x="513.6748" y="-330.2" font-family="Courier,monospace" font-weight="bold" font-size="11.00" fill="#000000">Id</text>
<text text-anchor="start" x="526.877" y="-330.2" font-family="Courier,monospace" font-size="11.00" fill="#000000"> &#160;&#160;&#160;&#160;&#160;&#160;&#160;&#160;&#160;&#160;&#160;&#160;&#160;&#160;&#160;&#160;&#160;&#160;&#160;&#160;&#160;&#160;&#160;&#160;&#160;&#160;&#160;&#160;&#160;&#160;&#160;&#160;&#160;&#160;&#160;&#160;&#160;&#160;&#160;</text>
<polygon fill="none" stroke="#99ccff" points="931.8286,-324 931.8286,-341 1022.8286,-341 1022.8286,-324 931.8286,-324"/>
<text text-anchor="start" x="957.5254" y="-329.2" font-family="Courier,monospace" font-size="11.00" fill="#000000">id(18)</text>
<polygon fill="none" stroke="#99ccff" points="226.8286,-307 226.8286,-324 931.8286,-324 931.8286,-307 226.8286,-307"/>
<text text-anchor="start" x="229.8286" y="-312.2" font-family="Courier,monospace" font-size="11.00" fill="#000000"> &#160;&#160;&#160;&#160;&#160;&#160;&#160;&#160;&#160;&#160;&#160;&#160;&#160;&#160;&#160;&#160;&#160;&#160;&#160;&#160;&#160;&#160;&#160;&#160;&#160;&#160;&#160;&#160;&#160;&#160;&#160;&#160;&#160;&#160;&#160;&#160;&#160;&#160;&#160;&#160;OwnerId &#160;&#160;&#160;&#160;&#160;&#160;&#160;&#160;&#160;&#160;&#160;&#160;&#160;&#160;&#160;&#160;&#160;&#160;&#160;&#160;&#160;&#160;&#160;&#160;&#160;&#160;&#160;&#160;&#160;&#160;&#160;&#160;&#160;&#160;&#160;&#160;&#160;&#160;</text>
<polygon fill="none" stroke="#99ccff" points="931.8286,-307 931.8286,-324 1022.8286,-324 1022.8286,-307 931.8286,-307"/>
<text text-anchor="start" x="934.4216" y="-312.2" font-family="Courier,monospace" font-size="11.00" fill="#000000">reference(18)</text>
<polygon fill="none" stroke="#99ccff" points="226.8286,-290 226.8286,-307 931.8286,-307 931.8286,-290 226.8286,-290"/>
<text text-anchor="start" x="229.8286" y="-295.2" font-family="Courier,monospace" font-size="11.00" fill="#000000"> &#160;&#160;&#160;&#160;&#160;&#160;&#160;&#160;&#160;&#160;&#160;&#160;&#160;&#160;&#160;&#160;&#160;&#160;&#160;&#160;&#160;&#160;&#160;&#160;&#160;&#160;&#160;&#160;&#160;&#160;&#160;&#160;&#160;&#160;&#160;&#160;&#160;&#160;&#160;&#160;IsDeleted &#160;&#160;&#160;&#160;&#160;&#160;&#160;&#160;&#160;&#160;&#160;&#160;&#160;&#160;&#160;&#160;&#160;&#160;&#160;&#160;&#160;&#160;&#160;&#160;&#160;&#160;&#160;&#160;&#160;&#160;&#160;&#160;&#160;&#160;&#160;&#160;&#160;&#160;</text>
<polygon fill="none" stroke="#99ccff" points="931.8286,-290 931.8286,-307 1022.8286,-307 1022.8286,-290 931.8286,-290"/>
<text text-anchor="start" x="954.2249" y="-295.2" font-family="Courier,monospace" font-size="11.00" fill="#000000">boolean</text>
<polygon fill="none" stroke="#99ccff" points="226.8286,-273 226.8286,-290 931.8286,-290 931.8286,-273 226.8286,-273"/>
<text text-anchor="start" x="229.8286" y="-278.2" font-family="Courier,monospace" font-size="11.00" fill="#000000"> &#160;&#160;&#160;&#160;&#160;&#160;&#160;&#160;&#160;&#160;&#160;&#160;&#160;&#160;&#160;&#160;&#160;&#160;&#160;&#160;&#160;&#160;&#160;&#160;&#160;&#160;&#160;&#160;&#160;&#160;&#160;&#160;&#160;&#160;&#160;&#160;&#160;&#160;&#160;&#160;Name &#160;&#160;&#160;&#160;&#160;&#160;&#160;&#160;&#160;&#160;&#160;&#160;&#160;&#160;&#160;&#160;&#160;&#160;&#160;&#160;&#160;&#160;&#160;&#160;&#160;&#160;&#160;&#160;&#160;&#160;&#160;&#160;&#160;&#160;&#160;&#160;&#160;&#160;</text>
<polygon fill="none" stroke="#99ccff" points="931.8286,-273 931.8286,-290 1022.8286,-290 1022.8286,-273 931.8286,-273"/>
<text text-anchor="start" x="944.3232" y="-278.2" font-family="Courier,monospace" font-size="11.00" fill="#000000">string(80)</text>
<polygon fill="none" stroke="#99ccff" points="226.8286,-256 226.8286,-273 931.8286,-273 931.8286,-256 226.8286,-256"/>
<text text-anchor="start" x="229.8286" y="-261.2" font-family="Courier,monospace" font-size="11.00" fill="#000000"> &#160;&#160;&#160;&#160;&#160;&#160;&#160;&#160;&#160;&#160;&#160;&#160;&#160;&#160;&#160;&#160;&#160;&#160;&#160;&#160;&#160;&#160;&#160;&#160;&#160;&#160;&#160;&#160;&#160;&#160;&#160;&#160;&#160;&#160;&#160;&#160;&#160;&#160;&#160;&#160;LastModifiedById &#160;&#160;&#160;&#160;&#160;&#160;&#160;&#160;&#160;&#160;&#160;&#160;&#160;&#160;&#160;&#160;&#160;&#160;&#160;&#160;&#160;&#160;&#160;&#160;&#160;&#160;&#160;&#160;&#160;&#160;&#160;&#160;&#160;&#160;&#160;&#160;&#160;&#160;</text>
<polygon fill="none" stroke="#99ccff" points="931.8286,-256 931.8286,-273 1022.8286,-273 1022.8286,-256 931.8286,-256"/>
<text text-anchor="start" x="934.4216" y="-261.2" font-family="Courier,monospace" font-size="11.00" fill="#000000">reference(18)</text>
<polygon fill="none" stroke="#99ccff" points="226.8286,-239 226.8286,-256 931.8286,-256 931.8286,-239 226.8286,-239"/>
<text text-anchor="start" x="229.8286" y="-244.2" font-family="Courier,monospace" font-size="11.00" fill="#000000"> &#160;&#160;&#160;&#160;&#160;&#160;&#160;&#160;&#160;&#160;&#160;&#160;&#160;&#160;&#160;&#160;&#160;&#160;&#160;&#160;&#160;&#160;&#160;&#160;&#160;&#160;&#160;&#160;&#160;&#160;&#160;&#160;&#160;&#160;&#160;&#160;&#160;&#160;&#160;&#160;LastActivityDate &#160;&#160;&#160;&#160;&#160;&#160;&#160;&#160;&#160;&#160;&#160;&#160;&#160;&#160;&#160;&#160;&#160;&#160;&#160;&#160;&#160;&#160;&#160;&#160;&#160;&#160;&#160;&#160;&#160;&#160;&#160;&#160;&#160;&#160;&#160;&#160;&#160;&#160;</text>
<polygon fill="none" stroke="#99ccff" points="931.8286,-239 931.8286,-256 1022.8286,-256 1022.8286,-239 931.8286,-239"/>
<text text-anchor="start" x="964.1265" y="-244.2" font-family="Courier,monospace" font-size="11.00" fill="#000000">date</text>
<polygon fill="none" stroke="#99ccff" points="226.8286,-222 226.8286,-239 931.8286,-239 931.8286,-222 226.8286,-222"/>
<text text-anchor="start" x="229.8286" y="-227.2" font-family="Courier,monospace" font-size="11.00" fill="#000000"> &#160;&#160;&#160;&#160;&#160;&#160;&#160;&#160;&#160;&#160;&#160;&#160;&#160;&#160;&#160;&#160;&#160;&#160;&#160;&#160;&#160;&#160;&#160;&#160;&#160;&#160;&#160;&#160;&#160;&#160;&#160;&#160;&#160;&#160;&#160;&#160;&#160;&#160;&#160;&#160;LastViewedDate &#160;&#160;&#160;&#160;&#160;&#160;&#160;&#160;&#160;&#160;&#160;&#160;&#160;&#160;&#160;&#160;&#160;&#160;&#160;&#160;&#160;&#160;&#160;&#160;&#160;&#160;&#160;&#160;&#160;&#160;&#160;&#160;&#160;&#160;&#160;&#160;&#160;&#160;</text>
<polygon fill="none" stroke="#99ccff" points="931.8286,-222 931.8286,-239 1022.8286,-239 1022.8286,-222 931.8286,-222"/>
<text text-anchor="start" x="950.9243" y="-227.2" font-family="Courier,monospace" font-size="11.00" fill="#000000">datetime</text>
<polygon fill="none" stroke="#99ccff" points="226.8286,-205 226.8286,-222 931.8286,-222 931.8286,-205 226.8286,-205"/>
<text text-anchor="start" x="229.8286" y="-210.2" font-family="Courier,monospace" font-size="11.00" fill="#000000"> &#160;&#160;&#160;&#160;&#160;&#160;&#160;&#160;&#160;&#160;&#160;&#160;&#160;&#160;&#160;&#160;&#160;&#160;&#160;&#160;&#160;&#160;&#160;&#160;&#160;&#160;&#160;&#160;&#160;&#160;&#160;&#160;&#160;&#160;&#160;&#160;&#160;&#160;&#160;&#160;LastReferencedDate &#160;&#160;&#160;&#160;&#160;&#160;&#160;&#160;&#160;&#160;&#160;&#160;&#160;&#160;&#160;&#160;&#160;&#160;&#160;&#160;&#160;&#160;&#160;&#160;&#160;&#160;&#160;&#160;&#160;&#160;&#160;&#160;&#160;&#160;&#160;&#160;&#160;&#160;</text>
<polygon fill="none" stroke="#99ccff" points="931.8286,-205 931.8286,-222 1022.8286,-222 1022.8286,-205 931.8286,-205"/>
<text text-anchor="start" x="950.9243" y="-210.2" font-family="Courier,monospace" font-size="11.00" fill="#000000">datetime</text>
<polygon fill="none" stroke="#99ccff" points="226.8286,-188 226.8286,-205 931.8286,-205 931.8286,-188 226.8286,-188"/>
<text text-anchor="start" x="229.8286" y="-193.2" font-family="Courier,monospace" font-size="11.00" fill="#000000"> &#160;&#160;&#160;&#160;&#160;&#160;&#160;&#160;&#160;&#160;&#160;&#160;&#160;&#160;&#160;&#160;&#160;&#160;&#160;&#160;&#160;&#160;&#160;&#160;&#160;&#160;&#160;&#160;&#160;&#160;&#160;&#160;&#160;&#160;&#160;&#160;&#160;&#160;&#160;&#160;FinServ__ActualValue__c &#160;&#160;&#160;&#160;&#160;&#160;&#160;&#160;&#160;&#160;&#160;&#160;&#160;&#160;&#160;&#160;&#160;&#160;&#160;&#160;&#160;&#160;&#160;&#160;&#160;&#160;&#160;&#160;&#160;&#160;&#160;&#160;&#160;&#160;&#160;&#160;&#160;&#160;</text>
<polygon fill="none" stroke="#99ccff" points="931.8286,-188 931.8286,-205 1022.8286,-205 1022.8286,-188 931.8286,-188"/>
<text text-anchor="start" x="950.9243" y="-193.2" font-family="Courier,monospace" font-size="11.00" fill="#000000">currency</text>
<polygon fill="none" stroke="#99ccff" points="226.8286,-171 226.8286,-188 931.8286,-188 931.8286,-171 226.8286,-171"/>
<text text-anchor="start" x="229.4717" y="-176.2" font-family="Courier,monospace" font-size="11.00" fill="#000000"> &#160;&#160;&#160;&#160;&#160;&#160;&#160;&#160;&#160;&#160;&#160;&#160;&#160;&#160;&#160;&#160;&#160;&#160;&#160;&#160;&#160;&#160;&#160;&#160;&#160;&#160;&#160;&#160;&#160;&#160;&#160;&#160;&#160;&#160;&#160;&#160;&#160;&#160;&#160;&#160;FinServ__CompletionDate__c &#160;&#160;&#160;&#160;&#160;&#160;&#160;&#160;&#160;&#160;&#160;&#160;&#160;&#160;&#160;&#160;&#160;&#160;&#160;&#160;&#160;&#160;&#160;&#160;&#160;&#160;&#160;&#160;&#160;&#160;&#160;&#160;&#160;&#160;&#160;&#160;&#160;&#160;</text>
<polygon fill="none" stroke="#99ccff" points="931.8286,-171 931.8286,-188 1022.8286,-188 1022.8286,-171 931.8286,-171"/>
<text text-anchor="start" x="964.1265" y="-176.2" font-family="Courier,monospace" font-size="11.00" fill="#000000">date</text>
<polygon fill="none" stroke="#99ccff" points="226.8286,-154 226.8286,-171 931.8286,-171 931.8286,-154 226.8286,-154"/>
<text text-anchor="start" x="229.8286" y="-159.2" font-family="Courier,monospace" font-size="11.00" fill="#000000"> &#160;&#160;&#160;&#160;&#160;&#160;&#160;&#160;&#160;&#160;&#160;&#160;&#160;&#160;&#160;&#160;&#160;&#160;&#160;&#160;&#160;&#160;&#160;&#160;&#160;&#160;&#160;&#160;&#160;&#160;&#160;&#160;&#160;&#160;&#160;&#160;&#160;&#160;&#160;&#160;FinServ__Description__c &#160;&#160;&#160;&#160;&#160;&#160;&#160;&#160;&#160;&#160;&#160;&#160;&#160;&#160;&#160;&#160;&#160;&#160;&#160;&#160;&#160;&#160;&#160;&#160;&#160;&#160;&#160;&#160;&#160;&#160;&#160;&#160;&#160;&#160;&#160;&#160;&#160;&#160;</text>
<polygon fill="none" stroke="#99ccff" points="931.8286,-154 931.8286,-171 1022.8286,-171 1022.8286,-154 931.8286,-154"/>
<text text-anchor="start" x="934.4216" y="-159.2" font-family="Courier,monospace" font-size="11.00" fill="#000000">textarea(256)</text>
<polygon fill="none" stroke="#99ccff" points="226.8286,-137 226.8286,-154 931.8286,-154 931.8286,-137 226.8286,-137"/>
<text text-anchor="start" x="229.8286" y="-142.2" font-family="Courier,monospace" font-size="11.00" fill="#000000"> &#160;&#160;&#160;&#160;&#160;&#160;&#160;&#160;&#160;&#160;&#160;&#160;&#160;&#160;&#160;&#160;&#160;&#160;&#160;&#160;&#160;&#160;&#160;&#160;&#160;&#160;&#160;&#160;&#160;&#160;&#160;&#160;&#160;&#160;&#160;&#160;&#160;&#160;&#160;&#160;FinServ__Household__c &#160;&#160;&#160;&#160;&#160;&#160;&#160;&#160;&#160;&#160;&#160;&#160;&#160;&#160;&#160;&#160;&#160;&#160;&#160;&#160;&#160;&#160;&#160;&#160;&#160;&#160;&#160;&#160;&#160;&#160;&#160;&#160;&#160;&#160;&#160;&#160;&#160;&#160;</text>
<polygon fill="none" stroke="#99ccff" points="931.8286,-137 931.8286,-154 1022.8286,-154 1022.8286,-137 931.8286,-137"/>
<text text-anchor="start" x="934.4216" y="-142.2" font-family="Courier,monospace" font-size="11.00" fill="#000000">reference(18)</text>
<polygon fill="none" stroke="#99ccff" points="226.8286,-120 226.8286,-137 931.8286,-137 931.8286,-120 226.8286,-120"/>
<text text-anchor="start" x="229.8286" y="-125.2" font-family="Courier,monospace" font-size="11.00" fill="#000000"> &#160;&#160;&#160;&#160;&#160;&#160;&#160;&#160;&#160;&#160;&#160;&#160;&#160;&#160;&#160;&#160;&#160;&#160;&#160;&#160;&#160;&#160;&#160;&#160;&#160;&#160;&#160;&#160;&#160;&#160;&#160;&#160;&#160;&#160;&#160;&#160;&#160;&#160;&#160;&#160;FinServ__InitialValue__c &#160;&#160;&#160;&#160;&#160;&#160;&#160;&#160;&#160;&#160;&#160;&#160;&#160;&#160;&#160;&#160;&#160;&#160;&#160;&#160;&#160;&#160;&#160;&#160;&#160;&#160;&#160;&#160;&#160;&#160;&#160;&#160;&#160;&#160;&#160;&#160;&#160;&#160;</text>
<polygon fill="none" stroke="#99ccff" points="931.8286,-120 931.8286,-137 1022.8286,-137 1022.8286,-120 931.8286,-120"/>
<text text-anchor="start" x="950.9243" y="-125.2" font-family="Courier,monospace" font-size="11.00" fill="#000000">currency</text>
<polygon fill="none" stroke="#99ccff" points="226.8286,-103 226.8286,-120 931.8286,-120 931.8286,-103 226.8286,-103"/>
<text text-anchor="start" x="229.8286" y="-108.2" font-family="Courier,monospace" font-size="11.00" fill="#000000"> &#160;&#160;&#160;&#160;&#160;&#160;&#160;&#160;&#160;&#160;&#160;&#160;&#160;&#160;&#160;&#160;&#160;&#160;&#160;&#160;&#160;&#160;&#160;&#160;&#160;&#160;&#160;&#160;&#160;&#160;&#160;&#160;&#160;&#160;&#160;&#160;&#160;&#160;&#160;&#160;FinServ__PrimaryOwner__c &#160;&#160;&#160;&#160;&#160;&#160;&#160;&#160;&#160;&#160;&#160;&#160;&#160;&#160;&#160;&#160;&#160;&#160;&#160;&#160;&#160;&#160;&#160;&#160;&#160;&#160;&#160;&#160;&#160;&#160;&#160;&#160;&#160;&#160;&#160;&#160;&#160;&#160;</text>
<polygon fill="none" stroke="#99ccff" points="931.8286,-103 931.8286,-120 1022.8286,-120 1022.8286,-103 931.8286,-103"/>
<text text-anchor="start" x="934.4216" y="-108.2" font-family="Courier,monospace" font-size="11.00" fill="#000000">reference(18)</text>
<polygon fill="none" stroke="#99ccff" points="226.8286,-86 226.8286,-103 931.8286,-103 931.8286,-86 226.8286,-86"/>
<text text-anchor="start" x="229.4717" y="-91.2" font-family="Courier,monospace" font-size="11.00" fill="#000000"> &#160;&#160;&#160;&#160;&#160;&#160;&#160;&#160;&#160;&#160;&#160;&#160;&#160;&#160;&#160;&#160;&#160;&#160;&#160;&#160;&#160;&#160;&#160;&#160;&#160;&#160;&#160;&#160;&#160;&#160;&#160;&#160;&#160;&#160;&#160;&#160;&#160;&#160;&#160;&#160;FinServ__SourceSystemId__c &#160;&#160;&#160;&#160;&#160;&#160;&#160;&#160;&#160;&#160;&#160;&#160;&#160;&#160;&#160;&#160;&#160;&#160;&#160;&#160;&#160;&#160;&#160;&#160;&#160;&#160;&#160;&#160;&#160;&#160;&#160;&#160;&#160;&#160;&#160;&#160;&#160;&#160;</text>
<polygon fill="none" stroke="#99ccff" points="931.8286,-86 931.8286,-103 1022.8286,-103 1022.8286,-86 931.8286,-86"/>
<text text-anchor="start" x="941.0227" y="-91.2" font-family="Courier,monospace" font-size="11.00" fill="#000000">string(100)</text>
<polygon fill="none" stroke="#99ccff" points="226.8286,-69 226.8286,-86 931.8286,-86 931.8286,-69 226.8286,-69"/>
<text text-anchor="start" x="229.8286" y="-74.2" font-family="Courier,monospace" font-size="11.00" fill="#000000"> &#160;&#160;&#160;&#160;&#160;&#160;&#160;&#160;&#160;&#160;&#160;&#160;&#160;&#160;&#160;&#160;&#160;&#160;&#160;&#160;&#160;&#160;&#160;&#160;&#160;&#160;&#160;&#160;&#160;&#160;&#160;&#160;&#160;&#160;&#160;&#160;&#160;&#160;&#160;&#160;FinServ__Status__c &#160;&#160;&#160;&#160;&#160;&#160;&#160;&#160;&#160;&#160;&#160;&#160;&#160;&#160;&#160;&#160;&#160;&#160;&#160;&#160;&#160;&#160;&#160;&#160;&#160;&#160;&#160;&#160;&#160;&#160;&#160;&#160;&#160;&#160;&#160;&#160;&#160;&#160;</text>
<polygon fill="none" stroke="#99ccff" points="931.8286,-69 931.8286,-86 1022.8286,-86 1022.8286,-69 931.8286,-69"/>
<text text-anchor="start" x="934.4216" y="-74.2" font-family="Courier,monospace" font-size="11.00" fill="#000000">picklist(255)</text>
<polygon fill="none" stroke="#99ccff" points="226.8286,-52 226.8286,-69 931.8286,-69 931.8286,-52 226.8286,-52"/>
<text text-anchor="start" x="229.8286" y="-57.2" font-family="Courier,monospace" font-size="11.00" fill="#000000"> &#160;&#160;&#160;&#160;&#160;&#160;&#160;&#160;&#160;&#160;&#160;&#160;&#160;&#160;&#160;&#160;&#160;&#160;&#160;&#160;&#160;&#160;&#160;&#160;&#160;&#160;&#160;&#160;&#160;&#160;&#160;&#160;&#160;&#160;&#160;&#160;&#160;&#160;&#160;&#160;FinServ__TargetDate__c &#160;&#160;&#160;&#160;&#160;&#160;&#160;&#160;&#160;&#160;&#160;&#160;&#160;&#160;&#160;&#160;&#160;&#160;&#160;&#160;&#160;&#160;&#160;&#160;&#160;&#160;&#160;&#160;&#160;&#160;&#160;&#160;&#160;&#160;&#160;&#160;&#160;&#160;</text>
<polygon fill="none" stroke="#99ccff" points="931.8286,-52 931.8286,-69 1022.8286,-69 1022.8286,-52 931.8286,-52"/>
<text text-anchor="start" x="964.1265" y="-57.2" font-family="Courier,monospace" font-size="11.00" fill="#000000">date</text>
<polygon fill="none" stroke="#99ccff" points="226.8286,-35 226.8286,-52 931.8286,-52 931.8286,-35 226.8286,-35"/>
<text text-anchor="start" x="229.8286" y="-40.2" font-family="Courier,monospace" font-size="11.00" fill="#000000"> &#160;&#160;&#160;&#160;&#160;&#160;&#160;&#160;&#160;&#160;&#160;&#160;&#160;&#160;&#160;&#160;&#160;&#160;&#160;&#160;&#160;&#160;&#160;&#160;&#160;&#160;&#160;&#160;&#160;&#160;&#160;&#160;&#160;&#160;&#160;&#160;&#160;&#160;&#160;&#160;FinServ__TargetValue__c &#160;&#160;&#160;&#160;&#160;&#160;&#160;&#160;&#160;&#160;&#160;&#160;&#160;&#160;&#160;&#160;&#160;&#160;&#160;&#160;&#160;&#160;&#160;&#160;&#160;&#160;&#160;&#160;&#160;&#160;&#160;&#160;&#160;&#160;&#160;&#160;&#160;&#160;</text>
<polygon fill="none" stroke="#99ccff" points="931.8286,-35 931.8286,-52 1022.8286,-52 1022.8286,-35 931.8286,-35"/>
<text text-anchor="start" x="950.9243" y="-40.2" font-family="Courier,monospace" font-size="11.00" fill="#000000">currency</text>
<polygon fill="none" stroke="#99ccff" points="226.8286,-18 226.8286,-35 931.8286,-35 931.8286,-18 226.8286,-18"/>
<text text-anchor="start" x="229.8286" y="-23.2" font-family="Courier,monospace" font-size="11.00" fill="#000000"> &#160;&#160;&#160;&#160;&#160;&#160;&#160;&#160;&#160;&#160;&#160;&#160;&#160;&#160;&#160;&#160;&#160;&#160;&#160;&#160;&#160;&#160;&#160;&#160;&#160;&#160;&#160;&#160;&#160;&#160;&#160;&#160;&#160;&#160;&#160;&#160;&#160;&#160;&#160;&#160;FinServ__Type__c &#160;&#160;&#160;&#160;&#160;&#160;&#160;&#160;&#160;&#160;&#160;&#160;&#160;&#160;&#160;&#160;&#160;&#160;&#160;&#160;&#160;&#160;&#160;&#160;&#160;&#160;&#160;&#160;&#160;&#160;&#160;&#160;&#160;&#160;&#160;&#160;&#160;&#160;</text>
<polygon fill="none" stroke="#99ccff" points="931.8286,-18 931.8286,-35 1022.8286,-35 1022.8286,-18 931.8286,-18"/>
<text text-anchor="start" x="934.4216" y="-23.2" font-family="Courier,monospace" font-size="11.00" fill="#000000">picklist(255)</text>
<polygon fill="none" stroke="#99ccff" points="225.8286,-17 225.8286,-359 1023.8286,-359 1023.8286,-17 225.8286,-17"/>
</a>
</g>
</g>
<!-- Group -->
<g id="node2" class="node">
<title>Group</title>
<text text-anchor="middle" x="31.1038" y="-321.7" font-family="Courier,monospace" font-size="11.00" fill="#000000">Group</text>
</g>
<!-- FinServ__FinancialGoal__c&#45;&gt;Group -->
<g id="edge1" class="edge">
<title>FinServ__FinancialGoal__c:w&#45;&gt;Group:e</title>
<path fill="none" stroke="#ff99cc" d="M212.1883,-316.0797C155.5367,-316.6785 93.0781,-320.515 58.3159,-322.9578"/>
<polygon fill="#ff99cc" stroke="#ff99cc" points="218.8287,-316.0436 226.8482,-319.5999 222.8287,-316.0218 226.8286,-316 226.8286,-316 226.8286,-316 222.8287,-316.0218 226.809,-312.4001 218.8287,-316.0436 218.8287,-316.0436"/>
<ellipse fill="none" stroke="#ff99cc" cx="215.6288" cy="-316.0611" rx="3.2" ry="3.2"/>
<text text-anchor="middle" x="144.0181" y="-325.8015" font-family="Monaco" font-size="9.00" fill="#000000">Owner</text>
</g>
<!-- User -->
<g id="node3" class="node">
<title>User</title>
<text text-anchor="middle" x="31.1038" y="-267.7" font-family="Courier,monospace" font-size="11.00" fill="#000000">User</text>
</g>
<!-- FinServ__FinancialGoal__c&#45;&gt;User -->
<g id="edge2" class="edge">
<title>FinServ__FinancialGoal__c:w&#45;&gt;User:e</title>
<path fill="none" stroke="#ff99cc" d="M216.1704,-305.764C214.7153,-302.4497 212.8615,-299.0923 208.8286,-296.9985 208.6205,-296.8905 108.2338,-282.2445 58.4454,-274.9854"/>
<polygon fill="#ff99cc" stroke="#ff99cc" points="221.0586,-310.4586 224.335,-318.5965 223.9436,-313.2293 226.8286,-316 226.8286,-316 226.8286,-316 223.9436,-313.2293 229.3223,-313.4035 221.0586,-310.4586 221.0586,-310.4586"/>
<ellipse fill="none" stroke="#ff99cc" cx="218.7506" cy="-308.242" rx="3.2" ry="3.2"/>
<text text-anchor="middle" x="144.0181" y="-300.8015" font-family="Monaco" font-size="9.00" fill="#000000">Owner</text>
</g>
<!-- FinServ__FinancialGoal__c&#45;&gt;User -->
<g id="edge3" class="edge">
<title>FinServ__FinancialGoal__c:w&#45;&gt;User:e</title>
<path fill="none" stroke="#ff99cc" d="M212.4923,-263.3131C211.4104,-263.1845 210.21,-263.0751 208.8286,-262.9985 151.3075,-259.8104 136.6214,-258.2561 79.2075,-262.9985 72.3733,-263.5631 65.048,-264.5714 58.2266,-265.6862"/>
<polygon fill="#ff99cc" stroke="#ff99cc" points="218.8834,-264.0651 226.4079,-268.5753 222.856,-264.5325 226.8286,-265 226.8286,-265 226.8286,-265 222.856,-264.5325 227.2493,-261.4247 218.8834,-264.0651 218.8834,-264.0651"/>
<ellipse fill="none" stroke="#ff99cc" cx="215.7053" cy="-263.6911" rx="3.2" ry="3.2"/>
<text text-anchor="middle" x="144.0181" y="-266.8015" font-family="Monaco" font-size="9.00" fill="#000000">LastModifiedBy</text>
</g>
<!-- Account -->
<g id="node4" class="node">
<title>Account</title>
<text text-anchor="middle" x="31.1038" y="-124.7" font-family="Courier,monospace" font-size="11.00" fill="#000000">Account</text>
</g>
<!-- FinServ__FinancialGoal__c&#45;&gt;Account -->
<g id="edge4" class="edge">
<title>FinServ__FinancialGoal__c:w&#45;&gt;Account:e</title>
<path fill="none" stroke="#ff99cc" d="M212.3066,-144.8525C157.5876,-143.7727 97.6061,-137.0017 62.2178,-132.3779"/>
<polygon fill="#ff99cc" stroke="#ff99cc" points="218.829,-144.9187 226.792,-148.5998 222.8288,-144.9593 226.8286,-145 226.8286,-145 226.8286,-145 222.8288,-144.9593 226.8652,-141.4002 218.829,-144.9187 218.829,-144.9187"/>
<ellipse fill="none" stroke="#ff99cc" cx="215.6292" cy="-144.8861" rx="3.2" ry="3.2"/>
<text text-anchor="middle" x="144.0181" y="-148.8015" font-family="Monaco" font-size="9.00" fill="#000000">FinServ__Household__r</text>
</g>
<!-- FinServ__FinancialGoal__c&#45;&gt;Account -->
<g id="edge5" class="edge">
<title>FinServ__FinancialGoal__c:w&#45;&gt;Account:e</title>
<path fill="none" stroke="#ff99cc" d="M212.28,-111.0065C158.2205,-111.0721 139.3475,-111.7738 79.2075,-118.9985 73.7243,-119.6572 67.9244,-120.5617 62.3221,-121.5448"/>
<polygon fill="#ff99cc" stroke="#ff99cc" points="218.8286,-111.0037 226.8303,-114.6 222.8286,-111.0018 226.8286,-111 226.8286,-111 226.8286,-111 222.8286,-111.0018 226.827,-107.4 218.8286,-111.0037 218.8286,-111.0037"/>
<ellipse fill="none" stroke="#ff99cc" cx="215.6286" cy="-111.0051" rx="3.2" ry="3.2"/>
<text text-anchor="middle" x="144.0181" y="-122.8015" font-family="Monaco" font-size="9.00" fill="#000000">FinServ__PrimaryOwner__r</text>
</g>
</g>
</svg>
