<?xml version="1.0" encoding="UTF-8" standalone="no"?>
<!DOCTYPE svg PUBLIC "-//W3C//DTD SVG 1.1//EN"
 "http://www.w3.org/Graphics/SVG/1.1/DTD/svg11.dtd">
<!-- Generated by graphviz version 2.40.1 (20161225.0304)
 -->
<!-- Title: Salesforce+ ERD Pages: 1 -->
<svg width="1205pt" height="248pt"
 viewBox="0.00 0.00 1205.05 248.00" xmlns="http://www.w3.org/2000/svg" xmlns:xlink="http://www.w3.org/1999/xlink">
<g id="graph0" class="graph" transform="scale(1 1) rotate(0) translate(4 244)">
<title>Salesforce+ ERD</title>
<polygon fill="#efeffd" stroke="transparent" points="-4,4 -4,-244 1201.0547,-244 1201.0547,4 -4,4"/>
<text text-anchor="middle" x="1148.5481" y="-5.8" font-family="Courier,monospace" font-size="9.00" fill="#000000">Salesforce ERD </text>
<!-- FinServ__Card__c -->
<g id="node1" class="node">
<title>FinServ__Card__c</title>
<g id="a_node1"><a xlink:href="#" xlink:title=" FinServ__Card__c ">
<polygon fill="#ffeeff" stroke="transparent" points="386.0547,-17 386.0547,-240 1197.0547,-240 1197.0547,-17 386.0547,-17"/>
<polygon fill="#add8e6" stroke="transparent" points="387.5547,-221.5 387.5547,-238.5 1196.5547,-238.5 1196.5547,-221.5 387.5547,-221.5"/>
<polygon fill="none" stroke="#99ccff" points="387.5547,-221.5 387.5547,-238.5 1196.5547,-238.5 1196.5547,-221.5 387.5547,-221.5"/>
<text text-anchor="start" x="739.2461" y="-227.7" font-family="Courier,monospace" font-weight="bold" font-size="11.00" fill="#000000">FinServ__Card__c</text>
<polygon fill="#99ccff" stroke="transparent" points="387.5547,-204.5 387.5547,-221.5 1105.5547,-221.5 1105.5547,-204.5 387.5547,-204.5"/>
<polygon fill="none" stroke="#99ccff" points="387.5547,-204.5 387.5547,-221.5 1105.5547,-221.5 1105.5547,-204.5 387.5547,-204.5"/>
<text text-anchor="start" x="390.5547" y="-210.7" font-family="Courier,monospace" font-size="11.00" fill="#000000"> &#160;&#160;&#160;&#160;&#160;&#160;&#160;&#160;&#160;&#160;&#160;&#160;&#160;&#160;&#160;&#160;&#160;&#160;&#160;&#160;&#160;&#160;&#160;&#160;&#160;&#160;&#160;&#160;&#160;&#160;&#160;&#160;&#160;&#160;&#160;&#160;&#160;&#160;&#160;&#160;&#160;&#160;</text>
<text text-anchor="start" x="674.4009" y="-210.7" font-family="Courier,monospace" font-weight="bold" font-size="11.00" fill="#000000">Id</text>
<text text-anchor="start" x="687.603" y="-210.7" font-family="Courier,monospace" font-size="11.00" fill="#000000"> &#160;&#160;&#160;&#160;&#160;&#160;&#160;&#160;&#160;&#160;&#160;&#160;&#160;&#160;&#160;&#160;&#160;&#160;&#160;&#160;&#160;&#160;&#160;&#160;&#160;&#160;&#160;&#160;&#160;&#160;&#160;&#160;&#160;&#160;&#160;&#160;&#160;&#160;&#160;</text>
<polygon fill="none" stroke="#99ccff" points="1105.5547,-204.5 1105.5547,-221.5 1196.5547,-221.5 1196.5547,-204.5 1105.5547,-204.5"/>
<text text-anchor="start" x="1131.2515" y="-209.7" font-family="Courier,monospace" font-size="11.00" fill="#000000">id(18)</text>
<polygon fill="none" stroke="#99ccff" points="387.5547,-187.5 387.5547,-204.5 1105.5547,-204.5 1105.5547,-187.5 387.5547,-187.5"/>
<text text-anchor="start" x="390.5547" y="-192.7" font-family="Courier,monospace" font-size="11.00" fill="#000000"> &#160;&#160;&#160;&#160;&#160;&#160;&#160;&#160;&#160;&#160;&#160;&#160;&#160;&#160;&#160;&#160;&#160;&#160;&#160;&#160;&#160;&#160;&#160;&#160;&#160;&#160;&#160;&#160;&#160;&#160;&#160;&#160;&#160;&#160;&#160;&#160;&#160;&#160;&#160;&#160;IsDeleted &#160;&#160;&#160;&#160;&#160;&#160;&#160;&#160;&#160;&#160;&#160;&#160;&#160;&#160;&#160;&#160;&#160;&#160;&#160;&#160;&#160;&#160;&#160;&#160;&#160;&#160;&#160;&#160;&#160;&#160;&#160;&#160;&#160;&#160;&#160;&#160;&#160;&#160;</text>
<polygon fill="none" stroke="#99ccff" points="1105.5547,-187.5 1105.5547,-204.5 1196.5547,-204.5 1196.5547,-187.5 1105.5547,-187.5"/>
<text text-anchor="start" x="1127.9509" y="-192.7" font-family="Courier,monospace" font-size="11.00" fill="#000000">boolean</text>
<polygon fill="none" stroke="#99ccff" points="387.5547,-170.5 387.5547,-187.5 1105.5547,-187.5 1105.5547,-170.5 387.5547,-170.5"/>
<text text-anchor="start" x="390.5547" y="-175.7" font-family="Courier,monospace" font-size="11.00" fill="#000000"> &#160;&#160;&#160;&#160;&#160;&#160;&#160;&#160;&#160;&#160;&#160;&#160;&#160;&#160;&#160;&#160;&#160;&#160;&#160;&#160;&#160;&#160;&#160;&#160;&#160;&#160;&#160;&#160;&#160;&#160;&#160;&#160;&#160;&#160;&#160;&#160;&#160;&#160;&#160;&#160;Name &#160;&#160;&#160;&#160;&#160;&#160;&#160;&#160;&#160;&#160;&#160;&#160;&#160;&#160;&#160;&#160;&#160;&#160;&#160;&#160;&#160;&#160;&#160;&#160;&#160;&#160;&#160;&#160;&#160;&#160;&#160;&#160;&#160;&#160;&#160;&#160;&#160;&#160;</text>
<polygon fill="none" stroke="#99ccff" points="1105.5547,-170.5 1105.5547,-187.5 1196.5547,-187.5 1196.5547,-170.5 1105.5547,-170.5"/>
<text text-anchor="start" x="1118.0493" y="-175.7" font-family="Courier,monospace" font-size="11.00" fill="#000000">string(80)</text>
<polygon fill="none" stroke="#99ccff" points="387.5547,-153.5 387.5547,-170.5 1105.5547,-170.5 1105.5547,-153.5 387.5547,-153.5"/>
<text text-anchor="start" x="390.5547" y="-158.7" font-family="Courier,monospace" font-size="11.00" fill="#000000"> &#160;&#160;&#160;&#160;&#160;&#160;&#160;&#160;&#160;&#160;&#160;&#160;&#160;&#160;&#160;&#160;&#160;&#160;&#160;&#160;&#160;&#160;&#160;&#160;&#160;&#160;&#160;&#160;&#160;&#160;&#160;&#160;&#160;&#160;&#160;&#160;&#160;&#160;&#160;&#160;LastModifiedById &#160;&#160;&#160;&#160;&#160;&#160;&#160;&#160;&#160;&#160;&#160;&#160;&#160;&#160;&#160;&#160;&#160;&#160;&#160;&#160;&#160;&#160;&#160;&#160;&#160;&#160;&#160;&#160;&#160;&#160;&#160;&#160;&#160;&#160;&#160;&#160;&#160;&#160;</text>
<polygon fill="none" stroke="#99ccff" points="1105.5547,-153.5 1105.5547,-170.5 1196.5547,-170.5 1196.5547,-153.5 1105.5547,-153.5"/>
<text text-anchor="start" x="1108.1477" y="-158.7" font-family="Courier,monospace" font-size="11.00" fill="#000000">reference(18)</text>
<polygon fill="none" stroke="#99ccff" points="387.5547,-136.5 387.5547,-153.5 1105.5547,-153.5 1105.5547,-136.5 387.5547,-136.5"/>
<text text-anchor="start" x="390.5547" y="-141.7" font-family="Courier,monospace" font-size="11.00" fill="#000000"> &#160;&#160;&#160;&#160;&#160;&#160;&#160;&#160;&#160;&#160;&#160;&#160;&#160;&#160;&#160;&#160;&#160;&#160;&#160;&#160;&#160;&#160;&#160;&#160;&#160;&#160;&#160;&#160;&#160;&#160;&#160;&#160;&#160;&#160;&#160;&#160;&#160;&#160;&#160;&#160;LastActivityDate &#160;&#160;&#160;&#160;&#160;&#160;&#160;&#160;&#160;&#160;&#160;&#160;&#160;&#160;&#160;&#160;&#160;&#160;&#160;&#160;&#160;&#160;&#160;&#160;&#160;&#160;&#160;&#160;&#160;&#160;&#160;&#160;&#160;&#160;&#160;&#160;&#160;&#160;</text>
<polygon fill="none" stroke="#99ccff" points="1105.5547,-136.5 1105.5547,-153.5 1196.5547,-153.5 1196.5547,-136.5 1105.5547,-136.5"/>
<text text-anchor="start" x="1137.8525" y="-141.7" font-family="Courier,monospace" font-size="11.00" fill="#000000">date</text>
<polygon fill="none" stroke="#99ccff" points="387.5547,-119.5 387.5547,-136.5 1105.5547,-136.5 1105.5547,-119.5 387.5547,-119.5"/>
<text text-anchor="start" x="390.0967" y="-124.7" font-family="Courier,monospace" font-size="11.00" fill="#000000"> &#160;&#160;&#160;&#160;&#160;&#160;&#160;&#160;&#160;&#160;&#160;&#160;&#160;&#160;&#160;&#160;&#160;&#160;&#160;&#160;&#160;&#160;&#160;&#160;&#160;&#160;&#160;&#160;&#160;&#160;&#160;&#160;&#160;&#160;&#160;&#160;&#160;&#160;&#160;&#160;FinServ__FinancialAccount__c &#160;&#160;&#160;&#160;&#160;&#160;&#160;&#160;&#160;&#160;&#160;&#160;&#160;&#160;&#160;&#160;&#160;&#160;&#160;&#160;&#160;&#160;&#160;&#160;&#160;&#160;&#160;&#160;&#160;&#160;&#160;&#160;&#160;&#160;&#160;&#160;&#160;&#160;</text>
<polygon fill="none" stroke="#99ccff" points="1105.5547,-119.5 1105.5547,-136.5 1196.5547,-136.5 1196.5547,-119.5 1105.5547,-119.5"/>
<text text-anchor="start" x="1108.1477" y="-124.7" font-family="Courier,monospace" font-size="11.00" fill="#000000">reference(18)</text>
<polygon fill="none" stroke="#99ccff" points="387.5547,-102.5 387.5547,-119.5 1105.5547,-119.5 1105.5547,-102.5 387.5547,-102.5"/>
<text text-anchor="start" x="390.5547" y="-107.7" font-family="Courier,monospace" font-size="11.00" fill="#000000"> &#160;&#160;&#160;&#160;&#160;&#160;&#160;&#160;&#160;&#160;&#160;&#160;&#160;&#160;&#160;&#160;&#160;&#160;&#160;&#160;&#160;&#160;&#160;&#160;&#160;&#160;&#160;&#160;&#160;&#160;&#160;&#160;&#160;&#160;&#160;&#160;&#160;&#160;&#160;&#160;FinServ__AccountHolder__c &#160;&#160;&#160;&#160;&#160;&#160;&#160;&#160;&#160;&#160;&#160;&#160;&#160;&#160;&#160;&#160;&#160;&#160;&#160;&#160;&#160;&#160;&#160;&#160;&#160;&#160;&#160;&#160;&#160;&#160;&#160;&#160;&#160;&#160;&#160;&#160;&#160;&#160;</text>
<polygon fill="none" stroke="#99ccff" points="1105.5547,-102.5 1105.5547,-119.5 1196.5547,-119.5 1196.5547,-102.5 1105.5547,-102.5"/>
<text text-anchor="start" x="1108.1477" y="-107.7" font-family="Courier,monospace" font-size="11.00" fill="#000000">reference(18)</text>
<polygon fill="none" stroke="#99ccff" points="387.5547,-85.5 387.5547,-102.5 1105.5547,-102.5 1105.5547,-85.5 387.5547,-85.5"/>
<text text-anchor="start" x="390.5547" y="-90.7" font-family="Courier,monospace" font-size="11.00" fill="#000000"> &#160;&#160;&#160;&#160;&#160;&#160;&#160;&#160;&#160;&#160;&#160;&#160;&#160;&#160;&#160;&#160;&#160;&#160;&#160;&#160;&#160;&#160;&#160;&#160;&#160;&#160;&#160;&#160;&#160;&#160;&#160;&#160;&#160;&#160;&#160;&#160;&#160;&#160;&#160;&#160;FinServ__Active__c &#160;&#160;&#160;&#160;&#160;&#160;&#160;&#160;&#160;&#160;&#160;&#160;&#160;&#160;&#160;&#160;&#160;&#160;&#160;&#160;&#160;&#160;&#160;&#160;&#160;&#160;&#160;&#160;&#160;&#160;&#160;&#160;&#160;&#160;&#160;&#160;&#160;&#160;</text>
<polygon fill="none" stroke="#99ccff" points="1105.5547,-85.5 1105.5547,-102.5 1196.5547,-102.5 1196.5547,-85.5 1105.5547,-85.5"/>
<text text-anchor="start" x="1127.9509" y="-90.7" font-family="Courier,monospace" font-size="11.00" fill="#000000">boolean</text>
<polygon fill="none" stroke="#99ccff" points="387.5547,-68.5 387.5547,-85.5 1105.5547,-85.5 1105.5547,-68.5 387.5547,-68.5"/>
<text text-anchor="start" x="390.5547" y="-73.7" font-family="Courier,monospace" font-size="11.00" fill="#000000"> &#160;&#160;&#160;&#160;&#160;&#160;&#160;&#160;&#160;&#160;&#160;&#160;&#160;&#160;&#160;&#160;&#160;&#160;&#160;&#160;&#160;&#160;&#160;&#160;&#160;&#160;&#160;&#160;&#160;&#160;&#160;&#160;&#160;&#160;&#160;&#160;&#160;&#160;&#160;&#160;FinServ__BinNumber__c &#160;&#160;&#160;&#160;&#160;&#160;&#160;&#160;&#160;&#160;&#160;&#160;&#160;&#160;&#160;&#160;&#160;&#160;&#160;&#160;&#160;&#160;&#160;&#160;&#160;&#160;&#160;&#160;&#160;&#160;&#160;&#160;&#160;&#160;&#160;&#160;&#160;&#160;</text>
<polygon fill="none" stroke="#99ccff" points="1105.5547,-68.5 1105.5547,-85.5 1196.5547,-85.5 1196.5547,-68.5 1105.5547,-68.5"/>
<text text-anchor="start" x="1131.2515" y="-73.7" font-family="Courier,monospace" font-size="11.00" fill="#000000">double</text>
<polygon fill="none" stroke="#99ccff" points="387.5547,-51.5 387.5547,-68.5 1105.5547,-68.5 1105.5547,-51.5 387.5547,-51.5"/>
<text text-anchor="start" x="390.5547" y="-56.7" font-family="Courier,monospace" font-size="11.00" fill="#000000"> &#160;&#160;&#160;&#160;&#160;&#160;&#160;&#160;&#160;&#160;&#160;&#160;&#160;&#160;&#160;&#160;&#160;&#160;&#160;&#160;&#160;&#160;&#160;&#160;&#160;&#160;&#160;&#160;&#160;&#160;&#160;&#160;&#160;&#160;&#160;&#160;&#160;&#160;&#160;&#160;FinServ__OwnershipType__c &#160;&#160;&#160;&#160;&#160;&#160;&#160;&#160;&#160;&#160;&#160;&#160;&#160;&#160;&#160;&#160;&#160;&#160;&#160;&#160;&#160;&#160;&#160;&#160;&#160;&#160;&#160;&#160;&#160;&#160;&#160;&#160;&#160;&#160;&#160;&#160;&#160;&#160;</text>
<polygon fill="none" stroke="#99ccff" points="1105.5547,-51.5 1105.5547,-68.5 1196.5547,-68.5 1196.5547,-51.5 1105.5547,-51.5"/>
<text text-anchor="start" x="1108.1477" y="-56.7" font-family="Courier,monospace" font-size="11.00" fill="#000000">picklist(255)</text>
<polygon fill="none" stroke="#99ccff" points="387.5547,-34.5 387.5547,-51.5 1105.5547,-51.5 1105.5547,-34.5 387.5547,-34.5"/>
<text text-anchor="start" x="390.5547" y="-39.7" font-family="Courier,monospace" font-size="11.00" fill="#000000"> &#160;&#160;&#160;&#160;&#160;&#160;&#160;&#160;&#160;&#160;&#160;&#160;&#160;&#160;&#160;&#160;&#160;&#160;&#160;&#160;&#160;&#160;&#160;&#160;&#160;&#160;&#160;&#160;&#160;&#160;&#160;&#160;&#160;&#160;&#160;&#160;&#160;&#160;&#160;&#160;FinServ__SourceSystemId__c &#160;&#160;&#160;&#160;&#160;&#160;&#160;&#160;&#160;&#160;&#160;&#160;&#160;&#160;&#160;&#160;&#160;&#160;&#160;&#160;&#160;&#160;&#160;&#160;&#160;&#160;&#160;&#160;&#160;&#160;&#160;&#160;&#160;&#160;&#160;&#160;&#160;&#160;</text>
<polygon fill="none" stroke="#99ccff" points="1105.5547,-34.5 1105.5547,-51.5 1196.5547,-51.5 1196.5547,-34.5 1105.5547,-34.5"/>
<text text-anchor="start" x="1114.7488" y="-39.7" font-family="Courier,monospace" font-size="11.00" fill="#000000">string(100)</text>
<polygon fill="none" stroke="#99ccff" points="387.5547,-17.5 387.5547,-34.5 1105.5547,-34.5 1105.5547,-17.5 387.5547,-17.5"/>
<text text-anchor="start" x="390.5547" y="-22.7" font-family="Courier,monospace" font-size="11.00" fill="#000000"> &#160;&#160;&#160;&#160;&#160;&#160;&#160;&#160;&#160;&#160;&#160;&#160;&#160;&#160;&#160;&#160;&#160;&#160;&#160;&#160;&#160;&#160;&#160;&#160;&#160;&#160;&#160;&#160;&#160;&#160;&#160;&#160;&#160;&#160;&#160;&#160;&#160;&#160;&#160;&#160;FinServ__ValidUntil__c &#160;&#160;&#160;&#160;&#160;&#160;&#160;&#160;&#160;&#160;&#160;&#160;&#160;&#160;&#160;&#160;&#160;&#160;&#160;&#160;&#160;&#160;&#160;&#160;&#160;&#160;&#160;&#160;&#160;&#160;&#160;&#160;&#160;&#160;&#160;&#160;&#160;&#160;</text>
<polygon fill="none" stroke="#99ccff" points="1105.5547,-17.5 1105.5547,-34.5 1196.5547,-34.5 1196.5547,-17.5 1105.5547,-17.5"/>
<text text-anchor="start" x="1137.8525" y="-22.7" font-family="Courier,monospace" font-size="11.00" fill="#000000">date</text>
<polygon fill="none" stroke="#99ccff" points="386.0547,-17 386.0547,-240 1197.0547,-240 1197.0547,-17 386.0547,-17"/>
</a>
</g>
</g>
<!-- User -->
<g id="node2" class="node">
<title>User</title>
<text text-anchor="middle" x="100.415" y="-173.2" font-family="Courier,monospace" font-size="11.00" fill="#000000">User</text>
</g>
<!-- FinServ__Card__c&#45;&gt;User -->
<g id="edge1" class="edge">
<title>FinServ__Card__c:w&#45;&gt;User:e</title>
<path fill="none" stroke="#ff99cc" d="M373.1524,-162.5568C280.8499,-163.2707 176.1764,-170.5306 127.7113,-174.2817"/>
<polygon fill="#ff99cc" stroke="#ff99cc" points="379.5547,-162.5316 387.5689,-166.1 383.5547,-162.5158 387.5547,-162.5 387.5547,-162.5 387.5547,-162.5 383.5547,-162.5158 387.5405,-158.9 379.5547,-162.5316 379.5547,-162.5316"/>
<ellipse fill="none" stroke="#ff99cc" cx="376.3548" cy="-162.5443" rx="3.2" ry="3.2"/>
<text text-anchor="middle" x="293.4424" y="-172.3015" font-family="Monaco" font-size="9.00" fill="#000000">LastModifiedBy</text>
</g>
<!-- FinServ__FinancialAccount__c -->
<g id="node3" class="node">
<title>FinServ__FinancialAccount__c</title>
<text text-anchor="middle" x="100.415" y="-124.2" font-family="Courier,monospace" font-size="11.00" fill="#000000">FinServ__FinancialAccount__c</text>
</g>
<!-- FinServ__Card__c&#45;&gt;FinServ__FinancialAccount__c -->
<g id="edge2" class="edge">
<title>FinServ__Card__c:w&#45;&gt;FinServ__FinancialAccount__c:e</title>
<path fill="none" stroke="#ff99cc" d="M372.9105,-127.5C314.8506,-127.5 251.8568,-127.5 201.0759,-127.5"/>
<polygon fill="#ff99cc" stroke="#ff99cc" points="379.5547,-127.5001 387.5547,-131.1 383.5547,-127.5 387.5547,-127.5 387.5547,-127.5 387.5547,-127.5 383.5547,-127.5 387.5547,-123.9 379.5547,-127.5001 379.5547,-127.5001"/>
<ellipse fill="none" stroke="#ff99cc" cx="376.3547" cy="-127.5001" rx="3.2" ry="3.2"/>
<text text-anchor="middle" x="293.4424" y="-132.3015" font-family="Monaco" font-size="9.00" fill="#000000">FinServ__FinancialAccount__r</text>
</g>
<!-- Account -->
<g id="node4" class="node">
<title>Account</title>
<text text-anchor="middle" x="100.415" y="-75.2" font-family="Courier,monospace" font-size="11.00" fill="#000000">Account</text>
</g>
<!-- FinServ__Card__c&#45;&gt;Account -->
<g id="edge3" class="edge">
<title>FinServ__Card__c:w&#45;&gt;Account:e</title>
<path fill="none" stroke="#ff99cc" d="M372.9101,-110.3669C282.8108,-108.7627 181.6422,-93.0392 131.7296,-84.295"/>
<polygon fill="#ff99cc" stroke="#ff99cc" points="379.555,-110.4273 387.522,-114.0999 383.5549,-110.4636 387.5547,-110.5 387.5547,-110.5 387.5547,-110.5 383.5549,-110.4636 387.5874,-106.9001 379.555,-110.4273 379.555,-110.4273"/>
<ellipse fill="none" stroke="#ff99cc" cx="376.3551" cy="-110.3982" rx="3.2" ry="3.2"/>
<text text-anchor="middle" x="293.4424" y="-114.3015" font-family="Monaco" font-size="9.00" fill="#000000">FinServ__AccountHolder__r</text>
</g>
</g>
</svg>
