<?xml version="1.0" encoding="UTF-8" standalone="no"?>
<!DOCTYPE svg PUBLIC "-//W3C//DTD SVG 1.1//EN"
 "http://www.w3.org/Graphics/SVG/1.1/DTD/svg11.dtd">
<!-- Generated by graphviz version 2.40.1 (20161225.0304)
 -->
<!-- Title: Salesforce+ ERD Pages: 1 -->
<svg width="1243pt" height="418pt"
 viewBox="0.00 0.00 1243.46 418.00" xmlns="http://www.w3.org/2000/svg" xmlns:xlink="http://www.w3.org/1999/xlink">
<g id="graph0" class="graph" transform="scale(1 1) rotate(0) translate(4 414)">
<title>Salesforce+ ERD</title>
<polygon fill="#efeffd" stroke="transparent" points="-4,4 -4,-414 1239.4556,-414 1239.4556,4 -4,4"/>
<text text-anchor="middle" x="1186.949" y="-5.8" font-family="Courier,monospace" font-size="9.00" fill="#000000">Salesforce ERD </text>
<!-- FinServ__FinancialAccountTransaction__c -->
<g id="node1" class="node">
<title>FinServ__FinancialAccountTransaction__c</title>
<g id="a_node1"><a xlink:href="#" xlink:title=" FinServ__FinancialAccountTransaction__c ">
<polygon fill="#ffeeff" stroke="transparent" points="391.4556,-17 391.4556,-410 1235.4556,-410 1235.4556,-17 391.4556,-17"/>
<polygon fill="#add8e6" stroke="transparent" points="392.4556,-391.5 392.4556,-408.5 1234.4556,-408.5 1234.4556,-391.5 392.4556,-391.5"/>
<polygon fill="none" stroke="#99ccff" points="392.4556,-391.5 392.4556,-408.5 1234.4556,-408.5 1234.4556,-391.5 392.4556,-391.5"/>
<text text-anchor="start" x="684.7346" y="-397.7" font-family="Courier,monospace" font-weight="bold" font-size="11.00" fill="#000000">FinServ__FinancialAccountTransaction__c</text>
<polygon fill="#99ccff" stroke="transparent" points="392.4556,-374.5 392.4556,-391.5 1143.4556,-391.5 1143.4556,-374.5 392.4556,-374.5"/>
<polygon fill="none" stroke="#99ccff" points="392.4556,-374.5 392.4556,-391.5 1143.4556,-391.5 1143.4556,-374.5 392.4556,-374.5"/>
<text text-anchor="start" x="395.4556" y="-380.7" font-family="Courier,monospace" font-size="11.00" fill="#000000"> &#160;&#160;&#160;&#160;&#160;&#160;&#160;&#160;&#160;&#160;&#160;&#160;&#160;&#160;&#160;&#160;&#160;&#160;&#160;&#160;&#160;&#160;&#160;&#160;&#160;&#160;&#160;&#160;&#160;&#160;&#160;&#160;&#160;&#160;&#160;&#160;&#160;&#160;&#160;&#160;&#160;&#160;</text>
<text text-anchor="start" x="679.3018" y="-380.7" font-family="Courier,monospace" font-weight="bold" font-size="11.00" fill="#000000">Id</text>
<text text-anchor="start" x="692.5039" y="-380.7" font-family="Courier,monospace" font-size="11.00" fill="#000000"> &#160;&#160;&#160;&#160;&#160;&#160;&#160;&#160;&#160;&#160;&#160;&#160;&#160;&#160;&#160;&#160;&#160;&#160;&#160;&#160;&#160;&#160;&#160;&#160;&#160;&#160;&#160;&#160;&#160;&#160;&#160;&#160;&#160;&#160;&#160;&#160;&#160;&#160;&#160;</text>
<polygon fill="none" stroke="#99ccff" points="1143.4556,-374.5 1143.4556,-391.5 1234.4556,-391.5 1234.4556,-374.5 1143.4556,-374.5"/>
<text text-anchor="start" x="1169.1523" y="-379.7" font-family="Courier,monospace" font-size="11.00" fill="#000000">id(18)</text>
<polygon fill="none" stroke="#99ccff" points="392.4556,-357.5 392.4556,-374.5 1143.4556,-374.5 1143.4556,-357.5 392.4556,-357.5"/>
<text text-anchor="start" x="395.4556" y="-362.7" font-family="Courier,monospace" font-size="11.00" fill="#000000"> &#160;&#160;&#160;&#160;&#160;&#160;&#160;&#160;&#160;&#160;&#160;&#160;&#160;&#160;&#160;&#160;&#160;&#160;&#160;&#160;&#160;&#160;&#160;&#160;&#160;&#160;&#160;&#160;&#160;&#160;&#160;&#160;&#160;&#160;&#160;&#160;&#160;&#160;&#160;&#160;OwnerId &#160;&#160;&#160;&#160;&#160;&#160;&#160;&#160;&#160;&#160;&#160;&#160;&#160;&#160;&#160;&#160;&#160;&#160;&#160;&#160;&#160;&#160;&#160;&#160;&#160;&#160;&#160;&#160;&#160;&#160;&#160;&#160;&#160;&#160;&#160;&#160;&#160;&#160;</text>
<polygon fill="none" stroke="#99ccff" points="1143.4556,-357.5 1143.4556,-374.5 1234.4556,-374.5 1234.4556,-357.5 1143.4556,-357.5"/>
<text text-anchor="start" x="1146.0486" y="-362.7" font-family="Courier,monospace" font-size="11.00" fill="#000000">reference(18)</text>
<polygon fill="none" stroke="#99ccff" points="392.4556,-340.5 392.4556,-357.5 1143.4556,-357.5 1143.4556,-340.5 392.4556,-340.5"/>
<text text-anchor="start" x="395.4556" y="-345.7" font-family="Courier,monospace" font-size="11.00" fill="#000000"> &#160;&#160;&#160;&#160;&#160;&#160;&#160;&#160;&#160;&#160;&#160;&#160;&#160;&#160;&#160;&#160;&#160;&#160;&#160;&#160;&#160;&#160;&#160;&#160;&#160;&#160;&#160;&#160;&#160;&#160;&#160;&#160;&#160;&#160;&#160;&#160;&#160;&#160;&#160;&#160;IsDeleted &#160;&#160;&#160;&#160;&#160;&#160;&#160;&#160;&#160;&#160;&#160;&#160;&#160;&#160;&#160;&#160;&#160;&#160;&#160;&#160;&#160;&#160;&#160;&#160;&#160;&#160;&#160;&#160;&#160;&#160;&#160;&#160;&#160;&#160;&#160;&#160;&#160;&#160;</text>
<polygon fill="none" stroke="#99ccff" points="1143.4556,-340.5 1143.4556,-357.5 1234.4556,-357.5 1234.4556,-340.5 1143.4556,-340.5"/>
<text text-anchor="start" x="1165.8518" y="-345.7" font-family="Courier,monospace" font-size="11.00" fill="#000000">boolean</text>
<polygon fill="none" stroke="#99ccff" points="392.4556,-323.5 392.4556,-340.5 1143.4556,-340.5 1143.4556,-323.5 392.4556,-323.5"/>
<text text-anchor="start" x="395.4556" y="-328.7" font-family="Courier,monospace" font-size="11.00" fill="#000000"> &#160;&#160;&#160;&#160;&#160;&#160;&#160;&#160;&#160;&#160;&#160;&#160;&#160;&#160;&#160;&#160;&#160;&#160;&#160;&#160;&#160;&#160;&#160;&#160;&#160;&#160;&#160;&#160;&#160;&#160;&#160;&#160;&#160;&#160;&#160;&#160;&#160;&#160;&#160;&#160;Name &#160;&#160;&#160;&#160;&#160;&#160;&#160;&#160;&#160;&#160;&#160;&#160;&#160;&#160;&#160;&#160;&#160;&#160;&#160;&#160;&#160;&#160;&#160;&#160;&#160;&#160;&#160;&#160;&#160;&#160;&#160;&#160;&#160;&#160;&#160;&#160;&#160;&#160;</text>
<polygon fill="none" stroke="#99ccff" points="1143.4556,-323.5 1143.4556,-340.5 1234.4556,-340.5 1234.4556,-323.5 1143.4556,-323.5"/>
<text text-anchor="start" x="1155.9502" y="-328.7" font-family="Courier,monospace" font-size="11.00" fill="#000000">string(80)</text>
<polygon fill="none" stroke="#99ccff" points="392.4556,-306.5 392.4556,-323.5 1143.4556,-323.5 1143.4556,-306.5 392.4556,-306.5"/>
<text text-anchor="start" x="395.4556" y="-311.7" font-family="Courier,monospace" font-size="11.00" fill="#000000"> &#160;&#160;&#160;&#160;&#160;&#160;&#160;&#160;&#160;&#160;&#160;&#160;&#160;&#160;&#160;&#160;&#160;&#160;&#160;&#160;&#160;&#160;&#160;&#160;&#160;&#160;&#160;&#160;&#160;&#160;&#160;&#160;&#160;&#160;&#160;&#160;&#160;&#160;&#160;&#160;LastModifiedById &#160;&#160;&#160;&#160;&#160;&#160;&#160;&#160;&#160;&#160;&#160;&#160;&#160;&#160;&#160;&#160;&#160;&#160;&#160;&#160;&#160;&#160;&#160;&#160;&#160;&#160;&#160;&#160;&#160;&#160;&#160;&#160;&#160;&#160;&#160;&#160;&#160;&#160;</text>
<polygon fill="none" stroke="#99ccff" points="1143.4556,-306.5 1143.4556,-323.5 1234.4556,-323.5 1234.4556,-306.5 1143.4556,-306.5"/>
<text text-anchor="start" x="1146.0486" y="-311.7" font-family="Courier,monospace" font-size="11.00" fill="#000000">reference(18)</text>
<polygon fill="none" stroke="#99ccff" points="392.4556,-289.5 392.4556,-306.5 1143.4556,-306.5 1143.4556,-289.5 392.4556,-289.5"/>
<text text-anchor="start" x="395.4556" y="-294.7" font-family="Courier,monospace" font-size="11.00" fill="#000000"> &#160;&#160;&#160;&#160;&#160;&#160;&#160;&#160;&#160;&#160;&#160;&#160;&#160;&#160;&#160;&#160;&#160;&#160;&#160;&#160;&#160;&#160;&#160;&#160;&#160;&#160;&#160;&#160;&#160;&#160;&#160;&#160;&#160;&#160;&#160;&#160;&#160;&#160;&#160;&#160;LastViewedDate &#160;&#160;&#160;&#160;&#160;&#160;&#160;&#160;&#160;&#160;&#160;&#160;&#160;&#160;&#160;&#160;&#160;&#160;&#160;&#160;&#160;&#160;&#160;&#160;&#160;&#160;&#160;&#160;&#160;&#160;&#160;&#160;&#160;&#160;&#160;&#160;&#160;&#160;</text>
<polygon fill="none" stroke="#99ccff" points="1143.4556,-289.5 1143.4556,-306.5 1234.4556,-306.5 1234.4556,-289.5 1143.4556,-289.5"/>
<text text-anchor="start" x="1162.5513" y="-294.7" font-family="Courier,monospace" font-size="11.00" fill="#000000">datetime</text>
<polygon fill="none" stroke="#99ccff" points="392.4556,-272.5 392.4556,-289.5 1143.4556,-289.5 1143.4556,-272.5 392.4556,-272.5"/>
<text text-anchor="start" x="395.4556" y="-277.7" font-family="Courier,monospace" font-size="11.00" fill="#000000"> &#160;&#160;&#160;&#160;&#160;&#160;&#160;&#160;&#160;&#160;&#160;&#160;&#160;&#160;&#160;&#160;&#160;&#160;&#160;&#160;&#160;&#160;&#160;&#160;&#160;&#160;&#160;&#160;&#160;&#160;&#160;&#160;&#160;&#160;&#160;&#160;&#160;&#160;&#160;&#160;LastReferencedDate &#160;&#160;&#160;&#160;&#160;&#160;&#160;&#160;&#160;&#160;&#160;&#160;&#160;&#160;&#160;&#160;&#160;&#160;&#160;&#160;&#160;&#160;&#160;&#160;&#160;&#160;&#160;&#160;&#160;&#160;&#160;&#160;&#160;&#160;&#160;&#160;&#160;&#160;</text>
<polygon fill="none" stroke="#99ccff" points="1143.4556,-272.5 1143.4556,-289.5 1234.4556,-289.5 1234.4556,-272.5 1143.4556,-272.5"/>
<text text-anchor="start" x="1162.5513" y="-277.7" font-family="Courier,monospace" font-size="11.00" fill="#000000">datetime</text>
<polygon fill="none" stroke="#99ccff" points="392.4556,-255.5 392.4556,-272.5 1143.4556,-272.5 1143.4556,-255.5 392.4556,-255.5"/>
<text text-anchor="start" x="395.4556" y="-260.7" font-family="Courier,monospace" font-size="11.00" fill="#000000"> &#160;&#160;&#160;&#160;&#160;&#160;&#160;&#160;&#160;&#160;&#160;&#160;&#160;&#160;&#160;&#160;&#160;&#160;&#160;&#160;&#160;&#160;&#160;&#160;&#160;&#160;&#160;&#160;&#160;&#160;&#160;&#160;&#160;&#160;&#160;&#160;&#160;&#160;&#160;&#160;FinServ__Amount__c &#160;&#160;&#160;&#160;&#160;&#160;&#160;&#160;&#160;&#160;&#160;&#160;&#160;&#160;&#160;&#160;&#160;&#160;&#160;&#160;&#160;&#160;&#160;&#160;&#160;&#160;&#160;&#160;&#160;&#160;&#160;&#160;&#160;&#160;&#160;&#160;&#160;&#160;</text>
<polygon fill="none" stroke="#99ccff" points="1143.4556,-255.5 1143.4556,-272.5 1234.4556,-272.5 1234.4556,-255.5 1143.4556,-255.5"/>
<text text-anchor="start" x="1162.5513" y="-260.7" font-family="Courier,monospace" font-size="11.00" fill="#000000">currency</text>
<polygon fill="none" stroke="#99ccff" points="392.4556,-238.5 392.4556,-255.5 1143.4556,-255.5 1143.4556,-238.5 392.4556,-238.5"/>
<text text-anchor="start" x="395.4556" y="-243.7" font-family="Courier,monospace" font-size="11.00" fill="#000000"> &#160;&#160;&#160;&#160;&#160;&#160;&#160;&#160;&#160;&#160;&#160;&#160;&#160;&#160;&#160;&#160;&#160;&#160;&#160;&#160;&#160;&#160;&#160;&#160;&#160;&#160;&#160;&#160;&#160;&#160;&#160;&#160;&#160;&#160;&#160;&#160;&#160;&#160;&#160;&#160;FinServ__BillingStatements__c &#160;&#160;&#160;&#160;&#160;&#160;&#160;&#160;&#160;&#160;&#160;&#160;&#160;&#160;&#160;&#160;&#160;&#160;&#160;&#160;&#160;&#160;&#160;&#160;&#160;&#160;&#160;&#160;&#160;&#160;&#160;&#160;&#160;&#160;&#160;&#160;&#160;&#160;</text>
<polygon fill="none" stroke="#99ccff" points="1143.4556,-238.5 1143.4556,-255.5 1234.4556,-255.5 1234.4556,-238.5 1143.4556,-238.5"/>
<text text-anchor="start" x="1146.0486" y="-243.7" font-family="Courier,monospace" font-size="11.00" fill="#000000">reference(18)</text>
<polygon fill="none" stroke="#99ccff" points="392.4556,-221.5 392.4556,-238.5 1143.4556,-238.5 1143.4556,-221.5 392.4556,-221.5"/>
<text text-anchor="start" x="395.4556" y="-226.7" font-family="Courier,monospace" font-size="11.00" fill="#000000"> &#160;&#160;&#160;&#160;&#160;&#160;&#160;&#160;&#160;&#160;&#160;&#160;&#160;&#160;&#160;&#160;&#160;&#160;&#160;&#160;&#160;&#160;&#160;&#160;&#160;&#160;&#160;&#160;&#160;&#160;&#160;&#160;&#160;&#160;&#160;&#160;&#160;&#160;&#160;&#160;FinServ__CardAccountID__c &#160;&#160;&#160;&#160;&#160;&#160;&#160;&#160;&#160;&#160;&#160;&#160;&#160;&#160;&#160;&#160;&#160;&#160;&#160;&#160;&#160;&#160;&#160;&#160;&#160;&#160;&#160;&#160;&#160;&#160;&#160;&#160;&#160;&#160;&#160;&#160;&#160;&#160;</text>
<polygon fill="none" stroke="#99ccff" points="1143.4556,-221.5 1143.4556,-238.5 1234.4556,-238.5 1234.4556,-221.5 1143.4556,-221.5"/>
<text text-anchor="start" x="1155.9502" y="-226.7" font-family="Courier,monospace" font-size="11.00" fill="#000000">string(40)</text>
<polygon fill="none" stroke="#99ccff" points="392.4556,-204.5 392.4556,-221.5 1143.4556,-221.5 1143.4556,-204.5 392.4556,-204.5"/>
<text text-anchor="start" x="395.4556" y="-209.7" font-family="Courier,monospace" font-size="11.00" fill="#000000"> &#160;&#160;&#160;&#160;&#160;&#160;&#160;&#160;&#160;&#160;&#160;&#160;&#160;&#160;&#160;&#160;&#160;&#160;&#160;&#160;&#160;&#160;&#160;&#160;&#160;&#160;&#160;&#160;&#160;&#160;&#160;&#160;&#160;&#160;&#160;&#160;&#160;&#160;&#160;&#160;FinServ__Description__c &#160;&#160;&#160;&#160;&#160;&#160;&#160;&#160;&#160;&#160;&#160;&#160;&#160;&#160;&#160;&#160;&#160;&#160;&#160;&#160;&#160;&#160;&#160;&#160;&#160;&#160;&#160;&#160;&#160;&#160;&#160;&#160;&#160;&#160;&#160;&#160;&#160;&#160;</text>
<polygon fill="none" stroke="#99ccff" points="1143.4556,-204.5 1143.4556,-221.5 1234.4556,-221.5 1234.4556,-204.5 1143.4556,-204.5"/>
<text text-anchor="start" x="1152.6497" y="-209.7" font-family="Courier,monospace" font-size="11.00" fill="#000000">string(255)</text>
<polygon fill="none" stroke="#99ccff" points="392.4556,-187.5 392.4556,-204.5 1143.4556,-204.5 1143.4556,-187.5 392.4556,-187.5"/>
<text text-anchor="start" x="395.4556" y="-192.7" font-family="Courier,monospace" font-size="11.00" fill="#000000"> &#160;&#160;&#160;&#160;&#160;&#160;&#160;&#160;&#160;&#160;&#160;&#160;&#160;&#160;&#160;&#160;&#160;&#160;&#160;&#160;&#160;&#160;&#160;&#160;&#160;&#160;&#160;&#160;&#160;&#160;&#160;&#160;&#160;&#160;&#160;&#160;&#160;&#160;&#160;&#160;FinServ__FinancialAccount__c &#160;&#160;&#160;&#160;&#160;&#160;&#160;&#160;&#160;&#160;&#160;&#160;&#160;&#160;&#160;&#160;&#160;&#160;&#160;&#160;&#160;&#160;&#160;&#160;&#160;&#160;&#160;&#160;&#160;&#160;&#160;&#160;&#160;&#160;&#160;&#160;&#160;&#160;</text>
<polygon fill="none" stroke="#99ccff" points="1143.4556,-187.5 1143.4556,-204.5 1234.4556,-204.5 1234.4556,-187.5 1143.4556,-187.5"/>
<text text-anchor="start" x="1146.0486" y="-192.7" font-family="Courier,monospace" font-size="11.00" fill="#000000">reference(18)</text>
<polygon fill="none" stroke="#99ccff" points="392.4556,-170.5 392.4556,-187.5 1143.4556,-187.5 1143.4556,-170.5 392.4556,-170.5"/>
<text text-anchor="start" x="395.4556" y="-175.7" font-family="Courier,monospace" font-size="11.00" fill="#000000"> &#160;&#160;&#160;&#160;&#160;&#160;&#160;&#160;&#160;&#160;&#160;&#160;&#160;&#160;&#160;&#160;&#160;&#160;&#160;&#160;&#160;&#160;&#160;&#160;&#160;&#160;&#160;&#160;&#160;&#160;&#160;&#160;&#160;&#160;&#160;&#160;&#160;&#160;&#160;&#160;FinServ__MerchantCategoryCode__c &#160;&#160;&#160;&#160;&#160;&#160;&#160;&#160;&#160;&#160;&#160;&#160;&#160;&#160;&#160;&#160;&#160;&#160;&#160;&#160;&#160;&#160;&#160;&#160;&#160;&#160;&#160;&#160;&#160;&#160;&#160;&#160;&#160;&#160;&#160;&#160;&#160;&#160;</text>
<polygon fill="none" stroke="#99ccff" points="1143.4556,-170.5 1143.4556,-187.5 1234.4556,-187.5 1234.4556,-170.5 1143.4556,-170.5"/>
<text text-anchor="start" x="1155.9502" y="-175.7" font-family="Courier,monospace" font-size="11.00" fill="#000000">string(10)</text>
<polygon fill="none" stroke="#99ccff" points="392.4556,-153.5 392.4556,-170.5 1143.4556,-170.5 1143.4556,-153.5 392.4556,-153.5"/>
<text text-anchor="start" x="395.4556" y="-158.7" font-family="Courier,monospace" font-size="11.00" fill="#000000"> &#160;&#160;&#160;&#160;&#160;&#160;&#160;&#160;&#160;&#160;&#160;&#160;&#160;&#160;&#160;&#160;&#160;&#160;&#160;&#160;&#160;&#160;&#160;&#160;&#160;&#160;&#160;&#160;&#160;&#160;&#160;&#160;&#160;&#160;&#160;&#160;&#160;&#160;&#160;&#160;FinServ__PostDate__c &#160;&#160;&#160;&#160;&#160;&#160;&#160;&#160;&#160;&#160;&#160;&#160;&#160;&#160;&#160;&#160;&#160;&#160;&#160;&#160;&#160;&#160;&#160;&#160;&#160;&#160;&#160;&#160;&#160;&#160;&#160;&#160;&#160;&#160;&#160;&#160;&#160;&#160;</text>
<polygon fill="none" stroke="#99ccff" points="1143.4556,-153.5 1143.4556,-170.5 1234.4556,-170.5 1234.4556,-153.5 1143.4556,-153.5"/>
<text text-anchor="start" x="1162.5513" y="-158.7" font-family="Courier,monospace" font-size="11.00" fill="#000000">datetime</text>
<polygon fill="none" stroke="#99ccff" points="392.4556,-136.5 392.4556,-153.5 1143.4556,-153.5 1143.4556,-136.5 392.4556,-136.5"/>
<text text-anchor="start" x="395.4556" y="-141.7" font-family="Courier,monospace" font-size="11.00" fill="#000000"> &#160;&#160;&#160;&#160;&#160;&#160;&#160;&#160;&#160;&#160;&#160;&#160;&#160;&#160;&#160;&#160;&#160;&#160;&#160;&#160;&#160;&#160;&#160;&#160;&#160;&#160;&#160;&#160;&#160;&#160;&#160;&#160;&#160;&#160;&#160;&#160;&#160;&#160;&#160;&#160;FinServ__RunningBalance__c &#160;&#160;&#160;&#160;&#160;&#160;&#160;&#160;&#160;&#160;&#160;&#160;&#160;&#160;&#160;&#160;&#160;&#160;&#160;&#160;&#160;&#160;&#160;&#160;&#160;&#160;&#160;&#160;&#160;&#160;&#160;&#160;&#160;&#160;&#160;&#160;&#160;&#160;</text>
<polygon fill="none" stroke="#99ccff" points="1143.4556,-136.5 1143.4556,-153.5 1234.4556,-153.5 1234.4556,-136.5 1143.4556,-136.5"/>
<text text-anchor="start" x="1162.5513" y="-141.7" font-family="Courier,monospace" font-size="11.00" fill="#000000">currency</text>
<polygon fill="none" stroke="#99ccff" points="392.4556,-119.5 392.4556,-136.5 1143.4556,-136.5 1143.4556,-119.5 392.4556,-119.5"/>
<text text-anchor="start" x="395.4556" y="-124.7" font-family="Courier,monospace" font-size="11.00" fill="#000000"> &#160;&#160;&#160;&#160;&#160;&#160;&#160;&#160;&#160;&#160;&#160;&#160;&#160;&#160;&#160;&#160;&#160;&#160;&#160;&#160;&#160;&#160;&#160;&#160;&#160;&#160;&#160;&#160;&#160;&#160;&#160;&#160;&#160;&#160;&#160;&#160;&#160;&#160;&#160;&#160;FinServ__SourceSystemId__c &#160;&#160;&#160;&#160;&#160;&#160;&#160;&#160;&#160;&#160;&#160;&#160;&#160;&#160;&#160;&#160;&#160;&#160;&#160;&#160;&#160;&#160;&#160;&#160;&#160;&#160;&#160;&#160;&#160;&#160;&#160;&#160;&#160;&#160;&#160;&#160;&#160;&#160;</text>
<polygon fill="none" stroke="#99ccff" points="1143.4556,-119.5 1143.4556,-136.5 1234.4556,-136.5 1234.4556,-119.5 1143.4556,-119.5"/>
<text text-anchor="start" x="1152.6497" y="-124.7" font-family="Courier,monospace" font-size="11.00" fill="#000000">string(100)</text>
<polygon fill="none" stroke="#99ccff" points="392.4556,-102.5 392.4556,-119.5 1143.4556,-119.5 1143.4556,-102.5 392.4556,-102.5"/>
<text text-anchor="start" x="394.9949" y="-107.7" font-family="Courier,monospace" font-size="11.00" fill="#000000"> &#160;&#160;&#160;&#160;&#160;&#160;&#160;&#160;&#160;&#160;&#160;&#160;&#160;&#160;&#160;&#160;&#160;&#160;&#160;&#160;&#160;&#160;&#160;&#160;&#160;&#160;&#160;&#160;&#160;&#160;&#160;&#160;&#160;&#160;&#160;&#160;&#160;&#160;&#160;&#160;FinServ__SourceTransactionType__c &#160;&#160;&#160;&#160;&#160;&#160;&#160;&#160;&#160;&#160;&#160;&#160;&#160;&#160;&#160;&#160;&#160;&#160;&#160;&#160;&#160;&#160;&#160;&#160;&#160;&#160;&#160;&#160;&#160;&#160;&#160;&#160;&#160;&#160;&#160;&#160;&#160;&#160;</text>
<polygon fill="none" stroke="#99ccff" points="1143.4556,-102.5 1143.4556,-119.5 1234.4556,-119.5 1234.4556,-102.5 1143.4556,-102.5"/>
<text text-anchor="start" x="1155.9502" y="-107.7" font-family="Courier,monospace" font-size="11.00" fill="#000000">string(80)</text>
<polygon fill="none" stroke="#99ccff" points="392.4556,-85.5 392.4556,-102.5 1143.4556,-102.5 1143.4556,-85.5 392.4556,-85.5"/>
<text text-anchor="start" x="395.4556" y="-90.7" font-family="Courier,monospace" font-size="11.00" fill="#000000"> &#160;&#160;&#160;&#160;&#160;&#160;&#160;&#160;&#160;&#160;&#160;&#160;&#160;&#160;&#160;&#160;&#160;&#160;&#160;&#160;&#160;&#160;&#160;&#160;&#160;&#160;&#160;&#160;&#160;&#160;&#160;&#160;&#160;&#160;&#160;&#160;&#160;&#160;&#160;&#160;FinServ__TransactionDate__c &#160;&#160;&#160;&#160;&#160;&#160;&#160;&#160;&#160;&#160;&#160;&#160;&#160;&#160;&#160;&#160;&#160;&#160;&#160;&#160;&#160;&#160;&#160;&#160;&#160;&#160;&#160;&#160;&#160;&#160;&#160;&#160;&#160;&#160;&#160;&#160;&#160;&#160;</text>
<polygon fill="none" stroke="#99ccff" points="1143.4556,-85.5 1143.4556,-102.5 1234.4556,-102.5 1234.4556,-85.5 1143.4556,-85.5"/>
<text text-anchor="start" x="1162.5513" y="-90.7" font-family="Courier,monospace" font-size="11.00" fill="#000000">datetime</text>
<polygon fill="none" stroke="#99ccff" points="392.4556,-68.5 392.4556,-85.5 1143.4556,-85.5 1143.4556,-68.5 392.4556,-68.5"/>
<text text-anchor="start" x="395.4556" y="-73.7" font-family="Courier,monospace" font-size="11.00" fill="#000000"> &#160;&#160;&#160;&#160;&#160;&#160;&#160;&#160;&#160;&#160;&#160;&#160;&#160;&#160;&#160;&#160;&#160;&#160;&#160;&#160;&#160;&#160;&#160;&#160;&#160;&#160;&#160;&#160;&#160;&#160;&#160;&#160;&#160;&#160;&#160;&#160;&#160;&#160;&#160;&#160;FinServ__TransactionId__c &#160;&#160;&#160;&#160;&#160;&#160;&#160;&#160;&#160;&#160;&#160;&#160;&#160;&#160;&#160;&#160;&#160;&#160;&#160;&#160;&#160;&#160;&#160;&#160;&#160;&#160;&#160;&#160;&#160;&#160;&#160;&#160;&#160;&#160;&#160;&#160;&#160;&#160;</text>
<polygon fill="none" stroke="#99ccff" points="1143.4556,-68.5 1143.4556,-85.5 1234.4556,-85.5 1234.4556,-68.5 1143.4556,-68.5"/>
<text text-anchor="start" x="1155.9502" y="-73.7" font-family="Courier,monospace" font-size="11.00" fill="#000000">string(80)</text>
<polygon fill="none" stroke="#99ccff" points="392.4556,-51.5 392.4556,-68.5 1143.4556,-68.5 1143.4556,-51.5 392.4556,-51.5"/>
<text text-anchor="start" x="395.4556" y="-56.7" font-family="Courier,monospace" font-size="11.00" fill="#000000"> &#160;&#160;&#160;&#160;&#160;&#160;&#160;&#160;&#160;&#160;&#160;&#160;&#160;&#160;&#160;&#160;&#160;&#160;&#160;&#160;&#160;&#160;&#160;&#160;&#160;&#160;&#160;&#160;&#160;&#160;&#160;&#160;&#160;&#160;&#160;&#160;&#160;&#160;&#160;&#160;FinServ__TransactionStatus__c &#160;&#160;&#160;&#160;&#160;&#160;&#160;&#160;&#160;&#160;&#160;&#160;&#160;&#160;&#160;&#160;&#160;&#160;&#160;&#160;&#160;&#160;&#160;&#160;&#160;&#160;&#160;&#160;&#160;&#160;&#160;&#160;&#160;&#160;&#160;&#160;&#160;&#160;</text>
<polygon fill="none" stroke="#99ccff" points="1143.4556,-51.5 1143.4556,-68.5 1234.4556,-68.5 1234.4556,-51.5 1143.4556,-51.5"/>
<text text-anchor="start" x="1146.0486" y="-56.7" font-family="Courier,monospace" font-size="11.00" fill="#000000">picklist(255)</text>
<polygon fill="none" stroke="#99ccff" points="392.4556,-34.5 392.4556,-51.5 1143.4556,-51.5 1143.4556,-34.5 392.4556,-34.5"/>
<text text-anchor="start" x="395.4556" y="-39.7" font-family="Courier,monospace" font-size="11.00" fill="#000000"> &#160;&#160;&#160;&#160;&#160;&#160;&#160;&#160;&#160;&#160;&#160;&#160;&#160;&#160;&#160;&#160;&#160;&#160;&#160;&#160;&#160;&#160;&#160;&#160;&#160;&#160;&#160;&#160;&#160;&#160;&#160;&#160;&#160;&#160;&#160;&#160;&#160;&#160;&#160;&#160;FinServ__TransactionSubtype__c &#160;&#160;&#160;&#160;&#160;&#160;&#160;&#160;&#160;&#160;&#160;&#160;&#160;&#160;&#160;&#160;&#160;&#160;&#160;&#160;&#160;&#160;&#160;&#160;&#160;&#160;&#160;&#160;&#160;&#160;&#160;&#160;&#160;&#160;&#160;&#160;&#160;&#160;</text>
<polygon fill="none" stroke="#99ccff" points="1143.4556,-34.5 1143.4556,-51.5 1234.4556,-51.5 1234.4556,-34.5 1143.4556,-34.5"/>
<text text-anchor="start" x="1146.0486" y="-39.7" font-family="Courier,monospace" font-size="11.00" fill="#000000">picklist(255)</text>
<polygon fill="none" stroke="#99ccff" points="392.4556,-17.5 392.4556,-34.5 1143.4556,-34.5 1143.4556,-17.5 392.4556,-17.5"/>
<text text-anchor="start" x="395.4556" y="-22.7" font-family="Courier,monospace" font-size="11.00" fill="#000000"> &#160;&#160;&#160;&#160;&#160;&#160;&#160;&#160;&#160;&#160;&#160;&#160;&#160;&#160;&#160;&#160;&#160;&#160;&#160;&#160;&#160;&#160;&#160;&#160;&#160;&#160;&#160;&#160;&#160;&#160;&#160;&#160;&#160;&#160;&#160;&#160;&#160;&#160;&#160;&#160;FinServ__TransactionType__c &#160;&#160;&#160;&#160;&#160;&#160;&#160;&#160;&#160;&#160;&#160;&#160;&#160;&#160;&#160;&#160;&#160;&#160;&#160;&#160;&#160;&#160;&#160;&#160;&#160;&#160;&#160;&#160;&#160;&#160;&#160;&#160;&#160;&#160;&#160;&#160;&#160;&#160;</text>
<polygon fill="none" stroke="#99ccff" points="1143.4556,-17.5 1143.4556,-34.5 1234.4556,-34.5 1234.4556,-17.5 1143.4556,-17.5"/>
<text text-anchor="start" x="1146.0486" y="-22.7" font-family="Courier,monospace" font-size="11.00" fill="#000000">picklist(255)</text>
<polygon fill="none" stroke="#99ccff" points="391.4556,-17 391.4556,-410 1235.4556,-410 1235.4556,-17 391.4556,-17"/>
</a>
</g>
</g>
<!-- Group -->
<g id="node2" class="node">
<title>Group</title>
<text text-anchor="middle" x="100.415" y="-372.2" font-family="Courier,monospace" font-size="11.00" fill="#000000">Group</text>
</g>
<!-- FinServ__FinancialAccountTransaction__c&#45;&gt;Group -->
<g id="edge1" class="edge">
<title>FinServ__FinancialAccountTransaction__c:w&#45;&gt;Group:e</title>
<path fill="none" stroke="#ff99cc" d="M377.7785,-366.5367C283.7085,-366.998 176.9113,-371.6886 127.7852,-374.0938"/>
<polygon fill="#ff99cc" stroke="#ff99cc" points="384.4556,-366.5201 392.4646,-370.1 388.4556,-366.51 392.4556,-366.5 392.4556,-366.5 392.4556,-366.5 388.4556,-366.51 392.4465,-362.9 384.4556,-366.5201 384.4556,-366.5201"/>
<ellipse fill="none" stroke="#ff99cc" cx="381.2556" cy="-366.5281" rx="3.2" ry="3.2"/>
<text text-anchor="middle" x="296.1428" y="-374.3015" font-family="Monaco" font-size="9.00" fill="#000000">Owner</text>
</g>
<!-- User -->
<g id="node3" class="node">
<title>User</title>
<text text-anchor="middle" x="100.415" y="-318.2" font-family="Courier,monospace" font-size="11.00" fill="#000000">User</text>
</g>
<!-- FinServ__FinancialAccountTransaction__c&#45;&gt;User -->
<g id="edge2" class="edge">
<title>FinServ__FinancialAccountTransaction__c:w&#45;&gt;User:e</title>
<path fill="none" stroke="#ff99cc" d="M382.0271,-356.5483C380.551,-353.0933 378.7036,-349.5691 374.4556,-347.4985 352.6002,-336.8461 192.325,-326.7009 127.5063,-322.9878"/>
<polygon fill="#ff99cc" stroke="#ff99cc" points="386.6679,-360.977 389.9702,-369.1044 389.5617,-363.7385 392.4556,-366.5 392.4556,-366.5 392.4556,-366.5 389.5617,-363.7385 394.9409,-363.8956 386.6679,-360.977 386.6679,-360.977"/>
<ellipse fill="none" stroke="#ff99cc" cx="384.3529" cy="-358.7678" rx="3.2" ry="3.2"/>
<text text-anchor="middle" x="296.1428" y="-351.3015" font-family="Monaco" font-size="9.00" fill="#000000">Owner</text>
</g>
<!-- FinServ__FinancialAccountTransaction__c&#45;&gt;User -->
<g id="edge3" class="edge">
<title>FinServ__FinancialAccountTransaction__c:w&#45;&gt;User:e</title>
<path fill="none" stroke="#ff99cc" d="M378.1192,-313.8131C377.0374,-313.6845 375.8369,-313.5751 374.4556,-313.4985 304.9509,-309.6462 287.4011,-311.1308 217.8301,-313.4985 186.7917,-314.5549 151.218,-317.1777 127.4369,-319.1343"/>
<polygon fill="#ff99cc" stroke="#ff99cc" points="384.5104,-314.5651 392.0349,-319.0753 388.483,-315.0325 392.4556,-315.5 392.4556,-315.5 392.4556,-315.5 388.483,-315.0325 392.8763,-311.9247 384.5104,-314.5651 384.5104,-314.5651"/>
<ellipse fill="none" stroke="#ff99cc" cx="381.3323" cy="-314.1911" rx="3.2" ry="3.2"/>
<text text-anchor="middle" x="296.1428" y="-317.3015" font-family="Monaco" font-size="9.00" fill="#000000">LastModifiedBy</text>
</g>
<!-- FinServ__BillingStatement__c -->
<g id="node4" class="node">
<title>FinServ__BillingStatement__c</title>
<text text-anchor="middle" x="100.415" y="-244.2" font-family="Courier,monospace" font-size="11.00" fill="#000000">FinServ__BillingStatement__c</text>
</g>
<!-- FinServ__FinancialAccountTransaction__c&#45;&gt;FinServ__BillingStatement__c -->
<g id="edge4" class="edge">
<title>FinServ__FinancialAccountTransaction__c:w&#45;&gt;FinServ__BillingStatement__c:e</title>
<path fill="none" stroke="#ff99cc" d="M377.76,-247.5C317.8811,-247.5 252.8202,-247.5 200.7713,-247.5"/>
<polygon fill="#ff99cc" stroke="#ff99cc" points="384.4556,-247.5001 392.4556,-251.1 388.4556,-247.5 392.4556,-247.5 392.4556,-247.5 392.4556,-247.5 388.4556,-247.5 392.4555,-243.9 384.4556,-247.5001 384.4556,-247.5001"/>
<ellipse fill="none" stroke="#ff99cc" cx="381.2556" cy="-247.5001" rx="3.2" ry="3.2"/>
<text text-anchor="middle" x="296.1428" y="-252.3015" font-family="Monaco" font-size="9.00" fill="#000000">FinServ__BillingStatements__r</text>
</g>
<!-- FinServ__FinancialAccount__c -->
<g id="node5" class="node">
<title>FinServ__FinancialAccount__c</title>
<text text-anchor="middle" x="100.415" y="-192.2" font-family="Courier,monospace" font-size="11.00" fill="#000000">FinServ__FinancialAccount__c</text>
</g>
<!-- FinServ__FinancialAccountTransaction__c&#45;&gt;FinServ__FinancialAccount__c -->
<g id="edge5" class="edge">
<title>FinServ__FinancialAccountTransaction__c:w&#45;&gt;FinServ__FinancialAccount__c:e</title>
<path fill="none" stroke="#ff99cc" d="M377.76,-195.5C317.8811,-195.5 252.8202,-195.5 200.7713,-195.5"/>
<polygon fill="#ff99cc" stroke="#ff99cc" points="384.4556,-195.5001 392.4556,-199.1 388.4556,-195.5 392.4556,-195.5 392.4556,-195.5 392.4556,-195.5 388.4556,-195.5 392.4555,-191.9 384.4556,-195.5001 384.4556,-195.5001"/>
<ellipse fill="none" stroke="#ff99cc" cx="381.2556" cy="-195.5001" rx="3.2" ry="3.2"/>
<text text-anchor="middle" x="296.1428" y="-200.3015" font-family="Monaco" font-size="9.00" fill="#000000">FinServ__FinancialAccount__r</text>
</g>
</g>
</svg>
