<?xml version="1.0" encoding="UTF-8" standalone="no"?>
<!DOCTYPE svg PUBLIC "-//W3C//DTD SVG 1.1//EN"
 "http://www.w3.org/Graphics/SVG/1.1/DTD/svg11.dtd">
<!-- Generated by graphviz version 2.40.1 (20161225.0304)
 -->
<!-- Title: Salesforce+ ERD Pages: 1 -->
<svg width="1205pt" height="282pt"
 viewBox="0.00 0.00 1205.05 282.00" xmlns="http://www.w3.org/2000/svg" xmlns:xlink="http://www.w3.org/1999/xlink">
<g id="graph0" class="graph" transform="scale(1 1) rotate(0) translate(4 278)">
<title>Salesforce+ ERD</title>
<polygon fill="#efeffd" stroke="transparent" points="-4,4 -4,-278 1201.0547,-278 1201.0547,4 -4,4"/>
<text text-anchor="middle" x="1148.5481" y="-5.8" font-family="Courier,monospace" font-size="9.00" fill="#000000">Salesforce ERD </text>
<!-- FinServ__Revenue__c -->
<g id="node1" class="node">
<title>FinServ__Revenue__c</title>
<g id="a_node1"><a xlink:href="#" xlink:title=" FinServ__Revenue__c ">
<polygon fill="#ffeeff" stroke="transparent" points="386.0547,-17 386.0547,-274 1197.0547,-274 1197.0547,-17 386.0547,-17"/>
<polygon fill="#add8e6" stroke="transparent" points="387.5547,-255.5 387.5547,-272.5 1196.5547,-272.5 1196.5547,-255.5 387.5547,-255.5"/>
<polygon fill="none" stroke="#99ccff" points="387.5547,-255.5 387.5547,-272.5 1196.5547,-272.5 1196.5547,-255.5 387.5547,-255.5"/>
<text text-anchor="start" x="729.3445" y="-261.7" font-family="Courier,monospace" font-weight="bold" font-size="11.00" fill="#000000">FinServ__Revenue__c</text>
<polygon fill="#99ccff" stroke="transparent" points="387.5547,-238.5 387.5547,-255.5 1105.5547,-255.5 1105.5547,-238.5 387.5547,-238.5"/>
<polygon fill="none" stroke="#99ccff" points="387.5547,-238.5 387.5547,-255.5 1105.5547,-255.5 1105.5547,-238.5 387.5547,-238.5"/>
<text text-anchor="start" x="390.5547" y="-244.7" font-family="Courier,monospace" font-size="11.00" fill="#000000"> &#160;&#160;&#160;&#160;&#160;&#160;&#160;&#160;&#160;&#160;&#160;&#160;&#160;&#160;&#160;&#160;&#160;&#160;&#160;&#160;&#160;&#160;&#160;&#160;&#160;&#160;&#160;&#160;&#160;&#160;&#160;&#160;&#160;&#160;&#160;&#160;&#160;&#160;&#160;&#160;&#160;&#160;</text>
<text text-anchor="start" x="674.4009" y="-244.7" font-family="Courier,monospace" font-weight="bold" font-size="11.00" fill="#000000">Id</text>
<text text-anchor="start" x="687.603" y="-244.7" font-family="Courier,monospace" font-size="11.00" fill="#000000"> &#160;&#160;&#160;&#160;&#160;&#160;&#160;&#160;&#160;&#160;&#160;&#160;&#160;&#160;&#160;&#160;&#160;&#160;&#160;&#160;&#160;&#160;&#160;&#160;&#160;&#160;&#160;&#160;&#160;&#160;&#160;&#160;&#160;&#160;&#160;&#160;&#160;&#160;&#160;</text>
<polygon fill="none" stroke="#99ccff" points="1105.5547,-238.5 1105.5547,-255.5 1196.5547,-255.5 1196.5547,-238.5 1105.5547,-238.5"/>
<text text-anchor="start" x="1131.2515" y="-243.7" font-family="Courier,monospace" font-size="11.00" fill="#000000">id(18)</text>
<polygon fill="none" stroke="#99ccff" points="387.5547,-221.5 387.5547,-238.5 1105.5547,-238.5 1105.5547,-221.5 387.5547,-221.5"/>
<text text-anchor="start" x="390.5547" y="-226.7" font-family="Courier,monospace" font-size="11.00" fill="#000000"> &#160;&#160;&#160;&#160;&#160;&#160;&#160;&#160;&#160;&#160;&#160;&#160;&#160;&#160;&#160;&#160;&#160;&#160;&#160;&#160;&#160;&#160;&#160;&#160;&#160;&#160;&#160;&#160;&#160;&#160;&#160;&#160;&#160;&#160;&#160;&#160;&#160;&#160;&#160;&#160;OwnerId &#160;&#160;&#160;&#160;&#160;&#160;&#160;&#160;&#160;&#160;&#160;&#160;&#160;&#160;&#160;&#160;&#160;&#160;&#160;&#160;&#160;&#160;&#160;&#160;&#160;&#160;&#160;&#160;&#160;&#160;&#160;&#160;&#160;&#160;&#160;&#160;&#160;&#160;</text>
<polygon fill="none" stroke="#99ccff" points="1105.5547,-221.5 1105.5547,-238.5 1196.5547,-238.5 1196.5547,-221.5 1105.5547,-221.5"/>
<text text-anchor="start" x="1108.1477" y="-226.7" font-family="Courier,monospace" font-size="11.00" fill="#000000">reference(18)</text>
<polygon fill="none" stroke="#99ccff" points="387.5547,-204.5 387.5547,-221.5 1105.5547,-221.5 1105.5547,-204.5 387.5547,-204.5"/>
<text text-anchor="start" x="390.5547" y="-209.7" font-family="Courier,monospace" font-size="11.00" fill="#000000"> &#160;&#160;&#160;&#160;&#160;&#160;&#160;&#160;&#160;&#160;&#160;&#160;&#160;&#160;&#160;&#160;&#160;&#160;&#160;&#160;&#160;&#160;&#160;&#160;&#160;&#160;&#160;&#160;&#160;&#160;&#160;&#160;&#160;&#160;&#160;&#160;&#160;&#160;&#160;&#160;IsDeleted &#160;&#160;&#160;&#160;&#160;&#160;&#160;&#160;&#160;&#160;&#160;&#160;&#160;&#160;&#160;&#160;&#160;&#160;&#160;&#160;&#160;&#160;&#160;&#160;&#160;&#160;&#160;&#160;&#160;&#160;&#160;&#160;&#160;&#160;&#160;&#160;&#160;&#160;</text>
<polygon fill="none" stroke="#99ccff" points="1105.5547,-204.5 1105.5547,-221.5 1196.5547,-221.5 1196.5547,-204.5 1105.5547,-204.5"/>
<text text-anchor="start" x="1127.9509" y="-209.7" font-family="Courier,monospace" font-size="11.00" fill="#000000">boolean</text>
<polygon fill="none" stroke="#99ccff" points="387.5547,-187.5 387.5547,-204.5 1105.5547,-204.5 1105.5547,-187.5 387.5547,-187.5"/>
<text text-anchor="start" x="390.5547" y="-192.7" font-family="Courier,monospace" font-size="11.00" fill="#000000"> &#160;&#160;&#160;&#160;&#160;&#160;&#160;&#160;&#160;&#160;&#160;&#160;&#160;&#160;&#160;&#160;&#160;&#160;&#160;&#160;&#160;&#160;&#160;&#160;&#160;&#160;&#160;&#160;&#160;&#160;&#160;&#160;&#160;&#160;&#160;&#160;&#160;&#160;&#160;&#160;Name &#160;&#160;&#160;&#160;&#160;&#160;&#160;&#160;&#160;&#160;&#160;&#160;&#160;&#160;&#160;&#160;&#160;&#160;&#160;&#160;&#160;&#160;&#160;&#160;&#160;&#160;&#160;&#160;&#160;&#160;&#160;&#160;&#160;&#160;&#160;&#160;&#160;&#160;</text>
<polygon fill="none" stroke="#99ccff" points="1105.5547,-187.5 1105.5547,-204.5 1196.5547,-204.5 1196.5547,-187.5 1105.5547,-187.5"/>
<text text-anchor="start" x="1118.0493" y="-192.7" font-family="Courier,monospace" font-size="11.00" fill="#000000">string(80)</text>
<polygon fill="none" stroke="#99ccff" points="387.5547,-170.5 387.5547,-187.5 1105.5547,-187.5 1105.5547,-170.5 387.5547,-170.5"/>
<text text-anchor="start" x="390.5547" y="-175.7" font-family="Courier,monospace" font-size="11.00" fill="#000000"> &#160;&#160;&#160;&#160;&#160;&#160;&#160;&#160;&#160;&#160;&#160;&#160;&#160;&#160;&#160;&#160;&#160;&#160;&#160;&#160;&#160;&#160;&#160;&#160;&#160;&#160;&#160;&#160;&#160;&#160;&#160;&#160;&#160;&#160;&#160;&#160;&#160;&#160;&#160;&#160;LastModifiedById &#160;&#160;&#160;&#160;&#160;&#160;&#160;&#160;&#160;&#160;&#160;&#160;&#160;&#160;&#160;&#160;&#160;&#160;&#160;&#160;&#160;&#160;&#160;&#160;&#160;&#160;&#160;&#160;&#160;&#160;&#160;&#160;&#160;&#160;&#160;&#160;&#160;&#160;</text>
<polygon fill="none" stroke="#99ccff" points="1105.5547,-170.5 1105.5547,-187.5 1196.5547,-187.5 1196.5547,-170.5 1105.5547,-170.5"/>
<text text-anchor="start" x="1108.1477" y="-175.7" font-family="Courier,monospace" font-size="11.00" fill="#000000">reference(18)</text>
<polygon fill="none" stroke="#99ccff" points="387.5547,-153.5 387.5547,-170.5 1105.5547,-170.5 1105.5547,-153.5 387.5547,-153.5"/>
<text text-anchor="start" x="390.5547" y="-158.7" font-family="Courier,monospace" font-size="11.00" fill="#000000"> &#160;&#160;&#160;&#160;&#160;&#160;&#160;&#160;&#160;&#160;&#160;&#160;&#160;&#160;&#160;&#160;&#160;&#160;&#160;&#160;&#160;&#160;&#160;&#160;&#160;&#160;&#160;&#160;&#160;&#160;&#160;&#160;&#160;&#160;&#160;&#160;&#160;&#160;&#160;&#160;LastViewedDate &#160;&#160;&#160;&#160;&#160;&#160;&#160;&#160;&#160;&#160;&#160;&#160;&#160;&#160;&#160;&#160;&#160;&#160;&#160;&#160;&#160;&#160;&#160;&#160;&#160;&#160;&#160;&#160;&#160;&#160;&#160;&#160;&#160;&#160;&#160;&#160;&#160;&#160;</text>
<polygon fill="none" stroke="#99ccff" points="1105.5547,-153.5 1105.5547,-170.5 1196.5547,-170.5 1196.5547,-153.5 1105.5547,-153.5"/>
<text text-anchor="start" x="1124.6504" y="-158.7" font-family="Courier,monospace" font-size="11.00" fill="#000000">datetime</text>
<polygon fill="none" stroke="#99ccff" points="387.5547,-136.5 387.5547,-153.5 1105.5547,-153.5 1105.5547,-136.5 387.5547,-136.5"/>
<text text-anchor="start" x="390.5547" y="-141.7" font-family="Courier,monospace" font-size="11.00" fill="#000000"> &#160;&#160;&#160;&#160;&#160;&#160;&#160;&#160;&#160;&#160;&#160;&#160;&#160;&#160;&#160;&#160;&#160;&#160;&#160;&#160;&#160;&#160;&#160;&#160;&#160;&#160;&#160;&#160;&#160;&#160;&#160;&#160;&#160;&#160;&#160;&#160;&#160;&#160;&#160;&#160;LastReferencedDate &#160;&#160;&#160;&#160;&#160;&#160;&#160;&#160;&#160;&#160;&#160;&#160;&#160;&#160;&#160;&#160;&#160;&#160;&#160;&#160;&#160;&#160;&#160;&#160;&#160;&#160;&#160;&#160;&#160;&#160;&#160;&#160;&#160;&#160;&#160;&#160;&#160;&#160;</text>
<polygon fill="none" stroke="#99ccff" points="1105.5547,-136.5 1105.5547,-153.5 1196.5547,-153.5 1196.5547,-136.5 1105.5547,-136.5"/>
<text text-anchor="start" x="1124.6504" y="-141.7" font-family="Courier,monospace" font-size="11.00" fill="#000000">datetime</text>
<polygon fill="none" stroke="#99ccff" points="387.5547,-119.5 387.5547,-136.5 1105.5547,-136.5 1105.5547,-119.5 387.5547,-119.5"/>
<text text-anchor="start" x="390.5547" y="-124.7" font-family="Courier,monospace" font-size="11.00" fill="#000000"> &#160;&#160;&#160;&#160;&#160;&#160;&#160;&#160;&#160;&#160;&#160;&#160;&#160;&#160;&#160;&#160;&#160;&#160;&#160;&#160;&#160;&#160;&#160;&#160;&#160;&#160;&#160;&#160;&#160;&#160;&#160;&#160;&#160;&#160;&#160;&#160;&#160;&#160;&#160;&#160;FinServ__Account__c &#160;&#160;&#160;&#160;&#160;&#160;&#160;&#160;&#160;&#160;&#160;&#160;&#160;&#160;&#160;&#160;&#160;&#160;&#160;&#160;&#160;&#160;&#160;&#160;&#160;&#160;&#160;&#160;&#160;&#160;&#160;&#160;&#160;&#160;&#160;&#160;&#160;&#160;</text>
<polygon fill="none" stroke="#99ccff" points="1105.5547,-119.5 1105.5547,-136.5 1196.5547,-136.5 1196.5547,-119.5 1105.5547,-119.5"/>
<text text-anchor="start" x="1108.1477" y="-124.7" font-family="Courier,monospace" font-size="11.00" fill="#000000">reference(18)</text>
<polygon fill="none" stroke="#99ccff" points="387.5547,-102.5 387.5547,-119.5 1105.5547,-119.5 1105.5547,-102.5 387.5547,-102.5"/>
<text text-anchor="start" x="390.5547" y="-107.7" font-family="Courier,monospace" font-size="11.00" fill="#000000"> &#160;&#160;&#160;&#160;&#160;&#160;&#160;&#160;&#160;&#160;&#160;&#160;&#160;&#160;&#160;&#160;&#160;&#160;&#160;&#160;&#160;&#160;&#160;&#160;&#160;&#160;&#160;&#160;&#160;&#160;&#160;&#160;&#160;&#160;&#160;&#160;&#160;&#160;&#160;&#160;FinServ__Amount__c &#160;&#160;&#160;&#160;&#160;&#160;&#160;&#160;&#160;&#160;&#160;&#160;&#160;&#160;&#160;&#160;&#160;&#160;&#160;&#160;&#160;&#160;&#160;&#160;&#160;&#160;&#160;&#160;&#160;&#160;&#160;&#160;&#160;&#160;&#160;&#160;&#160;&#160;</text>
<polygon fill="none" stroke="#99ccff" points="1105.5547,-102.5 1105.5547,-119.5 1196.5547,-119.5 1196.5547,-102.5 1105.5547,-102.5"/>
<text text-anchor="start" x="1124.6504" y="-107.7" font-family="Courier,monospace" font-size="11.00" fill="#000000">currency</text>
<polygon fill="none" stroke="#99ccff" points="387.5547,-85.5 387.5547,-102.5 1105.5547,-102.5 1105.5547,-85.5 387.5547,-85.5"/>
<text text-anchor="start" x="390.5547" y="-90.7" font-family="Courier,monospace" font-size="11.00" fill="#000000"> &#160;&#160;&#160;&#160;&#160;&#160;&#160;&#160;&#160;&#160;&#160;&#160;&#160;&#160;&#160;&#160;&#160;&#160;&#160;&#160;&#160;&#160;&#160;&#160;&#160;&#160;&#160;&#160;&#160;&#160;&#160;&#160;&#160;&#160;&#160;&#160;&#160;&#160;&#160;&#160;FinServ__Date__c &#160;&#160;&#160;&#160;&#160;&#160;&#160;&#160;&#160;&#160;&#160;&#160;&#160;&#160;&#160;&#160;&#160;&#160;&#160;&#160;&#160;&#160;&#160;&#160;&#160;&#160;&#160;&#160;&#160;&#160;&#160;&#160;&#160;&#160;&#160;&#160;&#160;&#160;</text>
<polygon fill="none" stroke="#99ccff" points="1105.5547,-85.5 1105.5547,-102.5 1196.5547,-102.5 1196.5547,-85.5 1105.5547,-85.5"/>
<text text-anchor="start" x="1137.8525" y="-90.7" font-family="Courier,monospace" font-size="11.00" fill="#000000">date</text>
<polygon fill="none" stroke="#99ccff" points="387.5547,-68.5 387.5547,-85.5 1105.5547,-85.5 1105.5547,-68.5 387.5547,-68.5"/>
<text text-anchor="start" x="390.0967" y="-73.7" font-family="Courier,monospace" font-size="11.00" fill="#000000"> &#160;&#160;&#160;&#160;&#160;&#160;&#160;&#160;&#160;&#160;&#160;&#160;&#160;&#160;&#160;&#160;&#160;&#160;&#160;&#160;&#160;&#160;&#160;&#160;&#160;&#160;&#160;&#160;&#160;&#160;&#160;&#160;&#160;&#160;&#160;&#160;&#160;&#160;&#160;&#160;FinServ__FinancialAccount__c &#160;&#160;&#160;&#160;&#160;&#160;&#160;&#160;&#160;&#160;&#160;&#160;&#160;&#160;&#160;&#160;&#160;&#160;&#160;&#160;&#160;&#160;&#160;&#160;&#160;&#160;&#160;&#160;&#160;&#160;&#160;&#160;&#160;&#160;&#160;&#160;&#160;&#160;</text>
<polygon fill="none" stroke="#99ccff" points="1105.5547,-68.5 1105.5547,-85.5 1196.5547,-85.5 1196.5547,-68.5 1105.5547,-68.5"/>
<text text-anchor="start" x="1108.1477" y="-73.7" font-family="Courier,monospace" font-size="11.00" fill="#000000">reference(18)</text>
<polygon fill="none" stroke="#99ccff" points="387.5547,-51.5 387.5547,-68.5 1105.5547,-68.5 1105.5547,-51.5 387.5547,-51.5"/>
<text text-anchor="start" x="390.5547" y="-56.7" font-family="Courier,monospace" font-size="11.00" fill="#000000"> &#160;&#160;&#160;&#160;&#160;&#160;&#160;&#160;&#160;&#160;&#160;&#160;&#160;&#160;&#160;&#160;&#160;&#160;&#160;&#160;&#160;&#160;&#160;&#160;&#160;&#160;&#160;&#160;&#160;&#160;&#160;&#160;&#160;&#160;&#160;&#160;&#160;&#160;&#160;&#160;FinServ__SourceSystemId__c &#160;&#160;&#160;&#160;&#160;&#160;&#160;&#160;&#160;&#160;&#160;&#160;&#160;&#160;&#160;&#160;&#160;&#160;&#160;&#160;&#160;&#160;&#160;&#160;&#160;&#160;&#160;&#160;&#160;&#160;&#160;&#160;&#160;&#160;&#160;&#160;&#160;&#160;</text>
<polygon fill="none" stroke="#99ccff" points="1105.5547,-51.5 1105.5547,-68.5 1196.5547,-68.5 1196.5547,-51.5 1105.5547,-51.5"/>
<text text-anchor="start" x="1114.7488" y="-56.7" font-family="Courier,monospace" font-size="11.00" fill="#000000">string(100)</text>
<polygon fill="none" stroke="#99ccff" points="387.5547,-34.5 387.5547,-51.5 1105.5547,-51.5 1105.5547,-34.5 387.5547,-34.5"/>
<text text-anchor="start" x="390.5547" y="-39.7" font-family="Courier,monospace" font-size="11.00" fill="#000000"> &#160;&#160;&#160;&#160;&#160;&#160;&#160;&#160;&#160;&#160;&#160;&#160;&#160;&#160;&#160;&#160;&#160;&#160;&#160;&#160;&#160;&#160;&#160;&#160;&#160;&#160;&#160;&#160;&#160;&#160;&#160;&#160;&#160;&#160;&#160;&#160;&#160;&#160;&#160;&#160;FinServ__SubType__c &#160;&#160;&#160;&#160;&#160;&#160;&#160;&#160;&#160;&#160;&#160;&#160;&#160;&#160;&#160;&#160;&#160;&#160;&#160;&#160;&#160;&#160;&#160;&#160;&#160;&#160;&#160;&#160;&#160;&#160;&#160;&#160;&#160;&#160;&#160;&#160;&#160;&#160;</text>
<polygon fill="none" stroke="#99ccff" points="1105.5547,-34.5 1105.5547,-51.5 1196.5547,-51.5 1196.5547,-34.5 1105.5547,-34.5"/>
<text text-anchor="start" x="1108.1477" y="-39.7" font-family="Courier,monospace" font-size="11.00" fill="#000000">picklist(255)</text>
<polygon fill="none" stroke="#99ccff" points="387.5547,-17.5 387.5547,-34.5 1105.5547,-34.5 1105.5547,-17.5 387.5547,-17.5"/>
<text text-anchor="start" x="390.5547" y="-22.7" font-family="Courier,monospace" font-size="11.00" fill="#000000"> &#160;&#160;&#160;&#160;&#160;&#160;&#160;&#160;&#160;&#160;&#160;&#160;&#160;&#160;&#160;&#160;&#160;&#160;&#160;&#160;&#160;&#160;&#160;&#160;&#160;&#160;&#160;&#160;&#160;&#160;&#160;&#160;&#160;&#160;&#160;&#160;&#160;&#160;&#160;&#160;FinServ__Type__c &#160;&#160;&#160;&#160;&#160;&#160;&#160;&#160;&#160;&#160;&#160;&#160;&#160;&#160;&#160;&#160;&#160;&#160;&#160;&#160;&#160;&#160;&#160;&#160;&#160;&#160;&#160;&#160;&#160;&#160;&#160;&#160;&#160;&#160;&#160;&#160;&#160;&#160;</text>
<polygon fill="none" stroke="#99ccff" points="1105.5547,-17.5 1105.5547,-34.5 1196.5547,-34.5 1196.5547,-17.5 1105.5547,-17.5"/>
<text text-anchor="start" x="1108.1477" y="-22.7" font-family="Courier,monospace" font-size="11.00" fill="#000000">picklist(255)</text>
<polygon fill="none" stroke="#99ccff" points="386.0547,-17 386.0547,-274 1197.0547,-274 1197.0547,-17 386.0547,-17"/>
</a>
</g>
</g>
<!-- Group -->
<g id="node2" class="node">
<title>Group</title>
<text text-anchor="middle" x="100.415" y="-236.2" font-family="Courier,monospace" font-size="11.00" fill="#000000">Group</text>
</g>
<!-- FinServ__Revenue__c&#45;&gt;Group -->
<g id="edge1" class="edge">
<title>FinServ__Revenue__c:w&#45;&gt;Group:e</title>
<path fill="none" stroke="#ff99cc" d="M372.8771,-230.538C280.698,-231.005 176.1591,-235.665 127.724,-238.0739"/>
<polygon fill="#ff99cc" stroke="#ff99cc" points="379.5547,-230.5208 387.564,-234.1 383.5547,-230.5104 387.5547,-230.5 387.5547,-230.5 387.5547,-230.5 383.5547,-230.5104 387.5453,-226.9 379.5547,-230.5208 379.5547,-230.5208"/>
<ellipse fill="none" stroke="#ff99cc" cx="376.3547" cy="-230.5291" rx="3.2" ry="3.2"/>
<text text-anchor="middle" x="293.4424" y="-238.3015" font-family="Monaco" font-size="9.00" fill="#000000">Owner</text>
</g>
<!-- User -->
<g id="node3" class="node">
<title>User</title>
<text text-anchor="middle" x="100.415" y="-182.2" font-family="Courier,monospace" font-size="11.00" fill="#000000">User</text>
</g>
<!-- FinServ__Revenue__c&#45;&gt;User -->
<g id="edge2" class="edge">
<title>FinServ__Revenue__c:w&#45;&gt;User:e</title>
<path fill="none" stroke="#ff99cc" d="M376.8339,-220.5504C375.2886,-217.0956 373.3713,-213.571 369.0547,-211.4985 347.6177,-201.2061 191.258,-190.8889 127.4341,-187.0582"/>
<polygon fill="#ff99cc" stroke="#ff99cc" points="381.6908,-225.058 385.1058,-233.1387 384.6228,-227.779 387.5547,-230.5 387.5547,-230.5 387.5547,-230.5 384.6228,-227.779 390.0036,-227.8613 381.6908,-225.058 381.6908,-225.058"/>
<ellipse fill="none" stroke="#ff99cc" cx="379.3453" cy="-222.8812" rx="3.2" ry="3.2"/>
<text text-anchor="middle" x="293.4424" y="-215.3015" font-family="Monaco" font-size="9.00" fill="#000000">Owner</text>
</g>
<!-- FinServ__Revenue__c&#45;&gt;User -->
<g id="edge3" class="edge">
<title>FinServ__Revenue__c:w&#45;&gt;User:e</title>
<path fill="none" stroke="#ff99cc" d="M373.1129,-178.6736C371.9236,-178.6016 370.598,-178.5403 369.0547,-178.4985 301.8683,-176.6814 285.0112,-176.4973 217.8301,-178.4985 186.8043,-179.4227 151.2282,-181.7177 127.4432,-183.4299"/>
<polygon fill="#ff99cc" stroke="#ff99cc" points="379.5678,-179.0429 387.349,-183.0941 383.5612,-179.2715 387.5547,-179.5 387.5547,-179.5 387.5547,-179.5 383.5612,-179.2715 387.7604,-175.9059 379.5678,-179.0429 379.5678,-179.0429"/>
<ellipse fill="none" stroke="#ff99cc" cx="376.373" cy="-178.8601" rx="3.2" ry="3.2"/>
<text text-anchor="middle" x="293.4424" y="-182.3015" font-family="Monaco" font-size="9.00" fill="#000000">LastModifiedBy</text>
</g>
<!-- Account -->
<g id="node4" class="node">
<title>Account</title>
<text text-anchor="middle" x="100.415" y="-124.2" font-family="Courier,monospace" font-size="11.00" fill="#000000">Account</text>
</g>
<!-- FinServ__Revenue__c&#45;&gt;Account -->
<g id="edge4" class="edge">
<title>FinServ__Revenue__c:w&#45;&gt;Account:e</title>
<path fill="none" stroke="#ff99cc" d="M372.9929,-127.5C283.3594,-127.5 181.9451,-127.5 131.8568,-127.5"/>
<polygon fill="#ff99cc" stroke="#ff99cc" points="379.5547,-127.5001 387.5547,-131.1 383.5547,-127.5 387.5547,-127.5 387.5547,-127.5 387.5547,-127.5 383.5547,-127.5 387.5547,-123.9 379.5547,-127.5001 379.5547,-127.5001"/>
<ellipse fill="none" stroke="#ff99cc" cx="376.3547" cy="-127.5001" rx="3.2" ry="3.2"/>
<text text-anchor="middle" x="293.4424" y="-132.3015" font-family="Monaco" font-size="9.00" fill="#000000">FinServ__Account__r</text>
</g>
<!-- FinServ__FinancialAccount__c -->
<g id="node5" class="node">
<title>FinServ__FinancialAccount__c</title>
<text text-anchor="middle" x="100.415" y="-73.2" font-family="Courier,monospace" font-size="11.00" fill="#000000">FinServ__FinancialAccount__c</text>
</g>
<!-- FinServ__Revenue__c&#45;&gt;FinServ__FinancialAccount__c -->
<g id="edge5" class="edge">
<title>FinServ__Revenue__c:w&#45;&gt;FinServ__FinancialAccount__c:e</title>
<path fill="none" stroke="#ff99cc" d="M372.9105,-76.5C314.8506,-76.5 251.8568,-76.5 201.0759,-76.5"/>
<polygon fill="#ff99cc" stroke="#ff99cc" points="379.5547,-76.5001 387.5547,-80.1 383.5547,-76.5 387.5547,-76.5 387.5547,-76.5 387.5547,-76.5 383.5547,-76.5 387.5547,-72.9 379.5547,-76.5001 379.5547,-76.5001"/>
<ellipse fill="none" stroke="#ff99cc" cx="376.3547" cy="-76.5001" rx="3.2" ry="3.2"/>
<text text-anchor="middle" x="293.4424" y="-82.3015" font-family="Monaco" font-size="9.00" fill="#000000">FinServ__FinancialAccount__r</text>
</g>
</g>
</svg>
