<?xml version="1.0" encoding="UTF-8" standalone="no"?>
<!DOCTYPE svg PUBLIC "-//W3C//DTD SVG 1.1//EN"
 "http://www.w3.org/Graphics/SVG/1.1/DTD/svg11.dtd">
<!-- Generated by graphviz version 2.40.1 (20161225.0304)
 -->
<!-- Title: Salesforce+ ERD Pages: 1 -->
<svg width="985pt" height="215pt"
 viewBox="0.00 0.00 984.83 215.21" xmlns="http://www.w3.org/2000/svg" xmlns:xlink="http://www.w3.org/1999/xlink">
<g id="graph0" class="graph" transform="scale(1 1) rotate(0) translate(4 211.2098)">
<title>Salesforce+ ERD</title>
<polygon fill="#efeffd" stroke="transparent" points="-4,4 -4,-211.2098 980.8252,-211.2098 980.8252,4 -4,4"/>
<text text-anchor="middle" x="928.3186" y="-5.8" font-family="Courier,monospace" font-size="9.00" fill="#000000">Salesforce ERD </text>
<!-- Group -->
<g id="node1" class="node">
<title>Group</title>
<g id="a_node1"><a xlink:href="#" xlink:title=" Group ">
<polygon fill="#ffeeff" stroke="transparent" points="204.8252,-18.2098 204.8252,-207.2098 976.8252,-207.2098 976.8252,-18.2098 204.8252,-18.2098"/>
<polygon fill="#add8e6" stroke="transparent" points="205.8252,-188.7098 205.8252,-205.7098 975.8252,-205.7098 975.8252,-188.7098 205.8252,-188.7098"/>
<polygon fill="none" stroke="#99ccff" points="205.8252,-188.7098 205.8252,-205.7098 975.8252,-205.7098 975.8252,-188.7098 205.8252,-188.7098"/>
<text text-anchor="start" x="574.3225" y="-194.9098" font-family="Courier,monospace" font-weight="bold" font-size="11.00" fill="#000000">Group</text>
<polygon fill="#99ccff" stroke="transparent" points="205.8252,-171.7098 205.8252,-188.7098 884.8252,-188.7098 884.8252,-171.7098 205.8252,-171.7098"/>
<polygon fill="none" stroke="#99ccff" points="205.8252,-171.7098 205.8252,-188.7098 884.8252,-188.7098 884.8252,-171.7098 205.8252,-171.7098"/>
<text text-anchor="start" x="208.8252" y="-177.9098" font-family="Courier,monospace" font-size="11.00" fill="#000000"> &#160;&#160;&#160;&#160;&#160;&#160;&#160;&#160;&#160;&#160;&#160;&#160;&#160;&#160;&#160;&#160;&#160;&#160;&#160;&#160;&#160;&#160;&#160;&#160;&#160;&#160;&#160;&#160;&#160;&#160;&#160;&#160;&#160;&#160;&#160;&#160;&#160;&#160;&#160;&#160;&#160;&#160;</text>
<text text-anchor="start" x="492.6714" y="-177.9098" font-family="Courier,monospace" font-weight="bold" font-size="11.00" fill="#000000">Id</text>
<text text-anchor="start" x="505.8735" y="-177.9098" font-family="Courier,monospace" font-size="11.00" fill="#000000"> &#160;&#160;&#160;&#160;&#160;&#160;&#160;&#160;&#160;&#160;&#160;&#160;&#160;&#160;&#160;&#160;&#160;&#160;&#160;&#160;&#160;&#160;&#160;&#160;&#160;&#160;&#160;&#160;&#160;&#160;&#160;&#160;&#160;&#160;&#160;&#160;&#160;&#160;&#160;</text>
<polygon fill="none" stroke="#99ccff" points="884.8252,-171.7098 884.8252,-188.7098 975.8252,-188.7098 975.8252,-171.7098 884.8252,-171.7098"/>
<text text-anchor="start" x="910.522" y="-176.9098" font-family="Courier,monospace" font-size="11.00" fill="#000000">id(18)</text>
<polygon fill="none" stroke="#99ccff" points="205.8252,-154.7098 205.8252,-171.7098 884.8252,-171.7098 884.8252,-154.7098 205.8252,-154.7098"/>
<text text-anchor="start" x="208.8252" y="-159.9098" font-family="Courier,monospace" font-size="11.00" fill="#000000"> &#160;&#160;&#160;&#160;&#160;&#160;&#160;&#160;&#160;&#160;&#160;&#160;&#160;&#160;&#160;&#160;&#160;&#160;&#160;&#160;&#160;&#160;&#160;&#160;&#160;&#160;&#160;&#160;&#160;&#160;&#160;&#160;&#160;&#160;&#160;&#160;&#160;&#160;&#160;&#160;Name &#160;&#160;&#160;&#160;&#160;&#160;&#160;&#160;&#160;&#160;&#160;&#160;&#160;&#160;&#160;&#160;&#160;&#160;&#160;&#160;&#160;&#160;&#160;&#160;&#160;&#160;&#160;&#160;&#160;&#160;&#160;&#160;&#160;&#160;&#160;&#160;&#160;&#160;</text>
<polygon fill="none" stroke="#99ccff" points="884.8252,-154.7098 884.8252,-171.7098 975.8252,-171.7098 975.8252,-154.7098 884.8252,-154.7098"/>
<text text-anchor="start" x="897.3198" y="-159.9098" font-family="Courier,monospace" font-size="11.00" fill="#000000">string(40)</text>
<polygon fill="none" stroke="#99ccff" points="205.8252,-137.7098 205.8252,-154.7098 884.8252,-154.7098 884.8252,-137.7098 205.8252,-137.7098"/>
<text text-anchor="start" x="208.8252" y="-142.9098" font-family="Courier,monospace" font-size="11.00" fill="#000000"> &#160;&#160;&#160;&#160;&#160;&#160;&#160;&#160;&#160;&#160;&#160;&#160;&#160;&#160;&#160;&#160;&#160;&#160;&#160;&#160;&#160;&#160;&#160;&#160;&#160;&#160;&#160;&#160;&#160;&#160;&#160;&#160;&#160;&#160;&#160;&#160;&#160;&#160;&#160;&#160;DeveloperName &#160;&#160;&#160;&#160;&#160;&#160;&#160;&#160;&#160;&#160;&#160;&#160;&#160;&#160;&#160;&#160;&#160;&#160;&#160;&#160;&#160;&#160;&#160;&#160;&#160;&#160;&#160;&#160;&#160;&#160;&#160;&#160;&#160;&#160;&#160;&#160;&#160;&#160;</text>
<polygon fill="none" stroke="#99ccff" points="884.8252,-137.7098 884.8252,-154.7098 975.8252,-154.7098 975.8252,-137.7098 884.8252,-137.7098"/>
<text text-anchor="start" x="897.3198" y="-142.9098" font-family="Courier,monospace" font-size="11.00" fill="#000000">string(80)</text>
<polygon fill="none" stroke="#99ccff" points="205.8252,-120.7098 205.8252,-137.7098 884.8252,-137.7098 884.8252,-120.7098 205.8252,-120.7098"/>
<text text-anchor="start" x="208.8252" y="-125.9098" font-family="Courier,monospace" font-size="11.00" fill="#000000"> &#160;&#160;&#160;&#160;&#160;&#160;&#160;&#160;&#160;&#160;&#160;&#160;&#160;&#160;&#160;&#160;&#160;&#160;&#160;&#160;&#160;&#160;&#160;&#160;&#160;&#160;&#160;&#160;&#160;&#160;&#160;&#160;&#160;&#160;&#160;&#160;&#160;&#160;&#160;&#160;RelatedId &#160;&#160;&#160;&#160;&#160;&#160;&#160;&#160;&#160;&#160;&#160;&#160;&#160;&#160;&#160;&#160;&#160;&#160;&#160;&#160;&#160;&#160;&#160;&#160;&#160;&#160;&#160;&#160;&#160;&#160;&#160;&#160;&#160;&#160;&#160;&#160;&#160;&#160;</text>
<polygon fill="none" stroke="#99ccff" points="884.8252,-120.7098 884.8252,-137.7098 975.8252,-137.7098 975.8252,-120.7098 884.8252,-120.7098"/>
<text text-anchor="start" x="887.4182" y="-125.9098" font-family="Courier,monospace" font-size="11.00" fill="#000000">reference(18)</text>
<polygon fill="none" stroke="#99ccff" points="205.8252,-103.7098 205.8252,-120.7098 884.8252,-120.7098 884.8252,-103.7098 205.8252,-103.7098"/>
<text text-anchor="start" x="208.8252" y="-108.9098" font-family="Courier,monospace" font-size="11.00" fill="#000000"> &#160;&#160;&#160;&#160;&#160;&#160;&#160;&#160;&#160;&#160;&#160;&#160;&#160;&#160;&#160;&#160;&#160;&#160;&#160;&#160;&#160;&#160;&#160;&#160;&#160;&#160;&#160;&#160;&#160;&#160;&#160;&#160;&#160;&#160;&#160;&#160;&#160;&#160;&#160;&#160;Type &#160;&#160;&#160;&#160;&#160;&#160;&#160;&#160;&#160;&#160;&#160;&#160;&#160;&#160;&#160;&#160;&#160;&#160;&#160;&#160;&#160;&#160;&#160;&#160;&#160;&#160;&#160;&#160;&#160;&#160;&#160;&#160;&#160;&#160;&#160;&#160;&#160;&#160;</text>
<polygon fill="none" stroke="#99ccff" points="884.8252,-103.7098 884.8252,-120.7098 975.8252,-120.7098 975.8252,-103.7098 884.8252,-103.7098"/>
<text text-anchor="start" x="890.7188" y="-108.9098" font-family="Courier,monospace" font-size="11.00" fill="#000000">picklist(40)</text>
<polygon fill="none" stroke="#99ccff" points="205.8252,-86.7098 205.8252,-103.7098 884.8252,-103.7098 884.8252,-86.7098 205.8252,-86.7098"/>
<text text-anchor="start" x="208.8252" y="-91.9098" font-family="Courier,monospace" font-size="11.00" fill="#000000"> &#160;&#160;&#160;&#160;&#160;&#160;&#160;&#160;&#160;&#160;&#160;&#160;&#160;&#160;&#160;&#160;&#160;&#160;&#160;&#160;&#160;&#160;&#160;&#160;&#160;&#160;&#160;&#160;&#160;&#160;&#160;&#160;&#160;&#160;&#160;&#160;&#160;&#160;&#160;&#160;Email &#160;&#160;&#160;&#160;&#160;&#160;&#160;&#160;&#160;&#160;&#160;&#160;&#160;&#160;&#160;&#160;&#160;&#160;&#160;&#160;&#160;&#160;&#160;&#160;&#160;&#160;&#160;&#160;&#160;&#160;&#160;&#160;&#160;&#160;&#160;&#160;&#160;&#160;</text>
<polygon fill="none" stroke="#99ccff" points="884.8252,-86.7098 884.8252,-103.7098 975.8252,-103.7098 975.8252,-86.7098 884.8252,-86.7098"/>
<text text-anchor="start" x="897.3198" y="-91.9098" font-family="Courier,monospace" font-size="11.00" fill="#000000">email(255)</text>
<polygon fill="none" stroke="#99ccff" points="205.8252,-69.7098 205.8252,-86.7098 884.8252,-86.7098 884.8252,-69.7098 205.8252,-69.7098"/>
<text text-anchor="start" x="208.8252" y="-74.9098" font-family="Courier,monospace" font-size="11.00" fill="#000000"> &#160;&#160;&#160;&#160;&#160;&#160;&#160;&#160;&#160;&#160;&#160;&#160;&#160;&#160;&#160;&#160;&#160;&#160;&#160;&#160;&#160;&#160;&#160;&#160;&#160;&#160;&#160;&#160;&#160;&#160;&#160;&#160;&#160;&#160;&#160;&#160;&#160;&#160;&#160;&#160;OwnerId &#160;&#160;&#160;&#160;&#160;&#160;&#160;&#160;&#160;&#160;&#160;&#160;&#160;&#160;&#160;&#160;&#160;&#160;&#160;&#160;&#160;&#160;&#160;&#160;&#160;&#160;&#160;&#160;&#160;&#160;&#160;&#160;&#160;&#160;&#160;&#160;&#160;&#160;</text>
<polygon fill="none" stroke="#99ccff" points="884.8252,-69.7098 884.8252,-86.7098 975.8252,-86.7098 975.8252,-69.7098 884.8252,-69.7098"/>
<text text-anchor="start" x="887.4182" y="-74.9098" font-family="Courier,monospace" font-size="11.00" fill="#000000">reference(18)</text>
<polygon fill="none" stroke="#99ccff" points="205.8252,-52.7098 205.8252,-69.7098 884.8252,-69.7098 884.8252,-52.7098 205.8252,-52.7098"/>
<text text-anchor="start" x="208.6704" y="-57.9098" font-family="Courier,monospace" font-size="11.00" fill="#000000"> &#160;&#160;&#160;&#160;&#160;&#160;&#160;&#160;&#160;&#160;&#160;&#160;&#160;&#160;&#160;&#160;&#160;&#160;&#160;&#160;&#160;&#160;&#160;&#160;&#160;&#160;&#160;&#160;&#160;&#160;&#160;&#160;&#160;&#160;&#160;&#160;&#160;&#160;&#160;&#160;DoesSendEmailToMembers &#160;&#160;&#160;&#160;&#160;&#160;&#160;&#160;&#160;&#160;&#160;&#160;&#160;&#160;&#160;&#160;&#160;&#160;&#160;&#160;&#160;&#160;&#160;&#160;&#160;&#160;&#160;&#160;&#160;&#160;&#160;&#160;&#160;&#160;&#160;&#160;&#160;&#160;</text>
<polygon fill="none" stroke="#99ccff" points="884.8252,-52.7098 884.8252,-69.7098 975.8252,-69.7098 975.8252,-52.7098 884.8252,-52.7098"/>
<text text-anchor="start" x="907.2214" y="-57.9098" font-family="Courier,monospace" font-size="11.00" fill="#000000">boolean</text>
<polygon fill="none" stroke="#99ccff" points="205.8252,-35.7098 205.8252,-52.7098 884.8252,-52.7098 884.8252,-35.7098 205.8252,-35.7098"/>
<text text-anchor="start" x="208.8252" y="-40.9098" font-family="Courier,monospace" font-size="11.00" fill="#000000"> &#160;&#160;&#160;&#160;&#160;&#160;&#160;&#160;&#160;&#160;&#160;&#160;&#160;&#160;&#160;&#160;&#160;&#160;&#160;&#160;&#160;&#160;&#160;&#160;&#160;&#160;&#160;&#160;&#160;&#160;&#160;&#160;&#160;&#160;&#160;&#160;&#160;&#160;&#160;&#160;DoesIncludeBosses &#160;&#160;&#160;&#160;&#160;&#160;&#160;&#160;&#160;&#160;&#160;&#160;&#160;&#160;&#160;&#160;&#160;&#160;&#160;&#160;&#160;&#160;&#160;&#160;&#160;&#160;&#160;&#160;&#160;&#160;&#160;&#160;&#160;&#160;&#160;&#160;&#160;&#160;</text>
<polygon fill="none" stroke="#99ccff" points="884.8252,-35.7098 884.8252,-52.7098 975.8252,-52.7098 975.8252,-35.7098 884.8252,-35.7098"/>
<text text-anchor="start" x="907.2214" y="-40.9098" font-family="Courier,monospace" font-size="11.00" fill="#000000">boolean</text>
<polygon fill="none" stroke="#99ccff" points="205.8252,-18.7098 205.8252,-35.7098 884.8252,-35.7098 884.8252,-18.7098 205.8252,-18.7098"/>
<text text-anchor="start" x="208.8252" y="-23.9098" font-family="Courier,monospace" font-size="11.00" fill="#000000"> &#160;&#160;&#160;&#160;&#160;&#160;&#160;&#160;&#160;&#160;&#160;&#160;&#160;&#160;&#160;&#160;&#160;&#160;&#160;&#160;&#160;&#160;&#160;&#160;&#160;&#160;&#160;&#160;&#160;&#160;&#160;&#160;&#160;&#160;&#160;&#160;&#160;&#160;&#160;&#160;LastModifiedById &#160;&#160;&#160;&#160;&#160;&#160;&#160;&#160;&#160;&#160;&#160;&#160;&#160;&#160;&#160;&#160;&#160;&#160;&#160;&#160;&#160;&#160;&#160;&#160;&#160;&#160;&#160;&#160;&#160;&#160;&#160;&#160;&#160;&#160;&#160;&#160;&#160;&#160;</text>
<polygon fill="none" stroke="#99ccff" points="884.8252,-18.7098 884.8252,-35.7098 975.8252,-35.7098 975.8252,-18.7098 884.8252,-18.7098"/>
<text text-anchor="start" x="887.4182" y="-23.9098" font-family="Courier,monospace" font-size="11.00" fill="#000000">reference(18)</text>
<polygon fill="none" stroke="#99ccff" points="204.8252,-18.2098 204.8252,-207.2098 976.8252,-207.2098 976.8252,-18.2098 204.8252,-18.2098"/>
</a>
</g>
</g>
<!-- User -->
<g id="node2" class="node">
<title>User</title>
<text text-anchor="middle" x="47.6064" y="-98.4098" font-family="Courier,monospace" font-size="11.00" fill="#000000">User</text>
</g>
<!-- Group&#45;&gt;User -->
<g id="edge1" class="edge">
<title>Group:w&#45;&gt;User:e</title>
<path fill="none" stroke="#ff99cc" d="M192.3925,-124.4501C191.1113,-123.7971 189.6399,-123.1907 187.8252,-122.7084 149.2872,-112.4644 103.373,-106.7765 74.8507,-103.9807"/>
<polygon fill="#ff99cc" stroke="#ff99cc" points="198.3759,-126.7929 204.5126,-133.062 202.1005,-128.2514 205.8252,-129.7098 205.8252,-129.7098 205.8252,-129.7098 202.1005,-128.2514 207.1378,-126.3576 198.3759,-126.7929 198.3759,-126.7929"/>
<ellipse fill="none" stroke="#ff99cc" cx="195.3962" cy="-125.6262" rx="3.2" ry="3.2"/>
<text text-anchor="middle" x="150.019" y="-126.5113" font-family="Monaco" font-size="9.00" fill="#000000">Related</text>
</g>
<!-- Group&#45;&gt;User -->
<g id="edge4" class="edge">
<title>Group:w&#45;&gt;User:e</title>
<path fill="none" stroke="#ff99cc" d="M191.2299,-78.0234C148.649,-79.7909 102.9861,-88.6582 74.8558,-95.0245"/>
<polygon fill="#ff99cc" stroke="#ff99cc" points="197.827,-77.8817 205.9025,-81.309 201.8261,-77.7958 205.8252,-77.7098 205.8252,-77.7098 205.8252,-77.7098 201.8261,-77.7958 205.7479,-74.1106 197.827,-77.8817 197.827,-77.8817"/>
<ellipse fill="none" stroke="#ff99cc" cx="194.6278" cy="-77.9504" rx="3.2" ry="3.2"/>
<text text-anchor="middle" x="150.019" y="-91.5113" font-family="Monaco" font-size="9.00" fill="#000000">Owner</text>
</g>
<!-- Group&#45;&gt;User -->
<g id="edge5" class="edge">
<title>Group:w&#45;&gt;User:e</title>
<path fill="none" stroke="#ff99cc" d="M191.2348,-25.7913C159.3839,-21.8217 141.6549,-7.2822 112.2129,-28.7084 93.5742,-42.2725 110.3937,-60.3625 95.2129,-77.7098 89.727,-83.9787 82.2144,-88.806 74.7781,-92.4307"/>
<polygon fill="#ff99cc" stroke="#ff99cc" points="197.841,-26.2072 205.599,-30.3027 201.8331,-26.4585 205.8252,-26.7098 205.8252,-26.7098 205.8252,-26.7098 201.8331,-26.4585 206.0514,-23.1169 197.841,-26.2072 197.841,-26.2072"/>
<ellipse fill="none" stroke="#ff99cc" cx="194.6473" cy="-26.0061" rx="3.2" ry="3.2"/>
<text text-anchor="middle" x="150.019" y="-33.5113" font-family="Monaco" font-size="9.00" fill="#000000">LastModifiedBy</text>
</g>
<!-- UserRole -->
<g id="node3" class="node">
<title>UserRole</title>
<text text-anchor="middle" x="47.6064" y="-147.4098" font-family="Courier,monospace" font-size="11.00" fill="#000000">UserRole</text>
</g>
<!-- Group&#45;&gt;UserRole -->
<g id="edge2" class="edge">
<title>Group:w&#45;&gt;UserRole:e</title>
<path fill="none" stroke="#ff99cc" d="M191.4925,-132.9066C190.4142,-133.1978 189.2135,-133.472 187.8252,-133.7098 151.9332,-139.8584 110.4992,-144.594 82.0301,-147.4869"/>
<polygon fill="#ff99cc" stroke="#ff99cc" points="198.0171,-131.4514 206.6089,-133.2235 201.9211,-130.5806 205.8252,-129.7098 205.8252,-129.7098 205.8252,-129.7098 201.9211,-130.5806 205.0415,-126.1962 198.0171,-131.4514 198.0171,-131.4514"/>
<ellipse fill="none" stroke="#ff99cc" cx="194.8938" cy="-132.1481" rx="3.2" ry="3.2"/>
<text text-anchor="middle" x="150.019" y="-148.5113" font-family="Monaco" font-size="9.00" fill="#000000">Related</text>
</g>
<!-- Organization -->
<g id="node4" class="node">
<title>Organization</title>
<text text-anchor="middle" x="47.6064" y="-49.4098" font-family="Courier,monospace" font-size="11.00" fill="#000000">Organization</text>
</g>
<!-- Group&#45;&gt;Organization -->
<g id="edge3" class="edge">
<title>Group:w&#45;&gt;Organization:e</title>
<path fill="none" stroke="#ff99cc" d="M194.6111,-68.5359C193.0797,-66.2368 191.1457,-64.0461 187.8252,-62.7084 158.6231,-50.9434 123.2467,-48.4965 95.3336,-48.9642"/>
<polygon fill="#ff99cc" stroke="#ff99cc" points="199.6332,-72.6443 203.5457,-80.4962 202.7292,-75.1771 205.8252,-77.7098 205.8252,-77.7098 205.8252,-77.7098 202.7292,-75.1771 208.1047,-74.9234 199.6332,-72.6443 199.6332,-72.6443"/>
<ellipse fill="none" stroke="#ff99cc" cx="197.1564" cy="-70.6181" rx="3.2" ry="3.2"/>
<text text-anchor="middle" x="150.019" y="-66.5113" font-family="Monaco" font-size="9.00" fill="#000000">Owner</text>
</g>
</g>
</svg>
