<?xml version="1.0" encoding="UTF-8" standalone="no"?>
<!DOCTYPE svg PUBLIC "-//W3C//DTD SVG 1.1//EN"
 "http://www.w3.org/Graphics/SVG/1.1/DTD/svg11.dtd">
<!-- Generated by graphviz version 2.40.1 (20161225.0304)
 -->
<!-- Title: Salesforce+ ERD Pages: 1 -->
<svg width="1033pt" height="170pt"
 viewBox="0.00 0.00 1033.04 170.00" xmlns="http://www.w3.org/2000/svg" xmlns:xlink="http://www.w3.org/1999/xlink">
<g id="graph0" class="graph" transform="scale(1 1) rotate(0) translate(4 166)">
<title>Salesforce+ ERD</title>
<polygon fill="#efeffd" stroke="transparent" points="-4,4 -4,-166 1029.0352,-166 1029.0352,4 -4,4"/>
<text text-anchor="middle" x="976.5286" y="-5.8" font-family="Courier,monospace" font-size="9.00" fill="#000000">Salesforce ERD </text>
<!-- PresenceUserConfigProfile -->
<g id="node1" class="node">
<title>PresenceUserConfigProfile</title>
<g id="a_node1"><a xlink:href="#" xlink:title=" PresenceUserConfigProfile ">
<polygon fill="#ffeeff" stroke="transparent" points="266.0352,-58 266.0352,-162 1025.0352,-162 1025.0352,-58 266.0352,-58"/>
<polygon fill="#add8e6" stroke="transparent" points="267.5352,-144 267.5352,-161 1024.5352,-161 1024.5352,-144 267.5352,-144"/>
<polygon fill="none" stroke="#99ccff" points="267.5352,-144 267.5352,-161 1024.5352,-161 1024.5352,-144 267.5352,-144"/>
<text text-anchor="start" x="563.5217" y="-150.2" font-family="Courier,monospace" font-weight="bold" font-size="11.00" fill="#000000">PresenceUserConfigProfile</text>
<polygon fill="#99ccff" stroke="transparent" points="267.5352,-127 267.5352,-144 933.5352,-144 933.5352,-127 267.5352,-127"/>
<polygon fill="none" stroke="#99ccff" points="267.5352,-127 267.5352,-144 933.5352,-144 933.5352,-127 267.5352,-127"/>
<text text-anchor="start" x="270.5352" y="-133.2" font-family="Courier,monospace" font-size="11.00" fill="#000000"> &#160;&#160;&#160;&#160;&#160;&#160;&#160;&#160;&#160;&#160;&#160;&#160;&#160;&#160;&#160;&#160;&#160;&#160;&#160;&#160;&#160;&#160;&#160;&#160;&#160;&#160;&#160;&#160;&#160;&#160;&#160;&#160;&#160;&#160;&#160;&#160;&#160;&#160;&#160;&#160;&#160;&#160;</text>
<text text-anchor="start" x="554.3813" y="-133.2" font-family="Courier,monospace" font-weight="bold" font-size="11.00" fill="#000000">Id</text>
<text text-anchor="start" x="567.5835" y="-133.2" font-family="Courier,monospace" font-size="11.00" fill="#000000"> &#160;&#160;&#160;&#160;&#160;&#160;&#160;&#160;&#160;&#160;&#160;&#160;&#160;&#160;&#160;&#160;&#160;&#160;&#160;&#160;&#160;&#160;&#160;&#160;&#160;&#160;&#160;&#160;&#160;&#160;&#160;&#160;&#160;&#160;&#160;&#160;&#160;&#160;&#160;</text>
<polygon fill="none" stroke="#99ccff" points="933.5352,-127 933.5352,-144 1024.5352,-144 1024.5352,-127 933.5352,-127"/>
<text text-anchor="start" x="959.2319" y="-132.2" font-family="Courier,monospace" font-size="11.00" fill="#000000">id(18)</text>
<polygon fill="none" stroke="#99ccff" points="267.5352,-110 267.5352,-127 933.5352,-127 933.5352,-110 267.5352,-110"/>
<text text-anchor="start" x="270.5352" y="-115.2" font-family="Courier,monospace" font-size="11.00" fill="#000000"> &#160;&#160;&#160;&#160;&#160;&#160;&#160;&#160;&#160;&#160;&#160;&#160;&#160;&#160;&#160;&#160;&#160;&#160;&#160;&#160;&#160;&#160;&#160;&#160;&#160;&#160;&#160;&#160;&#160;&#160;&#160;&#160;&#160;&#160;&#160;&#160;&#160;&#160;&#160;&#160;IsDeleted &#160;&#160;&#160;&#160;&#160;&#160;&#160;&#160;&#160;&#160;&#160;&#160;&#160;&#160;&#160;&#160;&#160;&#160;&#160;&#160;&#160;&#160;&#160;&#160;&#160;&#160;&#160;&#160;&#160;&#160;&#160;&#160;&#160;&#160;&#160;&#160;&#160;&#160;</text>
<polygon fill="none" stroke="#99ccff" points="933.5352,-110 933.5352,-127 1024.5352,-127 1024.5352,-110 933.5352,-110"/>
<text text-anchor="start" x="955.9314" y="-115.2" font-family="Courier,monospace" font-size="11.00" fill="#000000">boolean</text>
<polygon fill="none" stroke="#99ccff" points="267.5352,-93 267.5352,-110 933.5352,-110 933.5352,-93 267.5352,-93"/>
<text text-anchor="start" x="270.5352" y="-98.2" font-family="Courier,monospace" font-size="11.00" fill="#000000"> &#160;&#160;&#160;&#160;&#160;&#160;&#160;&#160;&#160;&#160;&#160;&#160;&#160;&#160;&#160;&#160;&#160;&#160;&#160;&#160;&#160;&#160;&#160;&#160;&#160;&#160;&#160;&#160;&#160;&#160;&#160;&#160;&#160;&#160;&#160;&#160;&#160;&#160;&#160;&#160;LastModifiedById &#160;&#160;&#160;&#160;&#160;&#160;&#160;&#160;&#160;&#160;&#160;&#160;&#160;&#160;&#160;&#160;&#160;&#160;&#160;&#160;&#160;&#160;&#160;&#160;&#160;&#160;&#160;&#160;&#160;&#160;&#160;&#160;&#160;&#160;&#160;&#160;&#160;&#160;</text>
<polygon fill="none" stroke="#99ccff" points="933.5352,-93 933.5352,-110 1024.5352,-110 1024.5352,-93 933.5352,-93"/>
<text text-anchor="start" x="936.1282" y="-98.2" font-family="Courier,monospace" font-size="11.00" fill="#000000">reference(18)</text>
<polygon fill="none" stroke="#99ccff" points="267.5352,-76 267.5352,-93 933.5352,-93 933.5352,-76 267.5352,-76"/>
<text text-anchor="start" x="270.4814" y="-81.2" font-family="Courier,monospace" font-size="11.00" fill="#000000"> &#160;&#160;&#160;&#160;&#160;&#160;&#160;&#160;&#160;&#160;&#160;&#160;&#160;&#160;&#160;&#160;&#160;&#160;&#160;&#160;&#160;&#160;&#160;&#160;&#160;&#160;&#160;&#160;&#160;&#160;&#160;&#160;&#160;&#160;&#160;&#160;&#160;&#160;&#160;&#160;PresenceUserConfigId &#160;&#160;&#160;&#160;&#160;&#160;&#160;&#160;&#160;&#160;&#160;&#160;&#160;&#160;&#160;&#160;&#160;&#160;&#160;&#160;&#160;&#160;&#160;&#160;&#160;&#160;&#160;&#160;&#160;&#160;&#160;&#160;&#160;&#160;&#160;&#160;&#160;&#160;</text>
<polygon fill="none" stroke="#99ccff" points="933.5352,-76 933.5352,-93 1024.5352,-93 1024.5352,-76 933.5352,-76"/>
<text text-anchor="start" x="936.1282" y="-81.2" font-family="Courier,monospace" font-size="11.00" fill="#000000">reference(18)</text>
<polygon fill="none" stroke="#99ccff" points="267.5352,-59 267.5352,-76 933.5352,-76 933.5352,-59 267.5352,-59"/>
<text text-anchor="start" x="270.5352" y="-64.2" font-family="Courier,monospace" font-size="11.00" fill="#000000"> &#160;&#160;&#160;&#160;&#160;&#160;&#160;&#160;&#160;&#160;&#160;&#160;&#160;&#160;&#160;&#160;&#160;&#160;&#160;&#160;&#160;&#160;&#160;&#160;&#160;&#160;&#160;&#160;&#160;&#160;&#160;&#160;&#160;&#160;&#160;&#160;&#160;&#160;&#160;&#160;ProfileId &#160;&#160;&#160;&#160;&#160;&#160;&#160;&#160;&#160;&#160;&#160;&#160;&#160;&#160;&#160;&#160;&#160;&#160;&#160;&#160;&#160;&#160;&#160;&#160;&#160;&#160;&#160;&#160;&#160;&#160;&#160;&#160;&#160;&#160;&#160;&#160;&#160;&#160;</text>
<polygon fill="none" stroke="#99ccff" points="933.5352,-59 933.5352,-76 1024.5352,-76 1024.5352,-59 933.5352,-59"/>
<text text-anchor="start" x="936.1282" y="-64.2" font-family="Courier,monospace" font-size="11.00" fill="#000000">reference(18)</text>
<polygon fill="none" stroke="#99ccff" points="266.0352,-58 266.0352,-162 1025.0352,-162 1025.0352,-58 266.0352,-58"/>
</a>
</g>
</g>
<!-- User -->
<g id="node2" class="node">
<title>User</title>
<text text-anchor="middle" x="67.4097" y="-129.7" font-family="Courier,monospace" font-size="11.00" fill="#000000">User</text>
</g>
<!-- PresenceUserConfigProfile&#45;&gt;User -->
<g id="edge1" class="edge">
<title>PresenceUserConfigProfile:w&#45;&gt;User:e</title>
<path fill="none" stroke="#ff99cc" d="M253.1154,-101.2584C194.2993,-103.3091 130.1047,-117.1026 94.7044,-125.8186"/>
<polygon fill="#ff99cc" stroke="#ff99cc" points="259.5364,-101.1434 267.5997,-104.5994 263.5358,-101.0717 267.5352,-101 267.5352,-101 267.5352,-101 263.5358,-101.0717 267.4706,-97.4006 259.5364,-101.1434 259.5364,-101.1434"/>
<ellipse fill="none" stroke="#ff99cc" cx="256.337" cy="-101.2007" rx="3.2" ry="3.2"/>
<text text-anchor="middle" x="200.4272" y="-117.8015" font-family="Monaco" font-size="9.00" fill="#000000">LastModifiedBy</text>
</g>
<!-- PresenceUserConfig -->
<g id="node3" class="node">
<title>PresenceUserConfig</title>
<text text-anchor="middle" x="67.4097" y="-80.7" font-family="Courier,monospace" font-size="11.00" fill="#000000">PresenceUserConfig</text>
</g>
<!-- PresenceUserConfigProfile&#45;&gt;PresenceUserConfig -->
<g id="edge2" class="edge">
<title>PresenceUserConfigProfile:w&#45;&gt;PresenceUserConfig:e</title>
<path fill="none" stroke="#ff99cc" d="M252.8816,-84C212.6902,-84 169.5712,-84 135.0322,-84"/>
<polygon fill="#ff99cc" stroke="#ff99cc" points="259.5352,-84.0001 267.5352,-87.6 263.5352,-84 267.5352,-84 267.5352,-84 267.5352,-84 263.5352,-84 267.5351,-80.4 259.5352,-84.0001 259.5352,-84.0001"/>
<ellipse fill="none" stroke="#ff99cc" cx="256.3352" cy="-84.0001" rx="3.2" ry="3.2"/>
<text text-anchor="middle" x="200.4272" y="-88.8015" font-family="Monaco" font-size="9.00" fill="#000000">PresenceUserConfig</text>
</g>
<!-- Profile -->
<g id="node4" class="node">
<title>Profile</title>
<text text-anchor="middle" x="67.4097" y="-31.7" font-family="Courier,monospace" font-size="11.00" fill="#000000">Profile</text>
</g>
<!-- PresenceUserConfigProfile&#45;&gt;Profile -->
<g id="edge3" class="edge">
<title>PresenceUserConfigProfile:w&#45;&gt;Profile:e</title>
<path fill="none" stroke="#ff99cc" d="M252.8863,-66.7336C196.2853,-64.7312 134.7466,-51.8793 98.7042,-43.1577"/>
<polygon fill="#ff99cc" stroke="#ff99cc" points="259.5365,-66.8545 267.4697,-70.5994 263.5358,-66.9272 267.5352,-67 267.5352,-67 267.5352,-67 263.5358,-66.9272 267.6006,-63.4006 259.5365,-66.8545 259.5365,-66.8545"/>
<ellipse fill="none" stroke="#ff99cc" cx="256.337" cy="-66.7963" rx="3.2" ry="3.2"/>
<text text-anchor="middle" x="200.4272" y="-71.8015" font-family="Monaco" font-size="9.00" fill="#000000">Profile</text>
</g>
</g>
</svg>
