<?xml version="1.0" encoding="UTF-8" standalone="no"?>
<!DOCTYPE svg PUBLIC "-//W3C//DTD SVG 1.1//EN"
 "http://www.w3.org/Graphics/SVG/1.1/DTD/svg11.dtd">
<!-- Generated by graphviz version 2.40.1 (20161225.0304)
 -->
<!-- Title: Salesforce+ ERD Pages: 1 -->
<svg width="1033pt" height="165pt"
 viewBox="0.00 0.00 1033.04 165.00" xmlns="http://www.w3.org/2000/svg" xmlns:xlink="http://www.w3.org/1999/xlink">
<g id="graph0" class="graph" transform="scale(1 1) rotate(0) translate(4 161)">
<title>Salesforce+ ERD</title>
<polygon fill="#efeffd" stroke="transparent" points="-4,4 -4,-161 1029.0352,-161 1029.0352,4 -4,4"/>
<text text-anchor="middle" x="976.5286" y="-5.8" font-family="Courier,monospace" font-size="9.00" fill="#000000">Salesforce ERD </text>
<!-- PresenceUserConfigUser -->
<g id="node1" class="node">
<title>PresenceUserConfigUser</title>
<g id="a_node1"><a xlink:href="#" xlink:title=" PresenceUserConfigUser ">
<polygon fill="#ffeeff" stroke="transparent" points="266.0352,-53 266.0352,-157 1025.0352,-157 1025.0352,-53 266.0352,-53"/>
<polygon fill="#add8e6" stroke="transparent" points="267.5352,-139 267.5352,-156 1024.5352,-156 1024.5352,-139 267.5352,-139"/>
<polygon fill="none" stroke="#99ccff" points="267.5352,-139 267.5352,-156 1024.5352,-156 1024.5352,-139 267.5352,-139"/>
<text text-anchor="start" x="573.4233" y="-145.2" font-family="Courier,monospace" font-weight="bold" font-size="11.00" fill="#000000">PresenceUserConfigUser</text>
<polygon fill="#99ccff" stroke="transparent" points="267.5352,-122 267.5352,-139 933.5352,-139 933.5352,-122 267.5352,-122"/>
<polygon fill="none" stroke="#99ccff" points="267.5352,-122 267.5352,-139 933.5352,-139 933.5352,-122 267.5352,-122"/>
<text text-anchor="start" x="270.5352" y="-128.2" font-family="Courier,monospace" font-size="11.00" fill="#000000"> &#160;&#160;&#160;&#160;&#160;&#160;&#160;&#160;&#160;&#160;&#160;&#160;&#160;&#160;&#160;&#160;&#160;&#160;&#160;&#160;&#160;&#160;&#160;&#160;&#160;&#160;&#160;&#160;&#160;&#160;&#160;&#160;&#160;&#160;&#160;&#160;&#160;&#160;&#160;&#160;&#160;&#160;</text>
<text text-anchor="start" x="554.3813" y="-128.2" font-family="Courier,monospace" font-weight="bold" font-size="11.00" fill="#000000">Id</text>
<text text-anchor="start" x="567.5835" y="-128.2" font-family="Courier,monospace" font-size="11.00" fill="#000000"> &#160;&#160;&#160;&#160;&#160;&#160;&#160;&#160;&#160;&#160;&#160;&#160;&#160;&#160;&#160;&#160;&#160;&#160;&#160;&#160;&#160;&#160;&#160;&#160;&#160;&#160;&#160;&#160;&#160;&#160;&#160;&#160;&#160;&#160;&#160;&#160;&#160;&#160;&#160;</text>
<polygon fill="none" stroke="#99ccff" points="933.5352,-122 933.5352,-139 1024.5352,-139 1024.5352,-122 933.5352,-122"/>
<text text-anchor="start" x="959.2319" y="-127.2" font-family="Courier,monospace" font-size="11.00" fill="#000000">id(18)</text>
<polygon fill="none" stroke="#99ccff" points="267.5352,-105 267.5352,-122 933.5352,-122 933.5352,-105 267.5352,-105"/>
<text text-anchor="start" x="270.5352" y="-110.2" font-family="Courier,monospace" font-size="11.00" fill="#000000"> &#160;&#160;&#160;&#160;&#160;&#160;&#160;&#160;&#160;&#160;&#160;&#160;&#160;&#160;&#160;&#160;&#160;&#160;&#160;&#160;&#160;&#160;&#160;&#160;&#160;&#160;&#160;&#160;&#160;&#160;&#160;&#160;&#160;&#160;&#160;&#160;&#160;&#160;&#160;&#160;IsDeleted &#160;&#160;&#160;&#160;&#160;&#160;&#160;&#160;&#160;&#160;&#160;&#160;&#160;&#160;&#160;&#160;&#160;&#160;&#160;&#160;&#160;&#160;&#160;&#160;&#160;&#160;&#160;&#160;&#160;&#160;&#160;&#160;&#160;&#160;&#160;&#160;&#160;&#160;</text>
<polygon fill="none" stroke="#99ccff" points="933.5352,-105 933.5352,-122 1024.5352,-122 1024.5352,-105 933.5352,-105"/>
<text text-anchor="start" x="955.9314" y="-110.2" font-family="Courier,monospace" font-size="11.00" fill="#000000">boolean</text>
<polygon fill="none" stroke="#99ccff" points="267.5352,-88 267.5352,-105 933.5352,-105 933.5352,-88 267.5352,-88"/>
<text text-anchor="start" x="270.5352" y="-93.2" font-family="Courier,monospace" font-size="11.00" fill="#000000"> &#160;&#160;&#160;&#160;&#160;&#160;&#160;&#160;&#160;&#160;&#160;&#160;&#160;&#160;&#160;&#160;&#160;&#160;&#160;&#160;&#160;&#160;&#160;&#160;&#160;&#160;&#160;&#160;&#160;&#160;&#160;&#160;&#160;&#160;&#160;&#160;&#160;&#160;&#160;&#160;LastModifiedById &#160;&#160;&#160;&#160;&#160;&#160;&#160;&#160;&#160;&#160;&#160;&#160;&#160;&#160;&#160;&#160;&#160;&#160;&#160;&#160;&#160;&#160;&#160;&#160;&#160;&#160;&#160;&#160;&#160;&#160;&#160;&#160;&#160;&#160;&#160;&#160;&#160;&#160;</text>
<polygon fill="none" stroke="#99ccff" points="933.5352,-88 933.5352,-105 1024.5352,-105 1024.5352,-88 933.5352,-88"/>
<text text-anchor="start" x="936.1282" y="-93.2" font-family="Courier,monospace" font-size="11.00" fill="#000000">reference(18)</text>
<polygon fill="none" stroke="#99ccff" points="267.5352,-71 267.5352,-88 933.5352,-88 933.5352,-71 267.5352,-71"/>
<text text-anchor="start" x="270.4814" y="-76.2" font-family="Courier,monospace" font-size="11.00" fill="#000000"> &#160;&#160;&#160;&#160;&#160;&#160;&#160;&#160;&#160;&#160;&#160;&#160;&#160;&#160;&#160;&#160;&#160;&#160;&#160;&#160;&#160;&#160;&#160;&#160;&#160;&#160;&#160;&#160;&#160;&#160;&#160;&#160;&#160;&#160;&#160;&#160;&#160;&#160;&#160;&#160;PresenceUserConfigId &#160;&#160;&#160;&#160;&#160;&#160;&#160;&#160;&#160;&#160;&#160;&#160;&#160;&#160;&#160;&#160;&#160;&#160;&#160;&#160;&#160;&#160;&#160;&#160;&#160;&#160;&#160;&#160;&#160;&#160;&#160;&#160;&#160;&#160;&#160;&#160;&#160;&#160;</text>
<polygon fill="none" stroke="#99ccff" points="933.5352,-71 933.5352,-88 1024.5352,-88 1024.5352,-71 933.5352,-71"/>
<text text-anchor="start" x="936.1282" y="-76.2" font-family="Courier,monospace" font-size="11.00" fill="#000000">reference(18)</text>
<polygon fill="none" stroke="#99ccff" points="267.5352,-54 267.5352,-71 933.5352,-71 933.5352,-54 267.5352,-54"/>
<text text-anchor="start" x="270.5352" y="-59.2" font-family="Courier,monospace" font-size="11.00" fill="#000000"> &#160;&#160;&#160;&#160;&#160;&#160;&#160;&#160;&#160;&#160;&#160;&#160;&#160;&#160;&#160;&#160;&#160;&#160;&#160;&#160;&#160;&#160;&#160;&#160;&#160;&#160;&#160;&#160;&#160;&#160;&#160;&#160;&#160;&#160;&#160;&#160;&#160;&#160;&#160;&#160;UserId &#160;&#160;&#160;&#160;&#160;&#160;&#160;&#160;&#160;&#160;&#160;&#160;&#160;&#160;&#160;&#160;&#160;&#160;&#160;&#160;&#160;&#160;&#160;&#160;&#160;&#160;&#160;&#160;&#160;&#160;&#160;&#160;&#160;&#160;&#160;&#160;&#160;&#160;</text>
<polygon fill="none" stroke="#99ccff" points="933.5352,-54 933.5352,-71 1024.5352,-71 1024.5352,-54 933.5352,-54"/>
<text text-anchor="start" x="936.1282" y="-59.2" font-family="Courier,monospace" font-size="11.00" fill="#000000">reference(18)</text>
<polygon fill="none" stroke="#99ccff" points="266.0352,-53 266.0352,-157 1025.0352,-157 1025.0352,-53 266.0352,-53"/>
</a>
</g>
</g>
<!-- User -->
<g id="node2" class="node">
<title>User</title>
<text text-anchor="middle" x="67.4097" y="-31.7" font-family="Courier,monospace" font-size="11.00" fill="#000000">User</text>
</g>
<!-- PresenceUserConfigUser&#45;&gt;User -->
<g id="edge1" class="edge">
<title>PresenceUserConfigUser:w&#45;&gt;User:e</title>
<path fill="none" stroke="#ff99cc" d="M253.0177,-96.6271C211.7087,-100.1837 190.9568,-116.8012 151.8193,-92 137.8834,-83.1689 147.2385,-69.861 134.8193,-59 123.5044,-49.1047 107.8261,-43.2018 94.4369,-39.728"/>
<polygon fill="#ff99cc" stroke="#ff99cc" points="259.5426,-96.3453 267.6905,-99.5966 263.5389,-96.1726 267.5352,-96 267.5352,-96 267.5352,-96 263.5389,-96.1726 267.3798,-92.4034 259.5426,-96.3453 259.5426,-96.3453"/>
<ellipse fill="none" stroke="#ff99cc" cx="256.3456" cy="-96.4834" rx="3.2" ry="3.2"/>
<text text-anchor="middle" x="200.4272" y="-109.8015" font-family="Monaco" font-size="9.00" fill="#000000">LastModifiedBy</text>
</g>
<!-- PresenceUserConfigUser&#45;&gt;User -->
<g id="edge3" class="edge">
<title>PresenceUserConfigUser:w&#45;&gt;User:e</title>
<path fill="none" stroke="#ff99cc" d="M253.1206,-61.7808C194.3022,-60.041 129.8366,-48.3407 94.4441,-40.9922"/>
<polygon fill="#ff99cc" stroke="#ff99cc" points="259.5361,-61.8783 267.4804,-65.5996 263.5356,-61.9392 267.5352,-62 267.5352,-62 267.5352,-62 263.5356,-61.9392 267.5899,-58.4004 259.5361,-61.8783 259.5361,-61.8783"/>
<ellipse fill="none" stroke="#ff99cc" cx="256.3365" cy="-61.8296" rx="3.2" ry="3.2"/>
<text text-anchor="middle" x="200.4272" y="-66.8015" font-family="Monaco" font-size="9.00" fill="#000000">User</text>
</g>
<!-- PresenceUserConfig -->
<g id="node3" class="node">
<title>PresenceUserConfig</title>
<text text-anchor="middle" x="67.4097" y="-80.7" font-family="Courier,monospace" font-size="11.00" fill="#000000">PresenceUserConfig</text>
</g>
<!-- PresenceUserConfigUser&#45;&gt;PresenceUserConfig -->
<g id="edge2" class="edge">
<title>PresenceUserConfigUser:w&#45;&gt;PresenceUserConfig:e</title>
<path fill="none" stroke="#ff99cc" d="M252.8775,-79.0426C212.6765,-79.2693 169.5577,-80.3662 135.0217,-81.4707"/>
<polygon fill="#ff99cc" stroke="#ff99cc" points="259.5352,-79.0233 267.5456,-82.6 263.5352,-79.0116 267.5352,-79 267.5352,-79 267.5352,-79 263.5352,-79.0116 267.5247,-75.4 259.5352,-79.0233 259.5352,-79.0233"/>
<ellipse fill="none" stroke="#ff99cc" cx="256.3352" cy="-79.0326" rx="3.2" ry="3.2"/>
<text text-anchor="middle" x="200.4272" y="-85.8015" font-family="Monaco" font-size="9.00" fill="#000000">PresenceUserConfig</text>
</g>
</g>
</svg>
