<?xml version="1.0" encoding="UTF-8" standalone="no"?>
<!DOCTYPE svg PUBLIC "-//W3C//DTD SVG 1.1//EN"
 "http://www.w3.org/Graphics/SVG/1.1/DTD/svg11.dtd">
<!-- Generated by graphviz version 2.40.1 (20161225.0304)
 -->
<!-- Title: Salesforce+ ERD Pages: 1 -->
<svg width="1173pt" height="283pt"
 viewBox="0.00 0.00 1173.45 282.50" xmlns="http://www.w3.org/2000/svg" xmlns:xlink="http://www.w3.org/1999/xlink">
<g id="graph0" class="graph" transform="scale(1 1) rotate(0) translate(4 278.5)">
<title>Salesforce+ ERD</title>
<polygon fill="#efeffd" stroke="transparent" points="-4,4 -4,-278.5 1169.4463,-278.5 1169.4463,4 -4,4"/>
<text text-anchor="middle" x="1116.9397" y="-5.8" font-family="Courier,monospace" font-size="9.00" fill="#000000">Salesforce ERD </text>
<!-- PresenceUserConfig -->
<g id="node1" class="node">
<title>PresenceUserConfig</title>
<g id="a_node1"><a xlink:href="#" xlink:title=" PresenceUserConfig ">
<polygon fill="#ffeeff" stroke="transparent" points="334.4463,-17.5 334.4463,-274.5 1165.4463,-274.5 1165.4463,-17.5 334.4463,-17.5"/>
<polygon fill="#add8e6" stroke="transparent" points="335.9463,-256 335.9463,-273 1164.9463,-273 1164.9463,-256 335.9463,-256"/>
<polygon fill="none" stroke="#99ccff" points="335.9463,-256 335.9463,-273 1164.9463,-273 1164.9463,-256 335.9463,-256"/>
<text text-anchor="start" x="691.0366" y="-262.2" font-family="Courier,monospace" font-weight="bold" font-size="11.00" fill="#000000">PresenceUserConfig</text>
<polygon fill="#99ccff" stroke="transparent" points="335.9463,-239 335.9463,-256 1073.9463,-256 1073.9463,-239 335.9463,-239"/>
<polygon fill="none" stroke="#99ccff" points="335.9463,-239 335.9463,-256 1073.9463,-256 1073.9463,-239 335.9463,-239"/>
<text text-anchor="start" x="338.9463" y="-245.2" font-family="Courier,monospace" font-size="11.00" fill="#000000"> &#160;&#160;&#160;&#160;&#160;&#160;&#160;&#160;&#160;&#160;&#160;&#160;&#160;&#160;&#160;&#160;&#160;&#160;&#160;&#160;&#160;&#160;&#160;&#160;&#160;&#160;&#160;&#160;&#160;&#160;&#160;&#160;&#160;&#160;&#160;&#160;&#160;&#160;&#160;&#160;&#160;&#160;</text>
<text text-anchor="start" x="622.7925" y="-245.2" font-family="Courier,monospace" font-weight="bold" font-size="11.00" fill="#000000">Id</text>
<text text-anchor="start" x="635.9946" y="-245.2" font-family="Courier,monospace" font-size="11.00" fill="#000000"> &#160;&#160;&#160;&#160;&#160;&#160;&#160;&#160;&#160;&#160;&#160;&#160;&#160;&#160;&#160;&#160;&#160;&#160;&#160;&#160;&#160;&#160;&#160;&#160;&#160;&#160;&#160;&#160;&#160;&#160;&#160;&#160;&#160;&#160;&#160;&#160;&#160;&#160;&#160;</text>
<polygon fill="none" stroke="#99ccff" points="1073.9463,-239 1073.9463,-256 1164.9463,-256 1164.9463,-239 1073.9463,-239"/>
<text text-anchor="start" x="1099.6431" y="-244.2" font-family="Courier,monospace" font-size="11.00" fill="#000000">id(18)</text>
<polygon fill="none" stroke="#99ccff" points="335.9463,-222 335.9463,-239 1073.9463,-239 1073.9463,-222 335.9463,-222"/>
<text text-anchor="start" x="338.9463" y="-227.2" font-family="Courier,monospace" font-size="11.00" fill="#000000"> &#160;&#160;&#160;&#160;&#160;&#160;&#160;&#160;&#160;&#160;&#160;&#160;&#160;&#160;&#160;&#160;&#160;&#160;&#160;&#160;&#160;&#160;&#160;&#160;&#160;&#160;&#160;&#160;&#160;&#160;&#160;&#160;&#160;&#160;&#160;&#160;&#160;&#160;&#160;&#160;IsDeleted &#160;&#160;&#160;&#160;&#160;&#160;&#160;&#160;&#160;&#160;&#160;&#160;&#160;&#160;&#160;&#160;&#160;&#160;&#160;&#160;&#160;&#160;&#160;&#160;&#160;&#160;&#160;&#160;&#160;&#160;&#160;&#160;&#160;&#160;&#160;&#160;&#160;&#160;</text>
<polygon fill="none" stroke="#99ccff" points="1073.9463,-222 1073.9463,-239 1164.9463,-239 1164.9463,-222 1073.9463,-222"/>
<text text-anchor="start" x="1096.3425" y="-227.2" font-family="Courier,monospace" font-size="11.00" fill="#000000">boolean</text>
<polygon fill="none" stroke="#99ccff" points="335.9463,-205 335.9463,-222 1073.9463,-222 1073.9463,-205 335.9463,-205"/>
<text text-anchor="start" x="338.9463" y="-210.2" font-family="Courier,monospace" font-size="11.00" fill="#000000"> &#160;&#160;&#160;&#160;&#160;&#160;&#160;&#160;&#160;&#160;&#160;&#160;&#160;&#160;&#160;&#160;&#160;&#160;&#160;&#160;&#160;&#160;&#160;&#160;&#160;&#160;&#160;&#160;&#160;&#160;&#160;&#160;&#160;&#160;&#160;&#160;&#160;&#160;&#160;&#160;DeveloperName &#160;&#160;&#160;&#160;&#160;&#160;&#160;&#160;&#160;&#160;&#160;&#160;&#160;&#160;&#160;&#160;&#160;&#160;&#160;&#160;&#160;&#160;&#160;&#160;&#160;&#160;&#160;&#160;&#160;&#160;&#160;&#160;&#160;&#160;&#160;&#160;&#160;&#160;</text>
<polygon fill="none" stroke="#99ccff" points="1073.9463,-205 1073.9463,-222 1164.9463,-222 1164.9463,-205 1073.9463,-205"/>
<text text-anchor="start" x="1086.4409" y="-210.2" font-family="Courier,monospace" font-size="11.00" fill="#000000">string(80)</text>
<polygon fill="none" stroke="#99ccff" points="335.9463,-188 335.9463,-205 1073.9463,-205 1073.9463,-188 335.9463,-188"/>
<text text-anchor="start" x="338.9463" y="-193.2" font-family="Courier,monospace" font-size="11.00" fill="#000000"> &#160;&#160;&#160;&#160;&#160;&#160;&#160;&#160;&#160;&#160;&#160;&#160;&#160;&#160;&#160;&#160;&#160;&#160;&#160;&#160;&#160;&#160;&#160;&#160;&#160;&#160;&#160;&#160;&#160;&#160;&#160;&#160;&#160;&#160;&#160;&#160;&#160;&#160;&#160;&#160;Language &#160;&#160;&#160;&#160;&#160;&#160;&#160;&#160;&#160;&#160;&#160;&#160;&#160;&#160;&#160;&#160;&#160;&#160;&#160;&#160;&#160;&#160;&#160;&#160;&#160;&#160;&#160;&#160;&#160;&#160;&#160;&#160;&#160;&#160;&#160;&#160;&#160;&#160;</text>
<polygon fill="none" stroke="#99ccff" points="1073.9463,-188 1073.9463,-205 1164.9463,-205 1164.9463,-188 1073.9463,-188"/>
<text text-anchor="start" x="1079.8398" y="-193.2" font-family="Courier,monospace" font-size="11.00" fill="#000000">picklist(40)</text>
<polygon fill="none" stroke="#99ccff" points="335.9463,-171 335.9463,-188 1073.9463,-188 1073.9463,-171 335.9463,-171"/>
<text text-anchor="start" x="338.9463" y="-176.2" font-family="Courier,monospace" font-size="11.00" fill="#000000"> &#160;&#160;&#160;&#160;&#160;&#160;&#160;&#160;&#160;&#160;&#160;&#160;&#160;&#160;&#160;&#160;&#160;&#160;&#160;&#160;&#160;&#160;&#160;&#160;&#160;&#160;&#160;&#160;&#160;&#160;&#160;&#160;&#160;&#160;&#160;&#160;&#160;&#160;&#160;&#160;MasterLabel &#160;&#160;&#160;&#160;&#160;&#160;&#160;&#160;&#160;&#160;&#160;&#160;&#160;&#160;&#160;&#160;&#160;&#160;&#160;&#160;&#160;&#160;&#160;&#160;&#160;&#160;&#160;&#160;&#160;&#160;&#160;&#160;&#160;&#160;&#160;&#160;&#160;&#160;</text>
<polygon fill="none" stroke="#99ccff" points="1073.9463,-171 1073.9463,-188 1164.9463,-188 1164.9463,-171 1073.9463,-171"/>
<text text-anchor="start" x="1086.4409" y="-176.2" font-family="Courier,monospace" font-size="11.00" fill="#000000">string(80)</text>
<polygon fill="none" stroke="#99ccff" points="335.9463,-154 335.9463,-171 1073.9463,-171 1073.9463,-154 335.9463,-154"/>
<text text-anchor="start" x="338.9463" y="-159.2" font-family="Courier,monospace" font-size="11.00" fill="#000000"> &#160;&#160;&#160;&#160;&#160;&#160;&#160;&#160;&#160;&#160;&#160;&#160;&#160;&#160;&#160;&#160;&#160;&#160;&#160;&#160;&#160;&#160;&#160;&#160;&#160;&#160;&#160;&#160;&#160;&#160;&#160;&#160;&#160;&#160;&#160;&#160;&#160;&#160;&#160;&#160;LastModifiedById &#160;&#160;&#160;&#160;&#160;&#160;&#160;&#160;&#160;&#160;&#160;&#160;&#160;&#160;&#160;&#160;&#160;&#160;&#160;&#160;&#160;&#160;&#160;&#160;&#160;&#160;&#160;&#160;&#160;&#160;&#160;&#160;&#160;&#160;&#160;&#160;&#160;&#160;</text>
<polygon fill="none" stroke="#99ccff" points="1073.9463,-154 1073.9463,-171 1164.9463,-171 1164.9463,-154 1073.9463,-154"/>
<text text-anchor="start" x="1076.5393" y="-159.2" font-family="Courier,monospace" font-size="11.00" fill="#000000">reference(18)</text>
<polygon fill="none" stroke="#99ccff" points="335.9463,-137 335.9463,-154 1073.9463,-154 1073.9463,-137 335.9463,-137"/>
<text text-anchor="start" x="338.9463" y="-142.2" font-family="Courier,monospace" font-size="11.00" fill="#000000"> &#160;&#160;&#160;&#160;&#160;&#160;&#160;&#160;&#160;&#160;&#160;&#160;&#160;&#160;&#160;&#160;&#160;&#160;&#160;&#160;&#160;&#160;&#160;&#160;&#160;&#160;&#160;&#160;&#160;&#160;&#160;&#160;&#160;&#160;&#160;&#160;&#160;&#160;&#160;&#160;Capacity &#160;&#160;&#160;&#160;&#160;&#160;&#160;&#160;&#160;&#160;&#160;&#160;&#160;&#160;&#160;&#160;&#160;&#160;&#160;&#160;&#160;&#160;&#160;&#160;&#160;&#160;&#160;&#160;&#160;&#160;&#160;&#160;&#160;&#160;&#160;&#160;&#160;&#160;</text>
<polygon fill="none" stroke="#99ccff" points="1073.9463,-137 1073.9463,-154 1164.9463,-154 1164.9463,-137 1073.9463,-137"/>
<text text-anchor="start" x="1109.5447" y="-142.2" font-family="Courier,monospace" font-size="11.00" fill="#000000">int</text>
<polygon fill="none" stroke="#99ccff" points="335.9463,-120 335.9463,-137 1073.9463,-137 1073.9463,-120 335.9463,-120"/>
<text text-anchor="start" x="338.9463" y="-125.2" font-family="Courier,monospace" font-size="11.00" fill="#000000"> &#160;&#160;&#160;&#160;&#160;&#160;&#160;&#160;&#160;&#160;&#160;&#160;&#160;&#160;&#160;&#160;&#160;&#160;&#160;&#160;&#160;&#160;&#160;&#160;&#160;&#160;&#160;&#160;&#160;&#160;&#160;&#160;&#160;&#160;&#160;&#160;&#160;&#160;&#160;&#160;OptionsIsAutoAcceptEnabled &#160;&#160;&#160;&#160;&#160;&#160;&#160;&#160;&#160;&#160;&#160;&#160;&#160;&#160;&#160;&#160;&#160;&#160;&#160;&#160;&#160;&#160;&#160;&#160;&#160;&#160;&#160;&#160;&#160;&#160;&#160;&#160;&#160;&#160;&#160;&#160;&#160;&#160;</text>
<polygon fill="none" stroke="#99ccff" points="1073.9463,-120 1073.9463,-137 1164.9463,-137 1164.9463,-120 1073.9463,-120"/>
<text text-anchor="start" x="1096.3425" y="-125.2" font-family="Courier,monospace" font-size="11.00" fill="#000000">boolean</text>
<polygon fill="none" stroke="#99ccff" points="335.9463,-103 335.9463,-120 1073.9463,-120 1073.9463,-103 335.9463,-103"/>
<text text-anchor="start" x="338.9463" y="-108.2" font-family="Courier,monospace" font-size="11.00" fill="#000000"> &#160;&#160;&#160;&#160;&#160;&#160;&#160;&#160;&#160;&#160;&#160;&#160;&#160;&#160;&#160;&#160;&#160;&#160;&#160;&#160;&#160;&#160;&#160;&#160;&#160;&#160;&#160;&#160;&#160;&#160;&#160;&#160;&#160;&#160;&#160;&#160;&#160;&#160;&#160;&#160;OptionsIsDeclineEnabled &#160;&#160;&#160;&#160;&#160;&#160;&#160;&#160;&#160;&#160;&#160;&#160;&#160;&#160;&#160;&#160;&#160;&#160;&#160;&#160;&#160;&#160;&#160;&#160;&#160;&#160;&#160;&#160;&#160;&#160;&#160;&#160;&#160;&#160;&#160;&#160;&#160;&#160;</text>
<polygon fill="none" stroke="#99ccff" points="1073.9463,-103 1073.9463,-120 1164.9463,-120 1164.9463,-103 1073.9463,-103"/>
<text text-anchor="start" x="1096.3425" y="-108.2" font-family="Courier,monospace" font-size="11.00" fill="#000000">boolean</text>
<polygon fill="none" stroke="#99ccff" points="335.9463,-86 335.9463,-103 1073.9463,-103 1073.9463,-86 335.9463,-86"/>
<text text-anchor="start" x="338.9463" y="-91.2" font-family="Courier,monospace" font-size="11.00" fill="#000000"> &#160;&#160;&#160;&#160;&#160;&#160;&#160;&#160;&#160;&#160;&#160;&#160;&#160;&#160;&#160;&#160;&#160;&#160;&#160;&#160;&#160;&#160;&#160;&#160;&#160;&#160;&#160;&#160;&#160;&#160;&#160;&#160;&#160;&#160;&#160;&#160;&#160;&#160;&#160;&#160;OptionsIsDeclineReasonEnabled &#160;&#160;&#160;&#160;&#160;&#160;&#160;&#160;&#160;&#160;&#160;&#160;&#160;&#160;&#160;&#160;&#160;&#160;&#160;&#160;&#160;&#160;&#160;&#160;&#160;&#160;&#160;&#160;&#160;&#160;&#160;&#160;&#160;&#160;&#160;&#160;&#160;&#160;</text>
<polygon fill="none" stroke="#99ccff" points="1073.9463,-86 1073.9463,-103 1164.9463,-103 1164.9463,-86 1073.9463,-86"/>
<text text-anchor="start" x="1096.3425" y="-91.2" font-family="Courier,monospace" font-size="11.00" fill="#000000">boolean</text>
<polygon fill="none" stroke="#99ccff" points="335.9463,-69 335.9463,-86 1073.9463,-86 1073.9463,-69 335.9463,-69"/>
<text text-anchor="start" x="338.9463" y="-74.2" font-family="Courier,monospace" font-size="11.00" fill="#000000"> &#160;&#160;&#160;&#160;&#160;&#160;&#160;&#160;&#160;&#160;&#160;&#160;&#160;&#160;&#160;&#160;&#160;&#160;&#160;&#160;&#160;&#160;&#160;&#160;&#160;&#160;&#160;&#160;&#160;&#160;&#160;&#160;&#160;&#160;&#160;&#160;&#160;&#160;&#160;&#160;OptionsIsRequestSoundEnabled &#160;&#160;&#160;&#160;&#160;&#160;&#160;&#160;&#160;&#160;&#160;&#160;&#160;&#160;&#160;&#160;&#160;&#160;&#160;&#160;&#160;&#160;&#160;&#160;&#160;&#160;&#160;&#160;&#160;&#160;&#160;&#160;&#160;&#160;&#160;&#160;&#160;&#160;</text>
<polygon fill="none" stroke="#99ccff" points="1073.9463,-69 1073.9463,-86 1164.9463,-86 1164.9463,-69 1073.9463,-69"/>
<text text-anchor="start" x="1096.3425" y="-74.2" font-family="Courier,monospace" font-size="11.00" fill="#000000">boolean</text>
<polygon fill="none" stroke="#99ccff" points="335.9463,-52 335.9463,-69 1073.9463,-69 1073.9463,-52 335.9463,-52"/>
<text text-anchor="start" x="338.5867" y="-57.2" font-family="Courier,monospace" font-size="11.00" fill="#000000"> &#160;&#160;&#160;&#160;&#160;&#160;&#160;&#160;&#160;&#160;&#160;&#160;&#160;&#160;&#160;&#160;&#160;&#160;&#160;&#160;&#160;&#160;&#160;&#160;&#160;&#160;&#160;&#160;&#160;&#160;&#160;&#160;&#160;&#160;&#160;&#160;&#160;&#160;&#160;&#160;OptionsIsDisconnectSoundEnabled &#160;&#160;&#160;&#160;&#160;&#160;&#160;&#160;&#160;&#160;&#160;&#160;&#160;&#160;&#160;&#160;&#160;&#160;&#160;&#160;&#160;&#160;&#160;&#160;&#160;&#160;&#160;&#160;&#160;&#160;&#160;&#160;&#160;&#160;&#160;&#160;&#160;&#160;</text>
<polygon fill="none" stroke="#99ccff" points="1073.9463,-52 1073.9463,-69 1164.9463,-69 1164.9463,-52 1073.9463,-52"/>
<text text-anchor="start" x="1096.3425" y="-57.2" font-family="Courier,monospace" font-size="11.00" fill="#000000">boolean</text>
<polygon fill="none" stroke="#99ccff" points="335.9463,-35 335.9463,-52 1073.9463,-52 1073.9463,-35 335.9463,-35"/>
<text text-anchor="start" x="338.9463" y="-40.2" font-family="Courier,monospace" font-size="11.00" fill="#000000"> &#160;&#160;&#160;&#160;&#160;&#160;&#160;&#160;&#160;&#160;&#160;&#160;&#160;&#160;&#160;&#160;&#160;&#160;&#160;&#160;&#160;&#160;&#160;&#160;&#160;&#160;&#160;&#160;&#160;&#160;&#160;&#160;&#160;&#160;&#160;&#160;&#160;&#160;&#160;&#160;PresenceStatusOnDeclineId &#160;&#160;&#160;&#160;&#160;&#160;&#160;&#160;&#160;&#160;&#160;&#160;&#160;&#160;&#160;&#160;&#160;&#160;&#160;&#160;&#160;&#160;&#160;&#160;&#160;&#160;&#160;&#160;&#160;&#160;&#160;&#160;&#160;&#160;&#160;&#160;&#160;&#160;</text>
<polygon fill="none" stroke="#99ccff" points="1073.9463,-35 1073.9463,-52 1164.9463,-52 1164.9463,-35 1073.9463,-35"/>
<text text-anchor="start" x="1076.5393" y="-40.2" font-family="Courier,monospace" font-size="11.00" fill="#000000">reference(18)</text>
<polygon fill="none" stroke="#99ccff" points="335.9463,-18 335.9463,-35 1073.9463,-35 1073.9463,-18 335.9463,-18"/>
<text text-anchor="start" x="338.9463" y="-23.2" font-family="Courier,monospace" font-size="11.00" fill="#000000"> &#160;&#160;&#160;&#160;&#160;&#160;&#160;&#160;&#160;&#160;&#160;&#160;&#160;&#160;&#160;&#160;&#160;&#160;&#160;&#160;&#160;&#160;&#160;&#160;&#160;&#160;&#160;&#160;&#160;&#160;&#160;&#160;&#160;&#160;&#160;&#160;&#160;&#160;&#160;&#160;PresenceStatusOnPushTimeoutId &#160;&#160;&#160;&#160;&#160;&#160;&#160;&#160;&#160;&#160;&#160;&#160;&#160;&#160;&#160;&#160;&#160;&#160;&#160;&#160;&#160;&#160;&#160;&#160;&#160;&#160;&#160;&#160;&#160;&#160;&#160;&#160;&#160;&#160;&#160;&#160;&#160;&#160;</text>
<polygon fill="none" stroke="#99ccff" points="1073.9463,-18 1073.9463,-35 1164.9463,-35 1164.9463,-18 1073.9463,-18"/>
<text text-anchor="start" x="1076.5393" y="-23.2" font-family="Courier,monospace" font-size="11.00" fill="#000000">reference(18)</text>
<polygon fill="none" stroke="#99ccff" points="334.4463,-17.5 334.4463,-274.5 1165.4463,-274.5 1165.4463,-17.5 334.4463,-17.5"/>
</a>
</g>
</g>
<!-- User -->
<g id="node2" class="node">
<title>User</title>
<text text-anchor="middle" x="77.3113" y="-159.7" font-family="Courier,monospace" font-size="11.00" fill="#000000">User</text>
</g>
<!-- PresenceUserConfig&#45;&gt;User -->
<g id="edge1" class="edge">
<title>PresenceUserConfig:w&#45;&gt;User:e</title>
<path fill="none" stroke="#ff99cc" d="M321.4655,-163C240.3817,-163 148.9478,-163 104.4938,-163"/>
<polygon fill="#ff99cc" stroke="#ff99cc" points="327.9463,-163.0001 335.9463,-166.6 331.9463,-163 335.9463,-163 335.9463,-163 335.9463,-163 331.9463,-163 335.9463,-159.4 327.9463,-163.0001 327.9463,-163.0001"/>
<ellipse fill="none" stroke="#ff99cc" cx="324.7463" cy="-163.0001" rx="3.2" ry="3.2"/>
<text text-anchor="middle" x="244.5344" y="-167.8015" font-family="Monaco" font-size="9.00" fill="#000000">LastModifiedBy</text>
</g>
<!-- ServicePresenceStatus -->
<g id="node3" class="node">
<title>ServicePresenceStatus</title>
<text text-anchor="middle" x="77.3113" y="-31.7" font-family="Courier,monospace" font-size="11.00" fill="#000000">ServicePresenceStatus</text>
</g>
<!-- PresenceUserConfig&#45;&gt;ServicePresenceStatus -->
<g id="edge2" class="edge">
<title>PresenceUserConfig:w&#45;&gt;ServicePresenceStatus:e</title>
<path fill="none" stroke="#ff99cc" d="M321.5181,-42.9599C264.284,-42.6493 201.9141,-40.5854 154.5317,-38.6372"/>
<polygon fill="#ff99cc" stroke="#ff99cc" points="327.9463,-42.9777 335.9363,-46.6 331.9463,-42.9889 335.9463,-43 335.9463,-43 335.9463,-43 331.9463,-42.9889 335.9563,-39.4 327.9463,-42.9777 327.9463,-42.9777"/>
<ellipse fill="none" stroke="#ff99cc" cx="324.7463" cy="-42.9688" rx="3.2" ry="3.2"/>
<text text-anchor="middle" x="244.5344" y="-47.8015" font-family="Monaco" font-size="9.00" fill="#000000">PresenceStatusOnDecline</text>
</g>
<!-- PresenceUserConfig&#45;&gt;ServicePresenceStatus -->
<g id="edge3" class="edge">
<title>PresenceUserConfig:w&#45;&gt;ServicePresenceStatus:e</title>
<path fill="none" stroke="#ff99cc" d="M321.5045,-25.1736C320.3152,-25.1016 318.9896,-25.0403 317.4463,-24.9985 252.6594,-23.2463 236.3427,-21.5764 171.6226,-24.9985 166.0322,-25.2941 160.2632,-25.6876 154.4616,-26.1478"/>
<polygon fill="#ff99cc" stroke="#ff99cc" points="327.9594,-25.5429 335.7406,-29.5941 331.9528,-25.7715 335.9463,-26 335.9463,-26 335.9463,-26 331.9528,-25.7715 336.152,-22.4059 327.9594,-25.5429 327.9594,-25.5429"/>
<ellipse fill="none" stroke="#ff99cc" cx="324.7646" cy="-25.3601" rx="3.2" ry="3.2"/>
<text text-anchor="middle" x="244.5344" y="-29.8015" font-family="Monaco" font-size="9.00" fill="#000000">PresenceStatusOnPushTimeout</text>
</g>
</g>
</svg>
