<?xml version="1.0" encoding="UTF-8" standalone="no"?>
<!DOCTYPE svg PUBLIC "-//W3C//DTD SVG 1.1//EN"
 "http://www.w3.org/Graphics/SVG/1.1/DTD/svg11.dtd">
<!-- Generated by graphviz version 2.40.1 (20161225.0304)
 -->
<!-- Title: Salesforce+ ERD Pages: 1 -->
<svg width="1088pt" height="170pt"
 viewBox="0.00 0.00 1088.04 170.00" xmlns="http://www.w3.org/2000/svg" xmlns:xlink="http://www.w3.org/1999/xlink">
<g id="graph0" class="graph" transform="scale(1 1) rotate(0) translate(4 166)">
<title>Salesforce+ ERD</title>
<polygon fill="#efeffd" stroke="transparent" points="-4,4 -4,-166 1084.041,-166 1084.041,4 -4,4"/>
<text text-anchor="middle" x="1031.5344" y="-5.8" font-family="Courier,monospace" font-size="9.00" fill="#000000">Salesforce ERD </text>
<!-- PresenceConfigDeclineReason -->
<g id="node1" class="node">
<title>PresenceConfigDeclineReason</title>
<g id="a_node1"><a xlink:href="#" xlink:title=" PresenceConfigDeclineReason ">
<polygon fill="#ffeeff" stroke="transparent" points="302.041,-58 302.041,-162 1080.041,-162 1080.041,-58 302.041,-58"/>
<polygon fill="#add8e6" stroke="transparent" points="303.041,-144 303.041,-161 1079.041,-161 1079.041,-144 303.041,-144"/>
<polygon fill="none" stroke="#99ccff" points="303.041,-144 303.041,-161 1079.041,-161 1079.041,-144 303.041,-144"/>
<text text-anchor="start" x="601.9265" y="-150.2" font-family="Courier,monospace" font-weight="bold" font-size="11.00" fill="#000000">PresenceConfigDeclineReason</text>
<polygon fill="#99ccff" stroke="transparent" points="303.041,-127 303.041,-144 988.041,-144 988.041,-127 303.041,-127"/>
<polygon fill="none" stroke="#99ccff" points="303.041,-127 303.041,-144 988.041,-144 988.041,-127 303.041,-127"/>
<text text-anchor="start" x="306.041" y="-133.2" font-family="Courier,monospace" font-size="11.00" fill="#000000"> &#160;&#160;&#160;&#160;&#160;&#160;&#160;&#160;&#160;&#160;&#160;&#160;&#160;&#160;&#160;&#160;&#160;&#160;&#160;&#160;&#160;&#160;&#160;&#160;&#160;&#160;&#160;&#160;&#160;&#160;&#160;&#160;&#160;&#160;&#160;&#160;&#160;&#160;&#160;&#160;&#160;&#160;</text>
<text text-anchor="start" x="589.8872" y="-133.2" font-family="Courier,monospace" font-weight="bold" font-size="11.00" fill="#000000">Id</text>
<text text-anchor="start" x="603.0894" y="-133.2" font-family="Courier,monospace" font-size="11.00" fill="#000000"> &#160;&#160;&#160;&#160;&#160;&#160;&#160;&#160;&#160;&#160;&#160;&#160;&#160;&#160;&#160;&#160;&#160;&#160;&#160;&#160;&#160;&#160;&#160;&#160;&#160;&#160;&#160;&#160;&#160;&#160;&#160;&#160;&#160;&#160;&#160;&#160;&#160;&#160;&#160;</text>
<polygon fill="none" stroke="#99ccff" points="988.041,-127 988.041,-144 1079.041,-144 1079.041,-127 988.041,-127"/>
<text text-anchor="start" x="1013.7378" y="-132.2" font-family="Courier,monospace" font-size="11.00" fill="#000000">id(18)</text>
<polygon fill="none" stroke="#99ccff" points="303.041,-110 303.041,-127 988.041,-127 988.041,-110 303.041,-110"/>
<text text-anchor="start" x="306.041" y="-115.2" font-family="Courier,monospace" font-size="11.00" fill="#000000"> &#160;&#160;&#160;&#160;&#160;&#160;&#160;&#160;&#160;&#160;&#160;&#160;&#160;&#160;&#160;&#160;&#160;&#160;&#160;&#160;&#160;&#160;&#160;&#160;&#160;&#160;&#160;&#160;&#160;&#160;&#160;&#160;&#160;&#160;&#160;&#160;&#160;&#160;&#160;&#160;IsDeleted &#160;&#160;&#160;&#160;&#160;&#160;&#160;&#160;&#160;&#160;&#160;&#160;&#160;&#160;&#160;&#160;&#160;&#160;&#160;&#160;&#160;&#160;&#160;&#160;&#160;&#160;&#160;&#160;&#160;&#160;&#160;&#160;&#160;&#160;&#160;&#160;&#160;&#160;</text>
<polygon fill="none" stroke="#99ccff" points="988.041,-110 988.041,-127 1079.041,-127 1079.041,-110 988.041,-110"/>
<text text-anchor="start" x="1010.4373" y="-115.2" font-family="Courier,monospace" font-size="11.00" fill="#000000">boolean</text>
<polygon fill="none" stroke="#99ccff" points="303.041,-93 303.041,-110 988.041,-110 988.041,-93 303.041,-93"/>
<text text-anchor="start" x="306.041" y="-98.2" font-family="Courier,monospace" font-size="11.00" fill="#000000"> &#160;&#160;&#160;&#160;&#160;&#160;&#160;&#160;&#160;&#160;&#160;&#160;&#160;&#160;&#160;&#160;&#160;&#160;&#160;&#160;&#160;&#160;&#160;&#160;&#160;&#160;&#160;&#160;&#160;&#160;&#160;&#160;&#160;&#160;&#160;&#160;&#160;&#160;&#160;&#160;LastModifiedById &#160;&#160;&#160;&#160;&#160;&#160;&#160;&#160;&#160;&#160;&#160;&#160;&#160;&#160;&#160;&#160;&#160;&#160;&#160;&#160;&#160;&#160;&#160;&#160;&#160;&#160;&#160;&#160;&#160;&#160;&#160;&#160;&#160;&#160;&#160;&#160;&#160;&#160;</text>
<polygon fill="none" stroke="#99ccff" points="988.041,-93 988.041,-110 1079.041,-110 1079.041,-93 988.041,-93"/>
<text text-anchor="start" x="990.634" y="-98.2" font-family="Courier,monospace" font-size="11.00" fill="#000000">reference(18)</text>
<polygon fill="none" stroke="#99ccff" points="303.041,-76 303.041,-93 988.041,-93 988.041,-76 303.041,-76"/>
<text text-anchor="start" x="306.041" y="-81.2" font-family="Courier,monospace" font-size="11.00" fill="#000000"> &#160;&#160;&#160;&#160;&#160;&#160;&#160;&#160;&#160;&#160;&#160;&#160;&#160;&#160;&#160;&#160;&#160;&#160;&#160;&#160;&#160;&#160;&#160;&#160;&#160;&#160;&#160;&#160;&#160;&#160;&#160;&#160;&#160;&#160;&#160;&#160;&#160;&#160;&#160;&#160;PresenceUserConfigId &#160;&#160;&#160;&#160;&#160;&#160;&#160;&#160;&#160;&#160;&#160;&#160;&#160;&#160;&#160;&#160;&#160;&#160;&#160;&#160;&#160;&#160;&#160;&#160;&#160;&#160;&#160;&#160;&#160;&#160;&#160;&#160;&#160;&#160;&#160;&#160;&#160;&#160;</text>
<polygon fill="none" stroke="#99ccff" points="988.041,-76 988.041,-93 1079.041,-93 1079.041,-76 988.041,-76"/>
<text text-anchor="start" x="990.634" y="-81.2" font-family="Courier,monospace" font-size="11.00" fill="#000000">reference(18)</text>
<polygon fill="none" stroke="#99ccff" points="303.041,-59 303.041,-76 988.041,-76 988.041,-59 303.041,-59"/>
<text text-anchor="start" x="305.5857" y="-64.2" font-family="Courier,monospace" font-size="11.00" fill="#000000"> &#160;&#160;&#160;&#160;&#160;&#160;&#160;&#160;&#160;&#160;&#160;&#160;&#160;&#160;&#160;&#160;&#160;&#160;&#160;&#160;&#160;&#160;&#160;&#160;&#160;&#160;&#160;&#160;&#160;&#160;&#160;&#160;&#160;&#160;&#160;&#160;&#160;&#160;&#160;&#160;PresenceDeclineReasonId &#160;&#160;&#160;&#160;&#160;&#160;&#160;&#160;&#160;&#160;&#160;&#160;&#160;&#160;&#160;&#160;&#160;&#160;&#160;&#160;&#160;&#160;&#160;&#160;&#160;&#160;&#160;&#160;&#160;&#160;&#160;&#160;&#160;&#160;&#160;&#160;&#160;&#160;</text>
<polygon fill="none" stroke="#99ccff" points="988.041,-59 988.041,-76 1079.041,-76 1079.041,-59 988.041,-59"/>
<text text-anchor="start" x="990.634" y="-64.2" font-family="Courier,monospace" font-size="11.00" fill="#000000">reference(18)</text>
<polygon fill="none" stroke="#99ccff" points="302.041,-58 302.041,-162 1080.041,-162 1080.041,-58 302.041,-58"/>
</a>
</g>
</g>
<!-- User -->
<g id="node2" class="node">
<title>User</title>
<text text-anchor="middle" x="77.3113" y="-129.7" font-family="Courier,monospace" font-size="11.00" fill="#000000">User</text>
</g>
<!-- PresenceConfigDeclineReason&#45;&gt;User -->
<g id="edge1" class="edge">
<title>PresenceConfigDeclineReason:w&#45;&gt;User:e</title>
<path fill="none" stroke="#ff99cc" d="M288.5109,-101.2084C219.8383,-103.1294 144.0371,-117.8829 104.5851,-126.6012"/>
<polygon fill="#ff99cc" stroke="#ff99cc" points="295.0418,-101.1148 303.0927,-104.5996 299.0414,-101.0574 303.041,-101 303.041,-101 303.041,-101 299.0414,-101.0574 302.9894,-97.4004 295.0418,-101.1148 295.0418,-101.1148"/>
<ellipse fill="none" stroke="#ff99cc" cx="291.8422" cy="-101.1607" rx="3.2" ry="3.2"/>
<text text-anchor="middle" x="228.3318" y="-117.8015" font-family="Monaco" font-size="9.00" fill="#000000">LastModifiedBy</text>
</g>
<!-- PresenceUserConfig -->
<g id="node3" class="node">
<title>PresenceUserConfig</title>
<text text-anchor="middle" x="77.3113" y="-80.7" font-family="Courier,monospace" font-size="11.00" fill="#000000">PresenceUserConfig</text>
</g>
<!-- PresenceConfigDeclineReason&#45;&gt;PresenceUserConfig -->
<g id="edge2" class="edge">
<title>PresenceConfigDeclineReason:w&#45;&gt;PresenceUserConfig:e</title>
<path fill="none" stroke="#ff99cc" d="M288.5746,-84C239.2588,-84 185.7832,-84 144.9721,-84"/>
<polygon fill="#ff99cc" stroke="#ff99cc" points="295.041,-84.0001 303.041,-87.6 299.041,-84 303.041,-84 303.041,-84 303.041,-84 299.041,-84 303.041,-80.4 295.041,-84.0001 295.041,-84.0001"/>
<ellipse fill="none" stroke="#ff99cc" cx="291.841" cy="-84.0001" rx="3.2" ry="3.2"/>
<text text-anchor="middle" x="228.3318" y="-88.8015" font-family="Monaco" font-size="9.00" fill="#000000">PresenceUserConfig</text>
</g>
<!-- PresenceDeclineReason -->
<g id="node4" class="node">
<title>PresenceDeclineReason</title>
<text text-anchor="middle" x="77.3113" y="-31.7" font-family="Courier,monospace" font-size="11.00" fill="#000000">PresenceDeclineReason</text>
</g>
<!-- PresenceConfigDeclineReason&#45;&gt;PresenceDeclineReason -->
<g id="edge3" class="edge">
<title>PresenceConfigDeclineReason:w&#45;&gt;PresenceDeclineReason:e</title>
<path fill="none" stroke="#ff99cc" d="M288.613,-66.7945C242.7844,-65.5209 193.7708,-58.5268 154.498,-51.4218"/>
<polygon fill="#ff99cc" stroke="#ff99cc" points="295.0418,-66.886 302.9897,-70.5996 299.0414,-66.943 303.041,-67 303.041,-67 303.041,-67 299.0414,-66.943 303.0923,-63.4004 295.0418,-66.886 295.0418,-66.886"/>
<ellipse fill="none" stroke="#ff99cc" cx="291.8422" cy="-66.8404" rx="3.2" ry="3.2"/>
<text text-anchor="middle" x="228.3318" y="-71.8015" font-family="Monaco" font-size="9.00" fill="#000000">PresenceDeclineReason</text>
</g>
</g>
</svg>
