<?xml version="1.0" encoding="UTF-8" standalone="no"?>
<!DOCTYPE svg PUBLIC "-//W3C//DTD SVG 1.1//EN"
 "http://www.w3.org/Graphics/SVG/1.1/DTD/svg11.dtd">
<!-- Generated by graphviz version 2.40.1 (20161225.0304)
 -->
<!-- Title: Salesforce+ ERD Pages: 1 -->
<svg width="904pt" height="156pt"
 viewBox="0.00 0.00 903.61 155.50" xmlns="http://www.w3.org/2000/svg" xmlns:xlink="http://www.w3.org/1999/xlink">
<g id="graph0" class="graph" transform="scale(1 1) rotate(0) translate(4 151.5)">
<title>Salesforce+ ERD</title>
<polygon fill="#efeffd" stroke="transparent" points="-4,4 -4,-151.5 899.6123,-151.5 899.6123,4 -4,4"/>
<text text-anchor="middle" x="847.1057" y="-5.8" font-family="Courier,monospace" font-size="9.00" fill="#000000">Salesforce ERD </text>
<!-- PresenceDeclineReason -->
<g id="node1" class="node">
<title>PresenceDeclineReason</title>
<g id="a_node1"><a xlink:href="#" xlink:title=" PresenceDeclineReason ">
<polygon fill="#ffeeff" stroke="transparent" points="163.6123,-26.5 163.6123,-147.5 895.6123,-147.5 895.6123,-26.5 163.6123,-26.5"/>
<polygon fill="#add8e6" stroke="transparent" points="164.6123,-129 164.6123,-146 894.6123,-146 894.6123,-129 164.6123,-129"/>
<polygon fill="none" stroke="#99ccff" points="164.6123,-129 164.6123,-146 894.6123,-146 894.6123,-129 164.6123,-129"/>
<text text-anchor="start" x="460.301" y="-135.2" font-family="Courier,monospace" font-weight="bold" font-size="11.00" fill="#000000">PresenceDeclineReason</text>
<polygon fill="#99ccff" stroke="transparent" points="164.6123,-112 164.6123,-129 803.6123,-129 803.6123,-112 164.6123,-112"/>
<polygon fill="none" stroke="#99ccff" points="164.6123,-112 164.6123,-129 803.6123,-129 803.6123,-112 164.6123,-112"/>
<text text-anchor="start" x="167.6123" y="-118.2" font-family="Courier,monospace" font-size="11.00" fill="#000000"> &#160;&#160;&#160;&#160;&#160;&#160;&#160;&#160;&#160;&#160;&#160;&#160;&#160;&#160;&#160;&#160;&#160;&#160;&#160;&#160;&#160;&#160;&#160;&#160;&#160;&#160;&#160;&#160;&#160;&#160;&#160;&#160;&#160;&#160;&#160;&#160;&#160;&#160;&#160;&#160;&#160;&#160;</text>
<text text-anchor="start" x="451.4585" y="-118.2" font-family="Courier,monospace" font-weight="bold" font-size="11.00" fill="#000000">Id</text>
<text text-anchor="start" x="464.6606" y="-118.2" font-family="Courier,monospace" font-size="11.00" fill="#000000"> &#160;&#160;&#160;&#160;&#160;&#160;&#160;&#160;&#160;&#160;&#160;&#160;&#160;&#160;&#160;&#160;&#160;&#160;&#160;&#160;&#160;&#160;&#160;&#160;&#160;&#160;&#160;&#160;&#160;&#160;&#160;&#160;&#160;&#160;&#160;&#160;&#160;&#160;&#160;</text>
<polygon fill="none" stroke="#99ccff" points="803.6123,-112 803.6123,-129 894.6123,-129 894.6123,-112 803.6123,-112"/>
<text text-anchor="start" x="829.3091" y="-117.2" font-family="Courier,monospace" font-size="11.00" fill="#000000">id(18)</text>
<polygon fill="none" stroke="#99ccff" points="164.6123,-95 164.6123,-112 803.6123,-112 803.6123,-95 164.6123,-95"/>
<text text-anchor="start" x="167.6123" y="-100.2" font-family="Courier,monospace" font-size="11.00" fill="#000000"> &#160;&#160;&#160;&#160;&#160;&#160;&#160;&#160;&#160;&#160;&#160;&#160;&#160;&#160;&#160;&#160;&#160;&#160;&#160;&#160;&#160;&#160;&#160;&#160;&#160;&#160;&#160;&#160;&#160;&#160;&#160;&#160;&#160;&#160;&#160;&#160;&#160;&#160;&#160;&#160;IsDeleted &#160;&#160;&#160;&#160;&#160;&#160;&#160;&#160;&#160;&#160;&#160;&#160;&#160;&#160;&#160;&#160;&#160;&#160;&#160;&#160;&#160;&#160;&#160;&#160;&#160;&#160;&#160;&#160;&#160;&#160;&#160;&#160;&#160;&#160;&#160;&#160;&#160;&#160;</text>
<polygon fill="none" stroke="#99ccff" points="803.6123,-95 803.6123,-112 894.6123,-112 894.6123,-95 803.6123,-95"/>
<text text-anchor="start" x="826.0085" y="-100.2" font-family="Courier,monospace" font-size="11.00" fill="#000000">boolean</text>
<polygon fill="none" stroke="#99ccff" points="164.6123,-78 164.6123,-95 803.6123,-95 803.6123,-78 164.6123,-78"/>
<text text-anchor="start" x="167.6123" y="-83.2" font-family="Courier,monospace" font-size="11.00" fill="#000000"> &#160;&#160;&#160;&#160;&#160;&#160;&#160;&#160;&#160;&#160;&#160;&#160;&#160;&#160;&#160;&#160;&#160;&#160;&#160;&#160;&#160;&#160;&#160;&#160;&#160;&#160;&#160;&#160;&#160;&#160;&#160;&#160;&#160;&#160;&#160;&#160;&#160;&#160;&#160;&#160;DeveloperName &#160;&#160;&#160;&#160;&#160;&#160;&#160;&#160;&#160;&#160;&#160;&#160;&#160;&#160;&#160;&#160;&#160;&#160;&#160;&#160;&#160;&#160;&#160;&#160;&#160;&#160;&#160;&#160;&#160;&#160;&#160;&#160;&#160;&#160;&#160;&#160;&#160;&#160;</text>
<polygon fill="none" stroke="#99ccff" points="803.6123,-78 803.6123,-95 894.6123,-95 894.6123,-78 803.6123,-78"/>
<text text-anchor="start" x="816.1069" y="-83.2" font-family="Courier,monospace" font-size="11.00" fill="#000000">string(80)</text>
<polygon fill="none" stroke="#99ccff" points="164.6123,-61 164.6123,-78 803.6123,-78 803.6123,-61 164.6123,-61"/>
<text text-anchor="start" x="167.6123" y="-66.2" font-family="Courier,monospace" font-size="11.00" fill="#000000"> &#160;&#160;&#160;&#160;&#160;&#160;&#160;&#160;&#160;&#160;&#160;&#160;&#160;&#160;&#160;&#160;&#160;&#160;&#160;&#160;&#160;&#160;&#160;&#160;&#160;&#160;&#160;&#160;&#160;&#160;&#160;&#160;&#160;&#160;&#160;&#160;&#160;&#160;&#160;&#160;Language &#160;&#160;&#160;&#160;&#160;&#160;&#160;&#160;&#160;&#160;&#160;&#160;&#160;&#160;&#160;&#160;&#160;&#160;&#160;&#160;&#160;&#160;&#160;&#160;&#160;&#160;&#160;&#160;&#160;&#160;&#160;&#160;&#160;&#160;&#160;&#160;&#160;&#160;</text>
<polygon fill="none" stroke="#99ccff" points="803.6123,-61 803.6123,-78 894.6123,-78 894.6123,-61 803.6123,-61"/>
<text text-anchor="start" x="809.5059" y="-66.2" font-family="Courier,monospace" font-size="11.00" fill="#000000">picklist(40)</text>
<polygon fill="none" stroke="#99ccff" points="164.6123,-44 164.6123,-61 803.6123,-61 803.6123,-44 164.6123,-44"/>
<text text-anchor="start" x="167.6123" y="-49.2" font-family="Courier,monospace" font-size="11.00" fill="#000000"> &#160;&#160;&#160;&#160;&#160;&#160;&#160;&#160;&#160;&#160;&#160;&#160;&#160;&#160;&#160;&#160;&#160;&#160;&#160;&#160;&#160;&#160;&#160;&#160;&#160;&#160;&#160;&#160;&#160;&#160;&#160;&#160;&#160;&#160;&#160;&#160;&#160;&#160;&#160;&#160;MasterLabel &#160;&#160;&#160;&#160;&#160;&#160;&#160;&#160;&#160;&#160;&#160;&#160;&#160;&#160;&#160;&#160;&#160;&#160;&#160;&#160;&#160;&#160;&#160;&#160;&#160;&#160;&#160;&#160;&#160;&#160;&#160;&#160;&#160;&#160;&#160;&#160;&#160;&#160;</text>
<polygon fill="none" stroke="#99ccff" points="803.6123,-44 803.6123,-61 894.6123,-61 894.6123,-44 803.6123,-44"/>
<text text-anchor="start" x="816.1069" y="-49.2" font-family="Courier,monospace" font-size="11.00" fill="#000000">string(80)</text>
<polygon fill="none" stroke="#99ccff" points="164.6123,-27 164.6123,-44 803.6123,-44 803.6123,-27 164.6123,-27"/>
<text text-anchor="start" x="167.2607" y="-32.2" font-family="Courier,monospace" font-size="11.00" fill="#000000"> &#160;&#160;&#160;&#160;&#160;&#160;&#160;&#160;&#160;&#160;&#160;&#160;&#160;&#160;&#160;&#160;&#160;&#160;&#160;&#160;&#160;&#160;&#160;&#160;&#160;&#160;&#160;&#160;&#160;&#160;&#160;&#160;&#160;&#160;&#160;&#160;&#160;&#160;&#160;&#160;LastModifiedById &#160;&#160;&#160;&#160;&#160;&#160;&#160;&#160;&#160;&#160;&#160;&#160;&#160;&#160;&#160;&#160;&#160;&#160;&#160;&#160;&#160;&#160;&#160;&#160;&#160;&#160;&#160;&#160;&#160;&#160;&#160;&#160;&#160;&#160;&#160;&#160;&#160;&#160;</text>
<polygon fill="none" stroke="#99ccff" points="803.6123,-27 803.6123,-44 894.6123,-44 894.6123,-27 803.6123,-27"/>
<text text-anchor="start" x="806.2053" y="-32.2" font-family="Courier,monospace" font-size="11.00" fill="#000000">reference(18)</text>
<polygon fill="none" stroke="#99ccff" points="163.6123,-26.5 163.6123,-147.5 895.6123,-147.5 895.6123,-26.5 163.6123,-26.5"/>
</a>
</g>
</g>
<!-- User -->
<g id="node2" class="node">
<title>User</title>
<text text-anchor="middle" x="27" y="-31.7" font-family="Courier,monospace" font-size="11.00" fill="#000000">User</text>
</g>
<!-- PresenceDeclineReason&#45;&gt;User -->
<g id="edge1" class="edge">
<title>PresenceDeclineReason:w&#45;&gt;User:e</title>
<path fill="none" stroke="#ff99cc" d="M149.9953,-35C115.4377,-35 78.4424,-35 54.1551,-35"/>
<polygon fill="#ff99cc" stroke="#ff99cc" points="156.6123,-35.0001 164.6123,-38.6 160.6123,-35 164.6123,-35 164.6123,-35 164.6123,-35 160.6123,-35 164.6123,-31.4 156.6123,-35.0001 156.6123,-35.0001"/>
<ellipse fill="none" stroke="#ff99cc" cx="153.4123" cy="-35.0001" rx="3.2" ry="3.2"/>
<text text-anchor="middle" x="108.8062" y="-39.8015" font-family="Monaco" font-size="9.00" fill="#000000">LastModifiedBy</text>
</g>
</g>
</svg>
