<?xml version="1.0" encoding="UTF-8" standalone="no"?>
<!DOCTYPE svg PUBLIC "-//W3C//DTD SVG 1.1//EN"
 "http://www.w3.org/Graphics/SVG/1.1/DTD/svg11.dtd">
<!-- Generated by graphviz version 2.40.1 (20161225.0304)
 -->
<!-- Title: Salesforce+ ERD Pages: 1 -->
<svg width="927pt" height="258pt"
 viewBox="0.00 0.00 927.41 257.50" xmlns="http://www.w3.org/2000/svg" xmlns:xlink="http://www.w3.org/1999/xlink">
<g id="graph0" class="graph" transform="scale(1 1) rotate(0) translate(4 253.5)">
<title>Salesforce+ ERD</title>
<polygon fill="#efeffd" stroke="transparent" points="-4,4 -4,-253.5 923.4141,-253.5 923.4141,4 -4,4"/>
<text text-anchor="middle" x="870.9075" y="-5.8" font-family="Courier,monospace" font-size="9.00" fill="#000000">Salesforce ERD </text>
<!-- QueueRoutingConfig -->
<g id="node1" class="node">
<title>QueueRoutingConfig</title>
<g id="a_node1"><a xlink:href="#" xlink:title=" QueueRoutingConfig ">
<polygon fill="#ffeeff" stroke="transparent" points="174.4141,-26.5 174.4141,-249.5 919.4141,-249.5 919.4141,-26.5 174.4141,-26.5"/>
<polygon fill="#add8e6" stroke="transparent" points="175.9141,-231 175.9141,-248 918.9141,-248 918.9141,-231 175.9141,-231"/>
<polygon fill="none" stroke="#99ccff" points="175.9141,-231 175.9141,-248 918.9141,-248 918.9141,-231 175.9141,-231"/>
<text text-anchor="start" x="488.0044" y="-237.2" font-family="Courier,monospace" font-weight="bold" font-size="11.00" fill="#000000">QueueRoutingConfig</text>
<polygon fill="#99ccff" stroke="transparent" points="175.9141,-214 175.9141,-231 827.9141,-231 827.9141,-214 175.9141,-214"/>
<polygon fill="none" stroke="#99ccff" points="175.9141,-214 175.9141,-231 827.9141,-231 827.9141,-214 175.9141,-214"/>
<text text-anchor="start" x="178.9141" y="-220.2" font-family="Courier,monospace" font-size="11.00" fill="#000000"> &#160;&#160;&#160;&#160;&#160;&#160;&#160;&#160;&#160;&#160;&#160;&#160;&#160;&#160;&#160;&#160;&#160;&#160;&#160;&#160;&#160;&#160;&#160;&#160;&#160;&#160;&#160;&#160;&#160;&#160;&#160;&#160;&#160;&#160;&#160;&#160;&#160;&#160;&#160;&#160;&#160;&#160;</text>
<text text-anchor="start" x="462.7603" y="-220.2" font-family="Courier,monospace" font-weight="bold" font-size="11.00" fill="#000000">Id</text>
<text text-anchor="start" x="475.9624" y="-220.2" font-family="Courier,monospace" font-size="11.00" fill="#000000"> &#160;&#160;&#160;&#160;&#160;&#160;&#160;&#160;&#160;&#160;&#160;&#160;&#160;&#160;&#160;&#160;&#160;&#160;&#160;&#160;&#160;&#160;&#160;&#160;&#160;&#160;&#160;&#160;&#160;&#160;&#160;&#160;&#160;&#160;&#160;&#160;&#160;&#160;&#160;</text>
<polygon fill="none" stroke="#99ccff" points="827.9141,-214 827.9141,-231 918.9141,-231 918.9141,-214 827.9141,-214"/>
<text text-anchor="start" x="853.6108" y="-219.2" font-family="Courier,monospace" font-size="11.00" fill="#000000">id(18)</text>
<polygon fill="none" stroke="#99ccff" points="175.9141,-197 175.9141,-214 827.9141,-214 827.9141,-197 175.9141,-197"/>
<text text-anchor="start" x="178.9141" y="-202.2" font-family="Courier,monospace" font-size="11.00" fill="#000000"> &#160;&#160;&#160;&#160;&#160;&#160;&#160;&#160;&#160;&#160;&#160;&#160;&#160;&#160;&#160;&#160;&#160;&#160;&#160;&#160;&#160;&#160;&#160;&#160;&#160;&#160;&#160;&#160;&#160;&#160;&#160;&#160;&#160;&#160;&#160;&#160;&#160;&#160;&#160;&#160;IsDeleted &#160;&#160;&#160;&#160;&#160;&#160;&#160;&#160;&#160;&#160;&#160;&#160;&#160;&#160;&#160;&#160;&#160;&#160;&#160;&#160;&#160;&#160;&#160;&#160;&#160;&#160;&#160;&#160;&#160;&#160;&#160;&#160;&#160;&#160;&#160;&#160;&#160;&#160;</text>
<polygon fill="none" stroke="#99ccff" points="827.9141,-197 827.9141,-214 918.9141,-214 918.9141,-197 827.9141,-197"/>
<text text-anchor="start" x="850.3103" y="-202.2" font-family="Courier,monospace" font-size="11.00" fill="#000000">boolean</text>
<polygon fill="none" stroke="#99ccff" points="175.9141,-180 175.9141,-197 827.9141,-197 827.9141,-180 175.9141,-180"/>
<text text-anchor="start" x="178.9141" y="-185.2" font-family="Courier,monospace" font-size="11.00" fill="#000000"> &#160;&#160;&#160;&#160;&#160;&#160;&#160;&#160;&#160;&#160;&#160;&#160;&#160;&#160;&#160;&#160;&#160;&#160;&#160;&#160;&#160;&#160;&#160;&#160;&#160;&#160;&#160;&#160;&#160;&#160;&#160;&#160;&#160;&#160;&#160;&#160;&#160;&#160;&#160;&#160;DeveloperName &#160;&#160;&#160;&#160;&#160;&#160;&#160;&#160;&#160;&#160;&#160;&#160;&#160;&#160;&#160;&#160;&#160;&#160;&#160;&#160;&#160;&#160;&#160;&#160;&#160;&#160;&#160;&#160;&#160;&#160;&#160;&#160;&#160;&#160;&#160;&#160;&#160;&#160;</text>
<polygon fill="none" stroke="#99ccff" points="827.9141,-180 827.9141,-197 918.9141,-197 918.9141,-180 827.9141,-180"/>
<text text-anchor="start" x="840.4087" y="-185.2" font-family="Courier,monospace" font-size="11.00" fill="#000000">string(80)</text>
<polygon fill="none" stroke="#99ccff" points="175.9141,-163 175.9141,-180 827.9141,-180 827.9141,-163 175.9141,-163"/>
<text text-anchor="start" x="178.9141" y="-168.2" font-family="Courier,monospace" font-size="11.00" fill="#000000"> &#160;&#160;&#160;&#160;&#160;&#160;&#160;&#160;&#160;&#160;&#160;&#160;&#160;&#160;&#160;&#160;&#160;&#160;&#160;&#160;&#160;&#160;&#160;&#160;&#160;&#160;&#160;&#160;&#160;&#160;&#160;&#160;&#160;&#160;&#160;&#160;&#160;&#160;&#160;&#160;Language &#160;&#160;&#160;&#160;&#160;&#160;&#160;&#160;&#160;&#160;&#160;&#160;&#160;&#160;&#160;&#160;&#160;&#160;&#160;&#160;&#160;&#160;&#160;&#160;&#160;&#160;&#160;&#160;&#160;&#160;&#160;&#160;&#160;&#160;&#160;&#160;&#160;&#160;</text>
<polygon fill="none" stroke="#99ccff" points="827.9141,-163 827.9141,-180 918.9141,-180 918.9141,-163 827.9141,-163"/>
<text text-anchor="start" x="833.8076" y="-168.2" font-family="Courier,monospace" font-size="11.00" fill="#000000">picklist(40)</text>
<polygon fill="none" stroke="#99ccff" points="175.9141,-146 175.9141,-163 827.9141,-163 827.9141,-146 175.9141,-146"/>
<text text-anchor="start" x="178.9141" y="-151.2" font-family="Courier,monospace" font-size="11.00" fill="#000000"> &#160;&#160;&#160;&#160;&#160;&#160;&#160;&#160;&#160;&#160;&#160;&#160;&#160;&#160;&#160;&#160;&#160;&#160;&#160;&#160;&#160;&#160;&#160;&#160;&#160;&#160;&#160;&#160;&#160;&#160;&#160;&#160;&#160;&#160;&#160;&#160;&#160;&#160;&#160;&#160;MasterLabel &#160;&#160;&#160;&#160;&#160;&#160;&#160;&#160;&#160;&#160;&#160;&#160;&#160;&#160;&#160;&#160;&#160;&#160;&#160;&#160;&#160;&#160;&#160;&#160;&#160;&#160;&#160;&#160;&#160;&#160;&#160;&#160;&#160;&#160;&#160;&#160;&#160;&#160;</text>
<polygon fill="none" stroke="#99ccff" points="827.9141,-146 827.9141,-163 918.9141,-163 918.9141,-146 827.9141,-146"/>
<text text-anchor="start" x="840.4087" y="-151.2" font-family="Courier,monospace" font-size="11.00" fill="#000000">string(80)</text>
<polygon fill="none" stroke="#99ccff" points="175.9141,-129 175.9141,-146 827.9141,-146 827.9141,-129 175.9141,-129"/>
<text text-anchor="start" x="178.9141" y="-134.2" font-family="Courier,monospace" font-size="11.00" fill="#000000"> &#160;&#160;&#160;&#160;&#160;&#160;&#160;&#160;&#160;&#160;&#160;&#160;&#160;&#160;&#160;&#160;&#160;&#160;&#160;&#160;&#160;&#160;&#160;&#160;&#160;&#160;&#160;&#160;&#160;&#160;&#160;&#160;&#160;&#160;&#160;&#160;&#160;&#160;&#160;&#160;LastModifiedById &#160;&#160;&#160;&#160;&#160;&#160;&#160;&#160;&#160;&#160;&#160;&#160;&#160;&#160;&#160;&#160;&#160;&#160;&#160;&#160;&#160;&#160;&#160;&#160;&#160;&#160;&#160;&#160;&#160;&#160;&#160;&#160;&#160;&#160;&#160;&#160;&#160;&#160;</text>
<polygon fill="none" stroke="#99ccff" points="827.9141,-129 827.9141,-146 918.9141,-146 918.9141,-129 827.9141,-129"/>
<text text-anchor="start" x="830.5071" y="-134.2" font-family="Courier,monospace" font-size="11.00" fill="#000000">reference(18)</text>
<polygon fill="none" stroke="#99ccff" points="175.9141,-112 175.9141,-129 827.9141,-129 827.9141,-112 175.9141,-112"/>
<text text-anchor="start" x="178.9141" y="-117.2" font-family="Courier,monospace" font-size="11.00" fill="#000000"> &#160;&#160;&#160;&#160;&#160;&#160;&#160;&#160;&#160;&#160;&#160;&#160;&#160;&#160;&#160;&#160;&#160;&#160;&#160;&#160;&#160;&#160;&#160;&#160;&#160;&#160;&#160;&#160;&#160;&#160;&#160;&#160;&#160;&#160;&#160;&#160;&#160;&#160;&#160;&#160;RoutingPriority &#160;&#160;&#160;&#160;&#160;&#160;&#160;&#160;&#160;&#160;&#160;&#160;&#160;&#160;&#160;&#160;&#160;&#160;&#160;&#160;&#160;&#160;&#160;&#160;&#160;&#160;&#160;&#160;&#160;&#160;&#160;&#160;&#160;&#160;&#160;&#160;&#160;&#160;</text>
<polygon fill="none" stroke="#99ccff" points="827.9141,-112 827.9141,-129 918.9141,-129 918.9141,-112 827.9141,-112"/>
<text text-anchor="start" x="863.5125" y="-117.2" font-family="Courier,monospace" font-size="11.00" fill="#000000">int</text>
<polygon fill="none" stroke="#99ccff" points="175.9141,-95 175.9141,-112 827.9141,-112 827.9141,-95 175.9141,-95"/>
<text text-anchor="start" x="178.9141" y="-100.2" font-family="Courier,monospace" font-size="11.00" fill="#000000"> &#160;&#160;&#160;&#160;&#160;&#160;&#160;&#160;&#160;&#160;&#160;&#160;&#160;&#160;&#160;&#160;&#160;&#160;&#160;&#160;&#160;&#160;&#160;&#160;&#160;&#160;&#160;&#160;&#160;&#160;&#160;&#160;&#160;&#160;&#160;&#160;&#160;&#160;&#160;&#160;RoutingModel &#160;&#160;&#160;&#160;&#160;&#160;&#160;&#160;&#160;&#160;&#160;&#160;&#160;&#160;&#160;&#160;&#160;&#160;&#160;&#160;&#160;&#160;&#160;&#160;&#160;&#160;&#160;&#160;&#160;&#160;&#160;&#160;&#160;&#160;&#160;&#160;&#160;&#160;</text>
<polygon fill="none" stroke="#99ccff" points="827.9141,-95 827.9141,-112 918.9141,-112 918.9141,-95 827.9141,-95"/>
<text text-anchor="start" x="830.5071" y="-100.2" font-family="Courier,monospace" font-size="11.00" fill="#000000">picklist(255)</text>
<polygon fill="none" stroke="#99ccff" points="175.9141,-78 175.9141,-95 827.9141,-95 827.9141,-78 175.9141,-78"/>
<text text-anchor="start" x="178.9141" y="-83.2" font-family="Courier,monospace" font-size="11.00" fill="#000000"> &#160;&#160;&#160;&#160;&#160;&#160;&#160;&#160;&#160;&#160;&#160;&#160;&#160;&#160;&#160;&#160;&#160;&#160;&#160;&#160;&#160;&#160;&#160;&#160;&#160;&#160;&#160;&#160;&#160;&#160;&#160;&#160;&#160;&#160;&#160;&#160;&#160;&#160;&#160;&#160;CapacityWeight &#160;&#160;&#160;&#160;&#160;&#160;&#160;&#160;&#160;&#160;&#160;&#160;&#160;&#160;&#160;&#160;&#160;&#160;&#160;&#160;&#160;&#160;&#160;&#160;&#160;&#160;&#160;&#160;&#160;&#160;&#160;&#160;&#160;&#160;&#160;&#160;&#160;&#160;</text>
<polygon fill="none" stroke="#99ccff" points="827.9141,-78 827.9141,-95 918.9141,-95 918.9141,-78 827.9141,-78"/>
<text text-anchor="start" x="853.6108" y="-83.2" font-family="Courier,monospace" font-size="11.00" fill="#000000">double</text>
<polygon fill="none" stroke="#99ccff" points="175.9141,-61 175.9141,-78 827.9141,-78 827.9141,-61 175.9141,-61"/>
<text text-anchor="start" x="178.4614" y="-66.2" font-family="Courier,monospace" font-size="11.00" fill="#000000"> &#160;&#160;&#160;&#160;&#160;&#160;&#160;&#160;&#160;&#160;&#160;&#160;&#160;&#160;&#160;&#160;&#160;&#160;&#160;&#160;&#160;&#160;&#160;&#160;&#160;&#160;&#160;&#160;&#160;&#160;&#160;&#160;&#160;&#160;&#160;&#160;&#160;&#160;&#160;&#160;CapacityPercentage &#160;&#160;&#160;&#160;&#160;&#160;&#160;&#160;&#160;&#160;&#160;&#160;&#160;&#160;&#160;&#160;&#160;&#160;&#160;&#160;&#160;&#160;&#160;&#160;&#160;&#160;&#160;&#160;&#160;&#160;&#160;&#160;&#160;&#160;&#160;&#160;&#160;&#160;</text>
<polygon fill="none" stroke="#99ccff" points="827.9141,-61 827.9141,-78 918.9141,-78 918.9141,-61 827.9141,-61"/>
<text text-anchor="start" x="850.3103" y="-66.2" font-family="Courier,monospace" font-size="11.00" fill="#000000">percent</text>
<polygon fill="none" stroke="#99ccff" points="175.9141,-44 175.9141,-61 827.9141,-61 827.9141,-44 175.9141,-44"/>
<text text-anchor="start" x="178.9141" y="-49.2" font-family="Courier,monospace" font-size="11.00" fill="#000000"> &#160;&#160;&#160;&#160;&#160;&#160;&#160;&#160;&#160;&#160;&#160;&#160;&#160;&#160;&#160;&#160;&#160;&#160;&#160;&#160;&#160;&#160;&#160;&#160;&#160;&#160;&#160;&#160;&#160;&#160;&#160;&#160;&#160;&#160;&#160;&#160;&#160;&#160;&#160;&#160;PushTimeout &#160;&#160;&#160;&#160;&#160;&#160;&#160;&#160;&#160;&#160;&#160;&#160;&#160;&#160;&#160;&#160;&#160;&#160;&#160;&#160;&#160;&#160;&#160;&#160;&#160;&#160;&#160;&#160;&#160;&#160;&#160;&#160;&#160;&#160;&#160;&#160;&#160;&#160;</text>
<polygon fill="none" stroke="#99ccff" points="827.9141,-44 827.9141,-61 918.9141,-61 918.9141,-44 827.9141,-44"/>
<text text-anchor="start" x="863.5125" y="-49.2" font-family="Courier,monospace" font-size="11.00" fill="#000000">int</text>
<polygon fill="none" stroke="#99ccff" points="175.9141,-27 175.9141,-44 827.9141,-44 827.9141,-27 175.9141,-27"/>
<text text-anchor="start" x="178.4614" y="-32.2" font-family="Courier,monospace" font-size="11.00" fill="#000000"> &#160;&#160;&#160;&#160;&#160;&#160;&#160;&#160;&#160;&#160;&#160;&#160;&#160;&#160;&#160;&#160;&#160;&#160;&#160;&#160;&#160;&#160;&#160;&#160;&#160;&#160;&#160;&#160;&#160;&#160;&#160;&#160;&#160;&#160;&#160;&#160;&#160;&#160;&#160;&#160;OverflowAssigneeId &#160;&#160;&#160;&#160;&#160;&#160;&#160;&#160;&#160;&#160;&#160;&#160;&#160;&#160;&#160;&#160;&#160;&#160;&#160;&#160;&#160;&#160;&#160;&#160;&#160;&#160;&#160;&#160;&#160;&#160;&#160;&#160;&#160;&#160;&#160;&#160;&#160;&#160;</text>
<polygon fill="none" stroke="#99ccff" points="827.9141,-27 827.9141,-44 918.9141,-44 918.9141,-27 827.9141,-27"/>
<text text-anchor="start" x="830.5071" y="-32.2" font-family="Courier,monospace" font-size="11.00" fill="#000000">reference(18)</text>
<polygon fill="none" stroke="#99ccff" points="174.4141,-26.5 174.4141,-249.5 919.4141,-249.5 919.4141,-26.5 174.4141,-26.5"/>
</a>
</g>
</g>
<!-- User -->
<g id="node2" class="node">
<title>User</title>
<text text-anchor="middle" x="27" y="-96.7" font-family="Courier,monospace" font-size="11.00" fill="#000000">User</text>
</g>
<!-- QueueRoutingConfig&#45;&gt;User -->
<g id="edge1" class="edge">
<title>QueueRoutingConfig:w&#45;&gt;User:e</title>
<path fill="none" stroke="#ff99cc" d="M161.471,-136.4836C121.9435,-133.7486 80.472,-120.7147 54.2165,-111.001"/>
<polygon fill="#ff99cc" stroke="#ff99cc" points="167.9192,-136.7141 175.7854,-140.5977 171.9166,-136.857 175.9141,-137 175.9141,-137 175.9141,-137 171.9166,-136.857 176.0427,-133.4023 167.9192,-136.7141 167.9192,-136.7141"/>
<ellipse fill="none" stroke="#ff99cc" cx="164.7212" cy="-136.5997" rx="3.2" ry="3.2"/>
<text text-anchor="middle" x="114.207" y="-139.8015" font-family="Monaco" font-size="9.00" fill="#000000">LastModifiedBy</text>
</g>
<!-- QueueRoutingConfig&#45;&gt;User -->
<g id="edge3" class="edge">
<title>QueueRoutingConfig:w&#45;&gt;User:e</title>
<path fill="none" stroke="#ff99cc" d="M164.0778,-43.5502C162.485,-45.8392 160.5651,-48.1803 157.4141,-50 123.8166,-69.4022 81.273,-84.0829 54.0899,-92.365"/>
<polygon fill="#ff99cc" stroke="#ff99cc" points="169.4291,-39.6846 178.0221,-37.9182 172.6716,-37.3423 175.9141,-35 175.9141,-35 175.9141,-35 172.6716,-37.3423 173.806,-32.0818 169.4291,-39.6846 169.4291,-39.6846"/>
<ellipse fill="none" stroke="#ff99cc" cx="166.8351" cy="-41.5584" rx="3.2" ry="3.2"/>
<text text-anchor="middle" x="114.207" y="-91.8015" font-family="Monaco" font-size="9.00" fill="#000000">OverflowAssignee</text>
</g>
<!-- Group -->
<g id="node3" class="node">
<title>Group</title>
<text text-anchor="middle" x="27" y="-31.7" font-family="Courier,monospace" font-size="11.00" fill="#000000">Group</text>
</g>
<!-- QueueRoutingConfig&#45;&gt;Group -->
<g id="edge2" class="edge">
<title>QueueRoutingConfig:w&#45;&gt;Group:e</title>
<path fill="none" stroke="#ff99cc" d="M161.4926,-35C122.637,-35 80.7019,-35 54.1734,-35"/>
<polygon fill="#ff99cc" stroke="#ff99cc" points="167.9141,-35.0001 175.9141,-38.6 171.9141,-35 175.9141,-35 175.9141,-35 175.9141,-35 171.9141,-35 175.914,-31.4 167.9141,-35.0001 167.9141,-35.0001"/>
<ellipse fill="none" stroke="#ff99cc" cx="164.7141" cy="-35.0001" rx="3.2" ry="3.2"/>
<text text-anchor="middle" x="114.207" y="-39.8015" font-family="Monaco" font-size="9.00" fill="#000000">OverflowAssignee</text>
</g>
</g>
</svg>
