<?xml version="1.0" encoding="UTF-8" standalone="no"?>
<!DOCTYPE svg PUBLIC "-//W3C//DTD SVG 1.1//EN"
 "http://www.w3.org/Graphics/SVG/1.1/DTD/svg11.dtd">
<!-- Generated by graphviz version 2.40.1 (20161225.0304)
 -->
<!-- Title: Salesforce+ ERD Pages: 1 -->
<svg width="904pt" height="163pt"
 viewBox="0.00 0.00 903.61 163.00" xmlns="http://www.w3.org/2000/svg" xmlns:xlink="http://www.w3.org/1999/xlink">
<g id="graph0" class="graph" transform="scale(1 1) rotate(0) translate(4 159)">
<title>Salesforce+ ERD</title>
<polygon fill="#efeffd" stroke="transparent" points="-4,4 -4,-159 899.6123,-159 899.6123,4 -4,4"/>
<text text-anchor="middle" x="847.1057" y="-5.8" font-family="Courier,monospace" font-size="9.00" fill="#000000">Salesforce ERD </text>
<!-- ServiceChannel -->
<g id="node1" class="node">
<title>ServiceChannel</title>
<g id="a_node1"><a xlink:href="#" xlink:title=" ServiceChannel ">
<polygon fill="#ffeeff" stroke="transparent" points="163.6123,-17 163.6123,-155 895.6123,-155 895.6123,-17 163.6123,-17"/>
<polygon fill="#add8e6" stroke="transparent" points="164.6123,-137 164.6123,-154 894.6123,-154 894.6123,-137 164.6123,-137"/>
<polygon fill="none" stroke="#99ccff" points="164.6123,-137 164.6123,-154 894.6123,-154 894.6123,-137 164.6123,-137"/>
<text text-anchor="start" x="483.4048" y="-143.2" font-family="Courier,monospace" font-weight="bold" font-size="11.00" fill="#000000">ServiceChannel</text>
<polygon fill="#99ccff" stroke="transparent" points="164.6123,-120 164.6123,-137 803.6123,-137 803.6123,-120 164.6123,-120"/>
<polygon fill="none" stroke="#99ccff" points="164.6123,-120 164.6123,-137 803.6123,-137 803.6123,-120 164.6123,-120"/>
<text text-anchor="start" x="167.6123" y="-126.2" font-family="Courier,monospace" font-size="11.00" fill="#000000"> &#160;&#160;&#160;&#160;&#160;&#160;&#160;&#160;&#160;&#160;&#160;&#160;&#160;&#160;&#160;&#160;&#160;&#160;&#160;&#160;&#160;&#160;&#160;&#160;&#160;&#160;&#160;&#160;&#160;&#160;&#160;&#160;&#160;&#160;&#160;&#160;&#160;&#160;&#160;&#160;&#160;&#160;</text>
<text text-anchor="start" x="451.4585" y="-126.2" font-family="Courier,monospace" font-weight="bold" font-size="11.00" fill="#000000">Id</text>
<text text-anchor="start" x="464.6606" y="-126.2" font-family="Courier,monospace" font-size="11.00" fill="#000000"> &#160;&#160;&#160;&#160;&#160;&#160;&#160;&#160;&#160;&#160;&#160;&#160;&#160;&#160;&#160;&#160;&#160;&#160;&#160;&#160;&#160;&#160;&#160;&#160;&#160;&#160;&#160;&#160;&#160;&#160;&#160;&#160;&#160;&#160;&#160;&#160;&#160;&#160;&#160;</text>
<polygon fill="none" stroke="#99ccff" points="803.6123,-120 803.6123,-137 894.6123,-137 894.6123,-120 803.6123,-120"/>
<text text-anchor="start" x="829.3091" y="-125.2" font-family="Courier,monospace" font-size="11.00" fill="#000000">id(18)</text>
<polygon fill="none" stroke="#99ccff" points="164.6123,-103 164.6123,-120 803.6123,-120 803.6123,-103 164.6123,-103"/>
<text text-anchor="start" x="167.6123" y="-108.2" font-family="Courier,monospace" font-size="11.00" fill="#000000"> &#160;&#160;&#160;&#160;&#160;&#160;&#160;&#160;&#160;&#160;&#160;&#160;&#160;&#160;&#160;&#160;&#160;&#160;&#160;&#160;&#160;&#160;&#160;&#160;&#160;&#160;&#160;&#160;&#160;&#160;&#160;&#160;&#160;&#160;&#160;&#160;&#160;&#160;&#160;&#160;IsDeleted &#160;&#160;&#160;&#160;&#160;&#160;&#160;&#160;&#160;&#160;&#160;&#160;&#160;&#160;&#160;&#160;&#160;&#160;&#160;&#160;&#160;&#160;&#160;&#160;&#160;&#160;&#160;&#160;&#160;&#160;&#160;&#160;&#160;&#160;&#160;&#160;&#160;&#160;</text>
<polygon fill="none" stroke="#99ccff" points="803.6123,-103 803.6123,-120 894.6123,-120 894.6123,-103 803.6123,-103"/>
<text text-anchor="start" x="826.0085" y="-108.2" font-family="Courier,monospace" font-size="11.00" fill="#000000">boolean</text>
<polygon fill="none" stroke="#99ccff" points="164.6123,-86 164.6123,-103 803.6123,-103 803.6123,-86 164.6123,-86"/>
<text text-anchor="start" x="167.6123" y="-91.2" font-family="Courier,monospace" font-size="11.00" fill="#000000"> &#160;&#160;&#160;&#160;&#160;&#160;&#160;&#160;&#160;&#160;&#160;&#160;&#160;&#160;&#160;&#160;&#160;&#160;&#160;&#160;&#160;&#160;&#160;&#160;&#160;&#160;&#160;&#160;&#160;&#160;&#160;&#160;&#160;&#160;&#160;&#160;&#160;&#160;&#160;&#160;DeveloperName &#160;&#160;&#160;&#160;&#160;&#160;&#160;&#160;&#160;&#160;&#160;&#160;&#160;&#160;&#160;&#160;&#160;&#160;&#160;&#160;&#160;&#160;&#160;&#160;&#160;&#160;&#160;&#160;&#160;&#160;&#160;&#160;&#160;&#160;&#160;&#160;&#160;&#160;</text>
<polygon fill="none" stroke="#99ccff" points="803.6123,-86 803.6123,-103 894.6123,-103 894.6123,-86 803.6123,-86"/>
<text text-anchor="start" x="816.1069" y="-91.2" font-family="Courier,monospace" font-size="11.00" fill="#000000">string(80)</text>
<polygon fill="none" stroke="#99ccff" points="164.6123,-69 164.6123,-86 803.6123,-86 803.6123,-69 164.6123,-69"/>
<text text-anchor="start" x="167.6123" y="-74.2" font-family="Courier,monospace" font-size="11.00" fill="#000000"> &#160;&#160;&#160;&#160;&#160;&#160;&#160;&#160;&#160;&#160;&#160;&#160;&#160;&#160;&#160;&#160;&#160;&#160;&#160;&#160;&#160;&#160;&#160;&#160;&#160;&#160;&#160;&#160;&#160;&#160;&#160;&#160;&#160;&#160;&#160;&#160;&#160;&#160;&#160;&#160;Language &#160;&#160;&#160;&#160;&#160;&#160;&#160;&#160;&#160;&#160;&#160;&#160;&#160;&#160;&#160;&#160;&#160;&#160;&#160;&#160;&#160;&#160;&#160;&#160;&#160;&#160;&#160;&#160;&#160;&#160;&#160;&#160;&#160;&#160;&#160;&#160;&#160;&#160;</text>
<polygon fill="none" stroke="#99ccff" points="803.6123,-69 803.6123,-86 894.6123,-86 894.6123,-69 803.6123,-69"/>
<text text-anchor="start" x="809.5059" y="-74.2" font-family="Courier,monospace" font-size="11.00" fill="#000000">picklist(40)</text>
<polygon fill="none" stroke="#99ccff" points="164.6123,-52 164.6123,-69 803.6123,-69 803.6123,-52 164.6123,-52"/>
<text text-anchor="start" x="167.6123" y="-57.2" font-family="Courier,monospace" font-size="11.00" fill="#000000"> &#160;&#160;&#160;&#160;&#160;&#160;&#160;&#160;&#160;&#160;&#160;&#160;&#160;&#160;&#160;&#160;&#160;&#160;&#160;&#160;&#160;&#160;&#160;&#160;&#160;&#160;&#160;&#160;&#160;&#160;&#160;&#160;&#160;&#160;&#160;&#160;&#160;&#160;&#160;&#160;MasterLabel &#160;&#160;&#160;&#160;&#160;&#160;&#160;&#160;&#160;&#160;&#160;&#160;&#160;&#160;&#160;&#160;&#160;&#160;&#160;&#160;&#160;&#160;&#160;&#160;&#160;&#160;&#160;&#160;&#160;&#160;&#160;&#160;&#160;&#160;&#160;&#160;&#160;&#160;</text>
<polygon fill="none" stroke="#99ccff" points="803.6123,-52 803.6123,-69 894.6123,-69 894.6123,-52 803.6123,-52"/>
<text text-anchor="start" x="816.1069" y="-57.2" font-family="Courier,monospace" font-size="11.00" fill="#000000">string(80)</text>
<polygon fill="none" stroke="#99ccff" points="164.6123,-35 164.6123,-52 803.6123,-52 803.6123,-35 164.6123,-35"/>
<text text-anchor="start" x="167.2607" y="-40.2" font-family="Courier,monospace" font-size="11.00" fill="#000000"> &#160;&#160;&#160;&#160;&#160;&#160;&#160;&#160;&#160;&#160;&#160;&#160;&#160;&#160;&#160;&#160;&#160;&#160;&#160;&#160;&#160;&#160;&#160;&#160;&#160;&#160;&#160;&#160;&#160;&#160;&#160;&#160;&#160;&#160;&#160;&#160;&#160;&#160;&#160;&#160;LastModifiedById &#160;&#160;&#160;&#160;&#160;&#160;&#160;&#160;&#160;&#160;&#160;&#160;&#160;&#160;&#160;&#160;&#160;&#160;&#160;&#160;&#160;&#160;&#160;&#160;&#160;&#160;&#160;&#160;&#160;&#160;&#160;&#160;&#160;&#160;&#160;&#160;&#160;&#160;</text>
<polygon fill="none" stroke="#99ccff" points="803.6123,-35 803.6123,-52 894.6123,-52 894.6123,-35 803.6123,-35"/>
<text text-anchor="start" x="806.2053" y="-40.2" font-family="Courier,monospace" font-size="11.00" fill="#000000">reference(18)</text>
<polygon fill="none" stroke="#99ccff" points="164.6123,-18 164.6123,-35 803.6123,-35 803.6123,-18 164.6123,-18"/>
<text text-anchor="start" x="167.6123" y="-23.2" font-family="Courier,monospace" font-size="11.00" fill="#000000"> &#160;&#160;&#160;&#160;&#160;&#160;&#160;&#160;&#160;&#160;&#160;&#160;&#160;&#160;&#160;&#160;&#160;&#160;&#160;&#160;&#160;&#160;&#160;&#160;&#160;&#160;&#160;&#160;&#160;&#160;&#160;&#160;&#160;&#160;&#160;&#160;&#160;&#160;&#160;&#160;RelatedEntity &#160;&#160;&#160;&#160;&#160;&#160;&#160;&#160;&#160;&#160;&#160;&#160;&#160;&#160;&#160;&#160;&#160;&#160;&#160;&#160;&#160;&#160;&#160;&#160;&#160;&#160;&#160;&#160;&#160;&#160;&#160;&#160;&#160;&#160;&#160;&#160;&#160;&#160;</text>
<polygon fill="none" stroke="#99ccff" points="803.6123,-18 803.6123,-35 894.6123,-35 894.6123,-18 803.6123,-18"/>
<text text-anchor="start" x="806.2053" y="-23.2" font-family="Courier,monospace" font-size="11.00" fill="#000000">picklist(255)</text>
<polygon fill="none" stroke="#99ccff" points="163.6123,-17 163.6123,-155 895.6123,-155 895.6123,-17 163.6123,-17"/>
</a>
</g>
</g>
<!-- User -->
<g id="node2" class="node">
<title>User</title>
<text text-anchor="middle" x="27" y="-39.7" font-family="Courier,monospace" font-size="11.00" fill="#000000">User</text>
</g>
<!-- ServiceChannel&#45;&gt;User -->
<g id="edge1" class="edge">
<title>ServiceChannel:w&#45;&gt;User:e</title>
<path fill="none" stroke="#ff99cc" d="M149.9953,-43C115.4377,-43 78.4424,-43 54.1551,-43"/>
<polygon fill="#ff99cc" stroke="#ff99cc" points="156.6123,-43.0001 164.6123,-46.6 160.6123,-43 164.6123,-43 164.6123,-43 164.6123,-43 160.6123,-43 164.6123,-39.4 156.6123,-43.0001 156.6123,-43.0001"/>
<ellipse fill="none" stroke="#ff99cc" cx="153.4123" cy="-43.0001" rx="3.2" ry="3.2"/>
<text text-anchor="middle" x="108.8062" y="-47.8015" font-family="Monaco" font-size="9.00" fill="#000000">LastModifiedBy</text>
</g>
</g>
</svg>
