<?xml version="1.0" encoding="UTF-8" standalone="no"?>
<!DOCTYPE svg PUBLIC "-//W3C//DTD SVG 1.1//EN"
 "http://www.w3.org/Graphics/SVG/1.1/DTD/svg11.dtd">
<!-- Generated by graphviz version 2.40.1 (20161225.0304)
 -->
<!-- Title: Salesforce+ ERD Pages: 1 -->
<svg width="1088pt" height="316pt"
 viewBox="0.00 0.00 1088.04 316.00" xmlns="http://www.w3.org/2000/svg" xmlns:xlink="http://www.w3.org/1999/xlink">
<g id="graph0" class="graph" transform="scale(1 1) rotate(0) translate(4 312)">
<title>Salesforce+ ERD</title>
<polygon fill="#efeffd" stroke="transparent" points="-4,4 -4,-312 1084.041,-312 1084.041,4 -4,4"/>
<text text-anchor="middle" x="1031.5344" y="-5.8" font-family="Courier,monospace" font-size="9.00" fill="#000000">Salesforce ERD </text>
<!-- UserServicePresence -->
<g id="node1" class="node">
<title>UserServicePresence</title>
<g id="a_node1"><a xlink:href="#" xlink:title=" UserServicePresence ">
<polygon fill="#ffeeff" stroke="transparent" points="302.041,-17 302.041,-308 1080.041,-308 1080.041,-17 302.041,-17"/>
<polygon fill="#add8e6" stroke="transparent" points="303.041,-289.5 303.041,-306.5 1079.041,-306.5 1079.041,-289.5 303.041,-289.5"/>
<polygon fill="none" stroke="#99ccff" points="303.041,-289.5 303.041,-306.5 1079.041,-306.5 1079.041,-289.5 303.041,-289.5"/>
<text text-anchor="start" x="628.3308" y="-295.7" font-family="Courier,monospace" font-weight="bold" font-size="11.00" fill="#000000">UserServicePresence</text>
<polygon fill="#99ccff" stroke="transparent" points="303.041,-272.5 303.041,-289.5 988.041,-289.5 988.041,-272.5 303.041,-272.5"/>
<polygon fill="none" stroke="#99ccff" points="303.041,-272.5 303.041,-289.5 988.041,-289.5 988.041,-272.5 303.041,-272.5"/>
<text text-anchor="start" x="306.041" y="-278.7" font-family="Courier,monospace" font-size="11.00" fill="#000000"> &#160;&#160;&#160;&#160;&#160;&#160;&#160;&#160;&#160;&#160;&#160;&#160;&#160;&#160;&#160;&#160;&#160;&#160;&#160;&#160;&#160;&#160;&#160;&#160;&#160;&#160;&#160;&#160;&#160;&#160;&#160;&#160;&#160;&#160;&#160;&#160;&#160;&#160;&#160;&#160;&#160;&#160;</text>
<text text-anchor="start" x="589.8872" y="-278.7" font-family="Courier,monospace" font-weight="bold" font-size="11.00" fill="#000000">Id</text>
<text text-anchor="start" x="603.0894" y="-278.7" font-family="Courier,monospace" font-size="11.00" fill="#000000"> &#160;&#160;&#160;&#160;&#160;&#160;&#160;&#160;&#160;&#160;&#160;&#160;&#160;&#160;&#160;&#160;&#160;&#160;&#160;&#160;&#160;&#160;&#160;&#160;&#160;&#160;&#160;&#160;&#160;&#160;&#160;&#160;&#160;&#160;&#160;&#160;&#160;&#160;&#160;</text>
<polygon fill="none" stroke="#99ccff" points="988.041,-272.5 988.041,-289.5 1079.041,-289.5 1079.041,-272.5 988.041,-272.5"/>
<text text-anchor="start" x="1013.7378" y="-277.7" font-family="Courier,monospace" font-size="11.00" fill="#000000">id(18)</text>
<polygon fill="none" stroke="#99ccff" points="303.041,-255.5 303.041,-272.5 988.041,-272.5 988.041,-255.5 303.041,-255.5"/>
<text text-anchor="start" x="306.041" y="-260.7" font-family="Courier,monospace" font-size="11.00" fill="#000000"> &#160;&#160;&#160;&#160;&#160;&#160;&#160;&#160;&#160;&#160;&#160;&#160;&#160;&#160;&#160;&#160;&#160;&#160;&#160;&#160;&#160;&#160;&#160;&#160;&#160;&#160;&#160;&#160;&#160;&#160;&#160;&#160;&#160;&#160;&#160;&#160;&#160;&#160;&#160;&#160;OwnerId &#160;&#160;&#160;&#160;&#160;&#160;&#160;&#160;&#160;&#160;&#160;&#160;&#160;&#160;&#160;&#160;&#160;&#160;&#160;&#160;&#160;&#160;&#160;&#160;&#160;&#160;&#160;&#160;&#160;&#160;&#160;&#160;&#160;&#160;&#160;&#160;&#160;&#160;</text>
<polygon fill="none" stroke="#99ccff" points="988.041,-255.5 988.041,-272.5 1079.041,-272.5 1079.041,-255.5 988.041,-255.5"/>
<text text-anchor="start" x="990.634" y="-260.7" font-family="Courier,monospace" font-size="11.00" fill="#000000">reference(18)</text>
<polygon fill="none" stroke="#99ccff" points="303.041,-238.5 303.041,-255.5 988.041,-255.5 988.041,-238.5 303.041,-238.5"/>
<text text-anchor="start" x="306.041" y="-243.7" font-family="Courier,monospace" font-size="11.00" fill="#000000"> &#160;&#160;&#160;&#160;&#160;&#160;&#160;&#160;&#160;&#160;&#160;&#160;&#160;&#160;&#160;&#160;&#160;&#160;&#160;&#160;&#160;&#160;&#160;&#160;&#160;&#160;&#160;&#160;&#160;&#160;&#160;&#160;&#160;&#160;&#160;&#160;&#160;&#160;&#160;&#160;IsDeleted &#160;&#160;&#160;&#160;&#160;&#160;&#160;&#160;&#160;&#160;&#160;&#160;&#160;&#160;&#160;&#160;&#160;&#160;&#160;&#160;&#160;&#160;&#160;&#160;&#160;&#160;&#160;&#160;&#160;&#160;&#160;&#160;&#160;&#160;&#160;&#160;&#160;&#160;</text>
<polygon fill="none" stroke="#99ccff" points="988.041,-238.5 988.041,-255.5 1079.041,-255.5 1079.041,-238.5 988.041,-238.5"/>
<text text-anchor="start" x="1010.4373" y="-243.7" font-family="Courier,monospace" font-size="11.00" fill="#000000">boolean</text>
<polygon fill="none" stroke="#99ccff" points="303.041,-221.5 303.041,-238.5 988.041,-238.5 988.041,-221.5 303.041,-221.5"/>
<text text-anchor="start" x="306.041" y="-226.7" font-family="Courier,monospace" font-size="11.00" fill="#000000"> &#160;&#160;&#160;&#160;&#160;&#160;&#160;&#160;&#160;&#160;&#160;&#160;&#160;&#160;&#160;&#160;&#160;&#160;&#160;&#160;&#160;&#160;&#160;&#160;&#160;&#160;&#160;&#160;&#160;&#160;&#160;&#160;&#160;&#160;&#160;&#160;&#160;&#160;&#160;&#160;Name &#160;&#160;&#160;&#160;&#160;&#160;&#160;&#160;&#160;&#160;&#160;&#160;&#160;&#160;&#160;&#160;&#160;&#160;&#160;&#160;&#160;&#160;&#160;&#160;&#160;&#160;&#160;&#160;&#160;&#160;&#160;&#160;&#160;&#160;&#160;&#160;&#160;&#160;</text>
<polygon fill="none" stroke="#99ccff" points="988.041,-221.5 988.041,-238.5 1079.041,-238.5 1079.041,-221.5 988.041,-221.5"/>
<text text-anchor="start" x="997.2351" y="-226.7" font-family="Courier,monospace" font-size="11.00" fill="#000000">string(255)</text>
<polygon fill="none" stroke="#99ccff" points="303.041,-204.5 303.041,-221.5 988.041,-221.5 988.041,-204.5 303.041,-204.5"/>
<text text-anchor="start" x="306.041" y="-209.7" font-family="Courier,monospace" font-size="11.00" fill="#000000"> &#160;&#160;&#160;&#160;&#160;&#160;&#160;&#160;&#160;&#160;&#160;&#160;&#160;&#160;&#160;&#160;&#160;&#160;&#160;&#160;&#160;&#160;&#160;&#160;&#160;&#160;&#160;&#160;&#160;&#160;&#160;&#160;&#160;&#160;&#160;&#160;&#160;&#160;&#160;&#160;LastModifiedById &#160;&#160;&#160;&#160;&#160;&#160;&#160;&#160;&#160;&#160;&#160;&#160;&#160;&#160;&#160;&#160;&#160;&#160;&#160;&#160;&#160;&#160;&#160;&#160;&#160;&#160;&#160;&#160;&#160;&#160;&#160;&#160;&#160;&#160;&#160;&#160;&#160;&#160;</text>
<polygon fill="none" stroke="#99ccff" points="988.041,-204.5 988.041,-221.5 1079.041,-221.5 1079.041,-204.5 988.041,-204.5"/>
<text text-anchor="start" x="990.634" y="-209.7" font-family="Courier,monospace" font-size="11.00" fill="#000000">reference(18)</text>
<polygon fill="none" stroke="#99ccff" points="303.041,-187.5 303.041,-204.5 988.041,-204.5 988.041,-187.5 303.041,-187.5"/>
<text text-anchor="start" x="306.041" y="-192.7" font-family="Courier,monospace" font-size="11.00" fill="#000000"> &#160;&#160;&#160;&#160;&#160;&#160;&#160;&#160;&#160;&#160;&#160;&#160;&#160;&#160;&#160;&#160;&#160;&#160;&#160;&#160;&#160;&#160;&#160;&#160;&#160;&#160;&#160;&#160;&#160;&#160;&#160;&#160;&#160;&#160;&#160;&#160;&#160;&#160;&#160;&#160;UserId &#160;&#160;&#160;&#160;&#160;&#160;&#160;&#160;&#160;&#160;&#160;&#160;&#160;&#160;&#160;&#160;&#160;&#160;&#160;&#160;&#160;&#160;&#160;&#160;&#160;&#160;&#160;&#160;&#160;&#160;&#160;&#160;&#160;&#160;&#160;&#160;&#160;&#160;</text>
<polygon fill="none" stroke="#99ccff" points="988.041,-187.5 988.041,-204.5 1079.041,-204.5 1079.041,-187.5 988.041,-187.5"/>
<text text-anchor="start" x="990.634" y="-192.7" font-family="Courier,monospace" font-size="11.00" fill="#000000">reference(18)</text>
<polygon fill="none" stroke="#99ccff" points="303.041,-170.5 303.041,-187.5 988.041,-187.5 988.041,-170.5 303.041,-170.5"/>
<text text-anchor="start" x="305.5857" y="-175.7" font-family="Courier,monospace" font-size="11.00" fill="#000000"> &#160;&#160;&#160;&#160;&#160;&#160;&#160;&#160;&#160;&#160;&#160;&#160;&#160;&#160;&#160;&#160;&#160;&#160;&#160;&#160;&#160;&#160;&#160;&#160;&#160;&#160;&#160;&#160;&#160;&#160;&#160;&#160;&#160;&#160;&#160;&#160;&#160;&#160;&#160;&#160;ServicePresenceStatusId &#160;&#160;&#160;&#160;&#160;&#160;&#160;&#160;&#160;&#160;&#160;&#160;&#160;&#160;&#160;&#160;&#160;&#160;&#160;&#160;&#160;&#160;&#160;&#160;&#160;&#160;&#160;&#160;&#160;&#160;&#160;&#160;&#160;&#160;&#160;&#160;&#160;&#160;</text>
<polygon fill="none" stroke="#99ccff" points="988.041,-170.5 988.041,-187.5 1079.041,-187.5 1079.041,-170.5 988.041,-170.5"/>
<text text-anchor="start" x="990.634" y="-175.7" font-family="Courier,monospace" font-size="11.00" fill="#000000">reference(18)</text>
<polygon fill="none" stroke="#99ccff" points="303.041,-153.5 303.041,-170.5 988.041,-170.5 988.041,-153.5 303.041,-153.5"/>
<text text-anchor="start" x="306.041" y="-158.7" font-family="Courier,monospace" font-size="11.00" fill="#000000"> &#160;&#160;&#160;&#160;&#160;&#160;&#160;&#160;&#160;&#160;&#160;&#160;&#160;&#160;&#160;&#160;&#160;&#160;&#160;&#160;&#160;&#160;&#160;&#160;&#160;&#160;&#160;&#160;&#160;&#160;&#160;&#160;&#160;&#160;&#160;&#160;&#160;&#160;&#160;&#160;StatusStartDate &#160;&#160;&#160;&#160;&#160;&#160;&#160;&#160;&#160;&#160;&#160;&#160;&#160;&#160;&#160;&#160;&#160;&#160;&#160;&#160;&#160;&#160;&#160;&#160;&#160;&#160;&#160;&#160;&#160;&#160;&#160;&#160;&#160;&#160;&#160;&#160;&#160;&#160;</text>
<polygon fill="none" stroke="#99ccff" points="988.041,-153.5 988.041,-170.5 1079.041,-170.5 1079.041,-153.5 988.041,-153.5"/>
<text text-anchor="start" x="1007.1367" y="-158.7" font-family="Courier,monospace" font-size="11.00" fill="#000000">datetime</text>
<polygon fill="none" stroke="#99ccff" points="303.041,-136.5 303.041,-153.5 988.041,-153.5 988.041,-136.5 303.041,-136.5"/>
<text text-anchor="start" x="306.041" y="-141.7" font-family="Courier,monospace" font-size="11.00" fill="#000000"> &#160;&#160;&#160;&#160;&#160;&#160;&#160;&#160;&#160;&#160;&#160;&#160;&#160;&#160;&#160;&#160;&#160;&#160;&#160;&#160;&#160;&#160;&#160;&#160;&#160;&#160;&#160;&#160;&#160;&#160;&#160;&#160;&#160;&#160;&#160;&#160;&#160;&#160;&#160;&#160;ConfiguredCapacity &#160;&#160;&#160;&#160;&#160;&#160;&#160;&#160;&#160;&#160;&#160;&#160;&#160;&#160;&#160;&#160;&#160;&#160;&#160;&#160;&#160;&#160;&#160;&#160;&#160;&#160;&#160;&#160;&#160;&#160;&#160;&#160;&#160;&#160;&#160;&#160;&#160;&#160;</text>
<polygon fill="none" stroke="#99ccff" points="988.041,-136.5 988.041,-153.5 1079.041,-153.5 1079.041,-136.5 988.041,-136.5"/>
<text text-anchor="start" x="1023.6394" y="-141.7" font-family="Courier,monospace" font-size="11.00" fill="#000000">int</text>
<polygon fill="none" stroke="#99ccff" points="303.041,-119.5 303.041,-136.5 988.041,-136.5 988.041,-119.5 303.041,-119.5"/>
<text text-anchor="start" x="306.041" y="-124.7" font-family="Courier,monospace" font-size="11.00" fill="#000000"> &#160;&#160;&#160;&#160;&#160;&#160;&#160;&#160;&#160;&#160;&#160;&#160;&#160;&#160;&#160;&#160;&#160;&#160;&#160;&#160;&#160;&#160;&#160;&#160;&#160;&#160;&#160;&#160;&#160;&#160;&#160;&#160;&#160;&#160;&#160;&#160;&#160;&#160;&#160;&#160;StatusEndDate &#160;&#160;&#160;&#160;&#160;&#160;&#160;&#160;&#160;&#160;&#160;&#160;&#160;&#160;&#160;&#160;&#160;&#160;&#160;&#160;&#160;&#160;&#160;&#160;&#160;&#160;&#160;&#160;&#160;&#160;&#160;&#160;&#160;&#160;&#160;&#160;&#160;&#160;</text>
<polygon fill="none" stroke="#99ccff" points="988.041,-119.5 988.041,-136.5 1079.041,-136.5 1079.041,-119.5 988.041,-119.5"/>
<text text-anchor="start" x="1007.1367" y="-124.7" font-family="Courier,monospace" font-size="11.00" fill="#000000">datetime</text>
<polygon fill="none" stroke="#99ccff" points="303.041,-102.5 303.041,-119.5 988.041,-119.5 988.041,-102.5 303.041,-102.5"/>
<text text-anchor="start" x="306.041" y="-107.7" font-family="Courier,monospace" font-size="11.00" fill="#000000"> &#160;&#160;&#160;&#160;&#160;&#160;&#160;&#160;&#160;&#160;&#160;&#160;&#160;&#160;&#160;&#160;&#160;&#160;&#160;&#160;&#160;&#160;&#160;&#160;&#160;&#160;&#160;&#160;&#160;&#160;&#160;&#160;&#160;&#160;&#160;&#160;&#160;&#160;&#160;&#160;IsAway &#160;&#160;&#160;&#160;&#160;&#160;&#160;&#160;&#160;&#160;&#160;&#160;&#160;&#160;&#160;&#160;&#160;&#160;&#160;&#160;&#160;&#160;&#160;&#160;&#160;&#160;&#160;&#160;&#160;&#160;&#160;&#160;&#160;&#160;&#160;&#160;&#160;&#160;</text>
<polygon fill="none" stroke="#99ccff" points="988.041,-102.5 988.041,-119.5 1079.041,-119.5 1079.041,-102.5 988.041,-102.5"/>
<text text-anchor="start" x="1010.4373" y="-107.7" font-family="Courier,monospace" font-size="11.00" fill="#000000">boolean</text>
<polygon fill="none" stroke="#99ccff" points="303.041,-85.5 303.041,-102.5 988.041,-102.5 988.041,-85.5 303.041,-85.5"/>
<text text-anchor="start" x="306.041" y="-90.7" font-family="Courier,monospace" font-size="11.00" fill="#000000"> &#160;&#160;&#160;&#160;&#160;&#160;&#160;&#160;&#160;&#160;&#160;&#160;&#160;&#160;&#160;&#160;&#160;&#160;&#160;&#160;&#160;&#160;&#160;&#160;&#160;&#160;&#160;&#160;&#160;&#160;&#160;&#160;&#160;&#160;&#160;&#160;&#160;&#160;&#160;&#160;IdleDuration &#160;&#160;&#160;&#160;&#160;&#160;&#160;&#160;&#160;&#160;&#160;&#160;&#160;&#160;&#160;&#160;&#160;&#160;&#160;&#160;&#160;&#160;&#160;&#160;&#160;&#160;&#160;&#160;&#160;&#160;&#160;&#160;&#160;&#160;&#160;&#160;&#160;&#160;</text>
<polygon fill="none" stroke="#99ccff" points="988.041,-85.5 988.041,-102.5 1079.041,-102.5 1079.041,-85.5 988.041,-85.5"/>
<text text-anchor="start" x="1023.6394" y="-90.7" font-family="Courier,monospace" font-size="11.00" fill="#000000">int</text>
<polygon fill="none" stroke="#99ccff" points="303.041,-68.5 303.041,-85.5 988.041,-85.5 988.041,-68.5 303.041,-68.5"/>
<text text-anchor="start" x="306.041" y="-73.7" font-family="Courier,monospace" font-size="11.00" fill="#000000"> &#160;&#160;&#160;&#160;&#160;&#160;&#160;&#160;&#160;&#160;&#160;&#160;&#160;&#160;&#160;&#160;&#160;&#160;&#160;&#160;&#160;&#160;&#160;&#160;&#160;&#160;&#160;&#160;&#160;&#160;&#160;&#160;&#160;&#160;&#160;&#160;&#160;&#160;&#160;&#160;AtCapacityDuration &#160;&#160;&#160;&#160;&#160;&#160;&#160;&#160;&#160;&#160;&#160;&#160;&#160;&#160;&#160;&#160;&#160;&#160;&#160;&#160;&#160;&#160;&#160;&#160;&#160;&#160;&#160;&#160;&#160;&#160;&#160;&#160;&#160;&#160;&#160;&#160;&#160;&#160;</text>
<polygon fill="none" stroke="#99ccff" points="988.041,-68.5 988.041,-85.5 1079.041,-85.5 1079.041,-68.5 988.041,-68.5"/>
<text text-anchor="start" x="1023.6394" y="-73.7" font-family="Courier,monospace" font-size="11.00" fill="#000000">int</text>
<polygon fill="none" stroke="#99ccff" points="303.041,-51.5 303.041,-68.5 988.041,-68.5 988.041,-51.5 303.041,-51.5"/>
<text text-anchor="start" x="306.041" y="-56.7" font-family="Courier,monospace" font-size="11.00" fill="#000000"> &#160;&#160;&#160;&#160;&#160;&#160;&#160;&#160;&#160;&#160;&#160;&#160;&#160;&#160;&#160;&#160;&#160;&#160;&#160;&#160;&#160;&#160;&#160;&#160;&#160;&#160;&#160;&#160;&#160;&#160;&#160;&#160;&#160;&#160;&#160;&#160;&#160;&#160;&#160;&#160;AverageCapacity &#160;&#160;&#160;&#160;&#160;&#160;&#160;&#160;&#160;&#160;&#160;&#160;&#160;&#160;&#160;&#160;&#160;&#160;&#160;&#160;&#160;&#160;&#160;&#160;&#160;&#160;&#160;&#160;&#160;&#160;&#160;&#160;&#160;&#160;&#160;&#160;&#160;&#160;</text>
<polygon fill="none" stroke="#99ccff" points="988.041,-51.5 988.041,-68.5 1079.041,-68.5 1079.041,-51.5 988.041,-51.5"/>
<text text-anchor="start" x="1013.7378" y="-56.7" font-family="Courier,monospace" font-size="11.00" fill="#000000">double</text>
<polygon fill="none" stroke="#99ccff" points="303.041,-34.5 303.041,-51.5 988.041,-51.5 988.041,-34.5 303.041,-34.5"/>
<text text-anchor="start" x="306.041" y="-39.7" font-family="Courier,monospace" font-size="11.00" fill="#000000"> &#160;&#160;&#160;&#160;&#160;&#160;&#160;&#160;&#160;&#160;&#160;&#160;&#160;&#160;&#160;&#160;&#160;&#160;&#160;&#160;&#160;&#160;&#160;&#160;&#160;&#160;&#160;&#160;&#160;&#160;&#160;&#160;&#160;&#160;&#160;&#160;&#160;&#160;&#160;&#160;IsCurrentState &#160;&#160;&#160;&#160;&#160;&#160;&#160;&#160;&#160;&#160;&#160;&#160;&#160;&#160;&#160;&#160;&#160;&#160;&#160;&#160;&#160;&#160;&#160;&#160;&#160;&#160;&#160;&#160;&#160;&#160;&#160;&#160;&#160;&#160;&#160;&#160;&#160;&#160;</text>
<polygon fill="none" stroke="#99ccff" points="988.041,-34.5 988.041,-51.5 1079.041,-51.5 1079.041,-34.5 988.041,-34.5"/>
<text text-anchor="start" x="1010.4373" y="-39.7" font-family="Courier,monospace" font-size="11.00" fill="#000000">boolean</text>
<polygon fill="none" stroke="#99ccff" points="303.041,-17.5 303.041,-34.5 988.041,-34.5 988.041,-17.5 303.041,-17.5"/>
<text text-anchor="start" x="306.041" y="-22.7" font-family="Courier,monospace" font-size="11.00" fill="#000000"> &#160;&#160;&#160;&#160;&#160;&#160;&#160;&#160;&#160;&#160;&#160;&#160;&#160;&#160;&#160;&#160;&#160;&#160;&#160;&#160;&#160;&#160;&#160;&#160;&#160;&#160;&#160;&#160;&#160;&#160;&#160;&#160;&#160;&#160;&#160;&#160;&#160;&#160;&#160;&#160;StatusDuration &#160;&#160;&#160;&#160;&#160;&#160;&#160;&#160;&#160;&#160;&#160;&#160;&#160;&#160;&#160;&#160;&#160;&#160;&#160;&#160;&#160;&#160;&#160;&#160;&#160;&#160;&#160;&#160;&#160;&#160;&#160;&#160;&#160;&#160;&#160;&#160;&#160;&#160;</text>
<polygon fill="none" stroke="#99ccff" points="988.041,-17.5 988.041,-34.5 1079.041,-34.5 1079.041,-17.5 988.041,-17.5"/>
<text text-anchor="start" x="1023.6394" y="-22.7" font-family="Courier,monospace" font-size="11.00" fill="#000000">int</text>
<polygon fill="none" stroke="#99ccff" points="302.041,-17 302.041,-308 1080.041,-308 1080.041,-17 302.041,-17"/>
</a>
</g>
</g>
<!-- Group -->
<g id="node2" class="node">
<title>Group</title>
<text text-anchor="middle" x="77.3113" y="-283.2" font-family="Courier,monospace" font-size="11.00" fill="#000000">Group</text>
</g>
<!-- UserServicePresence&#45;&gt;Group -->
<g id="edge1" class="edge">
<title>UserServicePresence:w&#45;&gt;Group:e</title>
<path fill="none" stroke="#ff99cc" d="M289.026,-268.4978C287.8725,-268.8805 286.5737,-269.227 285.041,-269.5 220.9181,-280.9235 144.2696,-284.6873 104.411,-285.9152"/>
<polygon fill="#ff99cc" stroke="#ff99cc" points="295.3479,-266.6945 304.0286,-267.9619 299.1945,-265.5973 303.041,-264.5 303.041,-264.5 303.041,-264.5 299.1945,-265.5973 302.0535,-261.0381 295.3479,-266.6945 295.3479,-266.6945"/>
<ellipse fill="none" stroke="#ff99cc" cx="292.2706" cy="-267.5723" rx="3.2" ry="3.2"/>
<text text-anchor="middle" x="228.3318" y="-287.3015" font-family="Monaco" font-size="9.00" fill="#000000">Owner</text>
</g>
<!-- User -->
<g id="node3" class="node">
<title>User</title>
<text text-anchor="middle" x="77.3113" y="-223.2" font-family="Courier,monospace" font-size="11.00" fill="#000000">User</text>
</g>
<!-- UserServicePresence&#45;&gt;User -->
<g id="edge2" class="edge">
<title>UserServicePresence:w&#45;&gt;User:e</title>
<path fill="none" stroke="#ff99cc" d="M289.3073,-259.908C288.0892,-259.388 286.7059,-258.9013 285.041,-258.4985 267.7953,-254.327 156.8443,-238.0233 104.5311,-230.4306"/>
<polygon fill="#ff99cc" stroke="#ff99cc" points="295.4539,-261.9631 301.8994,-267.9142 299.2474,-263.2316 303.041,-264.5 303.041,-264.5 303.041,-264.5 299.2474,-263.2316 304.1826,-261.0858 295.4539,-261.9631 295.4539,-261.9631"/>
<ellipse fill="none" stroke="#ff99cc" cx="292.419" cy="-260.9484" rx="3.2" ry="3.2"/>
<text text-anchor="middle" x="228.3318" y="-262.3015" font-family="Monaco" font-size="9.00" fill="#000000">Owner</text>
</g>
<!-- UserServicePresence&#45;&gt;User -->
<g id="edge3" class="edge">
<title>UserServicePresence:w&#45;&gt;User:e</title>
<path fill="none" stroke="#ff99cc" d="M288.5789,-213.5851C220.1716,-214.3697 143.9127,-220.3946 104.3846,-223.9316"/>
<polygon fill="#ff99cc" stroke="#ff99cc" points="295.0412,-213.5471 303.0622,-217.0999 299.0411,-213.5236 303.041,-213.5 303.041,-213.5 303.041,-213.5 299.0411,-213.5236 303.0198,-209.9001 295.0412,-213.5471 295.0412,-213.5471"/>
<ellipse fill="none" stroke="#ff99cc" cx="291.8412" cy="-213.566" rx="3.2" ry="3.2"/>
<text text-anchor="middle" x="228.3318" y="-222.3015" font-family="Monaco" font-size="9.00" fill="#000000">LastModifiedBy</text>
</g>
<!-- UserServicePresence&#45;&gt;User -->
<g id="edge4" class="edge">
<title>UserServicePresence:w&#45;&gt;User:e</title>
<path fill="none" stroke="#ff99cc" d="M288.5806,-196.3568C241.6153,-195.4186 224.2898,-190.4357 171.6226,-198.4985 148.4925,-202.0395 123.1088,-209.8099 104.5079,-216.2689"/>
<polygon fill="#ff99cc" stroke="#ff99cc" points="295.0414,-196.4207 303.0053,-200.0998 299.0412,-196.4603 303.041,-196.5 303.041,-196.5 303.041,-196.5 299.0412,-196.4603 303.0767,-192.9002 295.0414,-196.4207 295.0414,-196.4207"/>
<ellipse fill="none" stroke="#ff99cc" cx="291.8416" cy="-196.389" rx="3.2" ry="3.2"/>
<text text-anchor="middle" x="228.3318" y="-202.3015" font-family="Monaco" font-size="9.00" fill="#000000">User</text>
</g>
<!-- ServicePresenceStatus -->
<g id="node4" class="node">
<title>ServicePresenceStatus</title>
<text text-anchor="middle" x="77.3113" y="-163.2" font-family="Courier,monospace" font-size="11.00" fill="#000000">ServicePresenceStatus</text>
</g>
<!-- UserServicePresence&#45;&gt;ServicePresenceStatus -->
<g id="edge5" class="edge">
<title>UserServicePresence:w&#45;&gt;ServicePresenceStatus:e</title>
<path fill="none" stroke="#ff99cc" d="M290.8411,-171.7457C289.3671,-170.4131 287.5759,-169.225 285.041,-168.4985 243.0902,-156.4756 194.3884,-155.3716 154.6893,-157.5507"/>
<polygon fill="#ff99cc" stroke="#ff99cc" points="296.2894,-175.2086 301.1099,-182.5382 299.6652,-177.3543 303.041,-179.5 303.041,-179.5 303.041,-179.5 299.6652,-177.3543 304.9721,-176.4618 296.2894,-175.2086 296.2894,-175.2086"/>
<ellipse fill="none" stroke="#ff99cc" cx="293.5887" cy="-173.4921" rx="3.2" ry="3.2"/>
<text text-anchor="middle" x="228.3318" y="-172.3015" font-family="Monaco" font-size="9.00" fill="#000000">ServicePresenceStatus</text>
</g>
</g>
</svg>
